<svg width="350" height="296" viewBox="0 0 350 296" fill="none" xmlns="http://www.w3.org/2000/svg">
<path d="M323.907 143.099C317.797 142.227 311.608 141.989 305.816 141.435C301.293 141.039 288.439 140.563 289.311 133.275C289.47 131.928 290.184 130.66 290.978 129.472C295.818 122.183 325.335 105.388 318.829 94.376C316.369 90.1771 306.927 90.8109 294.866 95.1682C296.691 92.237 297.326 89.781 296.373 88.1173C293.517 83.2055 278.123 86.8498 262.016 96.3566C259.794 97.7034 257.652 99.0502 255.589 100.397C246.464 104.992 235.434 108.636 232.975 101.348C229.087 90.0187 269.554 59.6761 280.187 51.8329C281.059 51.1991 281.853 50.6446 282.726 50.0108C300.5 36.8596 308.99 24.4215 304.388 13.964C293.834 -10.4368 215.836 -2.98983 133.711 37.335C44.9206 80.9872 -9.43261 122.263 1.35868 144.921C4.45324 151.496 16.5141 149.753 22.0684 149.12C31.3521 148.09 40.3977 145.713 49.4434 143.415C57.2988 141.356 68.0901 136.919 76.2629 139.137C93.5607 143.891 74.1999 162.984 67.9314 168.846C58.4097 177.719 36.5097 195.386 45.3967 210.439C49.2053 216.856 59.1238 218.836 72.0575 216.856C72.851 216.697 73.6444 216.618 74.4379 216.46C80.4683 215.588 96.0205 214.321 98.5596 224.144C102.13 237.533 89.752 247.911 85.7846 259.399C85.3085 260.666 84.9912 262.092 85.2292 263.439C87.3716 274.768 119.825 260.666 124.982 258.29C174.892 234.839 181.716 217.41 306.689 184.77C327.16 179.383 341.205 178.749 348.505 165.915C352.076 159.577 348.822 153.318 343.268 149.674C337.555 145.792 330.81 144.049 323.907 143.099Z" fill="#A9CCFF"/>
<path d="M93.5607 114.103L91.2596 112.043C88.7205 109.745 87.1335 106.26 86.8955 102.615L86.2607 90.4148C86.0227 85.7406 83.9596 81.3833 80.627 78.5312C78.7227 76.9468 76.6596 75.9169 74.4379 75.3623V64.7463C74.4379 64.1918 74.0412 63.7957 73.4857 63.7957H68.5662C68.0107 63.7957 67.614 64.1918 67.614 64.7463V75.3623C65.4716 75.9169 63.3292 76.9468 61.4249 78.5312C58.0923 81.3833 56.0292 85.7406 55.7912 90.4148L55.1564 102.615C54.9977 106.339 53.4108 109.745 50.7923 112.043L48.4912 114.103H66.027C66.8999 116.004 68.8042 117.272 70.9466 117.272C73.1684 117.272 75.0727 116.004 75.8662 114.103H93.5607Z" fill="white"/>
<path d="M242.655 274.055C223.77 256.626 232.895 201.645 237.18 175.184L244.559 117.192C244.559 117.192 232.34 57.0617 269.395 47.3964H269.633C272.172 47.2379 272.252 51.7537 272.966 55.1603C273.204 56.0318 273.045 57.8539 273.045 58.5669C272.093 74.8078 274.235 122.342 288.756 187.543C291.216 198.476 287.883 211.548 283.678 224.224C277.885 241.336 272.728 261.3 275.425 279.205" fill="#FFBF9D"/>
<path d="M196.395 296L195.84 292.91C195.84 292.91 195.84 292.831 195.84 292.752C194.174 283.007 187.27 274.926 177.907 271.678C177.193 271.441 176.559 271.203 175.924 270.965C169.338 268.351 163.387 264.152 158.547 258.844C156.722 256.863 155.135 254.645 153.627 252.348C152.04 249.813 150.691 247.119 149.58 244.188L148.946 239.83L147.993 232.938L146.248 220.183L145.137 212.261L144.026 204.259L143.947 203.942L143.55 201.169L142.122 190.633L139.583 172.649L146.248 170.985L160.292 167.499L187.429 160.765L225.199 151.338L240.751 147.456L240.989 147.376L241.544 147.218L248.765 176.61L267.65 253.298C268.761 257.893 270.109 262.488 271.538 267.004L275.505 279.125L276.219 291.563L196.395 296Z" fill="#FFBF9D"/>
<path d="M140.693 131.136L128.553 148.565L101.416 123.293L109.43 102.853L140.693 131.136Z" fill="#E09773"/>
<path d="M236.149 274.135C235.831 274.135 235.514 273.897 235.434 273.58C235.355 273.263 227.341 240.385 231.943 207.904C232.022 207.507 232.34 207.27 232.737 207.27C233.133 207.349 233.371 207.666 233.371 208.062C228.849 240.306 236.783 272.867 236.863 273.263C236.942 273.659 236.704 274.055 236.307 274.135C236.228 274.135 236.228 274.135 236.149 274.135Z" fill="#E09773"/>
<path d="M109.986 190.237L137.996 210.439L147.835 193.96L121.809 176.214L109.986 190.237Z" fill="#E09773"/>
<path d="M242.258 254.249L141.407 259.795C135.456 260.112 130.457 255.596 130.14 249.654L118.396 37.0182C118.079 31.0764 122.602 26.0853 128.553 25.7684L229.404 20.2227C235.355 19.9058 240.354 24.4216 240.671 30.3634L252.415 243.079C252.732 248.862 248.209 253.932 242.258 254.249Z" fill="#171E38"/>
<mask id="mask0_14133_9270" style="mask-type:luminance" maskUnits="userSpaceOnUse" x="124" y="24" width="124" height="230">
<path d="M238.053 248.862L146.089 253.932C140.534 254.249 135.773 250.05 135.456 244.505L124.189 40.504C123.871 35.0376 128.156 30.2842 133.71 29.9673L225.674 24.8969C231.229 24.5801 235.99 28.7789 236.307 34.3246L247.574 238.325C247.892 243.871 243.607 248.545 238.053 248.862Z" fill="white"/>
</mask>
<g mask="url(#mask0_14133_9270)">
<path d="M238.925 14.9943L257.255 248.862C257.413 251.635 255.35 254.012 252.573 254.25L139.423 263.043C136.567 263.281 134.107 261.142 133.948 258.369L115.54 24.5803C115.381 23.0751 116.016 21.649 116.968 20.6191C117.841 19.7477 118.952 19.1931 120.221 19.0347L144.184 17.1333C147.517 16.8956 150.611 18.7178 151.881 21.8075C152.516 23.3127 153.627 24.5803 154.975 25.3726C156.324 26.1648 157.911 26.5609 159.578 26.4817L195.443 23.7089C198.775 23.4712 201.553 21.0945 202.346 17.9255C202.743 16.3411 203.695 14.915 204.885 13.9644C206.075 12.9344 207.583 12.3007 209.249 12.1422L233.292 10.2408C235.355 10.0824 237.259 11.1915 238.211 12.9344C238.687 13.5682 238.846 14.202 238.925 14.9943Z" fill="#E8E8E8"/>
<path d="M206.075 86.0576L172.035 121.233L216.708 156.091L246.543 112.598L247.098 119.886L220.199 159.102C230.038 169.163 243.051 182.473 252.811 192.138L253.367 199.11C246.622 192.534 235.752 181.681 218.374 163.776L205.837 205.685L256.858 244.188L257.255 248.783C257.017 248.862 256.779 248.941 256.541 248.941C255.985 249.021 255.43 248.862 254.954 248.466L204.409 210.359L200.759 222.639L206.869 257.735L202.267 258.131L196.792 226.6L148.707 262.251L140.138 262.885L196.474 221.134L214.645 160.211L168.861 124.56L126.807 168.054L126.331 161.954L200.997 84.79L116.968 20.6189C117.841 19.7474 118.952 19.1929 120.221 19.0344L122.205 18.876L204.092 81.3834L226.388 58.1709L238.211 12.855C238.529 13.4888 238.767 14.1226 238.767 14.9148L239.64 25.61L230.753 59.993C230.673 60.3892 230.435 60.706 230.197 61.0229L206.075 86.0576Z" fill="white"/>
<path d="M182.271 83.5227L150.056 119.332L122.443 112.122L116.095 31.3936L182.271 83.5227Z" fill="#A49FBC"/>
<path d="M143.232 126.699L124.982 144.445L123.157 121.708L143.232 126.699Z" fill="#A49FBC"/>
<path d="M191.793 24.0255L173.464 45.1782L135.853 17.9253L144.264 17.2915C147.596 17.0538 150.691 18.8759 151.96 21.9657C152.595 23.4709 153.706 24.7385 155.055 25.5307C156.404 26.323 157.991 26.7191 159.657 26.6399L191.793 24.0255Z" fill="#A49FBC"/>
<path d="M233.371 10.2407L218.295 47.9512L199.569 64.192L179.335 46.6044L210.202 12.0629L233.371 10.2407Z" fill="white"/>
<path d="M203.457 95.4854L178.78 121.075L214.725 149.041L230.515 124.798L203.457 95.4854Z" fill="#A49FBC"/>
<path d="M241.385 46.2876L246.066 105.785L233.609 120.362L207.583 92.7919L238.608 61.1024L241.385 46.2876Z" fill="#A49FBC"/>
<path d="M253.843 205.527L256.382 238.563L214.724 205.289L223.294 177.64L253.843 205.527Z" fill="white"/>
</g>
<mask id="mask1_14133_9270" style="mask-type:luminance" maskUnits="userSpaceOnUse" x="124" y="24" width="124" height="230">
<path d="M238.053 248.862L146.089 253.932C140.534 254.249 135.773 250.05 135.456 244.505L124.189 40.504C123.871 35.0376 128.156 30.2842 133.71 29.9673L225.674 24.8969C231.229 24.5801 235.99 28.7789 236.307 34.3246L247.574 238.325C247.892 243.871 243.607 248.545 238.053 248.862Z" fill="white"/>
</mask>
<g mask="url(#mask1_14133_9270)">
<path d="M144.184 146.585L207.504 190.712L209.567 185.404L147.358 142.227L144.184 146.585Z" fill="white"/>
</g>
<mask id="mask2_14133_9270" style="mask-type:luminance" maskUnits="userSpaceOnUse" x="124" y="24" width="124" height="230">
<path d="M238.053 248.862L146.089 253.932C140.534 254.249 135.773 250.05 135.456 244.505L124.189 40.504C123.871 35.0376 128.156 30.2842 133.71 29.9673L225.674 24.8969C231.229 24.5801 235.99 28.7789 236.307 34.3246L247.574 238.325C247.892 243.871 243.607 248.545 238.053 248.862Z" fill="white"/>
</mask>
<g mask="url(#mask2_14133_9270)">
<path d="M196.95 145.238L130.695 214.875L133.631 221.53L201.949 147.931L196.95 145.238Z" fill="white"/>
</g>
<mask id="mask3_14133_9270" style="mask-type:luminance" maskUnits="userSpaceOnUse" x="124" y="24" width="124" height="230">
<path d="M238.053 248.862L146.089 253.932C140.534 254.249 135.773 250.05 135.456 244.505L124.189 40.504C123.871 35.0376 128.156 30.2842 133.71 29.9673L225.674 24.8969C231.229 24.5801 235.99 28.7789 236.307 34.3246L247.574 238.325C247.892 243.871 243.607 248.545 238.053 248.862Z" fill="white"/>
</mask>
<g mask="url(#mask3_14133_9270)">
<path opacity="0.43" d="M179.494 163.301C176.876 163.301 174.733 165.44 174.733 168.054C174.733 170.669 176.876 172.808 179.494 172.808C182.112 172.808 184.255 170.669 184.255 168.054C184.255 165.44 182.112 163.301 179.494 163.301ZM179.494 171.857C177.352 171.857 175.606 170.114 175.606 167.975C175.606 165.836 177.352 164.093 179.494 164.093C181.636 164.093 183.382 165.836 183.382 167.975C183.382 170.114 181.636 171.857 179.494 171.857Z" fill="#5D489B"/>
</g>
<mask id="mask4_14133_9270" style="mask-type:luminance" maskUnits="userSpaceOnUse" x="124" y="24" width="124" height="230">
<path d="M238.053 248.862L146.089 253.932C140.534 254.249 135.773 250.05 135.456 244.505L124.189 40.504C123.871 35.0376 128.156 30.2842 133.71 29.9673L225.674 24.8969C231.229 24.5801 235.99 28.7789 236.307 34.3246L247.574 238.325C247.892 243.871 243.607 248.545 238.053 248.862Z" fill="white"/>
</mask>
<g mask="url(#mask4_14133_9270)">
<path d="M179.494 160.132C175.13 160.132 171.559 163.697 171.559 168.054C171.559 172.411 175.13 175.977 179.494 175.977C183.858 175.977 187.429 172.411 187.429 168.054C187.429 163.697 183.938 160.132 179.494 160.132ZM179.494 175.422C175.447 175.422 172.115 172.095 172.115 168.054C172.115 164.014 175.447 160.686 179.494 160.686C183.541 160.686 186.873 164.014 186.873 168.054C186.873 172.095 183.541 175.422 179.494 175.422Z" fill="#5D489B"/>
</g>
<mask id="mask5_14133_9270" style="mask-type:luminance" maskUnits="userSpaceOnUse" x="124" y="24" width="124" height="230">
<path d="M238.053 248.862L146.089 253.932C140.534 254.249 135.773 250.05 135.456 244.505L124.189 40.504C123.871 35.0376 128.156 30.2842 133.71 29.9673L225.674 24.8969C231.229 24.5801 235.99 28.7789 236.307 34.3246L247.574 238.325C247.892 243.871 243.607 248.545 238.053 248.862Z" fill="white"/>
</mask>
<g mask="url(#mask5_14133_9270)">
<path opacity="0.22" d="M179.494 161.558C175.923 161.558 172.988 164.41 172.988 168.054C172.988 171.619 175.923 174.55 179.494 174.55C183.065 174.55 186.001 171.698 186.001 168.054C186.001 164.489 183.065 161.558 179.494 161.558Z" fill="#5D489B"/>
</g>
<mask id="mask6_14133_9270" style="mask-type:luminance" maskUnits="userSpaceOnUse" x="124" y="24" width="124" height="230">
<path d="M238.053 248.862L146.089 253.932C140.534 254.249 135.773 250.05 135.456 244.505L124.189 40.504C123.871 35.0376 128.156 30.2842 133.71 29.9673L225.674 24.8969C231.229 24.5801 235.99 28.7789 236.307 34.3246L247.574 238.325C247.892 243.871 243.607 248.545 238.053 248.862Z" fill="white"/>
</mask>
<g mask="url(#mask6_14133_9270)">
<path d="M179.494 170.272C180.721 170.272 181.716 169.279 181.716 168.054C181.716 166.829 180.721 165.836 179.494 165.836C178.267 165.836 177.272 166.829 177.272 168.054C177.272 169.279 178.267 170.272 179.494 170.272Z" fill="#5D489B"/>
</g>
<mask id="mask7_14133_9270" style="mask-type:luminance" maskUnits="userSpaceOnUse" x="124" y="24" width="124" height="230">
<path d="M238.053 248.862L146.089 253.932C140.534 254.249 135.773 250.05 135.456 244.505L124.189 40.504C123.871 35.0376 128.156 30.2842 133.71 29.9673L225.674 24.8969C231.229 24.5801 235.99 28.7789 236.307 34.3246L247.574 238.325C247.892 243.871 243.607 248.545 238.053 248.862Z" fill="white"/>
</mask>
<g mask="url(#mask7_14133_9270)">
<path d="M248.526 192.138C248.288 192.138 248.13 192.059 247.971 191.9L217.819 160.924L209.17 188.335C209.091 188.573 208.932 188.731 208.694 188.811C208.456 188.89 208.218 188.89 207.98 188.731L179.018 168.688C178.621 168.45 178.542 167.975 178.859 167.579C179.097 167.183 179.573 167.103 179.97 167.42L207.98 186.909L216.708 159.26C216.787 159.023 217.025 158.785 217.263 158.706C217.581 158.627 217.819 158.706 217.978 158.943L249.003 190.871C249.32 191.187 249.32 191.663 249.003 191.98C248.923 192.059 248.765 192.138 248.526 192.138Z" fill="#5D489B"/>
</g>
<mask id="mask8_14133_9270" style="mask-type:luminance" maskUnits="userSpaceOnUse" x="124" y="24" width="124" height="230">
<path d="M238.053 248.862L146.089 253.932C140.534 254.249 135.773 250.05 135.456 244.505L124.189 40.504C123.871 35.0376 128.156 30.2842 133.71 29.9673L225.674 24.8969C231.229 24.5801 235.99 28.7789 236.307 34.3246L247.574 238.325C247.892 243.871 243.607 248.545 238.053 248.862Z" fill="white"/>
</mask>
<g mask="url(#mask8_14133_9270)">
<path d="M143.47 219.549L180.208 180.968L197.188 192.93L192.983 215.43L159.101 240.781L143.47 219.549Z" fill="#A49FBC"/>
</g>
<mask id="mask9_14133_9270" style="mask-type:luminance" maskUnits="userSpaceOnUse" x="124" y="24" width="124" height="230">
<path d="M238.053 248.862L146.089 253.932C140.534 254.249 135.773 250.05 135.456 244.505L124.189 40.504C123.871 35.0376 128.156 30.2842 133.71 29.9673L225.674 24.8969C231.229 24.5801 235.99 28.7789 236.307 34.3246L247.574 238.325C247.892 243.871 243.607 248.545 238.053 248.862Z" fill="white"/>
</mask>
<g mask="url(#mask9_14133_9270)">
<path d="M146.644 181.443C151.99 181.443 156.324 177.116 156.324 171.778C156.324 166.44 151.99 162.112 146.644 162.112C141.298 162.112 136.964 166.44 136.964 171.778C136.964 177.116 141.298 181.443 146.644 181.443Z" fill="#A49FBC"/>
</g>
<mask id="mask10_14133_9270" style="mask-type:luminance" maskUnits="userSpaceOnUse" x="124" y="24" width="124" height="230">
<path d="M238.053 248.862L146.089 253.932C140.534 254.249 135.773 250.05 135.456 244.505L124.189 40.504C123.871 35.0376 128.156 30.2842 133.71 29.9673L225.674 24.8969C231.229 24.5801 235.99 28.7789 236.307 34.3246L247.574 238.325C247.892 243.871 243.607 248.545 238.053 248.862Z" fill="white"/>
</mask>
<g mask="url(#mask10_14133_9270)">
<path d="M193.141 165.677L200.124 157.438L205.52 161.478L203.219 173.52L193.141 165.677Z" fill="white"/>
</g>
<path opacity="0.46" d="M124.824 153.873H247.496L244.56 100.714H121.888L124.824 153.873Z" fill="#0E0813"/>
<path d="M138.948 155.616C136.885 152.368 131.806 150.466 126.887 155.378L112.128 171.381C107.209 176.768 102.289 184.295 109.034 189.761L118.555 196.416L135.853 174.471C143.312 163.38 138.948 155.616 138.948 155.616Z" fill="#FFBF9D"/>
<path d="M111.652 132.007L106.336 128.601C97.7661 123.134 95.3063 111.726 100.781 103.17L113.001 84.077C114.905 80.2743 120.063 79.4028 123.078 82.4133C128.632 87.8798 130.061 96.2775 126.49 103.249L111.652 132.007Z" fill="#FFBF9D"/>
<path d="M251.145 148.486H112.049C108.081 148.486 104.907 145.317 104.907 141.356V106.26C104.907 102.298 108.081 99.1294 112.049 99.1294H251.145C255.112 99.1294 258.286 102.298 258.286 106.26V141.356C258.286 145.317 255.112 148.486 251.145 148.486Z" fill="#5D489B"/>
<path d="M169.497 119.886C169.497 119.965 169.497 120.124 169.576 120.282C170.687 121.391 170.29 122.738 170.052 124.006C169.894 124.798 169.656 125.669 169.418 126.462C169.338 126.699 169.1 126.937 168.862 127.016C167.751 127.412 166.641 127.729 165.371 128.125C165.212 127.333 165.212 126.699 165.054 126.066C164.339 122.421 161.959 120.995 158.388 121.471C155.452 121.867 153.389 124.877 153.866 128.046C154.024 128.997 154.024 128.997 153.072 128.997C147.518 128.997 141.963 128.997 136.409 128.997C133.87 128.997 131.331 129.155 128.792 129.314C128.157 129.314 127.998 129.155 127.998 128.521C127.919 127.492 127.839 126.462 127.522 125.432C126.649 122.421 124.428 121.074 121.254 121.391C118.794 121.629 116.969 123.768 116.731 126.699C116.651 127.571 116.731 128.363 116.731 129.393C115.382 129.234 114.033 129.076 112.684 128.838C112.287 128.759 112.049 128.363 112.525 128.046C113.16 127.65 112.922 127.175 112.684 126.779C112.129 125.511 112.367 124.243 112.446 122.976C112.446 122.738 112.763 122.58 113.001 122.421C115.62 120.678 118.556 119.728 121.65 119.252C124.428 118.856 127.205 118.539 129.903 118.143C130.379 118.064 130.855 117.905 131.489 117.826C131.251 118.539 131.728 118.698 132.204 118.539C132.759 118.46 133.235 118.222 133.711 117.985C136.012 116.876 138.234 115.766 140.535 114.657C140.456 114.578 140.297 114.42 140.138 114.261L140.218 114.182C143.947 113.073 147.756 113.152 151.485 113.944C155.532 114.737 159.499 115.608 163.546 116.321C164.895 116.559 166.323 116.4 167.751 116.479C168.069 116.479 168.386 116.4 168.624 116.559C168.783 116.638 169.021 117.034 168.942 117.192C168.704 117.905 168.465 118.539 167.593 118.698C167.355 118.698 167.196 118.777 167.037 118.935C166.799 119.094 166.402 119.332 166.402 119.49C166.402 119.728 166.72 120.203 166.958 120.203C167.593 120.361 168.307 120.361 169.021 120.282C169.338 120.361 169.418 120.045 169.497 119.886ZM139.821 118.46C142.201 118.381 144.502 118.143 146.724 118.143C148.073 118.143 149.025 117.747 149.422 116.4C149.422 116.242 149.501 116.163 149.581 116.083C150.057 115.212 149.898 114.895 148.946 114.816C147.438 114.737 145.931 114.657 144.423 114.816C141.011 115.133 137.996 116.559 135.06 118.222C134.743 118.381 134.425 118.618 134.108 118.856C134.267 118.935 134.346 118.935 134.425 118.935C134.981 118.935 135.536 118.935 136.171 118.935C136.885 118.856 137.361 118.618 137.52 117.826C137.599 117.272 138.948 116.717 139.504 116.955C140.138 117.192 140.059 117.747 139.821 118.46ZM132.283 125.273C132.283 125.352 132.283 125.432 132.283 125.59C132.521 125.59 132.68 125.669 132.918 125.669C137.52 125.669 142.122 125.669 146.724 125.669C146.962 125.669 147.121 125.59 147.359 125.511C147.359 125.432 147.359 125.352 147.28 125.273C142.281 125.273 137.282 125.273 132.283 125.273ZM151.168 117.589C153.548 117.905 155.532 117.192 155.691 115.925C154.5 115.687 153.31 115.45 152.041 115.133C151.723 116.004 151.406 116.717 151.168 117.589ZM116.731 121.391C115.303 121.629 114.033 122.104 112.922 123.134C114.509 123.134 115.779 122.5 116.731 121.391ZM146.327 119.728C146.327 119.886 146.327 120.045 146.327 120.203C147.121 120.203 147.914 120.203 148.708 120.203C148.787 120.203 148.867 120.045 148.867 119.965C148.867 119.886 148.787 119.728 148.708 119.728C147.835 119.728 147.121 119.728 146.327 119.728Z" fill="#291D5B"/>
<path d="M122.364 131.69C119.587 131.69 117.445 129.472 117.365 126.858C117.365 124.164 119.666 121.946 122.364 121.946C125.141 121.946 127.284 124.164 127.284 126.937C127.363 129.551 125.141 131.69 122.364 131.69ZM123.396 127.016C123.396 127.095 123.316 127.175 123.316 127.254C123.792 127.65 124.268 128.046 124.903 128.521C125.141 127.967 125.3 127.491 125.459 126.858C124.665 126.937 124.03 127.016 123.396 127.016ZM119.904 128.521C120.539 128.046 121.015 127.571 121.491 127.175C121.491 127.095 121.412 127.016 121.412 127.016C120.777 126.937 120.142 126.937 119.428 126.858C119.587 127.491 119.746 127.888 119.904 128.521ZM122.523 127.808C122.443 127.808 122.364 127.808 122.285 127.808C122.047 128.363 121.888 128.917 121.571 129.63C122.126 129.63 122.602 129.63 123.237 129.63C122.999 128.917 122.761 128.363 122.523 127.808ZM122.92 126.224C123.634 125.749 124.189 125.432 124.824 125.036C124.348 124.719 123.951 124.402 123.396 124.085C123.237 124.798 123.078 125.352 122.92 126.224ZM121.491 124.006C121.015 124.323 120.539 124.639 120.063 124.956C120.698 125.352 121.253 125.669 122.047 126.145C121.809 125.432 121.65 124.798 121.491 124.006Z" fill="#291D5B"/>
<path d="M154.738 126.778C154.738 124.085 156.88 121.946 159.657 121.946C162.355 121.946 164.656 124.085 164.656 126.778C164.656 129.472 162.514 131.69 159.657 131.69C156.88 131.69 154.738 129.551 154.738 126.778ZM160.61 127.016C160.61 127.095 160.53 127.175 160.53 127.254C161.006 127.65 161.482 128.046 162.117 128.521C162.276 127.967 162.435 127.491 162.673 126.858C161.879 126.937 161.244 127.016 160.61 127.016ZM156.642 126.858C156.801 127.412 156.96 127.888 157.198 128.521C157.832 127.967 158.308 127.571 158.785 127.175C158.785 127.095 158.705 127.095 158.705 127.016C158.07 126.937 157.436 126.937 156.642 126.858ZM160.61 124.006C160.451 124.798 160.292 125.432 160.213 125.986C160.292 125.986 160.371 126.065 160.371 126.065C160.848 125.749 161.403 125.432 162.038 125.036C161.562 124.719 161.165 124.402 160.61 124.006ZM157.277 125.036C157.991 125.432 158.467 125.749 159.261 126.224C159.023 125.352 158.864 124.798 158.705 124.085C158.229 124.402 157.832 124.639 157.277 125.036ZM158.864 129.551C159.499 129.551 159.895 129.551 160.53 129.551C160.213 128.838 160.054 128.284 159.816 127.729C159.737 127.729 159.657 127.729 159.578 127.729C159.34 128.363 159.102 128.917 158.864 129.551Z" fill="#291D5B"/>
<path d="M244.798 118.302H179.574C178.384 118.302 177.511 117.351 177.511 116.242V113.707C177.511 112.518 178.463 111.647 179.574 111.647H244.798C245.988 111.647 246.861 112.598 246.861 113.707V116.242C246.861 117.43 245.908 118.302 244.798 118.302Z" fill="white"/>
<path d="M242.258 126.382H178.859C177.987 126.382 177.272 125.669 177.272 124.798C177.272 123.926 177.987 123.213 178.859 123.213H242.258C243.131 123.213 243.845 123.926 243.845 124.798C243.845 125.669 243.131 126.382 242.258 126.382Z" fill="#291D5B"/>
<path d="M223.532 132.879H178.859C177.987 132.879 177.272 132.166 177.272 131.294C177.272 130.423 177.987 129.71 178.859 129.71H223.532C224.405 129.71 225.119 130.423 225.119 131.294C225.119 132.166 224.405 132.879 223.532 132.879Z" fill="#291D5B"/>
<path d="M148.945 193.643C146.882 190.395 141.804 188.494 136.884 193.405L122.126 209.409C117.206 214.796 112.287 222.322 119.031 227.788L128.553 234.443L145.851 212.498C153.389 201.407 148.945 193.643 148.945 193.643Z" fill="#FFBF9D"/>
</svg>
