<svg width="88" height="52" viewBox="0 0 88 52" fill="none" xmlns="http://www.w3.org/2000/svg">
<path opacity="0.54" d="M6.19328 26.8232L0.449967 29.9833C-0.188179 30.3285 -0.135 31.258 0.529735 31.5501C6.8846 34.2322 29.459 43.7124 30.3631 44.1904C31.4266 44.7215 24.54 44.9605 26.1885 45.5447C27.8371 46.1289 33.5538 45.4916 33.5538 45.4916C33.5538 45.4916 44.0832 50.962 46.6092 51.7852C49.1352 52.6084 63.3871 50.723 71.8425 47.377C80.2714 44.031 78.2506 41.3755 77.3731 41.0303C76.4957 40.6851 72.135 39.1449 72.135 39.1449L6.19328 26.8232Z" fill="#453A52"/>
<path d="M64.9825 16.2282C64.9825 16.2282 64.6368 14.5552 66.4449 13.5992C68.253 12.6698 70.1143 12.8822 70.1143 12.8822C70.1143 12.8822 71.364 15.1394 64.9825 16.2282Z" fill="#5D489B"/>
<path d="M43.897 51.1487C43.897 51.1487 46.8751 51.5204 50.8369 50.4848C54.7987 49.4491 54.3467 44.7489 54.3467 44.7489L46.2901 31.8165L40.6531 30.9136L37.8612 35.4811L36.8774 42.7572L39.7491 43.4742L43.897 51.1487Z" fill="#1A2E35"/>
<path d="M8.74583 33.9407C8.74583 33.9407 11.6707 34.578 15.2336 33.6221C18.7966 32.6661 18.3978 28.4703 18.3978 28.4703L11.1389 16.8391L6.0603 16.0425L4.57129 19.6009L8.74583 33.9407Z" fill="#1A2E35"/>
<path d="M4.30547 26.213C3.90663 21.0347 5.50199 13.0416 9.88924 17.7684C14.2765 22.4952 14.4892 32.5331 14.4892 32.5331L37.1168 42.8897C37.1168 42.8897 36.9041 40.7918 38.0208 36.9147C39.1376 33.0377 41.9295 28.3905 47.2739 35.0824C51.0496 39.8093 51.3421 47.6962 51.3421 47.6962C61.127 49.1036 81.7072 45.2796 85.2702 39.3844C88.8332 33.4891 87.876 27.9125 87.876 27.9125C83.9939 21.5658 68.3062 14.7942 68.3062 14.7942C55.756 1.43693 43.6578 0.0295 43.6578 0.0295C32.2243 -0.129832 16.2441 5.02189 16.2441 5.02189L8.61295 7.14631C4.70431 8.23507 1.99219 11.7935 1.99219 15.8564V23.4778C1.99219 24.301 2.41762 25.0445 3.10894 25.496L4.30547 26.213Z" fill="#E3E4E3"/>
<path d="M8.87891 9.72222C8.87891 9.72222 19.2488 17.9278 32.9157 21.9642C32.9157 21.9642 36.9573 13.3868 26.2684 8.10234C15.5794 2.81785 8.87891 9.72222 8.87891 9.72222Z" fill="#1A2E35"/>
<path d="M61.6854 18.0605C65.4877 16.4937 66.4449 15.5377 64.6103 12.8822C63.7328 11.581 60.9409 8.76615 57.6704 5.81852C49.7202 0.719912 43.6844 0.00292113 43.6844 0.00292113C33.0752 -0.129855 18.5308 4.30487 16.51 4.91564L18.3979 4.75631C19.5944 4.65009 20.7377 4.96875 21.9343 5.18119C26.7469 6.03096 34.1388 10.0408 34.9631 16.0157C34.9631 16.0157 35.7076 20.6363 40.2012 21.3799C44.6416 22.1765 57.8565 19.6272 61.6854 18.0605Z" fill="#1A2E35"/>
<path d="M74.1559 34.0199C67.9606 35.6664 57.6439 37.2331 51.8208 34.0199C51.8208 34.0199 52.4058 38.5609 58.9202 39.2513C64.6369 39.8355 79.6599 37.5518 87.9292 31.391C88.1153 29.2931 87.876 27.9122 87.876 27.9122C87.8229 27.806 87.7697 27.7263 87.6899 27.6201C87.1315 28.0184 86.7593 28.284 86.7593 28.284C86.7593 28.284 80.3512 32.3735 74.1559 34.0199Z" fill="white"/>
<path opacity="0.3" d="M39.563 23.3715C39.563 23.3715 49.5074 24.5665 55.8357 27.2485C62.164 29.9306 78.8355 30.7538 82.5049 28.4435C85.4829 26.5581 75.3789 20.3442 71.5766 18.1135C70.7524 17.6355 69.7686 17.609 68.9443 18.0604C65.7536 19.7865 56.3675 23.9026 39.563 23.3715Z" fill="black"/>
<path d="M2.41762 13.1474C2.41762 13.1474 3.61414 13.0943 4.35864 14.13C5.10315 15.1656 4.35864 16.6262 4.35864 16.6262L2.01878 16.0685C2.01878 16.0685 1.9656 14.4486 2.41762 13.1474Z" fill="#5D489B"/>
<path d="M51.0498 45.0137C51.0498 45.0137 68.3861 46.7929 85.9085 37.8438C85.9085 37.8438 86.3339 38.8528 83.5421 41.2959C81.6276 42.9689 69.1838 49.5546 51.2359 47.7754L51.0498 45.0137Z" fill="#5D489B"/>
<path d="M1.93907 21.8311L4.33212 23.2916L4.41189 26.2923C4.41189 26.2923 1.40728 25.655 1.93907 21.8311Z" fill="#5D489B"/>
<path d="M44.7294 51.1664C47.5557 50.7063 49.1899 46.3083 48.3795 41.3432C47.5691 36.3781 44.6209 32.7262 41.7945 33.1863C38.9682 33.6465 37.334 38.0445 38.1444 43.0096C38.9549 47.9746 41.9031 51.6266 44.7294 51.1664Z" fill="#5D489B"/>
<path d="M9.87749 34.0483C12.0951 33.6872 13.3028 29.7803 12.5751 25.3219C11.8473 20.8634 9.45969 17.5419 7.2421 17.9029C5.02452 18.264 3.81676 22.1709 4.5445 26.6293C5.27225 31.0878 7.65991 34.4093 9.87749 34.0483Z" fill="#5D489B"/>
<path d="M9.40745 31.5038C10.9003 31.2608 11.7064 28.5877 11.2078 25.5334C10.7093 22.4791 9.09491 20.2002 7.60203 20.4432C6.10915 20.6863 5.30308 23.3593 5.80163 26.4136C6.30019 29.4679 7.91456 31.7469 9.40745 31.5038Z" fill="white"/>
<path d="M43.9471 48.4422C45.8024 48.1402 46.8562 45.1377 46.3009 41.7359C45.7457 38.3342 43.7916 35.8214 41.9363 36.1235C40.0811 36.4255 39.0273 39.428 39.5825 42.8298C40.1378 46.2315 42.0919 48.7443 43.9471 48.4422Z" fill="white"/>
<path opacity="0.31" d="M26.2684 8.0759C15.606 2.7914 8.87891 9.72232 8.87891 9.72232C10.1818 9.03189 12.043 8.26178 14.0373 8.18212C14.0373 8.18212 19.1424 7.0668 21.4557 8.44767C23.5297 9.66921 21.2962 12.9886 20.791 13.6791C21.3493 12.9355 24.1678 9.24433 25.6302 9.66921C27.2256 10.1472 28.9539 13.6525 30.4429 14.396C31.9319 15.1396 32.0117 20.849 32.9157 21.9377C32.9157 21.9377 36.9573 13.3604 26.2684 8.0759Z" fill="white"/>
<path opacity="0.31" d="M32.251 2.33958C32.251 2.33958 44.2694 -1.53749 52.8578 4.72955C61.4461 10.9966 63.7594 13.9708 62.4831 15.3251C61.2068 16.6794 51.741 18.2993 45.4659 18.7507C39.1908 19.2022 62.7224 3.53457 32.251 2.33958Z" fill="white"/>
<path d="M28.3423 21.061C28.3423 21.061 29.0602 19.4942 31.081 19.7863C33.1018 20.0784 34.4844 21.3531 34.4844 21.3531C34.4844 21.3531 34.1654 23.8758 28.3423 21.061Z" fill="#5D489B"/>
<path d="M53.9214 36.1444C55.9422 36.9145 58.1225 37.1269 60.2763 37.2597C66.7641 37.4987 73.1189 35.8257 79.1813 33.6482C81.5478 32.7453 84.8715 31.3113 87.1581 30.3022C82.1593 33.1968 76.7351 35.5867 71.0716 36.8614C67.1895 37.7643 63.0681 38.136 59.1329 37.6049C57.378 37.3659 55.5433 36.9411 53.9214 36.1444Z" fill="#5D489B"/>
<path d="M51.9004 40.8447L52.0067 42.8895C52.0067 42.8895 55.5431 43.4471 58.5743 42.9426C61.6055 42.438 51.9004 40.8447 51.9004 40.8447Z" fill="#5D489B"/>
<path d="M86.6529 34.6045C86.6529 34.6045 84.2332 35.8526 83.0367 36.4102C81.8402 36.9945 83.4621 37.3397 85.1905 36.7289C86.9188 36.1447 86.6529 34.6045 86.6529 34.6045Z" fill="#5D489B"/>
<path opacity="0.3" d="M31.5862 24.9385C31.5862 24.9385 35.2821 26.4787 37.4624 28.8686C39.6428 31.2586 37.4624 33.7283 36.9572 35.773C36.9572 35.773 38.8983 30.3557 31.5862 24.9385Z" fill="black"/>
<path d="M8.67659 27.8903C9.16973 27.8123 9.43359 26.8919 9.26593 25.8344C9.09827 24.777 8.56258 23.9829 8.06943 24.0609C7.57629 24.1389 7.31243 25.0594 7.48009 26.1168C7.64775 27.1743 8.18344 27.9683 8.67659 27.8903Z" fill="#1A2E35"/>
<path d="M43.2945 43.7429C43.7877 43.6649 44.0515 42.7444 43.8839 41.687C43.7162 40.6295 43.1805 39.8355 42.6874 39.9135C42.1942 39.9915 41.9303 40.9119 42.098 41.9694C42.2657 43.0268 42.8014 43.8208 43.2945 43.7429Z" fill="#1A2E35"/>
<path d="M51.8208 34.0204L55.889 33.4893C57.5907 33.2768 59.2924 33.4627 60.8878 34.0735L65.0889 35.6668C65.1155 35.6668 56.8994 37.3663 51.8208 34.0204Z" fill="#5D489B"/>
<path d="M27.2788 22.9731V23.0262C27.2788 23.1324 27.332 23.2121 27.4383 23.2386L29.5389 24.115C29.6984 24.1946 29.8846 24.0619 29.8846 23.9025C29.8846 23.7963 29.8314 23.7166 29.7516 23.6901L27.6511 22.7606C27.4649 22.681 27.2788 22.7872 27.2788 22.9731Z" fill="#1A2E35"/>
<path d="M17.6267 18.9902V19.0433C17.6267 19.1495 17.6799 19.2292 17.7862 19.2557L19.8868 20.1321C20.0463 20.2117 20.2325 20.0789 20.2325 19.9196C20.2325 19.8134 20.1793 19.7337 20.0995 19.7072L17.999 18.7777C17.8128 18.6981 17.6267 18.8043 17.6267 18.9902Z" fill="#1A2E35"/>
<path d="M14.2764 29.8242L37.2496 39.9418C37.2496 39.9418 37.1433 41.5882 37.0901 42.8894L14.4625 32.5329L14.2764 29.8242Z" fill="#5D489B"/>
</svg>
