<svg width="86" height="61" viewBox="0 0 86 61" fill="none" xmlns="http://www.w3.org/2000/svg">
<path d="M68.7192 17.7124C68.7192 17.7124 67.7988 15.2266 65.1604 15.6759C62.522 16.1251 60.7119 18.1617 60.7119 18.1617C60.7119 18.1617 61.0801 22.2048 68.7192 17.7124Z" fill="#5D489B"/>
<path d="M9.04778 40.3841C9.04778 40.3841 12.4839 40.8034 17.0244 39.6353C21.5649 38.4673 21.0741 33.1663 21.0741 33.1663L11.8089 18.6111L5.33559 17.5928L2.11426 22.744L3.8323 31.8486L4.32317 31.7288L9.04778 40.3841Z" fill="#1A2E35"/>
<path d="M46.1698 60.0305C46.1698 60.0305 49.6059 60.4498 54.1464 59.2818C58.687 58.1138 58.1961 52.8128 58.1961 52.8128L48.931 38.2575L42.4576 37.2393L39.2363 42.3905L38.1318 50.5666L41.4759 51.6148L46.1698 60.0305Z" fill="#1A2E35"/>
<path d="M60.8652 13.2803C60.8652 13.2803 65.1603 18.7011 67.9828 20.7376C70.8053 22.8041 79.9784 28.5244 82.4941 30.8604C85.0098 33.1665 85.6541 33.496 85.7461 36.1015C85.8381 38.7071 86.0529 42.9 85.3779 44.9665C84.703 47.033 84.5189 51.136 76.4196 54.2507C71.5109 56.1076 59.73 58.0543 56.5087 57.3954L52.9499 56.6766C52.9499 56.6766 55.8644 45.9847 47.489 40.0548C39.1135 34.1249 38.1318 50.2375 38.1318 50.2375L15.7052 38.9168L13.6497 37.7487C13.6497 37.7487 16.1347 26.1584 8.06605 22.4148C8.06605 22.4148 3.95502 20.7975 3.61754 28.5244L4.07773 32.268C4.07773 32.268 2.35969 33.6757 0.856404 24.9904C-0.646883 16.3052 3.61754 8.18895 6.25597 4.77475C8.89439 1.36055 32.7015 0.521973 32.7015 0.521973L60.8652 13.2803Z" fill="#EAEAEA"/>
<path d="M47.1202 60.0243C50.3813 59.5054 52.2691 54.5585 51.3367 48.9752C50.4043 43.3919 47.0049 39.2865 43.7438 39.8054C40.4827 40.3244 38.595 45.2713 39.5273 50.8546C40.4597 56.4379 43.8592 60.5433 47.1202 60.0243Z" fill="#5D489B"/>
<path d="M9.80336 40.3943C12.1781 40.0163 13.4755 35.9514 12.7013 31.315C11.927 26.6786 9.37427 23.2264 6.99954 23.6043C4.62481 23.9822 3.32736 28.0471 4.10162 32.6836C4.87587 37.32 7.42863 40.7722 9.80336 40.3943Z" fill="#5D489B"/>
<path d="M9.27055 37.7673C10.8593 37.5145 11.7162 34.7288 11.1846 31.5454C10.653 28.3619 8.93413 25.9862 7.3454 26.239C5.75667 26.4918 4.89971 29.2775 5.43133 32.4609C5.96295 35.6444 7.68183 38.0201 9.27055 37.7673Z" fill="white"/>
<path d="M46.2181 56.952C48.3419 56.614 49.5465 53.2431 48.9086 49.423C48.2707 45.6028 46.0318 42.78 43.9079 43.118C41.784 43.456 40.5794 46.8268 41.2174 50.647C41.8553 54.4671 44.0942 57.29 46.2181 56.952Z" fill="white"/>
<path d="M8.50691 33.9834C9.04244 33.9006 9.33264 32.9461 9.15509 31.8516C8.97755 30.757 8.39948 29.9368 7.86395 30.0195C7.32842 30.1023 7.03822 31.0568 7.21577 32.1513C7.39332 33.2459 7.97138 34.0661 8.50691 33.9834Z" fill="#1A2E35"/>
<path d="M45.4737 51.7103C46.0427 51.6224 46.3472 50.5843 46.1537 49.3917C45.9603 48.1991 45.3422 47.3036 44.7732 47.3915C44.2042 47.4795 43.8997 48.5176 44.0932 49.7102C44.2866 50.9028 44.9047 51.7983 45.4737 51.7103Z" fill="#1A2E35"/>
<path d="M8.49564 4.98421C7.26847 5.2837 6.37877 6.30197 6.22537 7.49994C6.10265 8.33851 6.16401 9.41668 6.68556 10.4948C7.82069 12.8009 14.0179 18.5512 21.7184 21.6359C26.0749 23.373 30.0632 24.8405 32.7016 25.7989C34.2663 26.3679 35.8923 25.14 35.7389 23.5227C35.3707 19.839 34.3583 14.2385 31.7506 12.2019C28.1304 9.35678 14.5088 3.48675 8.49564 4.98421Z" fill="#1A2E35"/>
<path d="M9.13989 3.81594C9.13989 3.81594 16.5336 4.14538 22.6081 6.39157C28.6826 8.63775 31.6585 9.68597 34.2049 13.1002C36.782 16.5144 37.4262 21.3961 38.1012 22.8336C38.7761 24.2412 39.2363 26.3676 42.7338 26.2478C46.2312 26.128 62.9208 22.7138 63.9025 20.5874C64.8842 18.4611 63.3196 15.9453 61.9083 14.5976C60.5278 13.2499 55.7111 2.52813 33.9901 0.0423523C33.6834 0.0124032 33.3766 -0.0175432 33.0391 0.0124059C30.37 0.0723042 16.9631 0.701235 9.13989 3.81594Z" fill="#1A2E35"/>
<path d="M0.979248 25.8887L3.67903 28.3445L4.26194 32.6272C4.26194 32.6272 1.28604 32.6272 0.979248 25.8887Z" fill="#5D489B"/>
<path opacity="0.3" d="M85.8075 36.9403L84.3656 35.5027L83.9667 34.6641C82.9543 32.5677 81.2976 30.8007 79.2728 29.6027L71.3268 24.9307C71.3268 24.9307 79.3035 32.2682 78.5058 33.556C77.7081 34.8438 61.4174 41.223 54.0237 36.521C46.63 31.819 39.8499 30.2017 39.8499 30.2017C39.8499 30.2017 49.207 36.9103 50.0047 39.4859C50.0047 39.4859 53.5635 44.5174 56.7848 46.3742C60.0062 48.2311 64.5774 47.6621 64.5774 47.6621L65.0376 53.3224C65.0376 53.3224 82.2487 49.3991 84.3042 46.8834C84.703 46.3742 85.0712 45.7154 85.4087 45.0265C85.4087 44.9966 85.4087 44.9966 85.4393 44.9666C85.9916 43.1098 85.8995 39.5458 85.8075 36.9403Z" fill="black"/>
<path d="M52.9502 56.6764C52.9502 56.6764 55.8034 56.4069 57.1226 54.3404C57.7055 53.412 58.6872 52.7831 59.8224 52.6932C65.314 52.2739 79.9173 50.5369 85.5316 44.3374C85.5316 44.3374 86.1145 51.2257 76.7574 54.3704C67.4002 57.515 58.227 59.0724 52.9502 56.6764Z" fill="#5D489B"/>
<path d="M73.3212 40.1443C67.7989 41.5818 58.5644 42.9595 53.3796 40.1443C53.3796 40.1443 53.9012 44.1275 59.7303 44.6965C64.823 45.2057 78.4446 43.1691 85.8384 37.7783C86.0224 35.9514 85.6543 34.7534 85.6543 34.7534C85.5929 34.6636 85.5316 34.6336 85.4702 34.5737C84.9793 34.9032 84.6419 35.1428 84.6419 35.1428C84.6419 35.1428 78.8742 38.7067 73.3212 40.1443Z" fill="white"/>
<path d="M55.2817 42.0012C57.0918 42.6601 59.0553 42.8697 60.9574 42.9596C66.7558 43.1692 72.4315 41.7017 77.8617 39.8149C79.9786 39.0362 82.9545 37.7784 85.01 36.8799C80.5308 39.3956 75.7142 41.492 70.6521 42.6002C67.1853 43.3788 63.5038 43.7083 59.9757 43.259C58.3497 43.0494 56.7237 42.69 55.2817 42.0012Z" fill="#5D489B"/>
<path d="M53.3796 40.1443L56.693 39.6052C58.3804 39.3356 60.0984 39.5153 61.6937 40.1443L65.2525 41.5519C65.2525 41.5818 57.9202 43.0493 53.3796 40.1443Z" fill="#5D489B"/>
<path d="M83.8748 32.238C83.8441 31.7288 85.5928 33.3161 85.7155 34.4841C85.8076 35.2928 82.0647 36.5806 82.0647 36.5806C82.0647 36.5806 84.0589 34.8435 83.8748 32.238Z" fill="#5D489B"/>
<path opacity="0.31" d="M30.7075 4.80425C30.7075 4.80425 43.102 0.910864 51.9376 7.20018C60.7733 13.4895 63.1663 16.5144 61.847 17.8621C60.5278 19.2098 50.7718 20.857 44.2985 21.3062C37.8251 21.7555 62.0925 6.00222 30.7075 4.80425Z" fill="white"/>
<path opacity="0.31" d="M31.7201 12.1717C28.2227 9.41633 15.1226 3.75595 8.89469 4.86407C8.4345 5.01381 7.97431 5.16355 7.5448 5.34325C6.86985 5.76254 6.40966 6.45137 6.22559 7.23005C7.08461 7.0204 8.00499 6.87066 8.95605 6.81076C8.95605 6.81076 15.9816 5.28335 19.1416 7.17015C21.9948 8.87725 18.9268 13.4295 18.2519 14.3879C19.0189 13.3696 22.9151 8.24832 24.8786 8.8473C27.0875 9.50618 29.4498 14.3579 31.4747 15.3762C33.4381 16.3645 33.6222 23.5224 34.696 25.499C34.8494 25.4092 34.9721 25.2894 35.0948 25.1396C35.2482 24.6904 35.7698 25.2594 35.9232 24.3909C35.555 20.7671 34.2358 14.1782 31.7201 12.1717Z" fill="white"/>
</svg>
