<svg width="346" height="224" viewBox="0 0 346 224" fill="none" xmlns="http://www.w3.org/2000/svg">
<path d="M193.529 131.896C193.529 131.896 267.062 164.733 317.835 150.983C368.608 137.232 343.154 36.3942 284.503 11.9031C225.851 -12.588 21.6826 46.9979 2.96263 110.962C-15.7573 174.926 99.5253 162.818 163.294 205.096C227.063 247.373 243.965 209.679 234.403 180.057C223.427 146.262 161.342 155.977 161.342 155.977L193.529 131.896Z" fill="#A9CCFF"/>
<path d="M265.446 199.965H102.286C100.535 199.965 99.1213 198.528 99.1213 196.75V180.605H268.544V196.75C268.544 198.528 267.197 199.965 265.446 199.965Z" fill="#ECECEC"/>
<path d="M271.776 139.285V199.486C271.776 202.428 274.133 204.754 276.961 204.754H300.529C303.425 204.754 305.714 202.36 305.714 199.486V139.285C305.714 137.985 305.243 136.754 304.435 135.864C303.492 134.701 302.078 134.017 300.462 134.017H276.894C274.133 134.017 271.776 136.411 271.776 139.285Z" fill="#171E38"/>
<path d="M95.8891 139.284V199.486C95.8891 202.428 93.5323 204.754 90.7041 204.754H67.1358C64.2402 204.754 61.9507 202.359 61.9507 199.486V139.284C61.9507 137.985 62.4221 136.753 63.2302 135.864C64.1729 134.701 65.587 134.017 67.2031 134.017H90.7714C93.5323 134.017 95.8891 136.411 95.8891 139.284Z" fill="#171E38"/>
<path d="M211.576 153.788L183.833 149.615L156.089 153.788L70.0986 166.649L81.4788 191.482C82.8928 194.629 85.9904 196.613 89.3573 196.613H164.911H202.822H278.375C281.742 196.613 284.84 194.629 286.254 191.482L297.634 166.649L211.576 153.788Z" fill="#171E38"/>
<path d="M279.924 125.739V135.043H87.8085V125.739C87.8085 125.739 101.815 98.0327 124.238 78.8092C126.057 77.2358 128.009 75.7307 129.895 74.2941C129.895 74.2941 131.242 73.7468 134.676 72.9943C136.359 72.6522 138.514 72.1734 141.208 71.7629C149.49 70.4631 162.958 69.2317 183.833 69.2317C205.919 69.2317 219.724 70.6683 227.872 71.9681C235.077 73.1311 237.77 74.2941 237.77 74.2941C239.723 75.7307 241.609 77.2358 243.427 78.8092C265.85 98.0327 279.924 125.739 279.924 125.739Z" fill="#5D489B"/>
<path d="M279.924 123.55V135.043H87.8085V123.55C87.8085 123.55 101.815 89.2761 124.238 65.4691C126.326 64.8534 129.625 64.1009 134.474 63.28C144.036 61.7065 159.726 60.1331 183.9 60.1331C220.262 60.1331 237.299 63.6904 243.494 65.4007C265.85 89.2077 279.924 123.55 279.924 123.55Z" fill="#171E38"/>
<mask id="mask0_12384_436" style="mask-type:luminance" maskUnits="userSpaceOnUse" x="87" y="60" width="193" height="76">
<path d="M279.924 123.55V135.043H87.8085V123.55C87.8085 123.55 101.815 89.2761 124.238 65.4691C126.326 64.8534 129.625 64.1009 134.474 63.28C144.036 61.7065 159.726 60.1331 183.9 60.1331C220.262 60.1331 237.299 63.6904 243.494 65.4007C265.85 89.2077 279.924 123.55 279.924 123.55Z" fill="white"/>
</mask>
<g mask="url(#mask0_12384_436)">
<path d="M290.563 64.99H84.1724V145.852H290.563V64.99Z" fill="white"/>
</g>
<mask id="mask1_12384_436" style="mask-type:luminance" maskUnits="userSpaceOnUse" x="87" y="60" width="193" height="76">
<path d="M279.924 123.55V135.043H87.8085V123.55C87.8085 123.55 101.815 89.2761 124.238 65.4691C126.326 64.8534 129.625 64.1009 134.474 63.28C144.036 61.7065 159.726 60.1331 183.9 60.1331C220.262 60.1331 237.299 63.6904 243.494 65.4007C265.85 89.2077 279.924 123.55 279.924 123.55Z" fill="white"/>
</mask>
<g mask="url(#mask1_12384_436)">
<path d="M290.563 93.1069H84.1724V145.852H290.563V93.1069Z" fill="#5D489B"/>
</g>
<mask id="mask2_12384_436" style="mask-type:luminance" maskUnits="userSpaceOnUse" x="87" y="60" width="193" height="76">
<path d="M279.924 123.55V135.043H87.8085V123.55C87.8085 123.55 101.815 89.2761 124.238 65.4691C126.326 64.8534 129.625 64.1009 134.474 63.28C144.036 61.7065 159.726 60.1331 183.9 60.1331C220.262 60.1331 237.299 63.6904 243.494 65.4007C265.85 89.2077 279.924 123.55 279.924 123.55Z" fill="white"/>
</mask>
<g mask="url(#mask2_12384_436)">
<path d="M188.075 95.2952H172.991V104.325H188.075V95.2952Z" fill="white"/>
<path d="M193.529 99.5372H167.537C164.709 99.5372 162.621 96.8691 163.227 94.0643L166.392 79.0823C166.594 78.2614 166.998 77.5089 167.537 76.9616C167.672 76.8247 167.806 76.6879 168.008 76.5511C168.682 76.0722 169.49 75.7986 170.365 75.7986H190.701C191.577 75.7986 192.385 76.0722 193.058 76.5511C193.193 76.6879 193.395 76.8247 193.529 76.9616C194.135 77.5089 194.539 78.2614 194.674 79.0823L197.839 94.0643C198.445 96.9375 196.358 99.5372 193.529 99.5372Z" fill="#A9CCFF"/>
<path d="M210.768 117.187V139.762H150.231V117.187C150.231 108.088 157.503 100.7 166.459 100.7H194.539C203.495 100.7 210.768 108.088 210.768 117.187Z" fill="#A9CCFF"/>
</g>
<mask id="mask3_12384_436" style="mask-type:luminance" maskUnits="userSpaceOnUse" x="87" y="60" width="193" height="76">
<path d="M279.924 123.55V135.043H87.8085V123.55C87.8085 123.55 101.815 89.2761 124.238 65.4691C126.326 64.8534 129.625 64.1009 134.474 63.28C144.036 61.7065 159.726 60.1331 183.9 60.1331C220.262 60.1331 237.299 63.6904 243.494 65.4007C265.85 89.2077 279.924 123.55 279.924 123.55Z" fill="white"/>
</mask>
<g mask="url(#mask3_12384_436)">
<path d="M180.533 69.847C178.176 69.1629 170.567 70.6679 169.49 79.5613C168.412 88.4547 169.759 91.1912 168.412 95.5011C167.065 99.8109 163.227 107.883 166.459 111.372C169.624 114.93 189.085 114.382 189.085 114.382C189.085 114.382 191.24 90.0966 190.162 81.34C189.018 72.5834 182.823 70.5311 180.533 69.847Z" fill="#8B3B29"/>
<path d="M157.167 140.995H164.709C165.449 137.095 166.055 132.717 166.055 132.717C166.055 132.717 168.008 116.572 167.873 112.125C167.739 107.747 167.335 101.932 167.335 101.932C167.335 101.932 162.419 103.779 160.13 107.61C157.84 111.441 157.301 116.161 157.369 121.634C157.436 127.107 157.301 131.827 157.234 134.017C157.167 137.642 157.167 140.995 157.167 140.995Z" fill="#F7C4A6"/>
<path d="M204.034 140.995H196.492C195.751 137.095 195.145 132.717 195.145 132.717C195.145 132.717 193.193 116.572 193.327 112.125C193.462 107.747 193.866 101.932 193.866 101.932C193.866 101.932 198.782 103.779 201.071 107.61C203.361 111.441 203.899 116.161 203.832 121.634C203.765 127.107 203.899 131.827 203.967 134.017C204.034 137.642 204.034 140.995 204.034 140.995Z" fill="#F7C4A6"/>
<path d="M201.947 108.02C199.859 104.805 195.819 102.753 195.819 102.753C195.819 102.753 194.405 101.726 192.385 101.248C189.691 100.632 183.361 99.6057 180.6 99.6057C177.772 99.6057 171.442 100.632 168.816 101.248C166.863 101.726 165.382 102.753 165.382 102.753C165.382 102.753 161.409 104.805 159.254 108.02C158.514 109.183 156.157 112.741 156.897 115.545C157.638 118.35 164.978 120.129 164.978 120.129C164.978 120.129 165.517 127.586 165.517 131.485C165.517 135.453 164.372 140.994 164.372 140.994H179.86H196.829C196.829 140.994 195.684 135.385 195.684 131.485C195.684 127.517 196.223 120.129 196.223 120.129C196.223 120.129 203.63 118.35 204.303 115.545C204.977 112.741 202.687 109.183 201.947 108.02Z" fill="white"/>
<path d="M190.768 101.522C190.297 100.838 186.93 99.9484 185.516 99.7432L184.102 90.3025H177.099L175.685 99.7432C174.271 99.9484 170.904 100.838 170.432 101.522C169.961 102.206 171.644 105.353 173.934 106.858C175.281 107.747 178.042 109.115 180.6 109.115C183.092 109.115 185.92 107.747 187.267 106.858C189.556 105.353 191.24 102.206 190.768 101.522Z" fill="#F7C4A6"/>
<path d="M183.833 94.9542C183.092 95.2278 182.284 95.3646 181.274 95.433C179.658 95.5014 178.378 95.2962 177.368 94.8857" stroke="#D48769" stroke-width="1.149" stroke-miterlimit="10"/>
<path d="M168.143 83.0505C168.547 81.8191 169.894 81.0666 170.836 81.4086C171.24 78.5354 172.318 70.8049 180.6 70.8049C188.883 70.8049 190.028 78.5354 190.364 81.4086C191.307 81.0666 192.654 81.8191 193.058 83.0505C193.395 84.1451 193.058 85.3765 192.25 86.1974C191.644 86.8131 190.836 87.1551 189.96 87.292C189.422 89.2075 188.546 91.1914 187.132 92.6964C186.257 93.6542 183.833 95.2276 180.6 95.2276C177.301 95.2276 174.944 93.6542 174.069 92.6964C172.655 91.1914 171.779 89.2075 171.24 87.292C170.365 87.1551 169.49 86.8131 168.951 86.1974C168.143 85.3765 167.739 84.2135 168.143 83.0505Z" fill="#F7C4A6"/>
<path d="M189.826 86.9504C189.826 86.8819 190.23 83.4614 191.172 82.0932L190.432 81.5459C189.354 83.1193 188.95 86.6767 188.95 86.8135L189.826 86.9504Z" fill="#C74F63"/>
<path d="M171.375 86.9504C171.375 86.8819 170.971 83.4614 170.028 82.0932L170.769 81.5459C171.846 83.1193 172.251 86.6767 172.251 86.8135L171.375 86.9504Z" fill="#171E38"/>
<path d="M175.213 86.266C176.223 86.3344 177.57 86.266 178.378 85.8555C179.523 85.2398 180.062 84.8293 180.6 84.8293C181.206 84.8293 181.678 85.2398 182.822 85.8555C183.631 86.266 184.977 86.3344 185.987 86.266C188.142 86.1291 190.095 85.7871 190.095 85.7871C190.095 85.7871 189.758 88.6604 188.142 91.5336C186.526 94.4069 183.631 95.2278 180.533 95.2278C177.435 95.2278 174.54 94.4069 172.924 91.5336C171.308 88.6604 170.971 85.7871 170.971 85.7871C170.971 85.7871 173.058 86.1976 175.213 86.266Z" fill="#171E38"/>
<path d="M190.768 77.92C190.432 75.7308 189.354 72.7208 187.604 71.0789C185.583 69.1634 183.765 70.8053 183.765 70.8053C183.765 70.8053 184.035 69.0266 181.88 68.4109C179.725 67.7952 175.079 68.274 171.779 73.268C168.48 78.262 171.375 86.8818 171.375 84.8979C171.375 82.914 174.944 80.1775 177.907 78.262C180.87 76.3465 182.688 73.1312 182.688 73.1312C182.688 73.1312 184.843 76.2097 185.987 78.1252C186.93 79.7671 188.344 84.8295 188.748 86.3345C188.614 87.908 188.344 89.5498 187.738 90.9181C185.987 95.2279 183.765 101.727 184.708 106.858C185.651 111.989 192.25 110.21 194.539 108.773C196.762 107.542 192.385 83.5981 190.768 77.92Z" fill="#8B3B29"/>
</g>
<mask id="mask4_12384_436" style="mask-type:luminance" maskUnits="userSpaceOnUse" x="87" y="60" width="193" height="76">
<path d="M279.924 123.55V135.043H87.8085V123.55C87.8085 123.55 101.815 89.2761 124.238 65.4691C126.326 64.8534 129.625 64.1009 134.474 63.28C144.036 61.7065 159.726 60.1331 183.9 60.1331C220.262 60.1331 237.299 63.6904 243.494 65.4007C265.85 89.2077 279.924 123.55 279.924 123.55Z" fill="white"/>
</mask>
<g mask="url(#mask4_12384_436)">
<path d="M193.866 141.61H197.974C192.452 136.274 186.997 130.39 181.408 123.618C178.917 120.608 176.56 117.461 174.271 114.245C172.183 111.304 170.298 108.294 168.48 105.147C166.796 102.274 165.315 99.2635 163.968 96.185C163.362 94.7484 162.756 93.2433 162.217 91.7383C161.948 90.9858 161.678 90.2333 161.476 89.5491C161.274 88.9334 161.14 87.9073 160.668 87.4284C160.601 87.36 160.534 87.2916 160.466 87.2916C160.197 87.1548 159.928 87.1548 159.658 87.2916C159.524 87.36 159.389 87.4968 159.254 87.6336C158.042 89.0019 158.85 90.5753 159.322 92.0119C159.86 93.517 160.466 95.022 161.072 96.4586C162.352 99.5371 163.833 102.547 165.449 105.42C167.2 108.567 169.086 111.577 171.106 114.519C173.261 117.734 175.617 120.813 178.042 123.823C178.446 124.302 178.85 124.849 179.254 125.328C184.169 131.485 189.018 136.821 193.866 141.61Z" fill="#171E38"/>
</g>
<mask id="mask5_12384_436" style="mask-type:luminance" maskUnits="userSpaceOnUse" x="87" y="60" width="193" height="76">
<path d="M279.924 123.55V135.043H87.8085V123.55C87.8085 123.55 101.815 89.2761 124.238 65.4691C126.326 64.8534 129.625 64.1009 134.474 63.28C144.036 61.7065 159.726 60.1331 183.9 60.1331C220.262 60.1331 237.299 63.6904 243.494 65.4007C265.85 89.2077 279.924 123.55 279.924 123.55Z" fill="white"/>
</mask>
<g mask="url(#mask5_12384_436)">
<path d="M231.171 93.3796H213.798V103.778H231.171V93.3796Z" fill="white"/>
<path d="M237.434 98.3053H207.536C204.303 98.3053 201.879 95.2268 202.553 92.0115L206.256 74.7036C206.458 73.7458 206.929 72.9249 207.603 72.2408C207.738 72.104 207.94 71.8987 208.142 71.7619C208.882 71.2146 209.825 70.8726 210.835 70.8726H234.201C235.211 70.8726 236.154 71.2146 236.895 71.7619C237.097 71.8987 237.232 72.0355 237.434 72.2408C238.107 72.8565 238.578 73.7458 238.78 74.7036L242.484 92.0115C243.09 95.2268 240.666 98.3053 237.434 98.3053Z" fill="#A9CCFF"/>
<path d="M257.231 118.623V144.551H187.604V118.623C187.604 108.156 195.953 99.6735 206.256 99.6735H238.578C248.881 99.6051 257.231 108.088 257.231 118.623Z" fill="#A9CCFF"/>
</g>
<mask id="mask6_12384_436" style="mask-type:luminance" maskUnits="userSpaceOnUse" x="87" y="60" width="193" height="76">
<path d="M279.924 123.55V135.043H87.8085V123.55C87.8085 123.55 101.815 89.2761 124.238 65.4691C126.326 64.8534 129.625 64.1009 134.474 63.28C144.036 61.7065 159.726 60.1331 183.9 60.1331C220.262 60.1331 237.299 63.6904 243.494 65.4007C265.85 89.2077 279.924 123.55 279.924 123.55Z" fill="white"/>
</mask>
<g mask="url(#mask6_12384_436)">
<path d="M186.122 142.021C188.883 143.32 191.913 143.731 194.876 143.936C196.559 144.005 198.31 144.073 199.994 143.936C201.475 143.868 202.889 143.526 204.371 143.594C205.919 143.663 207.401 144.073 208.882 144.483H263.426C263.493 144.141 263.561 143.868 263.628 143.526C263.83 142.089 263.695 140.447 263.493 138.942C263.359 138.053 263.224 137.232 263.089 136.411C263.089 136.343 263.089 136.206 263.022 136.137C263.022 136.069 263.022 136 263.022 136C262.955 135.727 262.955 135.522 262.887 135.248C262.887 135.111 262.82 134.974 262.82 134.838C262.416 132.99 261.877 131.143 261.204 129.365C260.867 128.544 260.531 127.654 260.194 126.833C259.992 126.423 259.857 126.081 259.655 125.67C258.241 122.866 256.49 120.198 254.672 117.598C254.537 117.393 254.403 117.187 254.268 116.982C254.133 116.777 253.999 116.64 253.864 116.435C252.989 115.135 252.046 113.904 251.036 112.741C249.554 111.099 247.804 109.594 245.918 108.294C245.312 107.884 244.706 107.473 244.1 107.131C241.878 105.831 239.454 104.737 237.03 103.984C236.222 103.711 235.346 103.505 234.538 103.232C233.528 102.958 232.518 102.684 231.508 102.342C229.757 101.795 228.343 101.179 226.525 101.111C225.515 101.043 224.572 101.179 223.562 101.248C220.33 101.521 217.434 102.137 214.471 103.026C213.933 103.163 213.327 103.368 212.788 103.574C209.69 104.6 206.66 105.626 203.63 106.994C203.428 107.063 203.159 107.2 202.957 107.268C202.351 107.542 201.812 107.815 201.206 108.157C201.004 108.226 200.869 108.362 200.667 108.431C197.435 110.415 195.549 113.425 193.26 116.298C193.125 116.503 192.923 116.709 192.789 116.914C192.654 117.119 192.452 117.256 192.317 117.461C190.364 119.992 188.748 122.797 187.199 125.602C186.997 126.012 186.795 126.355 186.593 126.765C186.459 127.039 186.324 127.312 186.189 127.586C185.583 128.681 184.977 129.844 184.506 131.006C183.967 132.238 183.631 133.538 183.361 134.906C183.294 135.248 183.227 135.658 183.159 136C183.092 136.411 183.092 136.753 183.025 137.163C182.957 137.916 182.957 138.737 183.294 139.489C183.833 140.721 184.977 141.473 186.122 142.021Z" fill="white"/>
<path d="M260.194 126.902C259.655 126.902 259.049 126.833 258.51 126.833C258.376 126.833 258.174 126.833 258.039 126.833C257.904 126.628 257.77 126.491 257.702 126.286C257.568 126.081 257.366 125.875 257.231 125.67C257.366 125.67 257.568 125.67 257.702 125.67C258.376 125.67 259.049 125.739 259.723 125.739C259.79 126.149 259.992 126.491 260.194 126.902Z" fill="white"/>
<path d="M236.222 105.147C236.289 106.378 236.356 107.61 236.356 108.773C236.356 110.552 236.222 113.767 233.595 112.672C231.845 111.988 230.161 111.167 228.478 110.346C227.333 109.799 225.582 108.294 224.235 108.431C223.225 108.568 222.215 109.525 221.407 110.073C219.387 111.441 217.3 112.672 215.077 113.63C214.808 113.767 214.471 113.904 214.202 113.835C213.596 113.767 213.259 113.151 213.125 112.535C212.519 110.62 212.249 108.362 211.98 106.378C211.71 104.121 212.182 102.547 214.606 101.795C216.02 101.384 217.502 100.906 218.983 100.564C224.033 99.469 229.218 99.4006 234.067 101.521C234.74 101.795 235.481 102.205 235.818 102.821C236.087 103.232 236.087 103.779 236.154 104.258C236.222 104.6 236.222 104.873 236.222 105.147Z" fill="#B05E44"/>
<path d="M211.98 143.183C216.424 138.6 220.868 133.606 225.313 128.133C230.767 121.429 235.885 114.451 240.194 106.926C242.147 103.573 243.898 100.084 245.514 96.5271C246.255 94.8168 246.996 93.1065 247.602 91.3963C248.208 89.7544 249.285 87.8389 249.016 86.0602C248.881 85.3761 248.612 84.692 248.14 84.2815C248.006 84.1447 247.871 84.0763 247.669 84.0079C247.265 83.8711 246.726 84.1447 246.457 84.4868C246.12 85.1025 245.986 86.1286 245.784 86.8127C245.514 87.6337 245.177 88.523 244.908 89.3439C244.302 91.0542 243.561 92.7645 242.888 94.4748C241.339 98.0321 239.588 101.453 237.703 104.805C233.393 112.33 228.343 119.376 222.821 126.081C217.636 132.374 212.519 138.053 207.401 143.252H211.98V143.183Z" fill="#171E38"/>
<path d="M237.703 137.779C237.232 135.179 236.087 132.785 234.336 130.87C231.979 128.27 228.882 126.833 225.582 126.833C222.283 126.833 219.185 128.27 216.828 130.87C215.481 132.375 214.471 134.085 213.865 136C213.394 137.437 213.192 139.01 213.192 140.584C213.192 142.499 213.529 144.346 214.202 146.125H236.962C237.636 144.415 237.972 142.568 237.972 140.584C237.972 139.626 237.905 138.668 237.703 137.779Z" fill="#171E38"/>
<path d="M232.922 103.368C233.057 103.847 232.855 104.395 232.249 105.01C231.508 105.763 230.565 106.31 229.622 106.789C228.478 107.405 227.333 108.02 226.256 108.704C225.717 109.046 225.043 109.731 224.37 109.799C223.495 109.867 222.754 109.046 222.013 108.636C221.003 108.02 219.926 107.473 218.848 106.994C217.636 106.447 216.424 105.9 215.481 105.01C214.202 103.847 214.539 102.753 216.087 102.411C218.512 101.863 220.936 101.453 223.495 101.248C224.505 101.179 225.447 101.111 226.458 101.179C228.276 101.248 229.69 101.795 231.441 102.342C232.316 102.479 232.787 102.889 232.922 103.368Z" fill="#FFA87D"/>
<path d="M211.239 120.471C211.374 120.608 211.509 120.745 211.576 120.95C211.845 121.498 211.576 122.25 211.037 122.592C210.431 123.003 209.758 122.934 209.152 122.592C208.68 122.318 207.94 122.318 207.872 121.634C207.805 121.361 207.872 121.087 208.007 120.882C208.142 120.54 208.411 120.198 208.748 119.992C209.421 119.514 210.094 119.514 210.768 119.992C210.835 120.061 211.037 120.198 211.239 120.471C211.172 120.403 211.172 120.403 211.239 120.471Z" fill="#FFA87D"/>
<path d="M241.272 122.113C241.07 122.386 240.868 122.729 240.801 123.139C240.666 123.755 240.868 124.439 241.407 124.781C241.609 124.918 241.945 125.054 242.215 125.054C243.292 125.191 244.504 124.37 244.706 123.276C244.773 123.002 244.706 122.729 244.571 122.523C244.437 122.181 244.167 121.839 243.831 121.634C242.955 120.95 241.878 121.292 241.272 122.113Z" fill="#FFA87D"/>
<path d="M246.39 118.761C240.868 113.151 233.461 110.004 225.65 110.004C217.838 110.004 210.431 113.083 204.909 118.761C200.33 123.413 197.502 129.228 196.627 135.59C196.425 136.958 196.357 138.395 196.357 139.832C196.357 142.773 196.762 145.578 197.57 148.315H202.755C201.812 145.646 201.273 142.842 201.273 139.832C201.273 138.463 201.408 137.095 201.61 135.795C203.495 124.029 213.596 114.998 225.717 114.998C239.184 114.998 250.093 126.149 250.161 139.763C250.161 142.705 249.622 145.578 248.679 148.246H253.864C254.605 145.715 255.009 143.047 255.076 140.31C255.076 140.105 255.076 139.968 255.076 139.763C254.942 131.896 251.911 124.439 246.39 118.761Z" fill="#171E38"/>
<path d="M209.892 121.84C210.768 122.455 211.643 123.208 212.384 124.029C212.653 124.302 212.855 124.713 212.586 125.055C212.384 125.329 211.98 125.465 211.643 125.534C210.229 125.807 208.815 124.713 207.603 124.234C206.795 123.892 205.852 123.687 204.977 123.618C204.573 123.618 204.101 123.618 203.697 123.824C204.505 124.166 205.448 124.234 206.256 124.508C206.862 124.713 207.401 125.055 207.872 125.397C208.276 125.739 208.748 126.081 209.017 126.492C209.286 126.97 209.421 127.518 209.286 128.065C209.084 128.749 208.142 129.16 207.468 129.023C207.738 129.433 207.805 129.981 207.603 130.459C207.401 130.938 206.93 131.212 206.458 131.28C206.66 132.238 205.515 132.717 204.842 132.922C203.967 133.196 203.024 133.401 202.081 133.469C201.677 133.538 201.206 133.606 200.869 133.469C200.465 133.401 200.128 133.196 199.724 133.059C199.32 132.854 198.916 132.58 198.445 132.375C198.041 132.238 197.57 132.306 197.166 132.17C196.425 131.964 195.751 131.417 195.482 130.665C195.213 129.981 195.28 129.16 195.415 128.475C195.549 127.449 195.819 126.423 196.29 125.465C196.492 125.055 196.761 124.508 197.098 124.166C197.435 123.824 197.906 123.618 198.243 123.276C198.647 122.866 198.916 122.524 199.186 121.976C199.388 121.566 199.522 121.019 199.994 120.813C200.061 120.745 200.196 120.677 200.263 120.677C200.869 120.403 201.408 120.335 202.081 120.335C203.226 120.198 204.371 120.198 205.515 120.198C205.919 120.198 206.391 120.198 206.795 120.266C207.199 120.335 207.603 120.54 208.007 120.677C208.613 121.019 209.286 121.361 209.892 121.84Z" fill="#FFA87D"/>
<path d="M243.696 123.618C243.359 123.824 243.023 124.097 242.821 124.439C242.551 124.85 242.417 125.329 242.551 125.807C242.753 126.286 243.292 126.56 243.696 126.355C243.494 126.834 243.494 127.381 243.763 127.86C243.965 128.339 244.437 128.681 244.908 128.818C244.504 129.502 244.773 130.596 245.514 130.938C246.053 131.212 245.716 131.486 245.851 131.896C245.986 132.375 246.39 132.854 246.861 133.059C247.4 133.333 248.073 133.401 248.679 133.401C250.295 133.401 251.911 133.196 253.46 132.717C254.066 132.512 254.672 132.307 255.144 131.964C255.615 131.554 256.019 131.007 256.086 130.391C256.154 129.775 255.884 129.16 255.952 128.544C255.952 128.133 256.086 127.791 256.086 127.449C256.154 126.697 255.75 125.944 255.413 125.26C255.346 125.055 255.211 124.918 255.211 124.713C255.144 124.508 255.144 124.302 255.144 124.097C255.076 123.55 254.807 122.934 254.335 122.592C254.133 122.387 253.864 122.25 253.662 122.045C252.921 121.361 252.921 119.993 251.979 119.514C250.43 118.693 248.342 120.061 247.198 120.95C246.39 121.566 245.716 122.319 244.908 122.934C244.504 123.139 244.1 123.345 243.696 123.618Z" fill="#FFA87D"/>
</g>
<mask id="mask7_12384_436" style="mask-type:luminance" maskUnits="userSpaceOnUse" x="87" y="60" width="193" height="76">
<path d="M279.924 123.55V135.043H87.8085V123.55C87.8085 123.55 101.815 89.2761 124.238 65.4691C126.326 64.8534 129.625 64.1009 134.474 63.28C144.036 61.7065 159.726 60.1331 183.9 60.1331C220.262 60.1331 237.299 63.6904 243.494 65.4007C265.85 89.2077 279.924 123.55 279.924 123.55Z" fill="white"/>
</mask>
<g mask="url(#mask7_12384_436)">
<path d="M231.239 101.932L229.42 94.3381C229.42 94.3381 226.39 95.2959 224.101 95.2959C221.811 95.2959 218.781 94.3381 218.781 94.3381L216.963 101.932C216.963 101.932 214.471 107.678 224.101 107.678C233.73 107.678 231.239 101.932 231.239 101.932Z" fill="#FFA87D"/>
<path d="M234.942 84.282C234.942 91.6019 230.902 97.5537 224.168 97.5537C217.434 97.5537 213.394 91.6019 213.394 84.282C213.394 76.962 216.222 71.0103 224.168 71.0103C232.114 71.0787 234.942 76.962 234.942 84.282Z" fill="#FFA87D"/>
<path d="M210.498 84.0079C209.892 86.3339 211.576 89.344 213.865 89.8229C216.155 90.3017 215.751 86.8128 214.808 84.9657C213.865 83.0502 211.104 81.6135 210.498 84.0079Z" fill="#FFA87D"/>
<path d="M236.222 82.7765C233.932 83.2554 232.249 86.1971 232.855 88.5915C233.461 90.9174 236.222 89.4808 237.164 87.6337C238.107 85.7866 238.511 82.3661 236.222 82.7765Z" fill="#FFA87D"/>
<path d="M214.135 88.4549C214.135 88.3865 213.731 84.6923 212.721 83.1872L213.529 82.5715C214.673 84.2818 215.145 88.1812 215.145 88.318L214.135 88.4549Z" fill="#171E38"/>
<path d="M234.201 88.4551C234.201 88.3867 234.605 84.6925 235.616 83.1875L234.807 82.5718C233.663 84.2821 233.191 88.1815 233.191 88.3183L234.201 88.4551Z" fill="#171E38"/>
<path d="M230.026 87.7707C228.949 87.8391 227.468 87.7707 226.592 87.2918C225.313 86.6761 224.774 86.1973 224.168 86.1973C223.562 86.1973 222.956 86.6761 221.744 87.2918C220.868 87.7023 219.387 87.7707 218.31 87.7707C215.953 87.6339 213.798 87.2918 213.798 87.2918C213.798 87.2918 214.135 90.3703 215.885 93.5172C217.636 96.5957 220.801 97.4851 224.168 97.4851C227.535 97.4851 230.7 96.5957 232.451 93.5172C234.201 90.4387 234.538 87.2918 234.538 87.2918C234.538 87.2918 232.383 87.6339 230.026 87.7707Z" fill="#171E38"/>
<path d="M236.087 76.5516C235.548 74.4308 233.999 74.4992 233.999 74.4992C233.999 74.4992 232.855 71.2155 230.902 70.0525C230.026 69.5737 229.151 69.5736 228.478 69.8473C227.4 68.8211 226.054 67.8634 224.639 67.5897C221.542 67.0425 220.262 65.3322 217.973 67.1109C215.616 68.958 216.828 72.2417 216.828 72.2417C216.828 72.2417 214.269 71.3523 213.596 73.131C212.923 74.9781 213.798 76.2779 213.798 76.2779C213.798 76.2779 211.778 77.783 211.778 79.4248C211.778 81.1351 212.249 83.2558 213.327 83.8715C214.471 84.4188 215.751 82.2981 216.357 80.9299C216.896 79.5616 219.724 77.5093 221.138 76.0727C222.552 74.6361 225.717 76.2095 227.939 76.0727C228.478 76.0727 228.882 75.799 229.218 75.5254C229.69 75.799 230.094 76.0727 230.498 76.2095C231.71 76.6884 232.316 78.6723 232.72 80.1773C233.191 81.6824 234.538 84.282 235.616 83.119C236.693 82.0244 236.626 78.7407 236.087 76.5516Z" fill="#171E38"/>
</g>
<path d="M302.549 127.723L298.038 163.57C297.768 165.622 297.028 167.606 295.883 169.316L287.466 181.63C285.648 184.23 282.752 185.803 279.587 185.803H232.248C231.373 185.803 230.565 185.188 230.228 184.298L227.804 176.705C227.333 175.2 225.986 174.174 224.437 174.174H143.228C141.679 174.174 140.332 175.2 139.861 176.705L137.437 184.298C137.167 185.188 136.359 185.803 135.416 185.803H88.0779C84.913 185.803 82.0174 184.23 80.1993 181.63L71.7821 169.316C70.6373 167.606 69.8966 165.691 69.6272 163.638L65.0483 127.791C64.7789 125.67 65.789 123.618 67.5398 122.592C67.8765 122.387 68.2131 122.25 68.6172 122.113C70.6373 121.497 72.7921 120.882 75.149 120.266C75.6877 120.129 76.2264 119.992 76.7651 119.855C77.8425 119.582 78.9199 119.376 80.0646 119.103C80.6033 118.966 81.142 118.898 81.6807 118.761C103.835 114.246 138.11 111.578 183.63 111.578C229.151 111.578 263.493 114.246 285.648 118.761C286.186 118.898 286.725 118.966 287.264 119.103C288.408 119.376 289.486 119.582 290.563 119.855C291.102 119.992 291.641 120.129 292.179 120.266C294.536 120.813 296.758 121.429 298.711 122.113C298.913 122.181 299.115 122.25 299.384 122.387C301.607 123.207 302.819 125.397 302.549 127.723Z" fill="#ECECEC"/>
<path d="M290.765 119.787L287.6 151.393C287.466 152.966 286.86 154.472 285.85 155.634L280.395 162.339C278.577 164.528 275.951 165.759 273.19 165.759H94.6096C91.7814 165.759 89.1553 164.46 87.4045 162.339L81.9501 155.634C80.94 154.403 80.334 152.966 80.1993 151.393L77.0344 119.787C78.1118 119.514 79.1892 119.308 80.334 119.035L82.6908 142.089C82.8928 143.731 83.5662 145.304 84.7783 146.467L89.694 151.325C90.7714 152.351 92.1855 152.966 93.6669 152.966H274.133C275.614 152.966 277.028 152.351 278.106 151.325L283.089 146.467C284.233 145.304 284.974 143.799 285.176 142.089L287.533 119.035C288.61 119.308 289.688 119.582 290.765 119.787Z" fill="white"/>
<path d="M229.555 194.081L225.38 180.81C224.909 179.373 223.629 178.415 222.148 178.415H145.517C144.036 178.415 142.756 179.373 142.285 180.81L138.11 194.081H229.555Z" fill="#ECECEC"/>
<path d="M167.739 13.9558L110.973 0L54.2068 13.9558C54.2068 13.9558 48.8198 102.958 110.973 120.814C173.126 102.958 167.739 13.9558 167.739 13.9558Z" fill="white"/>
<path d="M110.973 114.93C54.8129 98.8535 59.7285 18.4707 59.7285 18.4707L110.973 5.88306L162.217 18.4707C162.217 18.4707 167.065 98.8535 110.973 114.93Z" fill="#5D489B"/>
<path d="M143.901 36.6685L107.135 75.4574L83.1622 50.4875L89.7613 44.9462L107.875 63.1435L143.901 36.6685Z" fill="white"/>
<path d="M268.14 161.108H97.9766C96.9665 161.108 96.1584 160.287 96.1584 159.26C96.1584 158.234 96.9665 157.413 97.9766 157.413H268.207C269.217 157.413 270.025 158.234 270.025 159.26C270.025 160.287 269.217 161.108 268.14 161.108Z" fill="#5D489B"/>
</svg>
