<svg width="358" height="357" viewBox="0 0 358 357" fill="none" xmlns="http://www.w3.org/2000/svg">
<mask id="mask0_10117_6317" style="mask-type:luminance" maskUnits="userSpaceOnUse" x="15" y="324" width="3" height="2">
<path d="M15.884 324.517H17.2339V325.677H15.884V324.517Z" fill="white"/>
</mask>
<g mask="url(#mask0_10117_6317)">
<mask id="mask1_10117_6317" style="mask-type:luminance" maskUnits="userSpaceOnUse" x="15" y="324" width="3" height="2">
<path d="M17.2116 324.941C16.6389 325.87 16.0662 325.725 15.9249 325.513C15.8542 325.298 15.9249 324.729 16.1406 324.584C16.2819 324.442 17.0665 324.654 17.0665 324.654" fill="white"/>
</mask>
<g mask="url(#mask1_10117_6317)">
<path d="M13.0689 321.728H20.1308V328.656H13.0689V321.728Z" fill="#0571D3"/>
</g>
</g>
<path d="M94.2307 98.3795C129.176 63.3117 119.172 41.3339 143.084 25.1016C179.874 0.119025 248.54 21.6097 289.052 55.9746C338.672 98.0597 364.271 174.904 335.109 244.426C304.054 318.463 222.338 356.892 149.428 345.312C84.3128 334.966 20.3094 283.8 13.8946 222.437C13.1992 215.784 10.1312 179.828 31.6553 148.828C49.4421 123.206 66.5298 126.177 94.2307 98.3795Z" fill="#CADDFF"/>
<path d="M18.6694 244.233C35.8389 295.596 92.204 336.22 149.428 345.312C222.338 356.892 304.054 318.459 335.109 244.426C335.265 244.05 335.41 243.675 335.563 243.303C213.591 219.254 109.675 222.121 18.6694 244.233Z" fill="#99B9FF"/>
<path d="M157.163 27.2882C157.044 27.2882 156.925 27.251 156.821 27.1766C156.546 26.9907 156.475 26.6114 156.665 26.3399L158.442 23.7739C158.632 23.5025 159.008 23.4318 159.283 23.6215C159.558 23.8111 159.625 24.1867 159.435 24.4619L157.661 27.0279C157.542 27.1952 157.353 27.2882 157.163 27.2882Z" fill="black"/>
<path d="M153.021 33.2605C152.905 33.2605 152.786 33.2271 152.678 33.1527C152.403 32.963 152.336 32.5875 152.526 32.316L154.303 29.75C154.493 29.4749 154.869 29.4079 155.144 29.5976C155.419 29.7872 155.486 30.1628 155.296 30.438L153.519 33.0002C153.404 33.1713 153.214 33.2605 153.021 33.2605Z" fill="black"/>
<path d="M154.274 27.8125C154.155 27.8125 154.036 27.779 153.932 27.7047L151.366 25.9308C151.09 25.7412 151.02 25.3619 151.209 25.0904C151.399 24.8152 151.775 24.7483 152.05 24.9379L154.616 26.7118C154.891 26.9014 154.962 27.277 154.772 27.5522C154.653 27.7233 154.463 27.8125 154.274 27.8125Z" fill="black"/>
<path d="M160.253 31.9478C160.134 31.9478 160.015 31.9143 159.911 31.8399L157.345 30.0624C157.07 29.8764 157.003 29.5008 157.189 29.2256C157.379 28.9504 157.758 28.8835 158.03 29.0732L160.599 30.847C160.871 31.0404 160.941 31.416 160.752 31.6874C160.637 31.8585 160.447 31.9478 160.253 31.9478Z" fill="black"/>
<path d="M185.719 328.827C180.335 328.827 175.552 328.473 171.424 327.949C153.824 325.733 143.895 320.047 143.794 319.987C143.508 319.82 143.407 319.448 143.578 319.162C143.746 318.875 144.114 318.775 144.404 318.946C144.501 319.002 154.266 324.584 171.648 326.763C187.69 328.775 213.684 328.213 246.424 314.104C246.733 313.974 247.086 314.115 247.22 314.42C247.35 314.729 247.209 315.082 246.904 315.212C222.297 325.815 201.45 328.827 185.719 328.827Z" fill="black"/>
<path d="M184.459 336.387C174.292 336.387 165.817 335.242 159.164 333.799C142.117 330.099 133.017 323.669 132.928 323.606C132.657 323.409 132.597 323.033 132.79 322.765C132.984 322.494 133.359 322.43 133.631 322.624C133.72 322.687 142.667 328.998 159.495 332.638C175.032 335.997 200.658 337.707 234.506 326.763C234.822 326.659 235.164 326.833 235.264 327.15C235.365 327.466 235.194 327.808 234.874 327.908C215.205 334.271 198.274 336.387 184.459 336.387Z" fill="black"/>
<path d="M140.648 336.201C140.183 336.201 139.763 336.104 139.38 335.915C138.67 335.558 138.387 335.004 138.16 334.557C137.989 334.219 137.841 333.925 137.517 333.698C136.929 333.282 136.297 333.431 135.315 333.706C134.397 333.962 133.359 334.252 132.3 333.747C131.013 333.129 130.745 331.835 130.511 330.694C130.31 329.712 130.12 328.786 129.347 328.302C128.466 327.745 127.35 328.109 126.167 328.496C124.832 328.931 123.319 329.425 121.958 328.548C120.82 327.812 120.533 326.614 120.281 325.554C120.076 324.692 119.898 323.94 119.303 323.639C118.685 323.327 117.413 323.353 114.87 325.257C114.602 325.458 114.223 325.402 114.022 325.134C113.825 324.866 113.877 324.491 114.145 324.29C116.621 322.438 118.488 321.873 119.849 322.564C120.943 323.122 121.214 324.264 121.456 325.275C121.675 326.194 121.88 327.06 122.616 327.533C123.494 328.098 124.557 327.752 125.792 327.347C127.123 326.915 128.629 326.424 129.99 327.28C131.199 328.038 131.463 329.321 131.693 330.452C131.931 331.597 132.11 332.315 132.824 332.657C133.471 332.966 134.174 332.772 134.992 332.542C135.996 332.263 137.13 331.947 138.212 332.713C138.781 333.114 139.034 333.613 139.239 334.011C139.451 334.435 139.581 334.665 139.919 334.836C140.525 335.137 141.392 335.011 142.496 334.453C142.794 334.304 143.158 334.427 143.307 334.725C143.456 335.022 143.337 335.383 143.039 335.532C142.154 335.978 141.355 336.201 140.648 336.201Z" fill="black"/>
<path d="M178.643 20.9216C178.219 20.9216 177.799 21.0146 177.401 21.1894C175.835 21.8959 175.125 23.7702 175.813 25.3767C176.151 26.1576 176.768 26.7564 177.549 27.0613C178.308 27.3551 179.137 27.3328 179.885 26.9981C181.45 26.2952 182.164 24.4173 181.473 22.8145C181.134 22.0298 180.521 21.4348 179.74 21.1299C179.383 20.9923 179.011 20.9216 178.643 20.9216ZM178.646 28.4744C178.126 28.4744 177.609 28.3777 177.111 28.1844C176.025 27.7641 175.173 26.9349 174.705 25.8527C173.756 23.6512 174.742 21.0629 176.906 20.0924C177.951 19.6238 179.111 19.5903 180.175 20.0068C181.261 20.427 182.116 21.2563 182.581 22.3348C183.533 24.54 182.547 27.1282 180.379 28.0988C179.825 28.348 179.234 28.4744 178.646 28.4744Z" fill="black"/>
<path d="M256.666 115.144C259.035 117.089 260.585 108.632 260.585 108.632L250.768 101.544L244.457 94.4562C243.81 93.7311 242.691 93.6567 241.954 94.2926C241.199 94.9434 241.121 96.085 241.78 96.8288L244.591 100.005C244.981 100.447 244.773 101.143 244.204 101.302C243.327 101.54 242.412 101.622 241.504 101.537C239.853 101.377 237.005 101.027 234.238 100.332C232.936 100.008 231.865 101.224 232.691 102.28L240.192 106.691C242.092 107.807 245.29 107.937 247.417 107.357C247.417 107.357 249.329 109.61 251.43 111.388C253.129 112.827 254.84 113.652 256.666 115.144Z" fill="white"/>
<path d="M257.045 114.679C257.29 114.88 257.413 114.835 257.473 114.813C258.417 114.467 259.451 111.209 259.92 108.892L250.415 102.035C250.377 102.009 250.344 101.979 250.318 101.946L244.003 94.8579C243.579 94.3819 242.836 94.3298 242.349 94.75C242.107 94.9583 241.962 95.2484 241.939 95.5682C241.917 95.8843 242.021 96.1929 242.233 96.4309L245.045 99.6067C245.368 99.9712 245.476 100.466 245.338 100.931C245.201 101.399 244.836 101.752 244.368 101.883C243.408 102.143 242.423 102.228 241.445 102.135C239.593 101.957 236.815 101.6 234.089 100.919C233.617 100.8 233.249 100.99 233.093 101.232C232.974 101.414 232.981 101.619 233.111 101.827L240.5 106.17C242.278 107.215 245.335 107.297 247.261 106.773C247.484 106.713 247.73 106.788 247.878 106.966C247.897 106.988 249.786 109.205 251.82 110.927C252.661 111.641 253.501 112.195 254.39 112.782C255.245 113.344 256.13 113.928 257.045 114.679ZM257.365 116.04C257.049 116.04 256.677 115.936 256.283 115.612C255.413 114.902 254.553 114.337 253.724 113.786C252.847 113.206 251.935 112.607 251.039 111.849C249.344 110.413 247.793 108.699 247.202 108.03C245.06 108.509 241.895 108.39 239.887 107.212L232.386 102.801C232.323 102.764 232.263 102.712 232.215 102.652C231.713 102.009 231.665 101.213 232.081 100.57C232.55 99.8522 233.476 99.5212 234.383 99.748C237.176 100.447 240.08 100.793 241.564 100.934C242.397 101.016 243.23 100.945 244.048 100.719C244.137 100.693 244.171 100.626 244.182 100.588C244.189 100.551 244.2 100.473 244.141 100.406L241.33 97.2305C240.902 96.747 240.69 96.1297 240.735 95.4864C240.776 94.843 241.069 94.2592 241.56 93.8352C242.546 92.9911 244.044 93.0878 244.907 94.0584L251.177 101.094L260.939 108.141C261.125 108.279 261.217 108.509 261.177 108.74C260.979 109.815 259.897 115.207 257.885 115.947C257.74 115.999 257.566 116.04 257.365 116.04Z" fill="black"/>
<path d="M287.397 66.0599C294.255 67.6292 299.1 71.0133 299.1 71.0133C299.1 71.0133 309.587 77.6959 309.338 90.4437C309.145 100.336 301.782 112.113 301.841 112.953C302.488 122.399 303.21 122.075 302.232 125.441C299.859 133.607 266.264 130.238 265.665 126.493C265.122 123.098 266.684 117.42 265.903 109.785C265.208 103.039 262.757 94.7315 262.757 94.7315C251.831 100.975 240.489 100.176 230.166 92.8609C217.998 84.2409 208.761 65.0596 208.761 65.0596L215.481 61.1735C215.481 61.1735 229.969 77.8409 242.137 79.1462C249.384 79.9234 255.658 75.684 259.321 72.4338C263.01 69.1502 267.491 66.8594 272.348 65.9483C276.62 65.1451 281.916 64.803 287.397 66.0599Z" fill="#5479F7"/>
<path d="M295.173 130.472C290.889 111.127 290.692 85.0403 290.692 85.0403C290.681 84.0548 289.874 83.259 288.885 83.259H267.536C266.546 83.259 265.739 84.0548 265.725 85.0478L265.788 130.881L295.173 130.472Z" fill="black"/>
<path d="M286.315 87.1154C286.349 87.1154 286.382 87.1154 286.412 87.1154C287.442 87.0671 288.23 86.2899 288.178 85.3788C287.647 76.2567 289.941 72.1958 291.953 70.3922C293.184 69.2877 295.229 68.3804 296.397 67.9155C296.705 67.7928 296.698 67.354 296.386 67.2387C295.731 66.997 294.872 66.6883 294.337 66.5396C293.916 66.4206 291.938 65.6545 289.305 68.0606C285.646 71.4149 283.976 77.257 284.456 85.5498C284.508 86.4312 285.33 87.1154 286.315 87.1154Z" fill="black"/>
<path d="M269.54 87.7624C269.566 87.7513 269.592 87.7439 269.622 87.7327C270.425 87.4166 271.47 86.2898 271.158 85.468C266.442 73.2221 267.855 68.0568 269.008 66.1268C269.179 65.8441 268.886 65.5094 268.581 65.6322C268.026 65.859 266.77 66.3239 266.416 66.4875C265.223 67.0379 261.853 69.7377 267.595 86.8142C267.867 87.6174 268.759 88.0153 269.54 87.7624Z" fill="black"/>
<path d="M188.694 104.493C178.315 101.139 162.786 83.3855 162.786 83.3855L166.125 80.0461L197.274 90.0161L219.382 78.7111L203.205 55.1305L173.589 49.9837C181.339 41.3265 197.85 36.2466 209.549 40.0249C223.613 44.5692 232.665 57.4324 233.018 71.4074L338.98 105.631C344.886 107.539 348.128 113.864 346.217 119.766C344.309 125.668 337.902 131.633 331.996 129.721L226.105 92.7754C217.634 103.898 202.762 109.034 188.694 104.493Z" fill="#99B9FF"/>
<path d="M185.355 107.833C173.656 104.054 165.426 94.5232 162.782 83.3855L189.059 91.8754L211.167 80.5704L199.862 58.4736L173.589 49.9874C182.253 42.5016 194.51 39.5898 206.202 43.3681C220.27 47.9086 229.322 60.7755 229.675 74.7469L335.637 108.971C341.542 110.878 344.785 117.208 342.874 123.109C340.966 129.007 334.633 132.242 328.728 130.338L222.762 96.1148C214.294 107.238 199.419 112.377 185.355 107.833Z" fill="white"/>
<path d="M222.762 95.5086C222.825 95.5086 222.888 95.5198 222.952 95.5384L328.914 129.762C331.617 130.636 334.499 130.402 337.024 129.111C339.553 127.821 341.427 125.619 342.301 122.92C344.101 117.345 341.033 111.347 335.451 109.543L229.489 75.3233C229.244 75.2414 229.08 75.0183 229.073 74.7617C228.719 60.6639 219.452 48.2805 206.02 43.9407C195.195 40.4451 183.611 42.6206 174.812 49.7494L200.048 57.8972C200.2 57.9493 200.327 58.0534 200.401 58.1984L211.702 80.2952C211.855 80.589 211.74 80.9534 211.442 81.1059L189.334 92.4109C189.193 92.4816 189.025 92.4964 188.873 92.4481L163.637 84.2966C166.598 95.2223 174.716 103.761 185.541 107.256C198.973 111.596 213.74 106.97 222.282 95.7504C222.397 95.5942 222.58 95.5086 222.762 95.5086ZM332.197 131.488C330.97 131.488 329.743 131.298 328.542 130.911L222.981 96.8176C214.09 108.201 198.954 112.857 185.169 108.405C173.596 104.668 165.006 95.3673 162.195 83.5268C162.146 83.3149 162.213 83.0917 162.373 82.943C162.533 82.7979 162.764 82.7459 162.968 82.8128L189.007 91.2246L210.352 80.3064L199.438 58.9682L173.399 50.5601C173.195 50.4932 173.038 50.3184 172.994 50.1064C172.953 49.8944 173.027 49.6713 173.195 49.53C182.406 41.5719 194.819 39.0543 206.392 42.7954C220.174 47.243 229.723 59.8719 230.266 74.3043L335.827 108.398C342.037 110.402 345.455 117.085 343.45 123.291C342.48 126.3 340.39 128.747 337.575 130.186C335.883 131.049 334.049 131.488 332.197 131.488Z" fill="black"/>
<path d="M294.08 71.9392C294.08 71.9392 301.544 75.1039 305.489 88.0005C307.665 95.1145 306.932 105.003 296.534 118.751C286.274 132.309 255.836 115.791 255.836 115.791L256.51 105.631C256.51 105.631 273.27 114.865 284.597 109.558C287.859 108.033 292.838 91.6635 293.347 83.5082L294.08 71.9392Z" fill="#5479F7"/>
<path d="M282.928 124.679C279.536 124.679 275.735 124.102 271.574 122.934C262.91 120.506 255.61 116.356 255.535 116.315C255.338 116.2 255.219 115.98 255.238 115.75L255.907 105.594C255.922 105.389 256.037 105.203 256.216 105.103C256.394 105.003 256.61 105.003 256.792 105.099C256.974 105.192 274.969 114.638 284.289 109.041C286.438 107.747 290.201 98.0969 291.89 89.5512C291.953 89.224 292.269 89.012 292.596 89.0752C292.927 89.1422 293.136 89.4583 293.072 89.7855C291.447 98.0263 287.613 108.45 284.91 110.075C282.552 111.488 279.733 112.035 276.799 112.035C268.744 112.035 259.801 107.944 257.052 106.583L256.465 115.449C259.667 117.193 285.345 130.621 296.081 118.349C297.096 117.193 297.985 115.943 298.848 114.735L299.353 114.032C299.543 113.76 299.922 113.701 300.194 113.894C300.465 114.088 300.525 114.463 300.331 114.735L299.833 115.434C298.952 116.665 298.044 117.94 296.992 119.145C293.775 122.823 289.004 124.679 282.928 124.679Z" fill="black"/>
<path d="M291.116 224.932L293.492 236.434L287.271 238.212L283.827 227.011L291.116 224.932Z" fill="white"/>
<path d="M284.586 227.424L287.673 237.468L292.79 236.007L290.659 225.691L284.586 227.424ZM287.271 238.814C287.011 238.814 286.773 238.647 286.691 238.387L283.251 227.19C283.203 227.033 283.221 226.866 283.299 226.725C283.377 226.58 283.504 226.476 283.664 226.431L290.949 224.352C291.112 224.304 291.287 224.33 291.429 224.415C291.574 224.501 291.674 224.646 291.707 224.81L294.084 236.312C294.147 236.62 293.961 236.929 293.656 237.015L287.438 238.792C287.383 238.807 287.327 238.814 287.271 238.814Z" fill="black"/>
<path d="M295.553 246.129C295.482 247.237 294.14 248.122 293.054 248.29C289.279 248.863 280.41 248.621 278 248.788C274.873 249.008 269.001 248.773 268.774 246.761C268.499 244.307 271.117 240.73 277.39 238.77C280.637 237.758 284.065 232.734 285.586 232.645C287.104 232.556 289.792 236.52 289.792 236.52L294.117 235.04C294.117 235.04 295.91 240.518 295.553 246.129Z" fill="#5479F7"/>
<path d="M285.642 233.247C285.635 233.247 285.627 233.247 285.62 233.247C285.166 233.273 283.973 234.426 283.013 235.352C281.451 236.862 279.503 238.744 277.573 239.346C271.842 241.135 269.112 244.396 269.373 246.694C269.495 247.78 273.586 248.494 277.956 248.189C278.807 248.13 280.44 248.119 282.329 248.108C285.791 248.093 290.536 248.063 292.961 247.691C293.838 247.561 294.898 246.832 294.947 246.092C295.225 241.708 294.151 237.357 293.716 235.813L289.986 237.093C289.729 237.182 289.443 237.085 289.29 236.862C288.097 235.099 286.36 233.247 285.642 233.247ZM275.996 249.454C273.177 249.454 268.428 249.112 268.172 246.828C267.867 244.125 270.563 240.272 277.208 238.197C278.867 237.676 280.704 235.906 282.176 234.486C283.612 233.099 284.646 232.095 285.549 232.043C287.089 231.953 289.134 234.542 290.027 235.802L293.916 234.467C294.073 234.415 294.24 234.426 294.385 234.501C294.53 234.571 294.638 234.698 294.69 234.85C294.764 235.081 296.512 240.506 296.151 246.17C296.062 247.579 294.519 248.677 293.139 248.885C290.629 249.272 286.033 249.298 282.34 249.316C280.466 249.327 278.852 249.335 278.037 249.394C277.93 249.402 277.111 249.454 275.996 249.454Z" fill="black"/>
<path d="M274.404 246.456C273.17 246.456 272.102 246.352 271.28 245.999C270.972 245.865 270.83 245.512 270.961 245.203C271.094 244.898 271.451 244.757 271.756 244.891C272.879 245.374 274.902 245.266 277.044 245.155C278.491 245.077 279.986 244.999 281.477 245.069C287.375 245.337 291.76 244.716 292.288 244.601C292.578 244.474 292.916 244.586 293.069 244.869C293.173 245.062 293.162 245.292 293.046 245.478C292.905 245.702 292.786 245.895 289.339 246.155C287.55 246.293 284.724 246.423 281.425 246.274C279.99 246.207 278.525 246.285 277.108 246.36C276.145 246.412 275.237 246.456 274.404 246.456Z" fill="black"/>
<path d="M282.455 242.511C282.299 242.511 282.139 242.451 282.024 242.329L279.744 239.975C279.514 239.737 279.517 239.357 279.759 239.123C279.993 238.893 280.38 238.896 280.611 239.138L282.89 241.488C283.121 241.726 283.114 242.109 282.876 242.34C282.76 242.455 282.608 242.511 282.455 242.511Z" fill="black"/>
<path d="M324.868 224.382L325.184 232.407L319.632 233.761L318.639 224.441L324.868 224.382Z" fill="white"/>
<path d="M319.308 225.04L320.156 233.009L324.563 231.938L324.287 224.992L319.308 225.04ZM319.628 234.363C319.505 234.363 319.382 234.326 319.282 234.252C319.141 234.155 319.048 233.995 319.029 233.824L318.036 224.505C318.021 224.337 318.073 224.166 318.189 224.04C318.3 223.913 318.464 223.839 318.635 223.839L324.86 223.78C325.18 223.78 325.455 224.036 325.466 224.36L325.786 232.385C325.797 232.671 325.604 232.928 325.325 232.995L319.773 234.348C319.724 234.356 319.676 234.363 319.628 234.363Z" fill="black"/>
<path d="M318.78 248.349C321.004 248.665 324.637 248.799 328.94 248.346C330.87 248.141 331.621 245.437 331.286 244.047C330.338 240.168 328.702 233.917 325.909 230.507L324.882 232.589L323.919 230.559C323.785 230.321 323.551 230.161 323.28 230.124L321.197 230.146C320.758 230.09 320.349 230.38 320.26 230.819L319.925 232.422L318.144 230.354L316.753 245.646C316.586 246.955 317.486 248.167 318.78 248.349Z" fill="#5479F7"/>
<path d="M318.866 247.751C321.524 248.13 325.266 248.126 328.88 247.743C329.356 247.695 329.769 247.427 330.104 246.947C330.695 246.111 330.87 244.887 330.699 244.188C330.033 241.458 328.542 235.322 326.02 231.656L325.429 232.857C325.325 233.061 325.124 233.177 324.883 233.192C324.652 233.188 324.44 233.058 324.34 232.85L323.376 230.819C323.354 230.786 323.298 230.745 323.239 230.73L321.201 230.748C321.179 230.752 321.149 230.748 321.119 230.741C320.993 230.73 320.881 230.812 320.851 230.942L320.517 232.545C320.472 232.771 320.301 232.95 320.078 233.006C319.858 233.065 319.62 232.991 319.472 232.816L318.616 231.827L317.359 245.702C317.229 246.706 317.906 247.617 318.866 247.751ZM323.533 249.245C321.16 249.245 319.498 249.06 318.695 248.948C317.084 248.717 315.946 247.2 316.158 245.568L317.545 230.298C317.568 230.057 317.735 229.852 317.962 229.778C318.192 229.703 318.445 229.774 318.605 229.96L319.587 231.102L319.673 230.696C319.821 229.971 320.502 229.473 321.227 229.544L323.28 229.521C323.306 229.521 323.332 229.525 323.362 229.529C323.819 229.584 324.224 229.863 324.447 230.269L324.894 231.206L325.37 230.243C325.463 230.057 325.641 229.93 325.842 229.908C326.046 229.882 326.251 229.964 326.377 230.127C329.077 233.422 330.732 239.22 331.874 243.902C332.108 244.872 331.918 246.471 331.089 247.643C330.554 248.405 329.832 248.859 329.007 248.944C326.906 249.167 325.072 249.245 323.533 249.245Z" fill="black"/>
<path d="M324.972 246.732C321.35 246.732 318.479 245.917 318.311 245.869C317.995 245.776 317.809 245.445 317.902 245.125C317.995 244.805 318.326 244.619 318.65 244.712C318.702 244.727 324.116 246.256 329.267 245.066C329.59 244.995 329.914 245.196 329.992 245.519C330.066 245.847 329.862 246.17 329.538 246.244C327.976 246.601 326.415 246.732 324.972 246.732Z" fill="black"/>
<path d="M326.244 240.796C326.236 240.796 326.229 240.796 326.221 240.796L321.216 240.625C320.881 240.614 320.621 240.335 320.632 240.004C320.643 239.673 320.922 239.409 321.257 239.421L326.262 239.588C326.597 239.599 326.857 239.878 326.846 240.213C326.835 240.536 326.567 240.796 326.244 240.796Z" fill="black"/>
<path d="M268.543 194.134C275.661 213.802 280.741 223.597 282.69 227.156C283.229 228.127 284.292 228.673 285.386 228.528L290.458 227.87C291.96 227.677 293.005 226.264 292.767 224.75C290.915 213.047 283.563 156.08 285.52 150.818L317.028 225.486C317.367 226.279 318.144 226.788 318.999 226.777L324.321 226.717C325.507 226.702 326.452 225.71 326.422 224.512C324.849 164.075 307.3 154.347 302.157 125.452C302.146 125.385 274.378 129.539 265.728 124.95C265.602 124.883 260.273 171.278 268.543 194.134Z" fill="black"/>
<path d="M301.581 139.509C299.874 139.509 293.794 138.988 291.942 131.744C291.86 131.421 292.053 131.093 292.377 131.012C292.7 130.926 293.028 131.123 293.113 131.443C295.002 138.843 301.629 138.319 301.916 138.293C302.243 138.263 302.54 138.505 302.57 138.836C302.6 139.167 302.362 139.461 302.027 139.498C302.02 139.498 301.856 139.509 301.581 139.509Z" fill="#99B9FF"/>
<path d="M267.093 139.509C266.885 139.509 266.762 139.494 266.755 139.494C266.427 139.442 266.197 139.141 266.241 138.81C266.29 138.479 266.595 138.252 266.922 138.297C267.115 138.319 271.407 138.773 272.675 131.491C272.731 131.164 273.043 130.941 273.374 131C273.701 131.056 273.921 131.369 273.865 131.7C272.597 138.97 268.328 139.509 267.093 139.509Z" fill="#99B9FF"/>
<path d="M275.624 70.3922L274.166 62.8617C274.062 62.356 273.649 61.9729 273.14 61.9172L270.213 61.5788C269.588 61.5081 269.09 61.0247 268.99 60.3962L268.324 56.1977C268.324 56.1903 268.32 56.1866 268.317 56.1829L266.926 55.4205C266.647 55.2718 266.543 54.9259 266.684 54.6396L268.149 51.7501C268.436 51.1886 268.826 48.009 269.451 48.0425C269.451 48.0425 279.99 44.3424 283.091 48.7528C283.909 49.9205 284.002 51.4638 283.444 52.7802L282.734 54.4611C281.998 56.2089 281.834 58.1761 282.396 59.9909C282.597 60.6379 282.883 61.2589 283.24 61.8428L287.2 68.0717C284.322 69.5257 281.157 70.3104 277.941 70.355L275.624 70.3922Z" fill="white"/>
<path d="M269.652 48.6115C269.447 48.9462 269.19 50.0878 269.064 50.6568C268.908 51.3671 268.811 51.7798 268.685 52.0216L267.223 54.9148L268.607 55.6548C268.766 55.7403 268.889 55.9151 268.919 56.0936L269.585 60.3032C269.64 60.6602 269.93 60.9391 270.28 60.98L273.207 61.3184C273.976 61.404 274.601 61.9767 274.757 62.7427L276.118 69.7823L277.929 69.7563C280.815 69.7117 283.705 69.046 286.326 67.8263L282.73 62.17C282.344 61.5378 282.039 60.8685 281.819 60.1656C281.232 58.2765 281.358 56.168 282.18 54.2305L282.887 52.5459C283.381 51.3782 283.266 50.0581 282.593 49.0986C279.796 45.1158 269.767 48.5706 269.652 48.6115ZM275.62 70.9946C275.334 70.9946 275.085 70.7901 275.033 70.5075L273.575 62.977C273.523 62.7353 273.318 62.5456 273.069 62.5159L270.142 62.1812C269.25 62.0771 268.532 61.3817 268.391 60.4892L267.774 56.5733L266.636 55.9523C266.067 55.6436 265.851 54.9482 266.145 54.3718L267.614 51.4786C267.673 51.3522 267.796 50.7981 267.889 50.3965C268.242 48.8086 268.525 47.5405 269.335 47.4438C270.429 47.0719 280.376 43.8403 283.582 48.4069C284.489 49.7011 284.653 51.4675 283.998 53.0145L283.292 54.6991C282.582 56.3762 282.47 58.1947 282.972 59.8123C283.162 60.4148 283.422 60.9912 283.753 61.5304L287.706 67.7482C287.799 67.8932 287.825 68.068 287.78 68.2316C287.736 68.3952 287.624 68.5328 287.472 68.6109C284.53 70.0984 281.235 70.9091 277.948 70.9612L275.631 70.9946C275.631 70.9946 275.624 70.9946 275.62 70.9946Z" fill="black"/>
<path d="M277.666 52.7282C278.208 51.3709 279.053 50.8651 278.893 50.0916C278.8 49.6305 278.402 49.3367 278.175 49.1694C277.048 48.3438 275.564 48.8496 272.589 49.4148C268.893 50.1177 268.473 50.2292 267.774 49.9503C266.004 49.2437 264.992 47.046 264.914 45.2349C264.895 44.7292 264.847 42.0331 267.115 40.6423C268.755 39.6419 270.946 39.7163 272.716 40.8282C272.872 40.3039 273.196 39.5676 273.898 39.2068C275.568 38.3441 278.06 40.2741 278.93 40.9509C279.737 41.572 281.172 42.8772 282.202 45.1717C282.53 44.9821 283.764 44.3387 285.107 44.7738C287.107 45.4172 287.598 47.8827 287.643 48.1132C288.141 50.8354 285.921 53.2117 284.248 55.0078C283.325 55.9933 282.838 56.3726 282.295 56.737C281.972 56.9527 281.563 56.9676 281.224 56.7817C281.217 56.7779 281.213 56.7742 281.206 56.7705C280.763 56.5251 280.614 55.9487 280.882 55.5173L280.964 55.3797C281.284 54.8591 281.503 54.2752 281.57 53.6653C281.622 53.1819 281.585 52.6687 281.276 52.4084C280.774 51.9845 279.927 52.2634 279.804 52.3043C279.179 52.5088 278.789 52.9737 278.551 53.4199C278.294 53.8922 277.428 53.3269 277.666 52.7282Z" fill="black"/>
<path d="M269.815 40.3224L260.831 38.3849C259.183 38.0316 257.707 40.1178 258.294 42.0293C258.696 43.3308 259.957 44.7365 262.98 45.8893C270.942 48.9164 276.007 50.1584 276.007 50.1584L269.815 40.3224Z" fill="#5479F7"/>
<path d="M260.459 38.9465C259.968 38.9465 259.596 39.2626 259.403 39.4745C258.826 40.0993 258.618 41.0327 258.871 41.8508C259.295 43.223 260.749 44.3907 263.196 45.3241C268.558 47.362 272.627 48.5966 274.676 49.173L269.44 40.8542L260.701 38.9725C260.619 38.9539 260.537 38.9465 260.459 38.9465ZM276.007 50.7609C275.959 50.7609 275.914 50.7535 275.866 50.7424C275.81 50.7312 270.671 49.4594 262.764 46.4472C259.953 45.3799 258.257 43.9519 257.718 42.2078C257.343 40.9844 257.655 39.5935 258.51 38.6564C259.191 37.9201 260.083 37.604 260.957 37.7937L269.942 39.7311C270.102 39.7646 270.239 39.8613 270.325 39.9989L276.52 49.835C276.65 50.0432 276.643 50.311 276.498 50.5118C276.383 50.6717 276.2 50.7609 276.007 50.7609Z" fill="black"/>
<path d="M284.326 53.5388C284.326 53.5388 292.21 45.7183 285.449 39.9654C276.706 32.5205 271.399 37.1949 269.105 40.4191C268.194 41.6946 268.116 43.3123 268.915 44.6585L268.941 44.6994C270.328 47.031 272.556 48.883 275.26 49.954L284.326 53.5388Z" fill="#5479F7"/>
<path d="M276.688 36.585C276.379 36.585 276.074 36.6036 275.776 36.6408C272.839 37.0052 270.79 39.0877 269.592 40.7723C268.822 41.8508 268.759 43.223 269.432 44.3535L269.458 44.3944C270.771 46.6033 272.913 48.3772 275.479 49.3924L284.162 52.8285C285.032 51.8654 287.71 48.6115 287.576 45.1902C287.505 43.3903 286.658 41.7913 285.055 40.4265C282.057 37.8717 279.246 36.585 276.688 36.585ZM284.322 54.145C284.251 54.145 284.173 54.1301 284.099 54.104L275.036 50.5155C272.221 49.4035 269.871 47.4475 268.421 45.0117L268.395 44.9708C267.476 43.4275 267.558 41.5495 268.61 40.0695C269.949 38.1915 272.255 35.8599 275.628 35.4434C278.777 35.0529 282.214 36.4214 285.839 39.508C287.71 41.0996 288.699 42.9961 288.785 45.1456C288.959 49.7382 284.925 53.7991 284.75 53.9702C284.635 54.0855 284.478 54.145 284.322 54.145Z" fill="black"/>
<path d="M284.865 53.7768L282.533 52.8323C282.608 52.5943 282.842 51.8133 282.957 51.5493C284.646 47.652 286.475 48.3177 287.479 49.0614C286.501 51.5456 284.865 53.7768 284.865 53.7768Z" fill="black"/>
<path d="M255.952 105.679L249.065 99.7406L244.282 94.367C243.635 93.6418 242.523 93.5675 241.779 94.2034C241.028 94.8541 240.946 95.9958 241.608 96.7433L244.42 99.9154C244.81 100.358 244.602 101.057 244.033 101.209C243.155 101.451 242.241 101.533 241.333 101.447C239.682 101.284 236.834 100.938 234.063 100.243C232.765 99.9191 231.694 101.135 232.52 102.191L240.021 106.602C241.504 107.472 243.211 107.844 244.907 107.695C245.64 107.632 246.502 107.535 247.425 107.416C247.886 107.357 248.589 108.751 250.15 110.235C252.237 112.213 255.368 113.664 255.368 113.664L255.952 105.679Z" fill="white"/>
<path d="M255.647 114.969C255.561 114.969 255.476 114.954 255.394 114.917C251.831 113.292 248.005 109.06 247.019 107.929L245.64 108.208C243.587 108.55 241.489 108.164 239.712 107.122L232.215 102.712C232.148 102.671 232.088 102.623 232.044 102.563C231.542 101.92 231.49 101.124 231.906 100.484C232.379 99.7629 233.305 99.432 234.208 99.6588C237.001 100.358 239.905 100.704 241.389 100.845C242.222 100.927 243.059 100.853 243.873 100.629C243.962 100.603 243.996 100.536 244.007 100.499C244.022 100.462 244.029 100.384 243.97 100.317L241.155 97.1412C240.731 96.6615 240.519 96.0405 240.56 95.3971C240.604 94.7538 240.898 94.1662 241.389 93.746C242.371 92.9018 243.873 92.9985 244.736 93.9691L250.496 100.44C250.5 100.44 253.52 103.407 256.279 105.17C256.558 105.349 256.643 105.724 256.461 106.003C256.283 106.286 255.907 106.367 255.628 106.189C252.757 104.356 249.749 101.395 249.622 101.269L243.832 94.7687C243.408 94.2889 242.665 94.2406 242.177 94.6608C241.932 94.8691 241.787 95.1591 241.765 95.4789C241.746 95.7987 241.846 96.1037 242.058 96.3417L244.87 99.5175C245.193 99.8819 245.305 100.377 245.167 100.841C245.026 101.31 244.662 101.663 244.193 101.793C243.237 102.057 242.252 102.143 241.274 102.046C239.422 101.868 236.64 101.511 233.918 100.83C233.446 100.711 233.078 100.901 232.918 101.139C232.799 101.325 232.806 101.529 232.936 101.738L240.329 106.081C241.858 106.981 243.665 107.316 245.42 107.022L247.127 106.676C247.343 106.631 247.566 106.71 247.711 106.877C247.752 106.929 252.107 112.087 255.896 113.82C256.201 113.957 256.335 114.314 256.193 114.619C256.093 114.839 255.874 114.969 255.647 114.969Z" fill="black"/>
<path d="M150.473 137.519C150.291 137.519 150.109 137.438 149.99 137.281C149.789 137.014 149.845 136.634 150.109 136.434L181.443 112.816C181.707 112.615 182.086 112.667 182.287 112.935C182.488 113.203 182.436 113.578 182.168 113.779L150.838 137.4C150.726 137.482 150.6 137.519 150.473 137.519Z" fill="black"/>
<path d="M146.944 131.056C146.806 131.056 146.673 131.015 146.561 130.922C146.301 130.71 146.263 130.331 146.475 130.074L161.555 111.648C161.767 111.388 162.146 111.351 162.403 111.562C162.663 111.774 162.7 112.154 162.488 112.41L147.409 130.837C147.29 130.982 147.119 131.056 146.944 131.056Z" fill="black"/>
<path d="M245.554 238.078C245.547 238.078 245.543 238.078 245.543 238.078H238.66C235.841 238.078 233.561 244.835 233.561 253.083C233.561 261.335 235.841 268.092 238.66 268.092H245.543C245.543 268.092 245.547 268.092 245.554 268.092C248.366 268.092 250.649 261.335 250.649 253.087C250.649 244.835 248.366 238.078 245.554 238.078Z" fill="#5479F7"/>
<path d="M224.591 239.183C224.588 239.183 224.58 239.183 224.58 239.183H217.697C214.882 239.183 212.599 245.94 212.599 254.188C212.599 262.44 214.882 269.197 217.697 269.197H224.58C224.58 269.197 224.588 269.197 224.591 269.197C227.407 269.197 229.69 262.44 229.69 254.191C229.69 245.94 227.407 239.183 224.591 239.183Z" fill="#5479F7"/>
<path d="M151.644 242.013C151.641 242.013 151.637 242.013 151.637 242.013H145.743H145.739C143.322 242.013 141.366 247.769 141.366 254.839C141.366 261.908 143.322 267.665 145.739 267.665H145.743H151.637C151.637 267.665 151.641 267.665 151.644 267.665C154.058 267.665 156.018 261.912 156.018 254.839C156.018 247.769 154.058 242.013 151.644 242.013Z" fill="#5479F7"/>
<path d="M243.855 260.707L243.687 169.162L74.6255 185.986V252.912L243.855 260.707Z" fill="#5479F7"/>
<path d="M75.2317 252.336L243.252 260.078L243.085 169.828L75.2317 186.533V252.336ZM244.461 261.339L243.829 261.309L74.0231 253.489V185.439L74.566 185.387L244.286 168.497L244.461 261.339Z" fill="black"/>
<path d="M263.843 237.249H192.58V142.428L263.843 146.835V237.249Z" fill="#5479F7"/>
<path d="M263.843 237.851C263.508 237.851 263.237 237.584 263.237 237.249V147.408L192.543 143.031C192.212 143.012 191.96 142.726 191.982 142.391C192 142.06 192.283 141.803 192.618 141.826L263.88 146.236C264.196 146.255 264.445 146.519 264.445 146.839V237.249C264.445 237.584 264.178 237.851 263.843 237.851Z" fill="black"/>
<path d="M192.58 237.249V142.428L67.2549 150.821V234.992L192.58 237.249Z" fill="white"/>
<path d="M171.852 216.238C171.521 216.238 171.25 215.966 171.25 215.632V162.87C171.25 162.535 171.521 162.264 171.852 162.264C172.187 162.264 172.458 162.535 172.458 162.87V215.632C172.458 215.966 172.187 216.238 171.852 216.238Z" fill="white"/>
<path d="M171.852 215.632V162.87L107.462 165.689V215.632H171.852Z" fill="#99B9FF"/>
<path d="M149.625 216.238C149.291 216.238 149.019 215.966 149.019 215.632V163.852C149.019 163.521 149.291 163.249 149.625 163.249C149.96 163.249 150.228 163.521 150.228 163.852V215.632C150.228 215.966 149.96 216.238 149.625 216.238Z" fill="white"/>
<path d="M127.395 216.238C127.064 216.238 126.792 215.966 126.792 215.632V164.837C126.792 164.503 127.064 164.235 127.395 164.235C127.729 164.235 128.001 164.503 128.001 164.837V215.632C128.001 215.966 127.729 216.238 127.395 216.238Z" fill="white"/>
<path d="M68.0544 234.397L191.978 236.446V143.071L68.0544 151.387V234.397ZM192.58 237.662C192.58 237.662 192.577 237.662 192.573 237.662L67.4408 235.594C67.1099 235.587 66.8458 235.319 66.8458 234.992V150.821C66.8458 150.505 67.0913 150.241 67.4111 150.219L192.54 141.826C192.711 141.815 192.871 141.874 192.993 141.989C193.116 142.101 193.187 142.261 193.187 142.428V237.059C193.187 237.219 193.12 237.375 193.004 237.487C192.893 237.598 192.74 237.662 192.58 237.662Z" fill="black"/>
<path d="M182.004 241.96C182.001 241.96 181.997 241.96 181.997 241.96H175.177C172.388 241.96 170.127 248.654 170.127 256.828C170.127 265.002 172.388 271.699 175.177 271.699H181.997C181.997 271.699 182.001 271.699 182.004 271.699C184.797 271.699 187.058 265.002 187.058 256.832C187.058 248.658 184.797 241.96 182.004 241.96Z" fill="#5479F7"/>
<path d="M180.227 256.657C180.227 264.831 177.966 271.458 175.177 271.458C172.388 271.458 170.127 264.831 170.127 256.657C170.127 248.483 172.388 241.856 175.177 241.856C177.966 241.856 180.227 248.483 180.227 256.657Z" fill="#99B9FF"/>
<path d="M175.184 242.567C173.072 242.567 170.729 248.424 170.729 256.828C170.729 265.236 173.072 271.093 175.177 271.093H181.997C184.109 271.093 186.456 265.236 186.456 256.832C186.456 248.424 184.109 242.567 182.004 242.567H175.184ZM182.004 272.302H175.184C171.503 272.302 169.521 264.329 169.521 256.828C169.521 249.327 171.503 241.358 175.177 241.358H182.004C185.678 241.358 187.661 249.331 187.661 256.832C187.661 264.329 185.678 272.302 182.004 272.302Z" fill="black"/>
<path d="M203.964 242.094C203.96 242.094 203.956 242.094 203.956 242.094H197.073C194.258 242.094 191.974 248.851 191.974 257.103C191.974 265.351 194.258 272.112 197.073 272.112H203.956C203.956 272.112 203.96 272.112 203.964 272.112C206.779 272.112 209.062 265.355 209.062 257.103C209.062 248.855 206.779 242.094 203.964 242.094Z" fill="#5479F7"/>
<path d="M202.171 256.928C202.171 265.177 199.888 271.867 197.073 271.867C194.258 271.867 191.974 265.177 191.974 256.928C191.974 248.677 194.258 241.99 197.073 241.99C199.888 241.99 202.171 248.677 202.171 256.928Z" fill="#99B9FF"/>
<path d="M197.08 242.697C194.946 242.697 192.577 248.613 192.577 257.103C192.577 265.589 194.946 271.51 197.073 271.51H203.956C206.091 271.51 208.46 265.593 208.46 257.103C208.46 248.613 206.091 242.697 203.964 242.697H197.08ZM203.964 272.715H197.076C193.365 272.715 191.368 264.671 191.368 257.103C191.368 249.536 193.365 241.492 197.073 241.492H203.964C207.667 241.492 209.668 249.536 209.668 257.103C209.668 264.671 207.667 272.715 203.964 272.715Z" fill="black"/>
<path d="M94.067 242.511C94.0633 242.511 94.0596 242.511 94.0596 242.511H88.3848C88.3848 242.511 88.3811 242.511 88.3773 242.511C86.0531 242.511 84.1677 248.312 84.1677 255.556C84.1677 262.797 86.0531 268.602 88.3773 268.602H88.3811H94.0596C94.0596 268.602 94.0633 268.602 94.067 268.602C96.3913 268.602 98.2767 262.8 98.2767 255.556C98.2767 248.312 96.3913 242.511 94.067 242.511Z" fill="#5479F7"/>
<path d="M92.587 255.333C92.587 262.577 90.7016 268.453 88.3773 268.453C86.0531 268.453 84.1677 262.577 84.1677 255.333C84.1677 248.089 86.0531 242.217 88.3773 242.217C90.7016 242.217 92.587 248.089 92.587 255.333Z" fill="#99B9FF"/>
<path d="M90.0768 269.204H88.3811C85.2536 269.204 83.5653 262.172 83.5653 255.556C83.5653 248.941 85.2536 241.908 88.3774 241.908H90.0768C90.4115 241.908 90.6793 242.18 90.6793 242.511C90.6793 242.846 90.4115 243.113 90.0768 243.113H88.3848C86.6705 243.113 84.7739 248.223 84.7739 255.556C84.7739 262.886 86.6705 267.995 88.3774 267.995H90.0768C90.4115 267.995 90.6793 268.267 90.6793 268.602C90.6793 268.933 90.4115 269.204 90.0768 269.204Z" fill="black"/>
<path d="M104.84 242.674H104.833H99.1543C96.8301 242.674 94.9447 248.472 94.9447 255.716C94.9447 262.96 96.8301 268.765 99.1543 268.765H104.833H104.84C107.165 268.765 109.05 262.964 109.05 255.72C109.05 248.472 107.165 242.674 104.84 242.674Z" fill="#5479F7"/>
<path d="M103.36 255.497C103.36 262.741 101.479 268.613 99.1543 268.613C96.8301 268.613 94.9447 262.741 94.9447 255.497C94.9447 248.253 96.8301 242.381 99.1543 242.381C101.479 242.381 103.36 248.253 103.36 255.497Z" fill="#99B9FF"/>
<path d="M101.267 269.364H99.1581C96.0269 269.364 94.3386 262.335 94.3386 255.716C94.3386 249.1 96.0269 242.072 99.1544 242.072H101.267C101.601 242.072 101.873 242.34 101.873 242.674C101.873 243.005 101.601 243.277 101.267 243.277H99.1581C97.4475 243.277 95.5472 248.386 95.5472 255.716C95.5472 263.049 97.4475 268.159 99.1544 268.159H101.267C101.601 268.159 101.873 268.431 101.873 268.765C101.873 269.096 101.601 269.364 101.267 269.364Z" fill="black"/>
<path d="M116.086 242.057C116.082 242.057 116.078 242.057 116.078 242.057H110.184C110.184 242.057 110.18 242.057 110.177 242.057C107.763 242.057 105.807 248.256 105.807 255.88C105.807 263.499 107.763 269.702 110.177 269.702C110.18 269.702 110.184 269.702 110.184 269.702H116.078C116.078 269.702 116.082 269.702 116.086 269.702C118.499 269.702 120.455 263.499 120.455 255.88C120.455 248.26 118.499 242.057 116.086 242.057Z" fill="#5479F7"/>
<path d="M114.55 255.657C114.55 263.276 112.59 269.457 110.177 269.457C107.763 269.457 105.807 263.276 105.807 255.657C105.807 248.037 107.763 241.856 110.177 241.856C112.59 241.856 114.55 248.037 114.55 255.657Z" fill="#99B9FF"/>
<path d="M110.184 242.66C108.399 242.66 106.413 248.312 106.413 255.88C106.413 263.447 108.399 269.1 110.177 269.1H116.078C117.863 269.1 119.853 263.447 119.853 255.88C119.853 248.312 117.863 242.66 116.086 242.66H110.184ZM116.086 270.308H110.184C106.949 270.308 105.205 262.875 105.205 255.88C105.205 248.885 106.949 241.455 110.177 241.455H116.086C119.317 241.455 121.058 248.885 121.058 255.88C121.058 262.875 119.317 270.308 116.086 270.308Z" fill="black"/>
<path d="M241.266 228.826L245.491 232.619L247.016 260.919H270.882V228.904L241.266 228.826Z" fill="#5479F7"/>
<path d="M269.228 236.527C269.224 236.527 269.213 236.527 269.213 236.527H260.329H260.321C256.681 236.527 253.728 245.192 253.728 255.857C253.728 266.519 256.681 275.191 260.321 275.191H260.329H269.213C269.213 275.191 269.224 275.191 269.228 275.191C272.868 275.191 275.817 266.523 275.817 255.861C275.817 245.196 272.868 236.527 269.228 236.527Z" fill="#5479F7"/>
<path d="M266.911 255.575C266.911 266.24 263.962 274.883 260.321 274.883C256.681 274.883 253.732 266.24 253.732 255.575C253.732 244.913 256.681 236.271 260.321 236.271C263.962 236.271 266.911 244.913 266.911 255.575Z" fill="#99B9FF"/>
<path d="M260.321 236.877C257.428 236.877 254.334 244.393 254.334 255.579C254.334 266.765 257.428 274.28 260.321 274.28C263.211 274.28 266.305 266.765 266.305 255.579C266.305 244.393 263.211 236.877 260.321 236.877ZM260.321 275.485C255.818 275.485 253.125 265.363 253.125 255.579C253.125 245.791 255.818 235.668 260.321 235.668C264.821 235.668 267.513 245.791 267.513 255.579C267.513 265.363 264.821 275.485 260.321 275.485Z" fill="black"/>
<path d="M307.237 201.906H305.303C304.682 201.906 304.18 201.4 304.18 200.779V189.675C304.18 188.92 304.794 188.31 305.549 188.31H306.887C307.877 188.31 308.68 189.11 308.68 190.099V200.467C308.68 201.262 308.037 201.906 307.237 201.906Z" fill="#5479F7"/>
<path d="M325.775 233.709C325.771 233.709 325.76 233.709 325.76 233.709H316.876C316.876 233.709 316.869 233.709 316.865 233.709C313.228 233.709 310.275 242.377 310.275 253.035C310.275 263.697 313.228 272.372 316.865 272.372C316.869 272.372 316.872 272.372 316.872 272.372H325.76C325.76 272.372 325.771 272.372 325.775 272.372C329.416 272.372 332.365 263.7 332.365 253.039C332.365 242.377 329.416 233.709 325.775 233.709Z" fill="#5479F7"/>
<path d="M198.192 237.219L243.684 237.9L243.858 260.707H247.384C247.321 257.739 247.272 254.902 247.272 252.882C247.272 240.722 252.969 230.864 260.001 230.864C264.594 230.864 268.614 235.066 270.857 241.369C279.726 241.808 293.314 241.589 306.46 241.172C326.329 240.536 345.187 239.439 345.187 239.439C345.436 228.848 334.86 224.471 334.86 224.471C334.86 224.471 333.834 215.833 332.331 214.334C330.829 212.831 306.873 204.338 306.873 204.338L295.891 176.54C294.749 173.799 293.15 171.263 291.124 169.077C286.174 163.722 276.643 157.143 259.395 156.329C256.751 156.202 223.829 153.566 207.377 152.822C202.722 152.61 199.073 153.075 198.192 153.149V237.219Z" fill="#99B9FF"/>
<path d="M340.847 228.614L340.137 229.187C338.884 230.194 338.095 231.667 337.954 233.27L337.786 235.125C337.686 236.297 338.649 237.286 339.824 237.215L345.031 236.892C344.51 233.311 342.747 230.585 340.847 228.614Z" fill="white"/>
<path d="M295.556 215.654L255.703 204.342L246.618 175.421C245.483 171.799 243.594 168.445 241.017 165.655C235.086 159.244 222.606 151.089 198.188 153.149V237.223L241.776 237.703L242.137 260.919H247.38C247.313 257.951 247.268 254.905 247.268 252.882C247.268 240.722 252.969 230.864 260.001 230.864C264.594 230.864 268.614 235.07 270.853 241.373C279.726 241.808 293.31 241.592 306.456 241.172C307.735 241.131 310.275 241.042 310.275 241.042L301.64 220.994C300.521 218.391 298.286 216.428 295.556 215.654Z" fill="white"/>
<path d="M297.71 217.168C297.605 217.168 297.501 217.142 297.408 217.089C296.776 216.721 296.096 216.431 295.393 216.23L255.539 204.918C255.342 204.862 255.189 204.713 255.126 204.52L246.045 175.603C244.914 172.011 243.022 168.712 240.575 166.064C237.28 162.506 233.107 159.635 228.169 157.526C227.864 157.396 227.719 157.043 227.849 156.734C227.979 156.425 228.336 156.288 228.641 156.414C233.74 158.59 238.05 161.557 241.46 165.243C244.033 168.024 246.015 171.479 247.198 175.239L256.182 203.847L295.724 215.074C296.523 215.297 297.297 215.624 298.014 216.044C298.305 216.212 298.401 216.58 298.234 216.87C298.122 217.06 297.921 217.168 297.71 217.168Z" fill="#5479F7"/>
<path d="M266.386 219.172C255.68 220.894 244.755 232.206 241.389 237.903L241.564 260.707L247.38 260.919C247.313 257.951 247.268 254.905 247.268 252.882C247.268 240.722 252.969 230.864 260.001 230.864C264.594 230.864 268.614 235.07 270.853 241.373C279.726 241.808 293.31 241.592 306.456 241.172C307.735 241.131 309.011 241.087 310.275 241.042C292.749 219.927 276.97 217.469 266.386 219.172Z" fill="#99B9FF"/>
<path d="M246.216 186.64C247.164 190.132 249.355 198.615 250.422 202.757C250.731 203.951 249.827 205.115 248.589 205.115H232.122V185.097H244.193C245.141 185.097 245.967 185.729 246.216 186.64Z" fill="#99B9FF"/>
<path d="M334.819 227.893C335.009 225.486 334.86 223.066 334.362 220.7C333.815 218.116 332.952 215.249 331.974 214.334C331.29 213.694 330.866 213.471 329.178 212.75H305.816C304.043 212.75 302.377 213.601 301.339 215.037C299.93 216.989 299.509 219.477 300.19 221.779L302.741 230.38C303.184 231.883 304.571 232.917 306.14 232.917H330.758C332.822 232.917 334.544 231.329 334.707 229.272L334.819 227.893Z" fill="#5479F7"/>
<path d="M235.443 197.399H231.705C230.854 197.399 230.158 196.707 230.158 195.855V185.688C230.158 184.647 231.003 183.803 232.044 183.803H234.959C236.32 183.803 237.421 184.907 237.421 186.265V195.42C237.421 196.514 236.536 197.399 235.443 197.399Z" fill="#5479F7"/>
<path d="M235.443 205.97H231.705C230.854 205.97 230.158 205.279 230.158 204.427V200.575C230.158 199.537 231.003 198.693 232.044 198.693H234.959C236.32 198.693 237.421 199.797 237.421 201.155V203.992C237.421 205.085 236.536 205.97 235.443 205.97Z" fill="#5479F7"/>
<path d="M281.016 263.622L337.846 260.96C340.907 260.815 343.394 258.442 343.684 255.396L345.187 239.439L270.856 241.369L274.452 258.546C275.096 261.618 277.877 263.767 281.016 263.622Z" fill="#5479F7"/>
<path d="M280.707 264.232C277.394 264.232 274.545 261.941 273.861 258.669L270.265 241.496C270.195 241.168 270.406 240.849 270.734 240.782C271.061 240.715 271.377 240.923 271.448 241.246L275.044 258.423C275.628 261.22 278.119 263.157 280.986 263.02L337.82 260.357C340.564 260.227 342.825 258.07 343.086 255.34L344.588 239.383C344.618 239.052 344.912 238.807 345.243 238.837C345.577 238.87 345.819 239.164 345.786 239.495L344.287 255.452C343.971 258.777 341.215 261.406 337.876 261.562L281.046 264.225C280.931 264.232 280.819 264.232 280.707 264.232Z" fill="black"/>
<path d="M253.367 183.732L258.187 200.125C258.581 201.471 259.801 202.412 261.206 202.452L299.982 203.587C301.417 203.628 302.417 202.174 301.86 200.85L295.761 184.599C295.255 183.249 293.98 182.345 292.54 182.312L255.137 181.494C253.932 181.43 253.029 182.576 253.367 183.732Z" fill="#CADDFF"/>
<path d="M295.761 184.599C295.255 183.249 293.98 182.345 292.541 182.312L255.137 181.494C253.932 181.43 253.025 182.579 253.367 183.732L256.96 195.963H270.421C273.646 195.963 276.736 194.68 279.015 192.404L279.038 192.386C281.317 190.106 284.411 188.827 287.636 188.827H297.349L295.761 184.599Z" fill="#5479F7"/>
<path d="M255.059 182.092C254.691 182.092 254.367 182.252 254.148 182.527C253.918 182.825 253.843 183.201 253.947 183.561L258.767 199.954C259.09 201.054 260.076 201.817 261.221 201.85L300 202.984C300.473 202.999 300.904 202.78 301.172 202.389C301.439 201.995 301.491 201.523 301.309 201.084L295.199 184.807C294.779 183.684 293.73 182.94 292.529 182.914L255.126 182.096C255.104 182.092 255.081 182.092 255.059 182.092ZM300.045 204.189C300.015 204.189 299.993 204.189 299.967 204.189L261.188 203.055C259.514 203.007 258.075 201.895 257.607 200.292L252.791 183.903C252.575 183.171 252.728 182.379 253.2 181.78C253.672 181.181 254.408 180.85 255.171 180.887L292.555 181.709C294.255 181.747 295.735 182.795 296.33 184.383L302.429 200.638C302.763 201.43 302.667 202.348 302.168 203.07C301.685 203.776 300.893 204.189 300.045 204.189Z" fill="#5479F7"/>
<path d="M300.971 236.494L294.627 232.429C291.912 230.689 288.755 229.763 285.531 229.763H283.98C281.756 229.763 279.953 231.563 279.953 233.787V233.868C279.953 236.301 281.923 238.271 284.356 238.271H300.45C301.413 238.271 301.782 237.015 300.971 236.494Z" fill="white"/>
<path d="M242.163 260.104H246.77C246.699 257.01 246.67 254.586 246.67 252.882C246.67 240.406 252.649 230.258 260.001 230.258C264.639 230.258 268.833 234.188 271.284 240.789C278.945 241.142 290.767 241.068 306.437 240.57C324.168 240.001 341.29 239.056 344.584 238.87C344.447 229.205 334.73 225.074 334.629 225.033C334.41 224.943 334.265 224.735 334.257 224.501C334.25 224.427 333.904 217.227 331.532 214.75C330.535 213.705 315.753 208.157 306.668 204.907C306.504 204.847 306.374 204.721 306.311 204.561L295.33 176.76C294.195 174.038 292.626 171.587 290.681 169.486C285.795 164.201 276.397 157.735 259.369 156.931C258.622 156.898 255.613 156.675 251.062 156.336C239.924 155.503 219.196 153.964 207.351 153.424C203.402 153.246 200.219 153.555 198.795 153.696V236.624L241.4 237.297C241.727 237.305 241.992 237.569 241.995 237.896L242.163 260.104ZM247.384 261.313H241.564C241.233 261.313 240.965 261.045 240.958 260.714L240.79 238.495L198.177 237.822C197.85 237.818 197.586 237.55 197.586 237.219V153.149C197.586 152.837 197.828 152.577 198.14 152.547C198.248 152.539 198.4 152.521 198.59 152.506C199.996 152.365 203.287 152.034 207.407 152.223C219.266 152.759 240.009 154.302 251.151 155.131C255.531 155.459 258.692 155.693 259.425 155.726C276.862 156.552 286.527 163.216 291.57 168.668C293.608 170.873 295.255 173.443 296.449 176.31L307.334 203.862C311.833 205.476 330.944 212.389 332.405 213.914C334.782 216.402 335.336 222.497 335.44 224.077C337.314 224.977 346.02 229.692 345.789 239.454C345.782 239.766 345.533 240.023 345.22 240.042C345.031 240.053 326.139 241.146 306.49 241.775C306.486 241.775 306.482 241.775 306.475 241.775C290.495 242.284 278.502 242.351 270.823 241.972C270.581 241.964 270.366 241.804 270.284 241.574C268.038 235.244 264.192 231.466 260.001 231.466C253.315 231.466 247.875 241.072 247.875 252.882C247.875 254.69 247.912 257.315 247.986 260.696C247.994 260.859 247.93 261.015 247.811 261.131C247.7 261.246 247.544 261.313 247.384 261.313Z" fill="black"/>
<path d="M207.809 229.161H219.828V215.539H207.809V229.161ZM220.43 230.369H207.206C206.872 230.369 206.6 230.098 206.6 229.763V214.936C206.6 214.602 206.872 214.33 207.206 214.33H220.43C220.765 214.33 221.033 214.602 221.033 214.936V229.763C221.033 230.098 220.765 230.369 220.43 230.369Z" fill="#5479F7"/>
<path d="M46.984 297.812L52.1865 298.192L148.744 297.812C153.128 297.812 156.233 294.272 155.679 289.903L130.626 92.106C130.072 87.7365 126.067 84.1962 121.683 84.1962L25.0285 83.0695C13.9354 83.0695 12.4294 87.7365 12.9834 92.106L38.0404 289.903C38.5945 294.272 42.5959 297.812 46.984 297.812Z" fill="black"/>
<path d="M53.105 297.812H154.865C159.253 297.812 162.354 294.261 161.8 289.877L136.747 91.4515C136.193 87.0708 132.192 83.5194 127.804 83.5194H26.0437C21.6593 83.5194 18.5541 87.0708 19.1082 91.4515L44.1651 289.877C44.7155 294.261 48.7206 297.812 53.105 297.812Z" fill="white"/>
<path d="M26.0438 84.1218C24.11 84.1218 22.3882 84.8656 21.1982 86.2192C19.9896 87.5877 19.4579 89.421 19.707 91.3771L44.764 289.802C45.2771 293.885 49.0219 297.21 53.1051 297.21H154.865C156.799 297.21 158.521 296.462 159.714 295.113C160.923 293.74 161.455 291.911 161.205 289.955L136.149 91.5296C135.632 87.4426 131.891 84.1218 127.807 84.1218H26.0438ZM154.865 298.415H53.1051C48.4344 298.415 44.1541 294.622 43.5628 289.955L18.5096 91.5296C18.2158 89.2239 18.8517 87.0522 20.2909 85.4196C21.7189 83.8057 23.7605 82.9132 26.0438 82.9132H127.807C132.478 82.9132 136.755 86.7101 137.346 91.3771L162.403 289.802C162.693 292.108 162.061 294.276 160.622 295.912C159.194 297.526 157.152 298.415 154.865 298.415Z" fill="black"/>
<path d="M156.003 290.152L132.08 100.689C131.954 99.6774 131.028 98.8593 130.016 98.8593H27.7097C26.6945 98.8593 25.9768 99.6774 26.1069 100.689L50.0296 290.152C50.1598 291.163 51.082 291.985 52.0935 291.985H154.404C155.415 291.985 156.133 291.163 156.003 290.152Z" fill="#CADDFF"/>
<path d="M27.7098 99.4616C27.3974 99.4616 27.1222 99.5732 26.9363 99.7852C26.7466 100.001 26.6648 100.295 26.7057 100.611L50.6321 290.077C50.7214 290.784 51.3908 291.379 52.0936 291.379H154.404C154.716 291.379 154.988 291.267 155.174 291.052C155.363 290.836 155.445 290.546 155.404 290.23L131.481 100.763C131.392 100.057 130.719 99.4616 130.016 99.4616H27.7098ZM154.404 292.587H52.0936C50.7697 292.587 49.5983 291.55 49.431 290.23L25.5083 100.763C25.4227 100.098 25.6087 99.4654 26.0326 98.9894C26.4491 98.5134 27.0478 98.2531 27.7098 98.2531H130.016C131.344 98.2531 132.512 99.2906 132.679 100.611L156.605 290.077C156.687 290.743 156.501 291.371 156.081 291.851C155.661 292.327 155.066 292.587 154.404 292.587Z" fill="black"/>
<path d="M78.1992 93.6121C79.8429 93.6121 81.0068 92.2807 80.7986 90.6371C80.5903 88.9971 79.0917 87.6658 77.448 87.6658C75.8043 87.6658 74.6403 88.9971 74.8486 90.6371C75.0568 92.2807 76.5555 93.6121 78.1992 93.6121Z" fill="#CADDFF"/>
<path d="M119.254 170.412C122.731 188.622 111.132 203.39 93.3419 203.39C75.5514 203.39 58.3076 188.622 54.8268 170.412C51.3461 152.197 62.9486 137.434 80.7391 137.434C98.5296 137.434 115.773 152.197 119.254 170.412Z" fill="white"/>
<path d="M101.326 156.325L96.1831 171.382L84.6959 175.09L79.5194 160.282L86.2577 147.605C80.2296 147.125 73.0822 151.171 71.1671 156.838C68.8614 163.655 71.617 171.814 77.4666 177.25L71.2228 195.714C74.7854 198.336 78.7198 200.381 82.8402 201.698L88.6638 182.866C95.96 184.026 102.635 180.594 104.941 173.777C106.64 168.746 103.758 156.385 103.758 156.385L101.326 156.325Z" fill="#CADDFF"/>
<path d="M99.4518 169.114L87.9646 172.821L81.9514 160.338L86.2577 147.605C80.4527 147.902 75.5142 151.23 73.5991 156.898C71.2934 163.714 74.0453 171.877 79.8986 177.31L73.2086 197.086C76.7414 199.392 80.5829 201.143 84.5694 202.207L91.0921 182.922C98.392 184.086 105.067 180.653 107.373 173.837C109.288 168.169 107.707 161.572 103.758 156.385L99.4518 169.114Z" fill="#5479F7"/>
<path d="M119.529 252.403C120.738 264.656 112.296 274.589 100.675 274.589C89.0505 274.589 78.6492 264.656 77.4406 252.403C76.232 240.153 84.6736 230.22 96.2984 230.22C107.919 230.22 118.321 240.153 119.529 252.403Z" fill="#99B9FF"/>
<path d="M93.3345 250.365C94.8369 250.495 96.2872 250.049 97.347 248.985L97.5181 248.81C98.1726 248.156 98.0871 246.973 97.3284 246.17L90.9694 239.406C90.2108 238.602 89.0691 238.483 88.4146 239.138L87.9312 239.621C84.5359 243.031 84.9748 249.186 88.9166 253.377L97.1388 262.112C101.077 266.296 107.023 266.928 110.422 263.518L110.902 263.035C111.556 262.38 111.471 261.194 110.712 260.391L104.353 253.63C103.595 252.827 102.449 252.704 101.798 253.358L101.627 253.53C100.567 254.597 100.091 256.081 100.181 257.635C99.701 257.341 99.2436 256.969 98.8308 256.531L94.3646 251.785C93.9481 251.347 93.606 250.867 93.3345 250.365Z" fill="#5479F7"/>
<path d="M112.222 125.419L55.0016 124.641L53.2538 115.605L110.474 116.382L112.222 125.419Z" fill="white"/>
</svg>
