<svg width="358" height="358" viewBox="0 0 358 358" fill="none" xmlns="http://www.w3.org/2000/svg">
<mask id="mask0_10117_5807" style="mask-type:luminance" maskUnits="userSpaceOnUse" x="14" y="325" width="3" height="2">
<path d="M14.9089 325.426H16.2626V326.589H14.9089V325.426Z" fill="white"/>
</mask>
<g mask="url(#mask0_10117_5807)">
<mask id="mask1_10117_5807" style="mask-type:luminance" maskUnits="userSpaceOnUse" x="14" y="325" width="3" height="2">
<path d="M16.2402 325.851C15.6659 326.783 15.0917 326.638 14.9499 326.425C14.8791 326.209 14.9499 325.638 15.1662 325.493C15.3079 325.351 16.0948 325.564 16.0948 325.564" fill="white"/>
</mask>
<g mask="url(#mask1_10117_5807)">
<path d="M12.0859 322.629H19.1676V329.576H12.0859V322.629Z" fill="#0571D3"/>
</g>
</g>
<path d="M24.355 272.162C32.8836 295.264 53.1703 309.021 65.7488 317.553C120.131 354.427 199.458 352.224 254.62 326.425C309.069 300.962 360.961 234.427 349.784 156.659C338.563 78.5847 269.018 33.2679 214.27 20.4172C127.343 0.00371647 49.6835 47.2896 38.5408 65.7042C34.9645 71.6186 34.3678 85.2189 34.3678 85.2189C34.4238 100.449 50.1497 112.14 49.5269 146.787C48.3895 210.541 9.39735 231.637 24.355 272.162Z" fill="#CADDFF"/>
<path d="M20.9429 254.359C20.9988 259.979 22.0169 265.834 24.3551 272.158C32.8837 295.264 53.1703 309.021 65.7488 317.553C120.131 354.427 199.458 352.224 254.624 326.425C283.901 312.735 312.437 287.164 330.829 254.359H20.9429Z" fill="#99B9FF"/>
<path d="M324.236 87.2252C324.236 109.492 288.697 163.013 280.183 175.513C279.307 176.796 277.42 176.792 276.547 175.513C270.45 166.556 250.503 136.584 239.666 112.106C235.362 102.395 232.495 93.5498 232.495 87.2252C232.495 61.9228 253.035 41.4124 278.363 41.4124C303.699 41.4124 324.236 61.9228 324.236 87.2252Z" fill="#5479F7"/>
<path d="M299.34 87.2252C299.34 98.793 289.95 108.172 278.363 108.172C266.781 108.172 257.394 98.793 257.394 87.2252C257.394 75.6536 266.781 66.2784 278.363 66.2784C289.95 66.2784 299.34 75.6536 299.34 87.2252Z" fill="white"/>
<path d="M282.432 106.352C277.674 106.352 273.072 104.786 269.249 101.825C264.7 98.2934 261.795 93.2068 261.075 87.4975C261.034 87.1693 261.265 86.8747 261.593 86.83C261.922 86.7889 262.224 87.0239 262.261 87.3483C262.943 92.7444 265.684 97.5476 269.984 100.881C274.284 104.215 279.624 105.673 285.024 104.995C290.424 104.316 295.238 101.579 298.576 97.2828C301.909 92.9905 303.375 87.6578 302.693 82.2617C302.014 76.8694 299.273 72.0662 294.973 68.7323C291.557 66.0846 287.478 64.6079 283.17 64.4661C282.842 64.455 282.581 64.179 282.592 63.8508C282.604 63.5189 282.894 63.2616 283.211 63.2728C287.768 63.422 292.091 64.9845 295.708 67.7888C300.257 71.3166 303.162 76.4032 303.882 82.1126C304.602 87.8219 303.051 93.4716 299.519 98.0175C295.987 102.56 290.893 105.461 285.177 106.181C284.259 106.296 283.342 106.352 282.432 106.352Z" fill="black"/>
<path d="M233.401 321.801C233.401 321.801 233.397 321.801 233.393 321.801L154.182 320.895C153.854 320.891 153.589 320.623 153.593 320.291C153.597 319.959 153.873 319.698 154.197 319.701L233.408 320.604C233.74 320.608 234.005 320.88 233.998 321.208C233.994 321.536 233.729 321.801 233.401 321.801Z" fill="black"/>
<path d="M251.864 312.571C251.86 312.571 251.857 312.571 251.857 312.571L210.164 312.094C209.836 312.09 209.572 311.818 209.575 311.49C209.579 311.158 209.859 310.901 210.179 310.901L251.871 311.374C252.2 311.378 252.464 311.65 252.461 311.978C252.457 312.307 252.188 312.571 251.864 312.571Z" fill="black"/>
<path d="M150.043 92.5132C150.043 107.806 137.628 120.206 122.316 120.206C107.004 120.206 94.5901 107.806 94.5901 92.5132C94.5901 77.2198 107.004 64.8241 122.316 64.8241C137.628 64.8241 150.043 77.2198 150.043 92.5132Z" fill="white"/>
<path d="M122.316 65.4208C107.359 65.4208 95.1867 77.5778 95.1867 92.5131C95.1867 107.452 107.359 119.606 122.316 119.606C137.274 119.606 149.446 107.452 149.446 92.5131C149.446 77.5778 137.274 65.4208 122.316 65.4208ZM122.316 120.803C106.699 120.803 93.9934 108.112 93.9934 92.5131C93.9934 76.914 106.699 64.2274 122.316 64.2274C137.934 64.2274 150.639 76.914 150.639 92.5131C150.639 108.112 137.934 120.803 122.316 120.803Z" fill="black"/>
<path d="M127.265 94.1428H117.689C116.805 94.1428 116.044 93.5163 115.876 92.6474L112.49 75.1315C112.363 74.464 112.874 73.8412 113.557 73.8412H130.327C131.311 73.8412 132.057 74.7287 131.885 75.6983L128.884 92.7816C128.746 93.5685 128.063 94.1428 127.265 94.1428Z" fill="#5479F7"/>
<path d="M124.274 99.718H120.717C120.336 99.718 120.031 99.4122 120.031 99.0318V95.422C120.031 95.0416 120.336 94.7321 120.717 94.7321H124.274C124.655 94.7321 124.96 95.0416 124.96 95.422V99.0318C124.96 99.4122 124.655 99.718 124.274 99.718Z" fill="#5479F7"/>
<path d="M122.667 111.129C122.574 111.129 122.477 111.125 122.38 111.122C119.486 110.864 117.506 109.037 117.312 106.46C117.144 104.219 118.472 101.448 121.761 100.449C121.914 94.8215 122.063 86.0804 121.843 85.2562C121.72 84.9504 121.873 84.6148 122.178 84.4918C122.484 84.3724 122.839 84.5328 122.962 84.8386C123.323 85.7447 123.07 96.3915 122.943 100.926C122.935 101.195 122.749 101.426 122.488 101.489C119.553 102.198 118.367 104.517 118.505 106.371C118.621 107.933 119.721 109.69 122.458 109.928C123.734 109.988 124.96 109.526 125.635 108.728C126.105 108.165 126.269 107.478 126.102 106.74C126.027 106.416 126.232 106.099 126.553 106.024C126.873 105.953 127.194 106.154 127.269 106.475C127.515 107.575 127.261 108.649 126.553 109.492C125.684 110.529 124.248 111.129 122.667 111.129Z" fill="#5479F7"/>
<path d="M190.926 149.029C190.926 164.322 178.511 176.718 163.196 176.718C147.884 176.718 135.469 164.322 135.469 149.029C135.469 133.735 147.884 121.34 163.196 121.34C178.511 121.34 190.926 133.735 190.926 149.029Z" fill="white"/>
<path d="M177.81 137.2L170.907 149.845L160.41 152.959L158.389 140.522L166.272 129.879C161.163 129.477 154.35 132.874 151.766 137.632C148.663 143.357 149.689 150.207 153.835 154.772L145.422 170.277C148.059 172.478 151.106 174.193 154.439 175.301L162.547 159.489C168.636 160.462 174.946 157.58 178.053 151.855C180.342 147.63 179.895 137.252 179.895 137.252L177.81 137.2Z" fill="#99B9FF"/>
<path d="M174.092 147.943L163.595 151.054L160.473 140.571L166.272 129.879C161.23 130.126 156.435 132.922 153.85 137.681C150.744 143.409 151.773 150.259 155.916 154.824L146.906 171.43C149.565 173.365 152.586 174.834 155.845 175.729L164.627 159.537C170.717 160.511 177.031 157.628 180.133 151.904C182.718 147.145 182.442 141.608 179.895 137.252L174.092 147.943Z" fill="#5479F7"/>
<path d="M163.196 121.936C148.238 121.936 136.07 134.09 136.07 149.029C136.07 163.971 148.238 176.125 163.196 176.125C178.157 176.125 190.325 163.971 190.325 149.029C190.325 134.09 178.157 121.936 163.196 121.936ZM163.196 177.318C147.578 177.318 134.873 164.628 134.873 149.029C134.873 133.433 147.578 120.743 163.196 120.743C178.813 120.743 191.522 133.433 191.522 149.029C191.522 164.628 178.813 177.318 163.196 177.318Z" fill="black"/>
<path d="M69.9476 65.6035C69.7686 65.6035 69.5896 65.5215 69.4703 65.3649C69.2689 65.1075 69.3211 64.7309 69.5822 64.5295C99.904 41.3602 138.143 30.0198 177.273 32.5929C183.34 32.992 189.415 33.7341 195.322 34.7931C195.647 34.8528 195.863 35.1623 195.807 35.4868C195.747 35.8112 195.434 36.0275 195.113 35.9678C189.247 34.9162 183.217 34.1816 177.195 33.7825C138.355 31.2281 100.4 42.4827 70.3094 65.4805C70.2012 65.5625 70.0744 65.6035 69.9476 65.6035Z" fill="black"/>
<path d="M237.082 40.1482C237 40.1482 236.914 40.1333 236.835 40.096C217.694 31.4667 197.034 26.6934 175.442 25.9028C172.47 25.7909 169.461 25.7611 166.496 25.8096C166.157 25.8096 165.895 25.5485 165.892 25.2166C165.884 24.8885 166.149 24.6163 166.477 24.6125C169.464 24.564 172.492 24.5976 175.487 24.7095C197.235 25.5038 218.04 30.3144 237.328 39.0071C237.626 39.1414 237.76 39.4956 237.626 39.7977C237.525 40.0177 237.309 40.1482 237.082 40.1482Z" fill="black"/>
<path d="M88.3847 42.8556C88.1684 42.8556 87.9596 42.7362 87.8514 42.5274C87.7023 42.2328 87.8216 41.8748 88.1162 41.7256C106.99 32.179 127.317 26.3279 148.525 24.3291C148.853 24.2992 149.144 24.5379 149.178 24.8661C149.207 25.198 148.969 25.4888 148.637 25.5187C127.578 27.4988 107.396 33.3126 88.6569 42.7922C88.5712 42.8332 88.4779 42.8556 88.3847 42.8556Z" fill="black"/>
<path d="M333.648 222.43C339.171 217.776 344.553 203.199 335.685 193.38C328.924 185.895 329.658 183.732 328.439 177.217C327.212 170.703 324.277 160.175 315.711 157.733C307.153 155.29 301.57 168.424 297.901 181.454C294.231 194.484 284.614 200.092 292.057 214.151C297.263 223.974 316.252 237.089 333.648 222.43Z" fill="#99B9FF"/>
<path d="M313.134 253.401C312.802 253.401 312.534 253.132 312.534 252.8V207.103C312.534 206.775 312.802 206.51 313.134 206.51C313.466 206.51 313.731 206.775 313.731 207.103V252.8C313.731 253.132 313.466 253.401 313.134 253.401Z" fill="#5479F7"/>
<path d="M346.872 263.268C346.26 263.268 345.772 262.776 345.772 262.168V244.887C345.772 244.421 346.149 244.044 346.615 244.044H348.3C349.811 244.044 351.034 245.264 351.034 246.77V259.11C351.034 261.407 349.169 263.268 346.872 263.268Z" fill="#5479F7"/>
<path d="M54.0801 301.514L61.7547 303.472L142.111 282.16L141.089 278.341L54.0801 301.514Z" fill="#5479F7"/>
<path d="M218.298 289.913H218.294H212.04C212.04 289.913 212.036 289.913 212.033 289.913C209.474 289.913 207.394 296.014 207.394 303.513C207.394 311.009 209.474 317.113 212.033 317.113C212.036 317.113 212.036 317.113 212.036 317.113H218.294H218.298C220.86 317.113 222.937 311.012 222.937 303.513C222.937 296.014 220.86 289.913 218.298 289.913Z" fill="#5479F7"/>
<path d="M267.008 310.177L267.437 280.802L141.346 282.559L141.54 304.606L267.008 310.177Z" fill="#5479F7"/>
<path d="M250.823 286.736L254.743 290.39L253.676 315.088C253.617 316.502 254.743 317.688 256.156 317.688H278.274V286.806L250.823 286.736Z" fill="#5479F7"/>
<path d="M319.582 287.545H246.431V211.395H316.953C318.407 211.395 319.582 212.574 319.582 214.024V287.545Z" fill="#99B9FF"/>
<path d="M319.586 288.138H307.891C307.559 288.138 307.294 287.873 307.294 287.545C307.294 287.213 307.559 286.945 307.891 286.945H318.985V213.025C318.985 212.346 318.433 211.791 317.751 211.791H247.027V287.545C247.027 287.873 246.759 288.138 246.431 288.138C246.099 288.138 245.834 287.873 245.834 287.545V211.194C245.834 210.862 246.099 210.597 246.431 210.597H317.751C319.093 210.597 320.182 211.686 320.182 213.025V287.545C320.182 287.873 319.914 288.138 319.586 288.138Z" fill="black"/>
<path d="M273.344 295.66C273.34 295.66 273.333 295.66 273.333 295.66H266.113C266.113 295.66 266.106 295.66 266.102 295.66C263.145 295.66 260.747 302.704 260.747 311.363C260.747 320.026 263.145 327.074 266.102 327.074C266.106 327.074 266.109 327.074 266.109 327.074H273.333C273.333 327.074 273.34 327.074 273.344 327.074C276.301 327.074 278.699 320.03 278.699 311.367C278.699 302.704 276.301 295.66 273.344 295.66Z" fill="#5479F7"/>
<path d="M271.461 311.136C271.461 319.798 269.063 326.82 266.102 326.82C263.145 326.82 260.747 319.798 260.747 311.136C260.747 302.476 263.145 295.454 266.102 295.454C269.063 295.454 271.461 302.476 271.461 311.136Z" fill="#99B9FF"/>
<path d="M266.106 296.051C263.853 296.051 261.347 302.245 261.347 311.136C261.347 320.03 263.853 326.224 266.106 326.224C268.354 326.224 270.86 320.03 270.86 311.136C270.86 302.245 268.354 296.051 266.106 296.051ZM266.106 327.421C262.235 327.421 260.15 319.03 260.15 311.136C260.15 303.245 262.235 294.854 266.106 294.854C269.969 294.854 272.057 303.245 272.057 311.136C272.057 319.03 269.969 327.421 266.106 327.421Z" fill="black"/>
<path d="M332.41 294.895C332.406 294.895 332.403 294.895 332.403 294.895H325.176C325.176 294.895 325.172 294.895 325.168 294.895C322.207 294.895 319.813 301.936 319.813 310.599C319.813 319.261 322.207 326.306 325.168 326.306H332.403C332.403 326.306 332.406 326.306 332.41 326.306C335.367 326.306 337.765 319.261 337.765 310.602C337.765 301.939 335.367 294.895 332.41 294.895Z" fill="#5479F7"/>
<path d="M330.527 310.498C330.527 319.228 328.11 326.306 325.127 326.306C322.144 326.306 319.727 319.228 319.727 310.498C319.727 301.764 322.144 294.686 325.127 294.686C328.11 294.686 330.527 301.764 330.527 310.498Z" fill="#99B9FF"/>
<path d="M250.667 221.639L250.454 287.105L252.923 289.182C253.829 289.943 254.333 291.088 254.28 292.273L253.262 315.857C253.221 316.86 254.016 317.699 255.015 317.699C255.772 317.699 256.477 317.695 256.477 317.673C256.477 302.943 259.244 290.871 262.828 290.871C266.411 290.871 269.316 302.808 269.316 317.535C269.316 317.587 277.89 317.688 277.89 317.688V221.915L250.667 221.639Z" fill="white"/>
<path d="M338.865 221.736H278.367V317.688H343.993C345.947 317.688 347.536 316.095 347.536 314.126V283.361C347.536 274.813 346.782 266.285 345.287 257.876L338.865 221.736Z" fill="#99B9FF"/>
<path d="M278.964 317.091H343.989C345.615 317.091 346.939 315.764 346.939 314.126V283.361C346.939 274.873 346.186 266.333 344.698 257.98L338.362 222.333H278.964V317.091ZM343.989 318.288H278.364C278.035 318.288 277.767 318.02 277.767 317.692V221.736C277.767 221.408 278.035 221.14 278.364 221.14H338.866C339.153 221.14 339.403 221.348 339.455 221.632L345.876 257.771C347.375 266.192 348.132 274.802 348.132 283.361V314.126C348.132 316.42 346.275 318.288 343.989 318.288Z" fill="black"/>
<path d="M268.209 264.775L271.39 265.323C272.441 265.505 273.404 264.689 273.404 263.619V243.738C273.404 242.381 272.311 241.285 270.961 241.285H266.538C265.412 241.285 264.498 242.202 264.498 243.332V260.352C264.498 262.541 266.065 264.405 268.209 264.775Z" fill="#99B9FF"/>
<path d="M286.903 239.435H334.029C336.251 239.435 338.157 241.046 338.541 243.246L342.546 266.195C342.934 268.41 341.237 270.439 339 270.439H285.922C283.931 270.439 282.32 268.817 282.32 266.818V244.044C282.32 241.497 284.375 239.435 286.903 239.435Z" fill="#5479F7"/>
<path d="M317.986 261.374C315.234 258.566 311.475 256.969 307.552 256.969H282.275V266.822C282.275 268.817 283.935 270.376 285.923 270.376H339C341.241 270.376 342.934 268.381 342.546 266.166L342.475 265.782H328.42C324.501 265.782 320.742 264.182 317.986 261.374Z" fill="#CADDFF"/>
<path d="M286.907 240.032C284.71 240.032 282.92 241.833 282.92 244.044V266.818C282.92 268.485 284.267 269.843 285.922 269.843H339.003C339.887 269.843 340.723 269.451 341.293 268.772C341.871 268.086 342.114 267.184 341.957 266.296L337.952 243.351C337.616 241.43 335.964 240.032 334.029 240.032H286.907ZM339.003 271.036H285.922C283.61 271.036 281.723 269.145 281.723 266.818V244.044C281.723 241.173 284.047 238.838 286.907 238.838H334.029C336.55 238.838 338.694 240.651 339.13 243.145L343.135 266.091C343.352 267.329 343.016 268.586 342.207 269.54C341.409 270.491 340.241 271.036 339.003 271.036Z" fill="black"/>
<path d="M234.128 292.214C234.124 292.214 234.117 292.214 234.117 292.214H227.087C224.208 292.214 221.878 299.109 221.878 307.533C221.878 315.957 224.208 322.856 227.087 322.856H234.117C234.117 322.856 234.124 322.856 234.128 322.856C237.003 322.856 239.334 315.957 239.334 307.537C239.334 299.113 237.003 292.214 234.128 292.214Z" fill="#5479F7"/>
<path d="M232.297 307.358C232.297 315.782 229.963 322.61 227.087 322.61C224.208 322.61 221.878 315.782 221.878 307.358C221.878 298.934 224.208 292.106 227.087 292.106C229.963 292.106 232.297 298.934 232.297 307.358Z" fill="#CADDFF"/>
<path d="M157.21 290.297H157.207H151.184C151.184 290.297 151.18 290.297 151.177 290.297C148.712 290.297 146.709 296.003 146.709 303.129C146.709 310.255 148.712 315.965 151.177 315.965C151.18 315.965 151.18 315.965 151.18 315.965H157.207H157.21C159.679 315.965 161.678 310.255 161.678 303.129C161.678 296.003 159.679 290.297 157.21 290.297Z" fill="#5479F7"/>
<path d="M155.64 302.913C155.64 310.039 153.642 315.816 151.177 315.816C148.712 315.816 146.709 310.039 146.709 302.913C146.709 295.786 148.712 290.01 151.177 290.01C153.642 290.01 155.64 295.786 155.64 302.913Z" fill="#CADDFF"/>
<path d="M168.644 291.062C168.64 291.062 168.636 291.062 168.636 291.062H162.61C160.141 291.062 158.143 296.767 158.143 303.894C158.143 311.024 160.141 316.729 162.61 316.729H168.636C168.636 316.729 168.64 316.729 168.644 316.729C171.109 316.729 173.108 311.024 173.108 303.894C173.108 296.767 171.109 291.062 168.644 291.062Z" fill="#5479F7"/>
<path d="M167.074 303.677C167.074 310.804 165.075 316.584 162.61 316.584C160.141 316.584 158.143 310.804 158.143 303.677C158.143 296.551 160.141 290.774 162.61 290.774C165.075 290.774 167.074 296.551 167.074 303.677Z" fill="#CADDFF"/>
<path d="M180.574 291.062C180.57 291.062 180.566 291.062 180.566 291.062H174.312C174.312 291.062 174.309 291.062 174.305 291.062C171.747 291.062 169.669 297.162 169.669 304.662C169.669 312.161 171.747 318.262 174.305 318.262C174.309 318.262 174.312 318.262 174.312 318.262H180.566C180.566 318.262 180.57 318.262 180.574 318.262C183.135 318.262 185.209 312.161 185.209 304.662C185.209 297.162 183.135 291.062 180.574 291.062Z" fill="#5479F7"/>
<path d="M178.944 304.445C178.944 311.941 176.867 318.02 174.305 318.02C171.747 318.02 169.669 311.941 169.669 304.445C169.669 296.946 171.747 290.868 174.305 290.868C176.867 290.868 178.944 296.946 178.944 304.445Z" fill="#CADDFF"/>
<path d="M295.838 307.198H287.328C285.863 307.198 284.677 306.004 284.677 304.535V299.75H291.408C293.686 299.75 295.723 301.197 296.48 303.364L297.162 305.318C297.486 306.236 296.808 307.198 295.838 307.198Z" fill="#CADDFF"/>
<path d="M285.274 300.347V304.535C285.274 305.676 286.198 306.605 287.328 306.605H295.838C296.103 306.605 296.342 306.478 296.495 306.262C296.651 306.042 296.689 305.769 296.603 305.516L295.917 303.562C295.245 301.637 293.429 300.347 291.404 300.347H285.274ZM295.838 307.794H287.328C285.535 307.794 284.08 306.332 284.08 304.535V299.75C284.08 299.419 284.345 299.15 284.677 299.15H291.404C293.94 299.15 296.208 300.765 297.047 303.166L297.729 305.12C297.945 305.739 297.848 306.422 297.472 306.955C297.088 307.488 296.495 307.794 295.838 307.794Z" fill="black"/>
<path d="M331.265 306.683H339.775C341.241 306.683 342.427 305.49 342.427 304.017V299.236H335.699C333.417 299.236 331.381 300.683 330.624 302.849L329.941 304.803C329.621 305.721 330.299 306.683 331.265 306.683Z" fill="#CADDFF"/>
<path d="M335.699 299.832C333.674 299.832 331.866 301.123 331.191 303.043L330.505 305.001C330.415 305.255 330.456 305.527 330.609 305.747C330.766 305.963 331.004 306.086 331.265 306.086H339.779C340.913 306.086 341.834 305.158 341.834 304.017V299.832H335.699ZM339.779 307.28H331.265C330.609 307.28 330.016 306.974 329.636 306.437C329.259 305.907 329.162 305.221 329.375 304.606L330.061 302.648C330.9 300.25 333.167 298.639 335.699 298.639H342.427C342.762 298.639 343.027 298.904 343.027 299.236V304.017C343.027 305.818 341.569 307.28 339.779 307.28Z" fill="black"/>
<path d="M325.198 312.232H302.797C301.648 312.232 300.582 311.613 300.011 310.61L299.023 308.872C298.687 308.283 299.113 307.548 299.784 307.548H328.208C328.883 307.548 329.304 308.283 328.972 308.872L327.98 310.61C327.409 311.613 326.347 312.232 325.198 312.232Z" fill="#5479F7"/>
<path d="M265.953 262.515H264.718C262.19 262.515 260.139 260.464 260.139 257.939V248.195C260.139 246.252 261.716 244.678 263.659 244.678H265.927C266.818 244.678 267.541 245.402 267.541 246.289V260.926C267.541 261.802 266.829 262.515 265.953 262.515Z" fill="#5479F7"/>
<path d="M263.659 245.275C262.045 245.275 260.736 246.584 260.736 248.195V257.939C260.736 260.132 262.522 261.914 264.718 261.914H265.953C266.497 261.914 266.941 261.474 266.941 260.93V246.289C266.941 245.73 266.486 245.275 265.927 245.275H263.659ZM265.953 263.111H264.718C261.862 263.111 259.539 260.792 259.539 257.939V248.195C259.539 245.927 261.385 244.081 263.659 244.081H265.927C267.142 244.081 268.138 245.073 268.138 246.289V260.93C268.138 262.131 267.154 263.111 265.953 263.111Z" fill="black"/>
<path d="M342.815 280.911H283.469C283.126 280.911 282.846 281.19 282.846 281.537V285.423C282.846 286.739 283.909 287.806 285.221 287.806H287.008C287.933 287.806 288.768 288.343 289.156 289.186L291.017 293.191C292.631 296.681 296.114 298.915 299.952 298.915H328.129C331.959 298.915 335.442 296.681 337.061 293.191L338.918 289.186C339.306 288.343 340.145 287.806 341.066 287.806C342.375 287.806 343.437 286.739 343.437 285.423V281.537C343.437 281.19 343.161 280.911 342.815 280.911Z" fill="#5479F7"/>
<path d="M338.328 285.486H290.659C290.327 285.486 290.058 285.222 290.058 284.89C290.058 284.561 290.327 284.293 290.659 284.293H338.328C338.66 284.293 338.929 284.561 338.929 284.89C338.929 285.222 338.66 285.486 338.328 285.486Z" fill="black"/>
<path d="M333.906 289.48H294.973C294.645 289.48 294.376 289.212 294.376 288.884C294.376 288.552 294.645 288.287 294.973 288.287H333.906C334.234 288.287 334.502 288.552 334.502 288.884C334.502 289.212 334.234 289.48 333.906 289.48Z" fill="black"/>
<path d="M328.797 293.478H298.945C298.613 293.478 298.348 293.206 298.348 292.878C298.348 292.546 298.613 292.281 298.945 292.281H328.797C329.129 292.281 329.393 292.546 329.393 292.878C329.393 293.206 329.129 293.478 328.797 293.478Z" fill="black"/>
<path d="M246.431 287.347V211.395L234.598 216.638C231.685 217.925 229.672 220.647 229.291 223.806L222.866 277.286L139.325 278.423C137.487 278.446 135.973 279.874 135.857 281.709L135.469 287.642L246.431 287.347Z" fill="white"/>
<path d="M245.83 212.313L234.836 217.183C232.137 218.38 230.238 220.946 229.884 223.877L223.459 277.36C223.421 277.655 223.175 277.879 222.873 277.883L139.336 279.02C137.815 279.039 136.551 280.236 136.454 281.746L136.111 287.045L245.83 286.75V212.313ZM135.469 288.238C135.305 288.238 135.148 288.171 135.037 288.052C134.921 287.929 134.861 287.769 134.872 287.604L135.26 281.671C135.398 279.538 137.181 277.849 139.321 277.827L222.336 276.697L228.698 223.735C229.101 220.386 231.268 217.459 234.352 216.09L246.188 210.847C246.371 210.765 246.583 210.784 246.755 210.896C246.926 211.004 247.027 211.19 247.027 211.395V287.347C247.027 287.675 246.762 287.944 246.43 287.944L135.473 288.238H135.469Z" fill="black"/>
<path d="M51.5407 271.767C51.7905 273.516 52.3835 275.194 53.2859 276.708L54.2742 278.367C55.6614 280.698 57.9884 282.317 60.6548 282.813L72.1332 285.017L213.774 264.804L222.478 260.721C224.82 259.617 226.263 257.208 226.122 254.628L225.876 250.197C225.835 249.507 225.607 248.844 225.219 248.269C224.746 247.565 224.492 246.729 224.496 245.879L222.434 238.969C222.441 237.85 221.714 236.858 220.643 236.522L220.42 236.504C208.218 232.693 195.576 231.544 182.792 231.809L177.422 231.921L170.945 229.549C134.649 213.819 86.2853 218.552 52.6072 237.224L49.0198 249.198L51.4363 258.428L51.0708 265.8C51.0037 267.128 51.0671 268.459 51.2535 269.775L51.5407 271.767Z" fill="white"/>
<path d="M68.5308 236.75C68.3331 235.378 69.0529 234.061 70.2686 233.554C100.244 221.113 137.326 218.977 168.379 236.343L91.6516 244.54C84.8198 245.275 77.9618 245.745 71.0964 245.953C70.3916 245.976 69.7726 245.431 69.6682 244.697L68.5308 236.75Z" fill="#99B9FF"/>
<path d="M49.3925 247.878C53.4648 246.408 57.7757 247.072 60.5278 249.66C62.5677 251.577 63.1569 253.994 63.3471 255.131C63.3471 255.131 63.2352 257.816 51.451 258.483L48.96 248.97C49.262 248.687 49.4 248.28 49.3925 247.878Z" fill="#99B9FF"/>
<path d="M62.2731 256.306C61.2215 256.858 59.2674 257.987 51.4511 258.483L50.6009 255.243C50.6009 255.243 49.3106 251.021 53.3418 252.11C57.8093 253.311 62.2731 256.306 62.2731 256.306Z" fill="#5479F7"/>
<path d="M212.175 260.229L77.354 276.827L53.1069 276.398C53.1629 276.503 53.2263 276.607 53.2859 276.708L54.2742 278.367C55.6614 280.698 57.9884 282.317 60.6548 282.813L67.5239 284.084C70.1791 284.576 66.0546 285.882 68.7321 285.501L211.63 265.11C213.051 264.905 214.434 264.491 215.732 263.883L222.478 260.717C224.186 259.915 225.413 258.424 225.898 256.667L212.175 260.229Z" fill="#99B9FF"/>
<path d="M206.148 238.197C205.973 238.104 205.999 237.843 206.193 237.787C207.222 237.503 208.244 237.108 210.966 236.955C213.752 236.802 218.089 237.585 219.961 238.245C220.461 238.424 220.539 238.943 220.614 239.468C220.643 239.696 220.658 240.192 220.632 240.431C220.561 241.046 219.98 241.486 219.364 241.572L215.65 242.101C213.625 242.392 210.235 242.221 208.427 241.258L206.148 238.197Z" fill="white"/>
<path d="M219.92 238.234C218.026 237.563 213.733 236.802 210.966 236.955C209.859 237.018 208.8 237.153 207.864 237.309L211.496 239.159C212.909 239.882 214.479 240.244 216.068 240.225C216.068 240.225 219.275 239.286 219.513 238.902L219.92 238.234Z" fill="#5479F7"/>
<path d="M208.826 240.792C210.5 241.654 212.372 241.967 214.24 241.698L219.279 240.982C219.678 240.927 220.05 240.677 220.036 240.479L220.017 239.476C219.998 238.894 219.898 238.861 219.76 238.812L219.719 238.797C217.999 238.189 213.744 237.399 210.996 237.552C208.815 237.675 207.778 237.951 206.89 238.208L208.826 240.792ZM212.946 242.989C211.276 242.989 209.642 242.579 208.147 241.784C208.072 241.743 208.002 241.684 207.949 241.616L205.719 238.637C205.51 238.462 205.399 238.193 205.432 237.913C205.469 237.578 205.704 237.302 206.033 237.209C206.167 237.171 206.301 237.134 206.439 237.093C207.368 236.828 208.516 236.493 210.933 236.358C213.871 236.198 218.264 237.015 220.121 237.671L220.159 237.686C221.054 238.003 221.192 238.756 221.214 239.45L221.229 240.419C221.311 241.363 220.371 242.03 219.45 242.165L214.412 242.881C213.92 242.951 213.431 242.989 212.946 242.989Z" fill="#5479F7"/>
<path d="M134.634 242.5L134.869 244.122L124.52 245.346C123.95 245.413 123.383 245.439 122.82 245.428L122.607 243.929L134.634 242.5Z" fill="#CADDFF"/>
<path d="M217.28 250.141C217.783 252.286 218.906 254.337 219.473 255.288C219.689 255.646 220.118 255.817 220.52 255.698C221.676 255.355 223.847 254.221 223.716 250.518C223.69 249.791 223.179 249.172 222.474 248.993C221.538 248.754 219.372 248.907 218.089 249.03C217.541 249.082 217.153 249.604 217.28 250.141Z" fill="#CADDFF"/>
<path d="M220.718 255.634C220.651 255.657 220.588 255.679 220.524 255.694C220.121 255.813 219.689 255.649 219.472 255.288C218.906 254.337 217.783 252.286 217.28 250.141C217.153 249.604 217.541 249.082 218.093 249.03C218.447 248.996 218.868 248.959 219.316 248.929V248.948C219.353 251.144 219.789 253.311 220.606 255.351L220.718 255.634Z" fill="#99B9FF"/>
<path d="M172.365 262.668C170.844 252.047 178.235 242.202 188.871 240.684C199.51 239.166 209.363 246.55 210.884 257.175C211.279 259.945 211.07 262.664 210.354 265.196L210.056 265.338L175.181 270.312C173.753 268.06 172.768 265.479 172.365 262.668Z" fill="#99B9FF"/>
<path d="M68.4301 282.242L63.1719 282.991C62.5902 281.556 62.1725 280.031 61.9413 278.427C60.4198 267.799 67.8148 257.95 78.4578 256.432C89.0971 254.915 98.957 262.298 100.479 272.926C100.881 275.738 100.658 278.49 99.9191 281.052L68.8925 285.479L68.4301 282.242Z" fill="#99B9FF"/>
<path d="M166.119 234.606L162.681 231.492C162.196 231.056 161.544 230.858 160.898 230.951L158.288 231.32C157.18 231.481 156.371 232.443 156.405 233.558L156.464 235.352C156.479 235.836 156.655 236.302 156.964 236.675C157.442 237.257 158.187 237.548 158.937 237.455C161.738 237.093 168.465 236.205 168.286 236.008C168.111 235.81 166.973 235.15 166.503 234.885C166.365 234.803 166.235 234.71 166.119 234.606Z" fill="#99B9FF"/>
<path d="M156.464 235.352L156.405 233.558C156.371 232.443 157.18 231.481 158.288 231.32L160.898 230.951C161.544 230.858 162.196 231.056 162.681 231.492L166.119 234.606C166.119 234.606 160.533 234.688 156.464 235.352Z" fill="white"/>
<path d="M161.208 231.525C161.133 231.525 161.059 231.529 160.98 231.54L158.37 231.913C157.564 232.025 156.975 232.726 157.001 233.539L157.061 235.333C157.072 235.683 157.203 236.026 157.426 236.295C157.777 236.72 158.31 236.933 158.858 236.862C162.934 236.336 165.452 235.97 166.798 235.747C166.623 235.639 166.425 235.527 166.205 235.4C166.03 235.303 165.866 235.184 165.716 235.046L162.278 231.935C161.984 231.667 161.603 231.525 161.208 231.525ZM158.65 238.07C157.822 238.07 157.039 237.704 156.502 237.056C156.11 236.582 155.883 235.985 155.868 235.37L155.808 233.58C155.76 232.155 156.793 230.932 158.202 230.727L160.813 230.358C161.637 230.239 162.465 230.492 163.08 231.052L166.518 234.162C166.604 234.24 166.701 234.307 166.798 234.363C168.472 235.318 168.655 235.523 168.733 235.609C168.882 235.773 168.927 236.019 168.849 236.228C168.685 236.672 168.633 236.806 159.011 238.048C158.892 238.062 158.769 238.07 158.65 238.07Z" fill="#5479F7"/>
<path d="M53.1367 237.511C53.1367 237.514 53.1367 237.514 53.1367 237.514V237.511ZM49.7208 249.515L52.0142 258.275C52.0292 258.334 52.0366 258.398 52.0329 258.457L51.6674 265.83C51.604 267.116 51.6637 268.418 51.8464 269.69L52.1336 271.685C52.3722 273.363 52.9316 274.948 53.8005 276.406L54.7887 278.065C56.0902 280.247 58.2681 281.765 60.7629 282.227L67.7513 283.521C68.2958 283.622 68.9409 283.816 69.0864 284.39C69.1311 284.558 69.1199 284.711 69.0752 284.849L211.335 264.551C212.838 264.334 214.3 263.898 215.672 263.253L222.225 260.18C224.358 259.177 225.655 257.01 225.525 254.657L225.283 250.227C225.245 249.653 225.051 249.086 224.723 248.605C224.19 247.814 223.906 246.897 223.899 245.95C223 242.112 221.695 237.716 221.098 237.115L218.283 236.41C206.42 232.707 195.919 232.133 182.807 232.409L177.434 232.517C177.359 232.517 177.284 232.51 177.214 232.484L170.74 230.112C135.346 217.149 104.883 217.653 65.5959 231.853C62.5603 232.95 54.0354 237.097 53.1069 237.548C52.2865 238.667 49.6574 248.437 49.7208 249.515ZM67.9676 286.184C67.6133 286.184 67.3225 286.094 67.1845 285.773C66.9757 285.296 67.3821 284.964 67.6245 284.767C67.6394 284.755 67.6581 284.74 67.6767 284.726C67.632 284.718 67.5835 284.707 67.5313 284.696L60.5466 283.398C57.7087 282.872 55.2362 281.153 53.7632 278.673L52.7713 277.014C51.824 275.425 51.2087 273.687 50.9477 271.852L50.6643 269.857C50.4704 268.511 50.407 267.135 50.4741 265.77L50.8358 258.491L48.5573 249.791C48.3485 248.989 49.5977 244.406 49.9893 243.022C51.6823 236.966 52.2343 236.664 52.4692 236.53C52.8831 236.328 61.9301 231.906 65.1894 230.727C104.767 216.426 135.466 215.922 171.154 228.989L177.523 231.32L182.781 231.212C196.016 230.94 206.622 231.518 218.604 235.262L221.475 235.982C222.433 236.28 223.638 239.562 225.077 245.741C225.089 245.789 225.092 245.834 225.092 245.883C225.089 246.617 225.305 247.326 225.715 247.937C226.163 248.597 226.424 249.366 226.476 250.16L226.718 254.594C226.875 257.432 225.309 260.05 222.732 261.258L216.18 264.334C214.699 265.032 213.125 265.502 211.503 265.733L68.6948 286.113C68.4412 286.146 68.1914 286.184 67.9676 286.184Z" fill="black"/>
<path d="M64.022 278.129C65.3794 287.608 74.1728 294.198 83.6635 292.84C93.158 291.487 99.7549 282.704 98.3974 273.225C97.04 263.745 88.2467 257.156 78.7522 258.513C69.2615 259.867 62.6646 268.649 64.022 278.129Z" fill="#5479F7"/>
<path d="M69.6494 277.327C70.563 283.7 76.4775 288.134 82.8618 287.22C89.2462 286.31 93.6839 280.403 92.7702 274.027C91.8566 267.653 85.9421 263.223 79.5578 264.133C73.1735 265.043 68.7395 270.95 69.6494 277.327Z" fill="#CADDFF"/>
<path d="M71.9318 277.003C72.6664 282.119 77.4099 285.673 82.5338 284.942C87.6577 284.211 91.219 279.471 90.4881 274.351C89.7535 269.238 85.0062 265.681 79.8824 266.412C74.7622 267.143 71.2009 271.882 71.9318 277.003Z" fill="#99B9FF"/>
<path d="M174.439 262.373C175.793 271.852 184.586 278.442 194.08 277.084C203.571 275.731 210.168 266.949 208.811 257.469C207.457 247.99 198.66 241.4 189.169 242.758C179.678 244.111 173.082 252.893 174.439 262.373Z" fill="#5479F7"/>
<path d="M180.066 261.571C180.976 267.944 186.891 272.375 193.279 271.465C199.659 270.555 204.097 264.648 203.183 258.271C202.273 251.898 196.359 247.464 189.971 248.377C183.587 249.287 179.153 255.194 180.066 261.571Z" fill="#CADDFF"/>
<path d="M182.348 261.247C183.079 266.359 187.827 269.917 192.95 269.186C198.074 268.455 201.632 263.715 200.901 258.595C200.17 253.479 195.423 249.925 190.299 250.656C185.175 251.387 181.614 256.127 182.348 261.247Z" fill="#99B9FF"/>
<path d="M77.8686 164.057C77.6896 164.057 77.5106 163.979 77.395 163.822C77.1936 163.561 77.2421 163.188 77.5069 162.987L78.428 162.282C79.2782 161.633 80.2926 160.321 80.3 160.309C80.5014 160.045 80.8781 159.996 81.1391 160.198C81.4001 160.399 81.4523 160.776 81.251 161.037C81.2062 161.096 80.1285 162.487 79.1552 163.229L78.2341 163.934C78.1259 164.02 77.9954 164.057 77.8686 164.057Z" fill="black"/>
<path d="M76.3022 162.301C76.0859 162.301 75.8771 162.185 75.7689 161.98C75.616 161.685 75.7317 161.327 76.0263 161.175L77.0555 160.638C78.0027 160.149 79.2296 159.03 79.2408 159.015C79.4832 158.795 79.8636 158.81 80.0836 159.056C80.3073 159.299 80.2924 159.675 80.05 159.899C79.9941 159.948 78.6926 161.134 77.6074 161.7L76.5744 162.234C76.4887 162.278 76.3917 162.301 76.3022 162.301Z" fill="black"/>
<path d="M40.92 143.207C38.097 143.573 22.7403 146.676 21.4388 163.953C21.4053 164.352 21.6141 164.732 21.9609 164.93L30.8363 170.035C31.1719 170.225 31.3733 170.583 31.3621 170.967C31.2614 174.126 30.7543 188.483 29.4118 194.517C28.3676 199.22 27.6404 203.053 27.2899 204.97C27.1668 205.649 27.7225 206.253 28.4086 206.189C30.579 205.992 34.8899 205.511 37.7316 204.638C41.3004 203.542 42.8778 201.45 51.5071 205.026C53.3195 205.775 55.3705 205.671 57.1046 204.757C61.8294 202.259 71.667 197.829 78.4503 200.066C79.2185 200.32 79.9681 199.645 79.7891 198.858C78.8009 194.424 76.7274 185.869 76.5074 181.353C76.2315 175.703 79.4833 156.901 77.9693 154.936C76.5298 153.064 70.1865 148.764 65.9017 147.589C64.3317 147.157 62.6797 147.116 61.3596 146.791C58.0369 145.975 48.8333 142.186 40.92 143.207Z" fill="#5479F7"/>
<path d="M40.9981 143.8C39.1932 144.032 23.348 146.579 22.0316 163.998C22.0204 164.162 22.1099 164.326 22.2591 164.408L31.1345 169.517C31.664 169.819 31.9773 170.382 31.9586 170.986C31.8691 173.861 31.3582 188.521 29.9971 194.648C28.9492 199.346 28.2183 203.199 27.8789 205.078C27.8528 205.216 27.8938 205.35 27.9871 205.455C28.0803 205.555 28.2145 205.608 28.3525 205.596C30.6012 205.388 34.7928 204.914 37.5561 204.067C38.1565 203.885 38.7084 203.665 39.2454 203.456C41.8894 202.412 44.3879 201.427 51.7344 204.474C53.3827 205.156 55.2398 205.067 56.8247 204.228C62.012 201.487 71.7414 197.228 78.6366 199.499C78.8604 199.574 79.017 199.462 79.0729 199.41C79.1326 199.358 79.2594 199.212 79.2072 198.985C79.0766 198.399 78.9237 197.735 78.7634 197.023C77.7043 192.377 76.1045 185.351 75.9106 181.379C75.795 178.981 76.2872 174.395 76.8056 169.535C77.4097 163.93 78.2339 156.252 77.4955 155.297C76.2052 153.623 70.0856 149.357 65.7411 148.164C64.9207 147.94 64.0593 147.824 63.2277 147.712C62.5154 147.615 61.8442 147.522 61.2139 147.369C60.524 147.198 59.5843 146.903 58.4954 146.56C54.259 145.232 47.1736 143.002 40.9981 143.8ZM28.3078 206.79C27.8491 206.79 27.4165 206.603 27.1032 206.26C26.7564 205.88 26.6073 205.373 26.7005 204.866C27.0473 202.975 27.7782 199.104 28.8298 194.387C30.1686 188.368 30.6758 173.805 30.7616 170.949C30.769 170.785 30.6832 170.632 30.5378 170.553L21.6624 165.445C21.1142 165.131 20.7935 164.527 20.842 163.908C22.2255 145.546 38.9433 142.861 40.8452 142.615C47.2818 141.783 54.5238 144.061 58.8534 145.423C59.9236 145.758 60.8485 146.049 61.5011 146.209C62.0642 146.347 62.7093 146.437 63.388 146.526C64.2607 146.646 65.1594 146.765 66.0581 147.011C70.4921 148.231 76.9137 152.583 78.4427 154.57C79.3713 155.775 78.9983 160.309 77.9952 169.662C77.5029 174.26 76.992 179.015 77.1039 181.323C77.2941 185.19 78.879 192.149 79.9269 196.758C80.091 197.474 80.2439 198.138 80.3744 198.727C80.5049 199.309 80.3185 199.895 79.8784 200.294C79.4346 200.693 78.8305 200.819 78.26 200.633C71.5512 198.422 61.4265 203.15 57.3841 205.287C55.4822 206.29 53.2559 206.394 51.2757 205.574C44.3767 202.718 42.1989 203.572 39.6817 204.563C39.1261 204.783 38.5518 205.011 37.9066 205.209C35.0389 206.089 30.7578 206.573 28.4607 206.786C28.4085 206.79 28.3562 206.79 28.3078 206.79Z" fill="black"/>
<path d="M25.7386 185.295C28.3788 189.233 31.433 190.49 38.0933 188.774C44.7499 187.059 58.8722 176.964 65.8532 167.346C65.8532 167.346 66.3343 166.466 67.6954 166.627C69.0603 166.787 74.6764 168.95 78.8494 165.265C83.0186 161.577 82.0229 158.937 81.814 158.434C81.4635 157.587 75.2395 158.672 73.5539 157.919C71.8684 157.173 71.887 156.006 73.1512 154.287C74.6615 152.236 71.2978 151.766 68.7396 155.409C67.1845 157.624 64.5704 160.537 62.2024 161.734C59.756 162.972 34.8825 171.911 33.5996 171.512C32.3168 171.113 24.2394 166.239 24.2394 166.239C24.2394 166.239 22.8596 181.006 25.7386 185.295Z" fill="white"/>
<path d="M24.7577 167.249C24.519 170.557 23.9186 181.51 26.2344 184.963C28.5503 188.42 31.1047 189.956 37.944 188.196C44.6043 186.481 58.5551 176.371 65.3571 167.014C65.5026 166.787 66.1962 165.851 67.7662 166.034C68.0123 166.064 68.3405 166.138 68.7544 166.235C70.8315 166.72 75.1574 167.727 78.4502 164.818C81.8363 161.827 81.6275 159.675 81.3068 158.784C80.8481 158.635 79.2259 158.698 78.1333 158.739C76.2351 158.814 74.2698 158.892 73.3114 158.467C72.4276 158.076 71.8869 157.535 71.7116 156.864C71.4953 156.051 71.7974 155.118 72.67 153.936C72.9273 153.586 72.9385 153.392 72.9273 153.355C72.9161 153.347 72.7968 153.284 72.5358 153.306C71.7601 153.366 70.4325 154.037 69.228 155.752C67.6729 157.968 64.9693 161.007 62.4707 162.267C60.9828 163.017 36.5903 172.105 33.6219 172.105C33.5361 172.105 33.4727 172.097 33.4205 172.082C32.313 171.739 26.9243 168.547 24.7577 167.249ZM33.0998 190.12C29.6429 190.12 27.301 188.703 25.2425 185.627C22.2778 181.211 23.5867 166.794 23.6427 166.183L23.7322 165.236L24.5489 165.728C27.7261 167.645 32.7418 170.58 33.7375 170.93C35.6319 170.93 59.0064 162.681 61.93 161.201C64.2346 160.037 66.7742 157.169 68.251 155.066C69.7911 152.873 71.6743 152.005 72.8453 152.116C73.4009 152.169 73.8261 152.445 74.02 152.87C74.1766 153.224 74.24 153.817 73.6321 154.641C73.0094 155.488 72.7521 156.133 72.8677 156.558C72.946 156.86 73.2592 157.136 73.7962 157.375C74.501 157.688 76.4887 157.61 78.0848 157.55C80.822 157.442 82.0414 157.427 82.3659 158.206C82.8022 159.25 83.3653 162.07 79.2445 165.713C75.4893 169.028 70.757 167.928 68.4822 167.399C68.1204 167.313 67.8035 167.242 67.6282 167.22C66.7257 167.111 66.405 167.592 66.3677 167.645L66.3342 167.697C59.4016 177.247 45.0928 187.588 38.2424 189.352C36.2771 189.856 34.584 190.12 33.0998 190.12Z" fill="black"/>
<path d="M77.518 166.205L77.4248 167.093L76.8691 172.194C76.3023 176.688 76.7461 180.35 76.7461 180.35C76.7349 181.76 77.5963 183.419 78.6554 184.355C79.8748 185.429 80.5163 185.649 81.5082 186.015C85.2523 187.372 86.8857 186.954 88.2468 183.091C89.6042 179.228 89.1269 176.833 85.9273 164.855C85.9273 164.855 85.0472 162.435 87.5271 160.809C89.7273 159.366 89.0001 155.898 86.9715 153.273C83.7308 149.085 76.9363 165.65 77.518 166.205Z" fill="white"/>
<path d="M78.0924 165.926L78.1446 165.978L77.4659 172.258C76.9102 176.628 77.3353 180.238 77.3391 180.275L77.3428 180.35C77.3353 181.513 78.07 183.039 79.0507 183.908C80.1658 184.888 80.7326 185.097 81.6686 185.433L81.7134 185.451C83.66 186.16 84.8421 186.294 85.6663 185.903C86.4569 185.53 87.0796 184.601 87.68 182.89C88.9741 179.213 88.5564 177.02 85.3568 165.031C85.0025 164.027 84.9466 161.79 87.199 160.309C87.7584 159.944 88.1052 159.392 88.2245 158.68C88.4632 157.255 87.8031 155.324 86.4979 153.638C86.0914 153.112 85.7334 153.146 85.4127 153.261C82.5636 154.272 78.3124 164.184 78.0924 165.926ZM84.6109 187.316C83.7383 187.316 82.6792 187.074 81.3069 186.574L81.2584 186.559C80.2627 186.194 79.5467 185.936 78.2602 184.803C77.0184 183.706 76.1532 181.894 76.1457 180.384C76.0972 179.962 75.7281 176.446 76.2762 172.12L76.9102 166.295C76.8431 166.011 76.9139 165.597 77.1228 164.9C77.8574 162.457 81.9371 152.672 85.3829 152.034C85.9348 151.934 86.7403 152.001 87.4451 152.907C88.9442 154.85 89.6975 157.136 89.4066 158.874C89.2314 159.918 88.6944 160.757 87.8553 161.309C85.8192 162.644 86.4606 164.572 86.4904 164.654L86.5054 164.699C89.746 176.833 90.2084 179.31 88.81 183.289C88.094 185.321 87.281 186.462 86.1772 186.984C85.711 187.204 85.2039 187.316 84.6109 187.316Z" fill="black"/>
<path d="M79.7444 158.359C79.7444 158.359 74.2439 158.948 72.5396 157.606C71.2792 156.61 73.636 153.63 73.8113 153.399C75.3067 151.434 78.786 146.858 79.3081 146.206C79.778 145.62 80.673 144.218 81.8439 144.322C83.0149 144.427 89.4999 145.49 89.9735 145.698C90.9617 146.135 90.5441 147.503 89.8206 148.26C89.0971 149.021 79.7444 158.359 79.7444 158.359Z" fill="black"/>
<path d="M33.9165 204.056C33.9165 204.056 28.6061 248.161 27.9498 256.667C27.2935 265.177 26.3127 294.955 27.9498 309.677C29.0126 319.22 29.7473 325.601 30.1351 328.912C30.3141 330.449 31.6156 331.605 33.1632 331.605H43.9852C44.5409 331.605 44.9921 331.161 44.9958 330.609C45.048 326.638 45.4023 311.505 47.9382 298.553C50.8879 283.502 54.1621 259.938 55.803 250.451C56.3474 247.285 56.8098 243.761 57.1977 240.315C57.1977 240.315 57.1977 240.315 58.4246 243.906C59.6477 247.497 64.3204 271.722 65.633 281.213C66.8227 289.842 68.8289 324.467 69.1832 330.654C69.213 331.191 69.6531 331.605 70.1901 331.605H84.0514C84.5698 331.605 85.0023 331.213 85.0545 330.695C85.6997 324.281 89.496 285.501 88.8956 268.12C88.2393 249.142 79.7218 226.562 78.081 220.345C76.4439 214.129 74.2474 198.362 74.2474 198.362C74.2474 198.362 41.0205 198.858 33.9165 204.056Z" fill="black"/>
<path d="M57.1978 239.718C57.4514 239.718 57.6788 239.879 57.7646 240.125L58.9878 243.712C60.2221 247.322 64.8873 271.45 66.2224 281.127C67.412 289.719 69.3922 323.863 69.78 330.624C69.7912 330.84 69.9739 331.008 70.1902 331.008H84.0515C84.2641 331.008 84.4393 330.848 84.4617 330.635C85.2038 323.222 88.892 285.352 88.299 268.142C87.7769 253.043 82.2018 235.497 79.2073 226.07C78.4391 223.66 77.835 221.759 77.5031 220.498C76.045 214.957 74.1282 201.767 73.7292 198.97C69.5078 199.059 41.2593 199.85 34.4797 204.392C34.0359 208.08 29.1694 248.657 28.5466 256.712C27.8269 266.065 26.958 295.343 28.5466 309.614C29.6318 319.381 30.3776 325.855 30.7282 328.845C30.8736 330.076 31.9178 331.008 33.1633 331.008H43.9853C44.2128 331.008 44.3956 330.826 44.3993 330.602C44.4515 326.321 44.8244 311.344 47.3528 298.441C49.2733 288.634 51.3318 275.209 52.9876 264.424C53.8751 258.644 54.6433 253.654 55.2139 250.35C55.7024 247.523 56.1573 244.219 56.6048 240.248C56.6347 239.972 56.8547 239.752 57.1344 239.722C57.153 239.718 57.1754 239.718 57.1978 239.718ZM84.0515 332.202H70.1902C69.3399 332.202 68.6351 331.538 68.5829 330.688C68.1988 323.938 66.2186 289.838 65.0402 281.291C63.7425 271.908 59.0437 247.576 57.8578 244.1L57.4812 243.004C57.1307 245.86 56.7727 248.348 56.3923 250.551C55.8217 253.848 55.0572 258.83 54.1697 264.603C52.5139 275.399 50.4517 288.839 48.5237 298.669C46.014 311.475 45.6486 326.362 45.5963 330.617C45.5852 331.493 44.8617 332.202 43.9853 332.202H33.1633C31.3136 332.202 29.7548 330.818 29.5423 328.98C29.1917 325.989 28.4422 319.515 27.357 309.745C25.7609 295.402 26.6335 266.009 27.3533 256.623C28.0021 248.198 33.2714 204.425 33.3237 203.985C33.3423 203.821 33.4281 203.672 33.5623 203.575C40.7372 198.328 72.8715 197.784 74.2363 197.765C74.2401 197.765 74.2438 197.765 74.2475 197.765C74.5421 197.765 74.7957 197.981 74.8367 198.276C74.8591 198.436 77.0519 214.08 78.6591 220.192C78.9836 221.423 79.584 223.314 80.3447 225.708C83.3579 235.191 88.9665 252.841 89.4924 268.101C90.089 285.386 86.3972 323.326 85.6513 330.755C85.5693 331.583 84.8794 332.202 84.0515 332.202Z" fill="black"/>
<path d="M57.2126 240.796C57.1902 240.796 57.1679 240.792 57.1455 240.792C56.8136 240.755 56.5787 240.457 56.616 240.129C56.8397 238.171 57.0523 236.075 57.2574 233.905C57.6638 229.568 60.5726 225.786 64.671 224.268L67.0613 223.385C67.3709 223.273 67.7177 223.429 67.8296 223.739C67.9452 224.045 67.7885 224.391 67.479 224.507L65.0849 225.387C61.4191 226.745 58.8124 230.134 58.447 234.016C58.2419 236.194 58.0256 238.294 57.8056 240.267C57.772 240.569 57.511 240.796 57.2126 240.796Z" fill="#CADDFF"/>
<path d="M81.0048 331.601H72.1741C71.5476 331.601 70.9845 331.978 70.7459 332.556C69.9627 334.458 68.3667 338.899 68.5829 343.117C68.6426 344.269 69.601 345.172 70.757 345.172H96.6673C97.8606 345.172 98.7668 344.083 98.5282 342.919C98.241 341.521 97.2565 339.686 94.4149 338.034C89.8131 335.36 84.0329 332.686 82.2093 331.862C81.8327 331.691 81.4225 331.601 81.0048 331.601Z" fill="white"/>
<path d="M72.1741 332.198C71.79 332.198 71.4432 332.425 71.2978 332.783C70.593 334.499 68.9708 338.944 69.1796 343.087C69.2206 343.919 69.9142 344.575 70.7533 344.575H96.6673C97.0626 344.575 97.428 344.4 97.6779 344.094C97.9203 343.799 98.0172 343.412 97.9427 343.039C97.5958 341.357 96.272 339.805 94.1128 338.552C89.5073 335.875 83.6488 333.171 81.9632 332.407C81.6574 332.269 81.3367 332.198 81.0048 332.198H72.1741ZM96.6673 345.768H70.7533C69.2766 345.768 68.0608 344.62 67.9863 343.147C67.7625 338.761 69.4556 334.118 70.1939 332.328C70.5258 331.523 71.3015 331.005 72.1741 331.005H81.0048C81.5082 331.005 81.9967 331.109 82.4554 331.318C84.1559 332.09 90.0592 334.812 94.7132 337.519C97.8271 339.328 98.8227 341.39 99.1136 342.8C99.2628 343.527 99.0763 344.273 98.6027 344.851C98.1291 345.437 97.4206 345.768 96.6673 345.768Z" fill="black"/>
<path d="M82.2054 337.986C82.0488 337.986 81.8959 337.926 81.7803 337.807C81.5454 337.572 81.5491 337.195 81.784 336.964L85.502 333.313C85.737 333.082 86.1173 333.085 86.3485 333.32C86.5797 333.555 86.576 333.932 86.3411 334.163L82.6231 337.818C82.5075 337.93 82.3546 337.986 82.2054 337.986Z" fill="black"/>
<path d="M84.6034 339.485C84.4467 339.485 84.2939 339.425 84.1745 339.306C83.9433 339.071 83.947 338.69 84.182 338.459L87.9 334.808C88.1349 334.577 88.5115 334.581 88.7465 334.816C88.9777 335.051 88.974 335.431 88.739 335.659L85.021 339.313C84.9054 339.429 84.7525 339.485 84.6034 339.485Z" fill="black"/>
<path d="M42.0387 331.601H33.2081C32.5816 331.601 32.0185 331.978 31.7798 332.556C30.9967 334.458 29.4006 338.899 29.6169 343.117C29.6728 344.269 30.6312 345.172 31.7873 345.172H57.7012C58.8908 345.172 59.797 344.083 59.5584 342.919C59.2749 341.521 58.2867 339.686 55.4451 338.034C50.847 335.36 45.0631 332.686 43.2433 331.862C42.8629 331.691 42.4527 331.601 42.0387 331.601Z" fill="white"/>
<path d="M33.208 332.198C32.8202 332.198 32.4771 332.425 32.3317 332.783C31.6231 334.499 30.0009 338.944 30.2135 343.087C30.2545 343.919 30.9444 344.575 31.7872 344.575H57.7012C58.0927 344.575 58.4619 344.4 58.7118 344.094C58.9542 343.799 59.0511 343.412 58.9728 343.039C58.6297 341.357 57.3059 339.805 55.1467 338.552C50.5412 335.875 44.6827 333.171 42.9933 332.407C42.6913 332.269 42.3706 332.198 42.0387 332.198H33.208ZM57.7012 345.768H31.7872C30.3104 345.768 29.091 344.62 29.0164 343.147C28.7964 338.765 30.4857 334.122 31.2241 332.328C31.556 331.523 32.3354 331.005 33.208 331.005H42.0387C42.5421 331.005 43.0306 331.109 43.4893 331.318C45.1898 332.09 51.0968 334.816 55.7471 337.519C58.861 339.328 59.8566 341.39 60.1438 342.8C60.2929 343.527 60.1065 344.273 59.6366 344.851C59.1593 345.437 58.4545 345.768 57.7012 345.768Z" fill="black"/>
<path d="M42.2437 337.669C42.0908 337.669 41.9379 337.609 41.8186 337.49C41.5874 337.255 41.5911 336.878 41.826 336.643L45.544 332.992C45.7789 332.761 46.1556 332.765 46.3868 333C46.618 333.235 46.618 333.611 46.3793 333.846L42.6651 337.497C42.5495 337.609 42.3966 337.669 42.2437 337.669Z" fill="black"/>
<path d="M44.6416 339.164C44.4887 339.164 44.3358 339.104 44.2165 338.985C43.9853 338.75 43.989 338.373 44.224 338.142L47.9382 334.491C48.1769 334.256 48.5535 334.26 48.7847 334.495C49.0159 334.73 49.0159 335.11 48.7773 335.342L45.063 338.992C44.9474 339.108 44.7945 339.164 44.6416 339.164Z" fill="black"/>
<path d="M52.2156 121.403C52.4057 121.466 52.6146 121.552 52.8309 121.657C52.8309 121.657 53.3194 121.955 53.7669 122.775C54.2144 123.596 54.9602 126.128 55.9335 125.979C56.9031 125.829 58.0965 121.88 58.0965 121.88C58.0965 121.88 58.4694 119.945 61.4527 120.691C64.436 121.437 66.7481 122.701 67.6431 123.223C68.5381 123.745 69.3585 123.894 70.2535 123.819C71.1485 123.745 74.0573 122.029 73.5352 119.274C73.0131 116.518 70.4773 114.642 68.2398 114.657C65.9091 114.668 62.5715 113.165 61.9748 112.867C61.3781 112.569 57.8652 111.133 55.9522 112.199C54.2442 113.15 52.8122 114.657 52.0328 117.264C51.5331 118.931 51.9172 120.456 51.9694 120.955C51.9881 121.153 52.0254 121.343 52.2156 121.403Z" fill="black"/>
<path d="M68.0234 123.499C68.0793 123.529 68.1092 123.592 68.1054 123.652C68.0756 124.11 67.9749 125.99 68.2583 127.687C68.4187 128.623 69.0191 130.901 68.7655 131.371C68.5119 131.841 67.5722 131.875 67.1396 131.841C66.707 131.804 65.9836 131.986 65.8008 132.344C65.6218 132.706 65.0774 136.062 64.8611 136.86C64.6448 137.655 63.9213 138.591 62.5826 138.445C62.411 138.43 61.9113 138.319 61.5235 138.225C61.2438 138.162 60.9641 138.348 60.9156 138.635C60.2742 142.711 64.4024 147.306 65.3943 148.354C65.495 148.462 65.4577 148.641 65.3235 148.701C56.1721 152.691 46.7597 145.803 44.1866 143.662C44.071 143.569 48.9935 142.238 51.3466 136.588C52.3796 134.101 52.0327 130.234 52.07 128.701C52.0775 128.391 51.9059 128.104 51.6225 127.974C51.0035 127.69 50.1048 126.747 49.8437 125.815C49.4708 124.472 49.62 120.198 53.1701 121.91C53.1701 121.91 53.6587 122.209 54.1062 123.029C54.5537 123.849 55.2995 126.381 56.2691 126.232C57.2387 126.083 58.432 122.134 58.432 122.134C58.432 122.134 58.8049 120.198 61.7882 120.941C64.4807 121.616 67.464 123.197 68.0234 123.499Z" fill="white"/>
<path d="M45.3018 143.789C48.5089 146.284 56.5788 151.497 64.5853 148.357C63.0526 146.653 59.715 142.421 60.3266 138.542C60.3751 138.24 60.5466 137.972 60.8002 137.804C61.0501 137.632 61.367 137.576 61.6616 137.644C62.4373 137.826 62.62 137.849 62.6499 137.852C63.8693 137.987 64.2273 136.916 64.2832 136.704C64.3727 136.379 64.5331 135.525 64.686 134.705C65.0216 132.915 65.1484 132.318 65.2677 132.08C65.5959 131.42 66.5841 131.196 67.1883 131.244C67.6731 131.285 68.1094 131.188 68.225 131.095C68.2772 130.715 67.9975 129.383 67.8595 128.731C67.7812 128.362 67.7103 128.03 67.6693 127.787C67.4157 126.277 67.4568 124.651 67.4941 123.894C66.5841 123.413 63.9924 122.108 61.643 121.522C60.7256 121.291 59.9947 121.321 59.5248 121.608C59.1146 121.862 59.0214 122.242 59.0177 122.257L59.0027 122.305C58.4098 124.274 57.4701 126.654 56.3588 126.821C55.1617 127.004 54.4755 125.386 53.9236 124.081C53.7968 123.775 53.6738 123.484 53.5805 123.316C53.2747 122.753 52.9503 122.492 52.8683 122.429C52.0367 122.033 51.4102 122.007 51.0074 122.339C50.2168 122.999 50.2056 124.875 50.4219 125.654C50.6382 126.43 51.4251 127.224 51.8726 127.433C52.3723 127.661 52.6818 128.164 52.6706 128.716C52.6594 129.014 52.6706 129.41 52.6781 129.864C52.7154 131.796 52.7713 134.712 51.8987 136.816C50.5972 139.944 48.3783 142.286 45.3018 143.789ZM59.3533 150.532C52.1858 150.532 45.9134 145.878 43.8064 144.121L43.5491 143.909L43.5938 143.573C43.6423 143.226 43.8959 143.118 44.2129 142.98C47.3155 141.623 49.5307 139.396 50.7948 136.357C51.5705 134.485 51.5183 131.718 51.481 129.887C51.4736 129.413 51.4661 129.007 51.4736 128.686C51.4736 128.611 51.4363 128.548 51.3729 128.515C50.6009 128.164 49.5791 127.09 49.2696 125.975C48.975 124.916 48.9564 122.496 50.2392 121.422C50.7911 120.963 51.7943 120.583 53.4276 121.373L53.4798 121.403C53.5432 121.44 54.1213 121.809 54.6284 122.742C54.7515 122.966 54.8783 123.268 55.0274 123.618C55.2437 124.133 55.818 125.49 56.1723 125.636C56.5601 125.378 57.3283 123.711 57.8542 121.981C57.8989 121.795 58.1077 121.097 58.861 120.612C59.6255 120.128 60.6585 120.046 61.9339 120.363C64.6897 121.052 67.7253 122.66 68.307 122.977C68.5681 123.115 68.7247 123.398 68.7023 123.693C68.6799 124.054 68.5718 125.938 68.8515 127.59C68.8888 127.821 68.9559 128.134 69.0305 128.485C69.4071 130.271 69.5563 131.162 69.2915 131.654C68.8179 132.531 67.3747 132.46 67.0913 132.438C66.8153 132.412 66.435 132.531 66.3343 132.62C66.2411 132.9 66.0136 134.112 65.8607 134.925C65.6966 135.809 65.54 136.648 65.4393 137.017C65.1298 138.147 64.1005 139.214 62.5193 139.042C62.4634 139.035 62.2919 139.016 61.4938 138.833C60.9978 142.506 64.6785 146.728 65.8308 147.943C66.0098 148.137 66.0882 148.406 66.0359 148.663C65.98 148.924 65.8047 149.141 65.5623 149.245C63.474 150.159 61.3782 150.532 59.3533 150.532Z" fill="black"/>
<path d="M61.2737 138.759C61.2178 138.759 61.1618 138.751 61.1059 138.732C59.8604 138.367 57.8615 137.513 56.4482 136.584C56.1722 136.402 56.0976 136.033 56.2766 135.757C56.4594 135.481 56.8323 135.402 57.1082 135.585C58.4209 136.446 60.2855 137.248 61.4415 137.588C61.7585 137.681 61.9412 138.013 61.848 138.33C61.7697 138.591 61.531 138.759 61.2737 138.759Z" fill="black"/>
</svg>
