<svg width="358" height="368" viewBox="0 0 358 368" fill="none" xmlns="http://www.w3.org/2000/svg">
<mask id="mask0_10117_5926" style="mask-type:luminance" maskUnits="userSpaceOnUse" x="10" y="334" width="2" height="2">
<path d="M10.1578 334.516H11.5493V335.712H10.1578V334.516Z" fill="white"/>
</mask>
<g mask="url(#mask0_10117_5926)">
<mask id="mask1_10117_5926" style="mask-type:luminance" maskUnits="userSpaceOnUse" x="10" y="334" width="2" height="2">
<path d="M11.5263 334.953C10.9359 335.911 10.3456 335.762 10.1999 335.543C10.1271 335.321 10.1999 334.734 10.4223 334.585C10.5679 334.439 11.3768 334.658 11.3768 334.658" fill="white"/>
</mask>
<g mask="url(#mask1_10117_5926)">
<path d="M7.25601 331.641H14.5355V338.782H7.25601V331.641Z" fill="#0571D3"/>
</g>
</g>
<path d="M90.1786 33.3806C158.105 -4.0787 249.101 34.8373 296.523 77.9738C310.066 90.298 342.914 121.041 350.669 170.319C360.302 231.526 328.765 305.716 256.442 337.452C177.713 371.99 89.688 339.254 48.4912 286.116C9.95849 236.421 17.6712 177.905 20.4273 157.002C23.6588 132.476 33.2728 64.7603 90.1786 33.3806Z" fill="#CADDFF"/>
<path d="M164.495 300.069H335.531C340.235 300.069 344.049 296.274 344.049 291.59L344.037 54.3451C343.911 47.9933 340.84 44.3478 335.531 44.3478L164.495 45.0761C160.263 45.0761 156.66 48.1428 155.982 52.3173L155.978 291.59C155.978 296.274 159.788 300.069 164.495 300.069Z" fill="#99B9FF"/>
<path d="M158.021 300.495H329.08C333.783 300.495 337.597 296.696 337.597 292.016L337.59 54.8665C337.463 48.5147 334.389 44.9037 329.08 44.9037H158.017C156.081 44.9037 154.272 45.5477 152.819 46.6479C150.676 48.2694 149.507 50.8569 149.507 53.521L149.503 292.016C149.503 296.7 153.317 300.495 158.021 300.495Z" fill="white"/>
<path d="M337.084 229.226C336.75 229.226 336.478 228.954 336.478 228.624L336.47 54.8435C336.352 48.7447 333.546 45.379 328.562 45.379H175.275C174.941 45.379 174.669 45.1107 174.669 44.7772C174.669 44.4437 174.941 44.1715 175.275 44.1715H328.562C334.224 44.1715 337.548 48.0585 337.678 54.832L337.686 228.624C337.686 228.954 337.417 229.226 337.084 229.226Z" fill="black"/>
<path d="M203.895 65.0479H287.515C288.45 65.0479 289.209 64.2927 289.209 63.3574V40.733C289.209 39.7939 288.45 39.0387 287.515 39.0387H203.895C202.963 39.0387 202.2 39.7939 202.2 40.733V63.3574C202.2 64.2927 202.963 65.0479 203.895 65.0479Z" fill="#99B9FF"/>
<path d="M205.926 39.6443C204.205 39.6443 202.806 41.0396 202.806 42.757V61.3256C202.806 63.0468 204.205 64.446 205.926 64.446H285.487C287.208 64.446 288.607 63.0468 288.607 61.3256V42.757C288.607 41.0396 287.208 39.6443 285.487 39.6443H205.926ZM285.487 65.6535H205.926C203.542 65.6535 201.598 63.7138 201.598 61.3256V42.757C201.598 40.3727 203.542 38.433 205.926 38.433H285.487C287.871 38.433 289.815 40.3727 289.815 42.757V61.3256C289.815 63.7138 287.871 65.6535 285.487 65.6535Z" fill="black"/>
<path d="M246.226 39.1077C242.27 39.6098 238.939 36.2633 239.441 32.2843C239.778 29.5742 241.96 27.3853 244.654 27.0441C248.61 26.542 251.945 29.8885 251.443 33.8675C251.106 36.5777 248.925 38.7665 246.226 39.1077ZM245.394 18.6031C237.168 18.6031 230.532 25.3076 230.532 33.5723V56.0126C230.532 58.029 232.162 59.6658 234.166 59.6658H256.626C258.635 59.6658 260.26 58.029 260.26 56.0126V33.5723C260.26 25.3076 253.624 18.6031 245.394 18.6031Z" fill="#99B9FF"/>
<path d="M245.436 27.6C245.202 27.6 244.965 27.6153 244.731 27.6422C242.316 27.9488 240.342 29.9345 240.039 32.361C239.82 34.0822 240.392 35.7573 241.607 36.9687C242.803 38.1608 244.459 38.7243 246.149 38.5097C248.564 38.2068 250.538 36.2212 250.841 33.7908C251.06 32.0735 250.485 30.3945 249.277 29.187C248.246 28.1597 246.874 27.6 245.436 27.6ZM245.44 39.7632C243.684 39.7632 242.009 39.0808 240.748 37.8197C239.272 36.3477 238.575 34.3007 238.839 32.2115C239.211 29.2445 241.626 26.8218 244.578 26.4462C246.644 26.1855 248.664 26.8717 250.128 28.3322C251.608 29.808 252.302 31.8512 252.045 33.9442C251.669 36.9073 249.258 39.3338 246.303 39.7057C246.015 39.744 245.728 39.7632 245.44 39.7632ZM245.394 19.2088C237.532 19.2088 231.138 25.6527 231.138 33.5723V56.0127C231.138 57.6955 232.495 59.0602 234.166 59.0602H256.626C258.297 59.0602 259.654 57.6955 259.654 56.0127V33.5723C259.654 25.6527 253.256 19.2088 245.394 19.2088ZM256.626 60.2715H234.166C231.828 60.2715 229.927 58.3587 229.927 56.0127V33.5723C229.927 24.9857 236.869 18.0013 245.394 18.0013C253.927 18.0013 260.862 24.9857 260.862 33.5723V56.0127C260.862 58.3587 258.964 60.2715 256.626 60.2715Z" fill="black"/>
<path d="M316.779 109.043C316.779 109.76 315.985 111.424 314.716 111.424C313.447 111.424 306.54 111.424 305.267 111.424C303.998 111.424 302.726 110.553 300.943 110.553C299.157 110.553 260.728 110.553 257.596 110.553C254.456 110.553 249.772 110.553 248.641 110.553C247.51 110.553 244.812 109.837 243.619 109.043C242.431 108.25 242.308 108.054 242.308 107.537C242.308 107.019 242.308 104.88 242.308 104.401C242.308 103.929 243.738 103.412 243.738 102.58C243.738 101.748 243.738 99.1684 243.738 97.9801C243.738 96.7917 254.456 89.1749 257.872 88.3431C261.287 87.5074 276.249 87.4307 280.258 87.7872C284.268 88.1437 292.885 92.3872 298.321 96.3931C304.155 96.3931 310.431 97.8574 313.168 99.5057C315.908 101.15 316.779 103.968 316.779 105.156C316.779 106.348 316.779 109.043 316.779 109.043Z" fill="white"/>
<path d="M254.893 101.967C258.907 101.967 262.157 105.214 262.157 109.223C262.157 109.676 262.111 110.12 262.035 110.55C259.742 110.55 258.136 110.55 257.596 110.55C254.456 110.55 249.772 110.55 248.641 110.55C248.4 110.55 248.089 110.519 247.736 110.458C247.667 110.059 247.629 109.645 247.629 109.223C247.629 105.214 250.88 101.967 254.893 101.967Z" fill="#99B9FF"/>
<path d="M300.939 110.553C300.525 110.553 298.133 110.553 294.672 110.553C294.595 110.12 294.549 109.679 294.549 109.223C294.549 105.214 297.803 101.967 301.813 101.967C305.827 101.967 309.077 105.214 309.077 109.223C309.077 109.99 308.958 110.73 308.736 111.424C307.161 111.424 305.769 111.424 305.267 111.424C303.998 111.424 302.725 110.553 300.939 110.553Z" fill="#99B9FF"/>
<path d="M312.313 101.077C312.719 101.192 313.072 101.438 313.317 101.775C313.509 102.04 313.7 102.342 313.765 102.542C313.907 102.956 313.765 103.431 313.194 103.431C312.619 103.431 310.354 103.431 309.817 103.431C309.284 103.431 308.288 102.618 307.736 101.967C307.18 101.311 306.344 100.238 306.586 100.1C306.804 99.9695 309.503 100.307 312.313 101.077Z" fill="#CADDFF"/>
<path d="M312.968 107.912C313.164 107.517 313.647 107.199 314.041 107.199H316.778C316.778 108.173 316.778 109.043 316.778 109.043C316.778 109.242 316.717 109.511 316.602 109.798H312.73C312.336 109.798 312.178 109.48 312.378 109.085L312.968 107.912Z" fill="#CADDFF"/>
<path d="M292.23 96.0978C292.575 96.3662 292.962 97.1098 292.23 97.1482C291.494 97.1903 277.203 96.6345 276.529 96.623C275.854 96.6115 275.655 96.2167 275.536 95.7605C275.421 95.3043 274.585 91.1413 274.543 90.7848C274.508 90.4245 274.508 90.0872 275.122 90.0872C275.735 90.0872 280.481 90.2673 283.137 91.1183C285.798 91.9732 289.332 93.8362 292.23 96.0978Z" fill="#99B9FF"/>
<path d="M272.779 90.8232C272.779 90.8232 272.96 95.5382 272.96 95.7797C272.96 96.0174 272.841 96.4122 272.385 96.4122C271.925 96.4122 257.477 96.0787 256.883 96.0557C256.288 96.0365 256.009 95.8372 256.108 95.4232C256.208 95.0054 259.443 91.08 262.104 90.3824C264.764 89.6924 271.687 90.0872 272.028 90.0872C272.365 90.0872 272.756 90.229 272.779 90.8232Z" fill="#99B9FF"/>
<path d="M254.341 90.045C255.181 90.2865 256.204 91.7854 255.323 92.2837C254.667 92.6594 252.563 94.4265 251.731 95.2009C250.895 95.9752 250.339 96.2129 249.745 96.2129C249.389 96.2129 246.744 96.2129 245.64 96.2129C247.656 94.576 251.708 91.6014 254.341 90.045Z" fill="#99B9FF"/>
<path d="M243.738 102.58C243.738 101.825 243.738 99.6245 243.738 98.3365C244.578 98.3365 246.732 98.3365 247.131 98.3365C247.629 98.3365 247.886 98.5244 247.629 99.2335C247.368 99.9427 246.099 101.848 245.739 102.124C245.383 102.404 245.068 102.618 244.608 102.618C244.409 102.618 244.06 102.618 243.73 102.618C243.734 102.607 243.738 102.595 243.738 102.58Z" fill="#99B9FF"/>
<path d="M305.735 110.78H314.375C314.421 110.78 314.463 110.787 314.509 110.795C314.797 110.864 315.073 110.791 315.341 110.576C315.881 110.147 316.173 109.338 316.173 109.047V105.156C316.173 104.133 315.364 101.534 312.853 100.023C310.948 98.8732 307.306 97.8458 303.354 97.3322C299.831 96.8798 296.519 95.7413 293.506 93.9588C288.297 90.873 282.953 88.6343 280.205 88.389C276.18 88.0287 261.371 88.1092 258.013 88.9295C254.82 89.7077 244.995 96.7342 244.34 98.0452V102.58C244.34 103.347 243.711 103.849 243.251 104.217C243.144 104.305 242.987 104.432 242.914 104.508V107.537C242.914 107.767 242.914 107.847 243.953 108.541C244.999 109.239 247.564 109.948 248.641 109.948H300.939C302.001 109.948 302.879 110.224 303.657 110.465C304.393 110.699 305.029 110.898 305.623 110.791C305.658 110.783 305.696 110.78 305.735 110.78ZM305.263 112.029C304.596 112.029 303.96 111.83 303.293 111.619C302.568 111.393 301.813 111.155 300.939 111.155H248.641C247.341 111.155 244.562 110.4 243.282 109.545C242.136 108.782 241.703 108.411 241.703 107.537V104.405C241.703 103.91 242.109 103.588 242.496 103.274C242.738 103.086 243.132 102.764 243.132 102.58V97.98C243.132 97.152 245.168 95.3158 249.178 92.5328C252.068 90.528 255.828 88.2203 257.726 87.7565C261.168 86.9132 276.233 86.8212 280.312 87.1853C283.674 87.4843 289.669 90.2827 294.123 92.92C296.995 94.6182 300.153 95.703 303.511 96.1362C307.617 96.6652 311.435 97.7577 313.478 98.9882C316.322 100.702 317.384 103.68 317.384 105.156V109.047C317.384 109.741 316.89 110.887 316.096 111.519C315.556 111.949 314.938 112.114 314.31 111.987H305.784C305.608 112.014 305.436 112.029 305.263 112.029Z" fill="#99B9FF"/>
<path d="M295.561 109.223C295.561 112.673 298.363 115.468 301.813 115.468C305.267 115.468 308.065 112.673 308.065 109.223C308.065 105.773 305.267 102.975 301.813 102.975C298.363 102.975 295.561 105.773 295.561 109.223Z" fill="#5479F7"/>
<path d="M297.39 109.223C297.39 111.665 299.368 113.643 301.813 113.643C304.255 113.643 306.237 111.665 306.237 109.223C306.237 106.785 304.255 104.803 301.813 104.803C299.368 104.803 297.39 106.785 297.39 109.223Z" fill="#99B9FF"/>
<path d="M248.641 109.223C248.641 112.673 251.439 115.468 254.893 115.468C258.347 115.468 261.145 112.673 261.145 109.223C261.145 105.773 258.347 102.975 254.893 102.975C251.439 102.975 248.641 105.773 248.641 109.223Z" fill="#5479F7"/>
<path d="M250.466 109.223C250.466 111.665 252.448 113.647 254.889 113.647C257.335 113.647 259.317 111.665 259.317 109.223C259.317 106.785 257.335 104.807 254.889 104.807C252.448 104.807 250.466 106.785 250.466 109.223Z" fill="#99B9FF"/>
<path d="M241.561 79.3078C239.41 79.3078 237.662 81.0558 237.662 83.2063V119.849C237.662 122 239.41 123.748 241.561 123.748H317.522C319.673 123.748 321.424 122 321.424 119.849V83.2063C321.424 81.0558 319.673 79.3078 317.522 79.3078H241.561ZM317.522 124.955H241.561C238.747 124.955 236.451 122.667 236.451 119.849V83.2063C236.451 80.3927 238.747 78.1003 241.561 78.1003H317.522C320.343 78.1003 322.632 80.3927 322.632 83.2063V119.849C322.632 122.667 320.343 124.955 317.522 124.955Z" fill="#99B9FF"/>
<path d="M185.859 142.416H288.584C290.225 142.416 291.559 141.086 291.559 139.445C291.559 137.805 290.225 136.474 288.584 136.474H185.859C184.218 136.474 182.888 137.805 182.888 139.445C182.888 141.086 184.218 142.416 185.859 142.416Z" fill="#CADDFF"/>
<path d="M267.106 156.4H288.584C290.225 156.4 291.559 155.07 291.559 153.433C291.559 151.789 290.225 150.458 288.584 150.458H267.106C265.465 150.458 264.131 151.789 264.131 153.433C264.131 155.07 265.465 156.4 267.106 156.4Z" fill="#CADDFF"/>
<path d="M185.859 171.48H288.584C290.225 171.48 291.559 170.154 291.559 168.513C291.559 166.873 290.225 165.539 288.584 165.539H185.859C184.218 165.539 182.888 166.873 182.888 168.513C182.888 170.154 184.218 171.48 185.859 171.48Z" fill="#CADDFF"/>
<path d="M277.87 185.468H288.584C290.225 185.468 291.559 184.138 291.559 182.497C291.559 180.857 290.225 179.526 288.584 179.526H277.87C276.23 179.526 274.899 180.857 274.899 182.497C274.899 184.138 276.23 185.468 277.87 185.468Z" fill="#CADDFF"/>
<path d="M269.908 199.797H288.584C290.225 199.797 291.559 198.467 291.559 196.826C291.559 195.182 290.225 193.855 288.584 193.855H269.908C268.268 193.855 266.934 195.182 266.934 196.826C266.934 198.467 268.268 199.797 269.908 199.797Z" fill="#CADDFF"/>
<path d="M186.924 84.0841H224.629C226.274 84.0841 227.604 82.754 227.604 81.1133C227.604 79.4726 226.274 78.1425 224.629 78.1425H186.924C185.28 78.1425 183.95 79.4726 183.95 81.1133C183.95 82.754 185.28 84.0841 186.924 84.0841Z" fill="#CADDFF"/>
<path d="M186.924 96.6729H224.629C226.274 96.6729 227.604 95.3427 227.604 93.702C227.604 92.0614 226.274 90.7312 224.629 90.7312H186.924C185.284 90.7312 183.95 92.0614 183.95 93.702C183.95 95.3427 185.284 96.6729 186.924 96.6729Z" fill="#CADDFF"/>
<path d="M186.924 109.265H207.598C209.238 109.265 210.572 107.935 210.572 106.295C210.572 104.654 209.238 103.324 207.598 103.324H186.924C185.284 103.324 183.95 104.654 183.95 106.295C183.95 107.935 185.284 109.265 186.924 109.265Z" fill="#CADDFF"/>
<path d="M306.436 137.076C304.638 137.076 303.178 138.537 303.178 140.335V152.053C303.178 153.847 304.638 155.308 306.436 155.308H318.166C319.964 155.308 321.425 153.847 321.425 152.053V140.335C321.425 138.537 319.964 137.076 318.166 137.076H306.436ZM318.166 156.519H306.436C303.971 156.519 301.967 154.514 301.967 152.053V140.335C301.967 137.874 303.971 135.873 306.436 135.873H318.166C320.631 135.873 322.632 137.874 322.632 140.335V152.053C322.632 154.514 320.631 156.519 318.166 156.519Z" fill="#99B9FF"/>
<path d="M310.695 151.785C310.561 151.785 310.427 151.769 310.292 151.743C309.533 151.601 308.905 151.064 308.648 150.34L306.819 145.582C306.505 144.751 306.919 143.819 307.751 143.501C308.583 143.183 309.514 143.601 309.832 144.429L310.921 147.261L314.831 141.028C315.303 140.273 316.299 140.047 317.051 140.519C317.806 140.99 318.036 141.983 317.56 142.738L312.374 150.987C311.956 151.497 311.339 151.785 310.695 151.785Z" fill="#5479F7"/>
<path d="M306.436 165.937C304.638 165.937 303.178 167.402 303.178 169.2V180.914C303.178 182.712 304.638 184.173 306.436 184.173H318.166C319.964 184.173 321.425 182.712 321.425 180.914V169.2C321.425 167.402 319.964 165.937 318.166 165.937H306.436ZM318.166 185.38H306.436C303.971 185.38 301.967 183.379 301.967 180.914V169.2C301.967 166.735 303.971 164.73 306.436 164.73H318.166C320.631 164.73 322.632 166.735 322.632 169.2V180.914C322.632 183.379 320.631 185.38 318.166 185.38Z" fill="#99B9FF"/>
<path d="M310.634 180.96C310.5 180.96 310.362 180.945 310.227 180.922C309.453 180.776 308.813 180.228 308.552 179.488L306.605 174.413C306.287 173.581 306.701 172.653 307.533 172.335C308.364 172.017 309.296 172.431 309.614 173.263L310.852 176.483L315.134 169.652C315.606 168.897 316.602 168.674 317.357 169.146C318.113 169.617 318.339 170.614 317.867 171.362L312.34 180.151C311.918 180.669 311.285 180.96 310.634 180.96Z" fill="#5479F7"/>
<path d="M306.436 194.802C304.638 194.802 303.178 196.267 303.178 198.061V209.779C303.178 211.573 304.638 213.037 306.436 213.037H318.166C319.964 213.037 321.425 211.573 321.425 209.779V198.061C321.425 196.267 319.964 194.802 318.166 194.802H306.436ZM318.166 214.245H306.436C303.971 214.245 301.967 212.24 301.967 209.779V198.061C301.967 195.6 303.971 193.599 306.436 193.599H318.166C320.631 193.599 322.632 195.6 322.632 198.061V209.779C322.632 212.24 320.631 214.245 318.166 214.245Z" fill="#99B9FF"/>
<path d="M310.622 209.89C310.484 209.89 310.35 209.879 310.212 209.852C309.434 209.706 308.794 209.158 308.529 208.415L306.555 203.27C306.241 202.438 306.655 201.507 307.487 201.189C308.318 200.871 309.25 201.285 309.564 202.116L310.837 205.428L315.207 198.463C315.678 197.712 316.671 197.482 317.426 197.953C318.182 198.425 318.412 199.422 317.94 200.173L312.336 209.082C311.91 209.599 311.278 209.89 310.622 209.89Z" fill="#5479F7"/>
<path d="M155.108 102.967L156.679 109.729C156.79 110.197 157.086 110.599 157.5 110.841L160.562 112.639C160.976 112.884 161.272 113.286 161.383 113.754L162.192 117.231C162.303 117.718 162.207 118.231 161.916 118.638L159.991 121.359C159.704 121.766 159.604 122.279 159.715 122.766L160.263 125.128C160.486 126.071 161.429 126.657 162.368 126.439C163.315 126.216 164.258 126.803 164.476 127.746L164.971 129.877C165.189 130.82 164.607 131.763 163.664 131.982C162.717 132.2 162.13 133.143 162.349 134.086L162.874 136.332C162.989 136.831 163.319 137.252 163.771 137.49L166.623 138.97C167.079 139.207 167.405 139.633 167.524 140.127L168.379 143.823C168.494 144.302 168.398 144.804 168.122 145.214L166.182 148.028C165.902 148.434 165.81 148.94 165.922 149.419L166.665 152.624C166.811 153.245 167.278 153.74 167.892 153.912L173.623 155.549C174.209 155.714 174.838 155.568 175.286 155.158L179.649 151.183C180.12 150.753 180.319 150.109 180.178 149.488L168.616 99.8276L155.108 102.967Z" fill="white"/>
<path d="M174.113 156.22C173.895 156.22 173.676 156.189 173.458 156.128L167.727 154.495C166.907 154.257 166.27 153.598 166.075 152.762L165.331 149.554C165.182 148.913 165.312 148.231 165.684 147.687L167.62 144.869C167.804 144.605 167.869 144.275 167.792 143.961L166.934 140.265C166.857 139.94 166.642 139.664 166.347 139.506L163.491 138.027C162.882 137.709 162.441 137.141 162.284 136.467L161.762 134.22C161.617 133.607 161.724 132.974 162.058 132.442C162.391 131.909 162.908 131.537 163.526 131.391C163.825 131.322 164.078 131.142 164.239 130.881C164.404 130.621 164.453 130.314 164.384 130.015L163.886 127.884C163.817 127.585 163.637 127.332 163.376 127.167C163.116 127.006 162.805 126.956 162.506 127.025C161.897 127.167 161.264 127.063 160.727 126.73C160.191 126.396 159.819 125.875 159.677 125.266L159.129 122.9C158.976 122.249 159.11 121.559 159.497 121.011L161.425 118.289C161.609 118.021 161.678 117.683 161.605 117.365L160.796 113.888C160.724 113.585 160.528 113.317 160.256 113.16L157.193 111.362C156.637 111.036 156.239 110.492 156.093 109.867L154.517 103.105L155.694 102.833L157.27 109.591C157.339 109.898 157.538 110.162 157.806 110.323L160.869 112.121C161.425 112.443 161.828 112.991 161.973 113.616L162.782 117.093C162.935 117.748 162.797 118.438 162.41 118.987L160.486 121.704C160.294 121.973 160.229 122.31 160.306 122.628L160.854 124.99C160.923 125.289 161.107 125.542 161.368 125.706C161.628 125.867 161.935 125.917 162.234 125.848C162.847 125.706 163.48 125.81 164.013 126.143C164.549 126.477 164.925 126.994 165.067 127.608L165.561 129.739C165.703 130.356 165.6 130.985 165.266 131.522C164.932 132.054 164.411 132.426 163.798 132.568C163.499 132.637 163.246 132.821 163.081 133.082C162.92 133.339 162.87 133.649 162.939 133.948L163.461 136.194C163.537 136.52 163.752 136.796 164.051 136.953L166.903 138.437C167.512 138.751 167.953 139.319 168.11 139.989L168.973 143.689C169.122 144.329 168.992 145.007 168.616 145.555L166.681 148.369C166.5 148.637 166.439 148.967 166.512 149.281L167.256 152.49C167.351 152.896 167.658 153.218 168.057 153.333L173.791 154.966C174.175 155.077 174.581 154.982 174.88 154.713L179.246 150.734C179.549 150.458 179.683 150.029 179.587 149.626L168.026 99.9656L169.207 99.6935L180.764 149.354C180.96 150.182 180.688 151.056 180.059 151.627L175.697 155.606C175.252 156.009 174.688 156.22 174.113 156.22Z" fill="black"/>
<path d="M163.564 106.774L173.078 147.652C173.27 148.469 174.087 148.975 174.899 148.783C175.712 148.595 176.222 147.783 176.03 146.97L166.516 106.088C166.324 105.271 165.511 104.765 164.695 104.957C163.882 105.145 163.376 105.957 163.564 106.774Z" fill="#99B9FF"/>
<path d="M163.388 78.3151C163.576 79.1316 163.223 80.0171 162.41 80.2087L152.01 82.6237C151.198 82.8116 150.224 82.2327 150.032 81.4201L149.787 80.3659C149.308 78.3189 150.757 76.3754 152.804 75.8962L158.73 74.5201C160.777 74.0447 162.667 75.2139 163.142 77.2609L163.388 78.3151ZM158.424 67.5587L150.006 69.5176C142.232 71.3231 137.179 78.9399 138.989 86.7062L142.036 99.8047C142.753 102.891 146.053 104.938 149.143 104.221L174.527 98.3251C177.617 97.6082 179.403 94.3767 178.683 91.2909L175.635 78.1924C173.826 70.4261 166.198 65.7532 158.424 67.5587Z" fill="#5479F7"/>
<path d="M144.493 72.0629C141.258 68.5669 139.418 63.9055 139.418 59.1369C139.418 48.2617 148.683 39.5064 159.742 40.3382C168.965 41.0282 176.413 48.4725 177.107 57.6879C177.939 68.7355 169.176 77.9892 158.293 77.9892C156.039 77.9892 153.835 77.5982 151.742 76.8239C151.742 76.8239 151.619 76.2987 152.804 75.9L158.531 74.566L161.003 73.922C168.643 72.5344 174.041 65.5309 173.266 57.6265C172.557 50.3624 166.581 44.6009 159.294 44.1255C150.542 43.5582 143.24 50.508 143.24 59.1292C143.24 63.2424 144.995 67.2904 147.955 70.1539L147.824 70.2037C146.636 70.6714 145.513 71.2962 144.493 72.0629Z" fill="white"/>
<path d="M161.199 74.4894C160.911 74.4894 160.658 74.29 160.605 74.0025C160.543 73.6767 160.754 73.3585 161.08 73.2934C167.834 71.9747 172.737 66.0177 172.737 59.1292C172.737 51.175 166.255 44.7005 158.293 44.7005C150.324 44.7005 143.845 51.175 143.845 59.1292C143.845 62.33 144.861 65.3507 146.789 67.8692C146.989 68.1337 146.939 68.5094 146.674 68.7164C146.41 68.9157 146.03 68.8659 145.827 68.6014C143.738 65.872 142.638 62.5984 142.638 59.1292C142.638 50.508 149.657 43.493 158.293 43.493C166.922 43.493 173.945 50.508 173.945 59.1292C173.945 66.5965 168.632 73.048 161.314 74.4779C161.275 74.4894 161.237 74.4894 161.199 74.4894Z" fill="black"/>
<path d="M158.293 78.591C156.879 78.591 155.472 78.4415 154.107 78.1425C153.781 78.0735 153.574 77.7477 153.647 77.4218C153.716 77.096 154.038 76.889 154.368 76.9618C155.644 77.2455 156.967 77.3873 158.293 77.3873C168.363 77.3873 176.559 69.1993 176.559 59.1368C176.559 49.0743 168.363 40.8863 158.293 40.8863C148.219 40.8863 140.024 49.0743 140.024 59.1368C140.024 63.181 141.319 67.0105 143.769 70.2075C143.972 70.472 143.922 70.8515 143.658 71.0547C143.393 71.2578 143.014 71.208 142.81 70.9435C140.196 67.5318 138.816 63.4493 138.816 59.1368C138.816 48.4073 147.552 39.6788 158.293 39.6788C169.03 39.6788 177.767 48.4073 177.767 59.1368C177.767 69.8663 169.03 78.591 158.293 78.591Z" fill="black"/>
<path d="M350.934 287.197L349.588 290.429C347.698 294.963 343.942 298.463 339.284 300.035L320.29 306.444H44.2094L27.5497 301.342C23.0647 299.966 19.86 296.01 19.4537 291.341L18.7522 283.329C18.6525 282.083 18.8902 280.83 19.4345 279.707C20.1092 278.315 20.3507 276.755 20.1245 275.229L18.6449 265.224C18.3459 263.22 19.3962 261.253 21.2247 260.379L25.0274 258.57C45.9344 248.611 68.3172 242.106 91.3095 239.311L100.973 238.134L111.979 232.219C173.443 199.199 246.245 194.519 311.435 219.397L351.746 234.78L349.561 253.924L352.11 267.057C352.567 269.422 352.8 271.825 352.8 274.237V277.89C352.8 281.083 352.168 284.245 350.934 287.197Z" fill="white"/>
<path d="M309.399 228.168C310.147 227.773 310.082 226.68 309.288 226.378L299.249 222.552C241.607 200.575 163.572 201.423 108.318 243.746L243.018 239.085C258.654 238.545 274.251 237.203 289.75 235.06C297.608 233.968 305.8 230.054 309.399 228.168Z" fill="#99B9FF"/>
<path d="M327.351 251.056C327.351 251.056 322.295 255.614 349.553 254.031L351.754 234.753C351.754 234.753 337.206 242.727 327.351 251.056Z" fill="#99B9FF"/>
<path d="M328.98 253.414C331.564 254.211 337.283 254.744 349.55 254.031L350.24 247.994C350.24 247.994 351.474 240.089 344.52 243.072C336.815 246.376 328.98 253.414 328.98 253.414Z" fill="#5479F7"/>
<path d="M45.9075 297.823L295.204 293.085L351.179 286.592C351.102 286.795 351.022 286.994 350.937 287.197L349.588 290.429C347.698 294.964 343.945 298.46 339.288 300.031L327.293 304.075C322.659 305.639 317.794 306.437 312.903 306.437H48.1347C45.5318 306.437 42.9443 306.05 40.4603 305.291L27.5535 301.335C24.2837 300.334 21.6962 297.973 20.3737 294.948L45.9075 297.823Z" fill="#99B9FF"/>
<path d="M53.647 256.745C53.9421 256.534 53.8233 256.07 53.463 256.024C51.5386 255.779 47.0191 255.327 42.101 255.756C37.064 256.193 29.4855 259.915 26.3 261.583C25.449 262.027 25.0771 263.051 25.4413 263.94L25.656 264.465C26.0815 265.508 27.0973 266.187 28.2243 266.187H35.017C38.7238 266.187 42.3348 265.01 45.3286 262.825L53.647 256.745Z" fill="white"/>
<path d="M26.369 261.548C29.5929 259.862 37.1024 256.189 42.101 255.756C44.102 255.58 46.0379 255.553 47.7552 255.595L41.7177 259.846C39.364 261.498 36.6424 262.56 33.7904 262.924L29.4204 263.492C28.6077 263.595 27.7912 263.273 27.2699 262.641L26.369 261.548Z" fill="#5479F7"/>
<path d="M26.6489 262.081L26.5799 262.116C26.0049 262.422 25.7519 263.105 26.001 263.71L26.2157 264.236C26.5492 265.056 27.3389 265.585 28.2244 265.585H35.017C38.6204 265.585 42.0627 264.462 44.9722 262.338L52.8765 256.561C50.8794 256.331 46.6627 255.967 42.1547 256.358C37.225 256.787 29.6695 260.502 26.6489 262.081ZM35.017 266.792H28.2244C26.8444 266.792 25.6177 265.968 25.0964 264.692L24.8817 264.167C24.3949 262.982 24.8855 261.64 26.0202 261.05L26.0892 261.012C29.1712 259.398 36.903 255.599 42.0512 255.154C47.0767 254.717 51.738 255.197 53.509 255.423C53.923 255.476 54.2604 255.772 54.3677 256.178C54.4712 256.584 54.3179 257.006 53.9805 257.251L45.6852 263.312C42.5687 265.589 38.881 266.792 35.017 266.792Z" fill="#5479F7"/>
<path d="M186.303 249.439L210.894 248.676C213.509 248.595 216.05 247.798 218.243 246.372L219.657 245.452L194.948 246.192C191.785 246.284 188.745 247.43 186.303 249.439Z" fill="#CADDFF"/>
<path d="M34.1622 281.033C33.8057 285.008 32.3184 288.976 31.544 290.824C31.2527 291.525 30.5244 291.939 29.773 291.828C27.6072 291.51 23.4289 290.026 22.712 283.356C22.5702 282.045 23.3292 280.803 24.5482 280.297C26.162 279.63 30.0912 279.35 32.4219 279.239C33.4224 279.193 34.2504 280.037 34.1622 281.033Z" fill="#CADDFF"/>
<path d="M29.4011 291.763C29.5276 291.79 29.6503 291.809 29.7653 291.828C30.5205 291.939 31.2526 291.529 31.544 290.827C32.3183 288.976 33.8056 285.008 34.1621 281.033C34.2503 280.033 33.4223 279.193 32.418 279.243C31.774 279.27 31.0073 279.316 30.2023 279.377L30.2061 279.412C30.7006 283.36 30.4706 287.362 29.5315 291.23L29.4011 291.763Z" fill="#99B9FF"/>
<path d="M111.128 292.004C111.128 272.558 95.346 256.787 75.8765 256.787C56.4109 256.787 40.629 272.558 40.629 292.008C40.629 297.083 41.7062 301.906 43.6382 306.264L44.2094 306.437H108.038C110.024 302.009 111.128 297.149 111.128 292.004Z" fill="#99B9FF"/>
<path d="M323.261 292.004C323.261 272.546 307.471 256.776 287.994 256.776C268.521 256.776 252.727 272.546 252.727 292.004C252.727 297.149 253.835 302.009 255.817 306.437H320.171C322.157 302.009 323.261 297.149 323.261 292.004Z" fill="#99B9FF"/>
<path d="M121.938 240.051L127.304 233.592C128.06 232.683 129.179 232.154 130.363 232.154H135.14C137.168 232.154 138.87 233.68 139.092 235.692L139.448 238.92C139.544 239.794 139.349 240.676 138.889 241.427C138.176 242.589 136.918 243.305 135.554 243.325C130.432 243.397 118.139 243.524 118.407 243.125C118.672 242.727 120.542 241.255 121.321 240.649C121.547 240.473 121.754 240.273 121.938 240.051Z" fill="#99B9FF"/>
<path d="M139.449 238.92L139.092 235.692C138.87 233.68 137.168 232.154 135.14 232.154H130.364C129.179 232.154 128.06 232.683 127.305 233.592L121.938 240.051C121.938 240.051 131.974 238.774 139.449 238.92Z" fill="white"/>
<path d="M119.722 242.711C121.727 242.807 126.584 242.845 135.546 242.723C136.708 242.707 137.766 242.106 138.375 241.113C138.758 240.48 138.927 239.725 138.847 238.985L138.49 235.758C138.302 234.048 136.861 232.76 135.14 232.76H130.363C129.359 232.76 128.412 233.205 127.772 233.975L122.402 240.438C122.191 240.691 121.953 240.925 121.692 241.128C120.838 241.791 120.182 242.32 119.722 242.711ZM125.641 244.015C118.189 244.015 118.055 243.769 117.874 243.436C117.767 243.24 117.779 242.976 117.905 242.792C117.989 242.661 118.25 242.267 120.949 240.174C121.14 240.024 121.317 239.855 121.474 239.668L126.841 233.205C127.711 232.154 128.999 231.552 130.363 231.552H135.14C137.478 231.552 139.437 233.304 139.69 235.623L140.05 238.851C140.158 239.855 139.931 240.883 139.406 241.741C138.578 243.091 137.141 243.907 135.561 243.93C131.299 243.988 128.079 244.015 125.641 244.015Z" fill="#5479F7"/>
<path d="M225.718 204.186C186.568 204.186 147.571 213.785 112.266 232.752L101.261 238.663C101.196 238.698 101.123 238.721 101.046 238.732L91.3824 239.909C68.413 242.7 46.1759 249.163 25.288 259.114L21.4854 260.924C19.883 261.69 18.9822 263.381 19.2429 265.136L20.7225 275.141C20.9679 276.794 20.711 278.461 19.9789 279.968C19.4805 280.995 19.2659 282.141 19.354 283.283L20.0555 291.287C20.4427 295.734 23.4557 299.452 27.7299 300.763L40.2687 304.604C42.9444 305.425 45.7197 305.839 48.518 305.839H313.118C317.81 305.839 322.444 305.08 326.891 303.581L339.092 299.464C343.585 297.946 347.208 294.569 349.032 290.199L350.382 286.963C351.585 284.073 352.195 281.018 352.195 277.89V274.233C352.195 271.868 351.969 269.495 351.52 267.172L348.967 254.035C348.959 253.978 348.956 253.912 348.959 253.851L350.834 237.494C350.987 236.13 350.201 234.834 348.913 234.343L311.224 219.961C283.59 209.415 254.613 204.186 225.718 204.186ZM313.118 307.046H48.518C45.6009 307.046 42.7029 306.613 39.916 305.758L27.3734 301.917C22.6277 300.464 19.2812 296.332 18.8519 291.391L18.1504 283.383C18.043 282.022 18.2999 280.661 18.894 279.442C19.5189 278.154 19.7374 276.728 19.5265 275.318L18.0469 265.313C17.7095 263.032 18.8825 260.828 20.9679 259.835L24.7667 258.026C45.7734 248.017 68.137 241.519 91.2367 238.709L100.789 237.544L111.695 231.687C173.362 198.559 246.245 193.871 311.657 218.834L349.347 233.216C351.144 233.902 352.252 235.719 352.034 237.632L350.175 253.897L352.705 266.942C353.172 269.338 353.406 271.791 353.406 274.233V277.89C353.406 281.179 352.762 284.391 351.497 287.431L350.148 290.663C348.189 295.355 344.302 298.981 339.48 300.606L327.278 304.723C322.709 306.264 317.94 307.046 313.118 307.046Z" fill="black"/>
<path d="M319.454 292.008C319.454 309.365 305.367 323.434 287.994 323.434C270.621 323.434 256.538 309.365 256.538 292.008C256.538 274.651 270.621 260.578 287.994 260.578C305.367 260.578 319.454 274.651 319.454 292.008Z" fill="black"/>
<path d="M309.154 292.008C309.154 303.68 299.682 313.145 287.998 313.145C276.31 313.145 266.838 303.68 266.838 292.008C266.838 280.332 276.31 270.871 287.998 270.871C299.682 270.871 309.154 280.332 309.154 292.008Z" fill="#CADDFF"/>
<path d="M304.976 292.008C304.976 301.377 297.374 308.971 287.998 308.971C278.618 308.971 271.016 301.377 271.016 292.008C271.016 282.639 278.618 275.046 287.998 275.046C297.374 275.046 304.976 282.639 304.976 292.008Z" fill="#99B9FF"/>
<path d="M107.337 292.008C107.337 309.365 93.253 323.434 75.8765 323.434C58.5038 323.434 44.4202 309.365 44.4202 292.008C44.4202 274.651 58.5038 260.578 75.8765 260.578C93.253 260.578 107.337 274.651 107.337 292.008Z" fill="black"/>
<path d="M97.0365 292.008C97.0365 303.68 87.5643 313.145 75.8765 313.145C64.1925 313.145 54.7203 303.68 54.7203 292.008C54.7203 280.332 64.1925 270.871 75.8765 270.871C87.5643 270.871 97.0365 280.332 97.0365 292.008Z" fill="#CADDFF"/>
<path d="M92.8582 292.008C92.8582 301.377 85.2567 308.971 75.8765 308.971C66.5002 308.971 58.8987 301.377 58.8987 292.008C58.8987 282.639 66.5002 275.046 75.8765 275.046C85.2567 275.046 92.8582 282.639 92.8582 292.008Z" fill="#99B9FF"/>
<path d="M259.497 323.89L259.006 332.933L252.953 333.952L252.413 323.288L259.497 323.89Z" fill="white"/>
<path d="M253.053 323.951L253.525 333.243L258.427 332.415L258.861 324.442L253.053 323.951ZM252.953 334.558C252.815 334.558 252.681 334.508 252.574 334.424C252.44 334.316 252.359 334.155 252.348 333.983L251.811 323.319C251.803 323.142 251.869 322.974 251.995 322.855C252.122 322.732 252.294 322.671 252.467 322.686L259.543 323.292C259.873 323.319 260.118 323.598 260.099 323.924L259.608 332.963C259.593 333.247 259.382 333.481 259.106 333.527L253.053 334.546C253.019 334.554 252.988 334.558 252.953 334.558Z" fill="black"/>
<path d="M252.785 349.24C255.338 349.47 259.516 349.991 264.365 349.067C265.952 348.764 266.934 347.162 266.47 345.617C265.174 341.305 262.905 333.113 259.531 329.437L258.799 331.238L257.657 329.651C257.492 329.391 257.212 329.222 256.906 329.199L254.502 329.019C254 328.981 253.551 329.333 253.475 329.832L253.406 330.913L251.792 329.349L251.382 338.909C251.301 340.772 251.09 342.209 250.749 344.042L250.324 346.315C250.205 347.798 251.297 349.109 252.785 349.24Z" fill="#5479F7"/>
<path d="M250.926 346.392C250.845 347.534 251.7 348.538 252.838 348.638L253.521 348.703C256.062 348.941 259.896 349.305 264.254 348.477C264.844 348.362 265.362 348.005 265.672 347.492C265.987 346.974 266.063 346.369 265.895 345.794L265.615 344.858C264.404 340.791 262.433 334.179 259.712 330.598L259.359 331.465C259.278 331.668 259.091 331.81 258.872 331.836C258.654 331.859 258.439 331.767 258.309 331.591L257.166 330.008C257.159 329.996 257.151 329.981 257.143 329.973C257.082 329.874 256.978 329.812 256.863 329.805L254.456 329.621C254.28 329.602 254.115 329.732 254.077 329.904L254.008 330.951C253.996 331.189 253.847 331.392 253.624 331.48C253.406 331.56 253.153 331.514 252.984 331.35L252.34 330.721L251.987 338.936C251.903 340.852 251.681 342.351 251.343 344.153L250.926 346.392ZM258.542 350.198C256.53 350.198 254.786 350.033 253.41 349.903L252.731 349.842C250.926 349.681 249.576 348.074 249.722 346.265C249.726 346.242 249.726 346.223 249.73 346.2L250.155 343.931C250.489 342.137 250.699 340.737 250.78 338.882L251.19 329.326C251.198 329.088 251.347 328.877 251.57 328.789C251.792 328.701 252.045 328.751 252.214 328.915L252.907 329.59C253.095 328.866 253.785 328.363 254.548 328.417L256.955 328.597C257.442 328.636 257.891 328.9 258.155 329.314L258.65 329.996L258.972 329.207C259.048 329.015 259.217 328.881 259.424 328.843C259.631 328.804 259.834 328.873 259.976 329.027C263.215 332.557 265.442 340.044 266.773 344.513L267.049 345.445C267.321 346.342 267.194 347.315 266.707 348.117C266.217 348.922 265.408 349.485 264.48 349.661C262.345 350.068 260.336 350.198 258.542 350.198Z" fill="black"/>
<path d="M258.29 347.442C254.878 347.442 252.302 346.855 252.133 346.817C251.807 346.744 251.604 346.418 251.681 346.092C251.758 345.77 252.08 345.567 252.409 345.64C252.471 345.655 258.742 347.07 264.569 345.433C264.891 345.345 265.228 345.529 265.316 345.851C265.404 346.169 265.22 346.506 264.898 346.595C262.617 347.235 260.306 347.442 258.29 347.442Z" fill="black"/>
<path d="M255.112 340.745C254.782 340.745 254.514 340.481 254.506 340.151C254.502 339.817 254.767 339.541 255.1 339.538L260.816 339.438C260.82 339.438 260.823 339.438 260.827 339.438C261.157 339.438 261.425 339.699 261.429 340.028C261.437 340.366 261.168 340.638 260.835 340.645L255.123 340.745C255.119 340.745 255.116 340.745 255.112 340.745Z" fill="black"/>
<path d="M230.743 320.54L230.494 333.711L223.168 334.079L222.168 320.973L230.743 320.54Z" fill="white"/>
<path d="M222.816 321.544L223.728 333.446L229.9 333.136L230.126 321.176L222.816 321.544ZM223.168 334.685C222.854 334.685 222.59 334.443 222.567 334.125L221.562 321.019C221.551 320.854 221.604 320.697 221.712 320.574C221.819 320.451 221.972 320.375 222.137 320.367L230.712 319.934C230.885 319.934 231.042 319.988 231.165 320.106C231.284 320.221 231.353 320.382 231.349 320.551L231.096 333.722C231.092 334.041 230.843 334.297 230.525 334.313L223.199 334.681C223.191 334.681 223.18 334.685 223.168 334.685Z" fill="black"/>
<path d="M232.783 341.021C232.863 342.263 232.07 343.394 230.874 343.739C226.711 344.931 217.334 347.587 214.651 348.124C211.166 348.826 206.796 347.967 204.838 346.008C202.879 344.049 208.64 338.847 211.404 336.923C215.506 334.06 219.312 328.62 221.007 328.298C222.705 327.98 226.139 332.764 226.139 332.764L231.238 330.318C231.238 330.318 232.369 334.73 232.783 341.021Z" fill="#5479F7"/>
<path d="M221.202 328.885C221.171 328.885 221.145 328.889 221.122 328.892C220.462 329.019 218.971 330.579 217.534 332.086C215.805 333.903 213.846 335.953 211.749 337.418C209.05 339.3 205.221 342.942 205.048 344.893C205.014 345.284 205.156 345.472 205.263 345.583C207.015 347.331 211.17 348.205 214.532 347.534C217.208 346.997 226.734 344.295 230.705 343.156C231.621 342.896 232.238 342.014 232.177 341.063C231.87 336.348 231.15 332.676 230.82 331.189L226.4 333.308C226.136 333.435 225.817 333.354 225.649 333.117C224.146 331.028 222.049 328.885 221.202 328.885ZM212.136 348.968C209.07 348.968 205.988 348.013 204.408 346.438C203.983 346.008 203.787 345.437 203.845 344.782C204.102 341.887 209.269 337.675 211.055 336.425C213.052 335.033 214.969 333.025 216.66 331.254C218.699 329.115 219.903 327.896 220.895 327.704C222.636 327.374 225.216 330.514 226.331 332.001L230.977 329.774C231.138 329.694 231.326 329.694 231.491 329.77C231.656 329.847 231.778 329.993 231.824 330.169C231.836 330.211 232.974 334.708 233.384 340.983C233.484 342.497 232.495 343.9 231.038 344.318C227.052 345.46 217.488 348.174 214.77 348.718C213.919 348.887 213.029 348.968 212.136 348.968Z" fill="black"/>
<path d="M211.887 345.59C210.02 345.59 208.395 345.322 207.252 344.651C206.965 344.486 206.865 344.115 207.034 343.827C207.203 343.54 207.574 343.444 207.862 343.612C212.872 346.541 229.566 340.442 229.731 340.381C230.045 340.266 230.394 340.427 230.509 340.741C230.624 341.052 230.463 341.401 230.149 341.516C229.589 341.719 218.998 345.59 211.887 345.59Z" fill="black"/>
<path d="M220.489 338.184C220.355 338.184 220.221 338.138 220.106 338.046L216.211 334.876C215.954 334.665 215.912 334.286 216.123 334.029C216.338 333.768 216.717 333.73 216.978 333.941L220.869 337.111C221.129 337.322 221.168 337.701 220.957 337.962C220.838 338.108 220.665 338.184 220.489 338.184Z" fill="black"/>
<path d="M257.013 233.438C257.013 233.438 261.352 274.352 263.254 288.454C265.159 302.557 262.341 325.527 262.341 325.527L251.006 325.5C251.006 325.5 249.408 305.122 248.177 294.519C247.874 291.92 247.154 289.39 246.061 287.013C244.344 283.276 241.653 276.839 240.419 270.81C238.536 261.587 232.974 247.15 232.974 247.15C232.974 247.15 232.756 320.62 232.671 326.397C232.671 326.397 223.824 327.24 220.547 325.4C220.547 325.4 213.566 298.965 213.643 284.387C213.716 269.813 211.005 233.741 211.005 233.741L257.013 233.438Z" fill="#5479F7"/>
<path d="M221.064 324.99C223.824 326.328 230.183 325.975 232.073 325.841C232.165 317.101 232.368 247.867 232.368 247.15C232.368 246.859 232.579 246.61 232.863 246.556C233.15 246.503 233.434 246.664 233.541 246.932C233.595 247.078 239.138 261.522 241.013 270.691C242.258 276.782 245.053 283.372 246.609 286.76C247.74 289.221 248.468 291.809 248.775 294.45C249.883 303.964 251.297 321.555 251.566 324.898L261.805 324.921C262.207 321.394 264.365 301.216 262.656 288.535C260.892 275.467 256.99 238.947 256.469 234.044L211.657 234.339C212.017 239.269 214.313 271.028 214.244 284.391C214.175 297.961 220.347 322.222 221.064 324.99ZM228.213 327.194C225.438 327.194 222.08 326.953 220.251 325.925C220.106 325.849 220.002 325.711 219.96 325.554C219.891 325.289 212.964 298.874 213.037 284.384C213.11 269.997 210.43 234.148 210.403 233.787C210.388 233.619 210.446 233.454 210.561 233.331C210.676 233.209 210.833 233.14 211.001 233.136L257.009 232.833C257.32 232.837 257.58 233.063 257.615 233.373C257.657 233.784 261.973 274.44 263.852 288.374C265.745 302.393 262.97 325.37 262.943 325.6C262.905 325.902 262.648 326.129 262.341 326.129L251.006 326.106C250.688 326.106 250.431 325.86 250.404 325.55C250.389 325.347 248.79 305.057 247.575 294.588C247.284 292.073 246.59 289.608 245.509 287.266C243.585 283.069 241.036 276.832 239.828 270.932C238.502 264.439 235.305 255.239 233.568 250.482C233.526 264.906 233.35 321.402 233.277 326.405C233.269 326.711 233.035 326.968 232.729 326.999C232.556 327.014 230.601 327.194 228.213 327.194Z" fill="black"/>
<path d="M253.08 291.023C252.409 291.023 251.734 290.908 251.094 290.678C250.78 290.563 250.615 290.218 250.73 289.904C250.845 289.589 251.19 289.428 251.504 289.539C252.873 290.034 254.414 289.854 255.633 289.064C255.913 288.88 256.288 288.961 256.469 289.24C256.649 289.52 256.572 289.892 256.292 290.076C255.33 290.701 254.207 291.023 253.08 291.023Z" fill="black"/>
<path d="M255.694 245.862C255.675 245.862 255.652 245.859 255.633 245.859C253.471 245.632 250.903 244.122 250.182 240.561C250.117 240.231 250.328 239.913 250.657 239.848C250.983 239.783 251.301 239.994 251.366 240.319C251.957 243.24 254.023 244.475 255.759 244.655C256.089 244.693 256.331 244.988 256.296 245.318C256.262 245.629 256.001 245.862 255.694 245.862Z" fill="black"/>
<path d="M226.147 313.26C225.829 313.26 225.564 313.018 225.545 312.7C225.097 306.191 216.928 294.262 216.847 294.139C216.659 293.863 216.728 293.491 217.001 293.3C217.277 293.112 217.652 293.181 217.844 293.457C218.185 293.955 226.281 305.781 226.749 312.616C226.772 312.949 226.523 313.237 226.189 313.26C226.174 313.26 226.158 313.26 226.147 313.26Z" fill="black"/>
<path d="M214.981 175.076C212.497 167.934 208.843 168.908 206.21 170.986C204.32 172.481 203.044 174.631 202.618 177C202.269 178.959 201.545 181.811 200.08 184.471C197.347 189.447 187.235 191.448 183.708 191.437C182.171 191.429 178.043 186.495 175.39 187.331C173.489 187.933 177.038 190.95 176.594 191.168C174.945 191.973 173.381 191.801 171.886 191.793C169.464 191.782 167.298 191.126 166.393 191.122C165.243 191.118 164.856 192.291 165.331 193.334C166.014 194.829 167.497 197.095 169.95 197.884C174.336 199.295 181.838 197.972 184.456 197.466C186.449 197.079 209.94 198.536 212.93 188.742C213.551 186.706 216.023 178.081 214.981 175.076Z" fill="white"/>
<path d="M166.381 191.728C166.14 191.728 165.967 191.809 165.864 191.97C165.688 192.238 165.695 192.675 165.883 193.085C166.339 194.093 167.669 196.516 170.138 197.306C174.048 198.567 180.714 197.578 184.341 196.872C184.697 196.803 185.414 196.788 186.878 196.765C193.196 196.658 209.967 196.37 212.351 188.566C213.512 184.767 215.249 177.694 214.409 175.272C213.39 172.335 212.109 170.626 210.611 170.189C209.441 169.847 208.088 170.277 206.586 171.461C204.815 172.857 203.619 174.865 203.212 177.112C202.86 179.086 202.12 182.018 200.613 184.759C197.754 189.961 187.568 192.039 183.746 192.039C183.731 192.039 183.72 192.039 183.704 192.039C182.903 192.035 181.887 191.268 180.607 190.298C178.951 189.045 176.896 187.488 175.574 187.906C175.459 187.941 175.428 187.979 175.428 187.979C175.332 188.29 176.225 189.443 176.521 189.823C177.05 190.505 177.314 190.846 177.218 191.26C177.172 191.456 177.042 191.621 176.858 191.709C175.317 192.464 173.833 192.433 172.526 192.407C172.312 192.403 172.097 192.399 171.882 192.399C170.326 192.391 168.865 192.127 167.8 191.931C167.198 191.824 166.677 191.728 166.389 191.728C166.385 191.728 166.381 191.728 166.381 191.728ZM174.983 199.115C173.074 199.115 171.25 198.935 169.762 198.459C166.841 197.516 165.308 194.737 164.783 193.587C164.423 192.798 164.449 191.927 164.848 191.314C165.182 190.8 165.726 190.521 166.381 190.521C166.385 190.521 166.389 190.521 166.397 190.521C166.792 190.521 167.332 190.62 168.018 190.743C169.095 190.938 170.437 191.184 171.89 191.191C172.108 191.191 172.331 191.195 172.549 191.199C173.653 191.222 174.704 191.241 175.788 190.854C175.712 190.754 175.635 190.655 175.566 190.563C174.865 189.658 173.991 188.535 174.278 187.611C174.366 187.327 174.6 186.948 175.21 186.756C177.126 186.151 179.361 187.845 181.335 189.336C182.217 189.999 183.313 190.831 183.712 190.831C183.723 190.831 183.735 190.831 183.746 190.831C187.239 190.831 196.975 188.868 199.551 184.18C200.981 181.581 201.687 178.787 202.024 176.897C202.48 174.359 203.833 172.094 205.834 170.514C207.663 169.073 209.38 168.571 210.948 169.027C212.845 169.583 214.394 171.549 215.552 174.877C216.69 178.15 214.049 187.147 213.509 188.918C210.867 197.566 193.456 197.861 186.901 197.973C185.793 197.988 184.835 198.007 184.571 198.057C182.163 198.525 178.441 199.115 174.983 199.115Z" fill="black"/>
<path d="M263.871 185.453C263.871 185.453 265.446 161.322 251.094 156.074C237.275 151.022 219.002 150.915 209.139 157.443C204.266 160.67 199.827 180.385 199.827 180.385L207.582 189.144C207.582 189.144 207.13 232.515 209.786 243.827C209.786 243.827 222.674 244.674 227.999 242.259C233.327 239.848 251.045 235.953 259.781 239.442L255.464 184.778L263.871 185.453Z" fill="black"/>
<path d="M247.437 229.36C247.414 229.36 247.387 229.356 247.361 229.356C226.273 226.719 219.412 212.459 219.343 212.313C219.205 212.01 219.335 211.65 219.638 211.512C219.941 211.37 220.297 211.5 220.439 211.803C220.504 211.941 227.117 225.603 247.514 228.156C247.844 228.198 248.077 228.497 248.035 228.831C247.997 229.134 247.736 229.36 247.437 229.36Z" fill="#CADDFF"/>
<path d="M208.445 204.133L230.295 204.834C230.996 204.857 231.506 204.171 231.28 203.512L222.325 176.847C222.191 176.448 221.823 176.176 221.405 176.161L199.551 175.463C198.85 175.44 198.344 176.123 198.566 176.79L207.521 203.45C207.655 203.845 208.023 204.121 208.445 204.133Z" fill="#99B9FF"/>
<path d="M199.521 176.069C199.337 176.069 199.233 176.18 199.199 176.226C199.16 176.28 199.08 176.418 199.137 176.598L208.096 203.259C208.149 203.416 208.295 203.523 208.464 203.531L230.314 204.229C230.494 204.221 230.613 204.121 230.647 204.068C230.689 204.018 230.77 203.884 230.709 203.703L221.754 177.043C221.7 176.882 221.555 176.77 221.382 176.767L199.532 176.069C199.528 176.069 199.524 176.069 199.521 176.069ZM230.329 205.436C230.31 205.436 230.295 205.436 230.275 205.436L208.425 204.738C207.755 204.715 207.16 204.275 206.95 203.642L197.995 176.981C197.826 176.483 197.914 175.931 198.229 175.505C198.543 175.084 199.049 174.831 199.57 174.858L221.424 175.559C222.091 175.578 222.685 176.023 222.9 176.655L231.855 203.316C232.023 203.815 231.935 204.367 231.621 204.788C231.314 205.198 230.835 205.436 230.329 205.436Z" fill="black"/>
<path d="M261.417 184.23L249.779 183.705C249.779 183.705 249.691 193.499 248.641 193.672C244.9 194.296 237.064 194.327 231.966 193.714C230.191 193.499 228.78 192.142 228.447 190.383C228.194 189.06 227.477 187.5 225.652 186.381C223.893 185.296 225.629 188.707 223.981 190.9C223.096 192.081 220.293 191.559 216.472 190.67C212.65 189.788 211.68 193.867 215.962 196.336C220.608 199.008 223.556 198.709 225.039 199.019C227.987 199.644 254.069 203.726 258.094 201.541C261.203 199.851 261.417 184.23 261.417 184.23Z" fill="white"/>
<path d="M215.467 191.153C214.67 191.153 214.08 191.463 213.853 192.035C213.474 193.004 214.175 194.611 216.265 195.814C219.803 197.85 222.294 198.103 223.947 198.268C224.41 198.317 224.813 198.356 225.162 198.432C229.229 199.291 254.215 202.963 257.803 201.012C259.781 199.943 260.674 190.75 260.804 184.805L250.377 184.337C250.247 194.02 249.193 194.197 248.741 194.269C244.892 194.91 237.018 194.929 231.893 194.312C229.865 194.066 228.24 192.537 227.853 190.497C227.561 188.972 226.733 187.768 225.38 186.921C225.376 187.086 225.376 187.281 225.38 187.442C225.388 188.47 225.399 190.018 224.464 191.264C223.345 192.755 220.52 192.23 216.334 191.26C216.027 191.191 215.736 191.153 215.467 191.153ZM253.045 202.776C243.677 202.776 226.388 199.927 224.913 199.613C224.629 199.552 224.253 199.513 223.824 199.471C222.176 199.306 219.423 199.027 215.659 196.861C212.857 195.247 212.178 192.997 212.73 191.594C213.259 190.252 214.781 189.662 216.606 190.083C219.059 190.651 222.77 191.509 223.498 190.54C224.188 189.62 224.177 188.366 224.169 187.454C224.165 186.633 224.157 185.982 224.69 185.679C225.2 185.395 225.76 185.736 225.971 185.867C227.627 186.883 228.685 188.404 229.041 190.271C229.329 191.789 230.532 192.932 232.039 193.112C236.915 193.702 244.631 193.691 248.384 193.104C248.829 192.238 249.139 187.642 249.174 183.701C249.178 183.536 249.243 183.379 249.365 183.268C249.484 183.153 249.645 183.095 249.806 183.103L261.444 183.628C261.77 183.643 262.027 183.912 262.023 184.238C261.985 186.909 261.636 200.307 258.381 202.074C257.454 202.576 255.529 202.776 253.045 202.776Z" fill="black"/>
<path d="M228.194 146.368C229.386 147.353 231.682 148.515 233.38 147.549C234.645 146.828 235.286 145.099 235.144 143.164C235.749 143.183 236.535 143.098 237.072 142.573C237.9 141.764 237.666 140.365 237.586 139.441C237.214 135.183 239.663 134.401 238.908 131.537C238.318 129.283 236.459 128.018 236.11 127.78C234.358 126.584 233.231 127.056 230.356 126.454C225.511 125.446 225.254 123.395 222.103 123.541C221.919 123.552 217.637 123.817 216.33 126.845C215.272 129.314 216.797 132.166 218.308 133.634C220.259 135.531 221.535 134.477 223.475 136.057C226.883 138.82 224.652 143.44 228.194 146.368Z" fill="black"/>
<path d="M218.385 138.291C219.328 137.387 220.328 135.6 220.639 134.332C221.766 129.697 225.978 128.842 226.415 133.35C226.53 134.554 230.931 134.27 230.471 135.558C229.275 138.92 229.198 138.035 231.184 139.154C231.403 139.15 231.621 139.188 231.828 139.273C232.836 139.683 233.254 141.002 232.76 142.221C232.457 142.957 231.889 143.486 231.265 143.7L231.525 148.902C231.625 150.857 232.898 152.551 234.741 153.199L236.539 153.832C236.539 153.832 228.604 159.593 219.979 154.138L221.064 153.586C222.977 152.609 224.169 150.627 224.127 148.484L224.085 147.465C223.525 147.541 222.981 147.534 222.475 147.411C220.11 146.851 219.201 144.21 219.431 140.86L218.4 139.924C217.921 139.487 217.913 138.736 218.385 138.291Z" fill="white"/>
<path d="M221.236 154.177C227.354 157.492 232.905 155.212 235.144 153.981L234.542 153.77C232.457 153.038 231.034 151.141 230.923 148.933L230.663 143.727C230.647 143.459 230.816 143.213 231.069 143.125C231.556 142.96 231.977 142.535 232.2 141.994C232.568 141.086 232.299 140.116 231.602 139.832C231.475 139.782 231.333 139.756 231.188 139.756C231.08 139.759 230.977 139.733 230.885 139.679C230.551 139.491 230.279 139.361 230.057 139.257C228.688 138.613 228.88 138.096 229.459 136.559C229.574 136.252 229.716 135.88 229.877 135.428C229.628 135.259 228.861 135.087 228.389 134.979C227.17 134.703 225.909 134.42 225.813 133.408C225.672 131.951 225.085 131.042 224.246 130.985C223.211 130.908 221.8 132.112 221.225 134.473C220.884 135.892 219.814 137.758 218.798 138.724C218.695 138.824 218.637 138.958 218.641 139.104C218.641 139.246 218.703 139.38 218.81 139.48L219.837 140.411C219.971 140.534 220.044 140.714 220.033 140.898C219.925 142.473 219.964 146.196 222.613 146.824C223.03 146.924 223.498 146.935 224 146.866C224.169 146.843 224.341 146.893 224.472 147.001C224.602 147.112 224.679 147.269 224.686 147.441L224.729 148.457C224.775 150.83 223.444 153.05 221.34 154.123L221.236 154.177ZM227.795 157.071C225.315 157.071 222.517 156.457 219.657 154.648C219.473 154.533 219.366 154.326 219.377 154.111C219.385 153.893 219.511 153.701 219.707 153.602L220.792 153.046C222.486 152.183 223.559 150.397 223.521 148.496L223.506 148.116C223.096 148.128 222.705 148.089 222.337 148.001C219.899 147.422 218.622 144.919 218.81 141.109L217.997 140.369C217.645 140.051 217.438 139.595 217.434 139.119C217.426 138.644 217.618 138.18 217.967 137.854C218.81 137.045 219.764 135.37 220.052 134.19C220.715 131.46 222.475 129.655 224.33 129.777C225.802 129.885 226.802 131.184 227.013 133.262C227.193 133.469 228.14 133.684 228.654 133.802C229.716 134.04 230.632 134.247 230.981 134.88C231.126 135.148 231.149 135.451 231.038 135.761C230.866 136.252 230.716 136.654 230.59 136.984C230.433 137.406 230.279 137.808 230.237 138C230.321 138.046 230.452 138.107 230.571 138.165C230.781 138.264 231.038 138.383 231.349 138.552C231.594 138.571 231.832 138.621 232.054 138.713C233.373 139.246 233.936 140.921 233.319 142.447C233.024 143.167 232.518 143.742 231.889 144.08L232.131 148.871C232.219 150.585 233.319 152.061 234.941 152.632L236.738 153.26C236.949 153.333 237.103 153.521 237.133 153.743C237.168 153.962 237.076 154.188 236.892 154.318C236.834 154.361 233.012 157.071 227.795 157.071Z" fill="black"/>
<path d="M224.081 148.07C223.801 148.07 223.548 147.871 223.49 147.587C223.425 147.261 223.636 146.939 223.962 146.874C226.829 146.284 228.029 144.034 228.075 143.938C228.232 143.643 228.596 143.528 228.892 143.677C229.187 143.831 229.306 144.191 229.152 144.49C229.095 144.605 227.657 147.35 224.207 148.059C224.165 148.066 224.123 148.07 224.081 148.07Z" fill="black"/>
<path d="M109.721 316.948L113.32 330.579C114.041 333.308 114.229 336.145 113.88 338.939L113.159 344.701L131.337 341.738L128.987 340.009C124.909 337.007 122.03 332.657 120.857 327.735L117.729 314.579L109.721 316.948Z" fill="white"/>
<path d="M110.457 317.362L113.907 330.426C114.647 333.239 114.842 336.13 114.482 339.016L113.861 343.973L129.823 341.374L128.631 340.496C124.441 337.414 121.474 332.929 120.27 327.873L117.292 315.338L110.457 317.362ZM113.159 345.307C113.006 345.307 112.853 345.245 112.742 345.134C112.604 345.004 112.535 344.816 112.561 344.624L113.282 338.867C113.623 336.133 113.439 333.396 112.738 330.736L109.138 317.101C109.054 316.787 109.238 316.461 109.548 316.369L117.56 314C117.717 313.954 117.89 313.973 118.035 314.057C118.177 314.142 118.281 314.28 118.319 314.441L121.447 327.593C122.582 332.373 125.388 336.609 129.348 339.522L131.697 341.251C131.893 341.397 131.981 341.642 131.924 341.88C131.866 342.113 131.674 342.294 131.433 342.336L113.255 345.299C113.225 345.303 113.194 345.307 113.159 345.307Z" fill="black"/>
<path d="M111.389 347.518C111.254 345.111 111.22 340.316 112.792 337.31C113.071 336.777 113.715 336.547 114.275 336.77L118.434 338.433C119.082 338.69 119.784 338.215 119.784 337.521V337.237C119.784 336.835 120.098 336.501 120.5 336.482L124.085 336.294C125.422 336.225 126.756 336.478 127.975 337.023C131.682 338.683 139.552 342.604 141.43 346.698C141.86 347.63 141.166 348.695 140.139 348.741C136.892 348.887 128.673 349.144 112.96 349.01C112.125 349.006 111.438 348.35 111.389 347.518Z" fill="#5479F7"/>
<path d="M111.994 347.484C112.021 347.998 112.45 348.404 112.964 348.408C128.447 348.538 136.62 348.297 140.112 348.14C140.407 348.124 140.675 347.967 140.829 347.714C140.978 347.476 140.993 347.197 140.882 346.951C139.065 342.991 131.077 339.078 127.73 337.575C126.595 337.069 125.346 336.835 124.115 336.896L120.535 337.084C120.454 337.092 120.389 337.157 120.389 337.238V337.521C120.389 338.05 120.129 338.541 119.692 338.836C119.255 339.131 118.703 339.189 118.212 338.993L114.053 337.33C113.777 337.222 113.459 337.337 113.328 337.59C111.837 340.438 111.852 345.012 111.994 347.484ZM121.397 349.654C118.864 349.654 116.054 349.642 112.956 349.615C111.806 349.604 110.852 348.699 110.787 347.549C110.637 344.954 110.633 340.136 112.255 337.031C112.68 336.222 113.646 335.865 114.501 336.21L118.66 337.874C118.829 337.939 118.963 337.87 119.013 337.836C119.063 337.801 119.178 337.701 119.178 337.521V337.238C119.178 336.513 119.745 335.915 120.47 335.877L124.054 335.693C125.472 335.62 126.917 335.888 128.225 336.475C132.537 338.407 140.062 342.271 141.982 346.449C142.258 347.055 142.216 347.764 141.864 348.343C141.496 348.941 140.863 349.316 140.165 349.343C137.363 349.47 131.552 349.654 121.397 349.654Z" fill="black"/>
<path d="M125.997 346.89C122.731 346.89 118.729 346.813 113.957 346.595C113.623 346.579 113.367 346.296 113.382 345.962C113.397 345.629 113.666 345.372 114.011 345.391C129.697 346.104 136.999 345.284 137.072 345.276C137.398 345.238 137.701 345.475 137.739 345.805C137.781 346.139 137.543 346.438 137.21 346.476C137.16 346.484 133.549 346.89 125.997 346.89Z" fill="black"/>
<path d="M130.087 343.03C129.976 343.03 129.857 342.995 129.758 342.93L123.571 338.878C123.291 338.694 123.214 338.318 123.398 338.042C123.582 337.763 123.958 337.686 124.234 337.87L130.421 341.922C130.701 342.102 130.777 342.478 130.593 342.757C130.478 342.934 130.287 343.03 130.087 343.03Z" fill="black"/>
<path d="M72.8826 319.251L70.6861 334.669H65.1201L65.6606 319.504L72.8826 319.251Z" fill="white"/>
<path d="M65.7488 334.064H70.161L72.1812 319.88L66.2472 320.087L65.7488 334.064ZM70.6862 335.271H65.1202C64.9592 335.271 64.802 335.206 64.687 335.087C64.572 334.972 64.5107 334.811 64.5183 334.646L65.0588 319.485C65.0703 319.167 65.3233 318.91 65.6415 318.903L72.8597 318.646C73.036 318.631 73.2123 318.715 73.3312 318.845C73.45 318.979 73.5075 319.16 73.4807 319.336L71.2842 334.754C71.242 335.053 70.9852 335.271 70.6862 335.271Z" fill="black"/>
<path d="M70.4715 349.014C68.1945 349.259 65.0013 349.842 60.1291 349.063C58.7031 348.833 57.8023 347.4 58.1933 346.012C59.2245 342.351 61.3826 335.593 64.112 332.051C64.3113 331.794 64.7176 331.867 64.8211 332.174L64.917 332.81C64.9783 333.19 65.4958 333.266 65.6606 332.917L66.2625 331.645C66.4043 331.407 66.6496 331.254 66.9218 331.227L69.034 331.15C69.4825 331.108 69.885 331.415 69.9655 331.856L70.0383 332.86C70.0651 333.251 70.5865 333.362 70.7705 333.021L71.6828 332.086C71.8668 331.836 72.2655 331.971 72.2578 332.281L72.1466 336.287C72.07 339.181 72.2808 342.079 72.7753 344.931L73.0245 346.365C73.1548 347.687 71.794 348.876 70.4715 349.014Z" fill="#5479F7"/>
<path d="M64.3075 332.806C61.7775 336.348 59.7688 342.654 58.776 346.177C58.6342 346.679 58.7147 347.219 58.9983 347.66C59.2782 348.097 59.7152 348.385 60.225 348.465C64.3957 349.132 67.3397 348.78 69.4863 348.523C69.8083 348.484 70.115 348.446 70.4063 348.415C71.3915 348.308 72.5032 347.411 72.4265 346.441L72.1812 345.034C71.679 342.148 71.4643 339.2 71.5448 336.271L71.633 333.002L71.2497 333.393C71.0235 333.726 70.6172 333.891 70.2185 333.807C69.7815 333.711 69.4672 333.35 69.4327 332.906L69.3637 331.94C69.333 331.821 69.2257 331.74 69.0915 331.748L66.9448 331.832C66.8988 331.836 66.8337 331.878 66.7915 331.936L66.205 333.174C66.0172 333.573 65.5993 333.799 65.1623 333.734C64.7253 333.669 64.388 333.335 64.3228 332.898L64.3075 332.806ZM64.9247 350.056C63.5063 350.056 61.8887 349.953 60.0333 349.657C59.19 349.523 58.4425 349.033 57.9787 348.308C57.511 347.58 57.3768 346.683 57.6145 345.847C58.6648 342.11 60.8498 335.298 63.6367 331.683C63.8628 331.388 64.2308 331.242 64.5988 331.303C64.9668 331.365 65.2735 331.622 65.3923 331.978L65.4115 332.028L65.745 331.334C65.9827 330.935 66.4043 330.671 66.8643 330.629L69.011 330.544C69.7355 330.475 70.4293 331.004 70.5597 331.752L70.5673 331.813L70.6057 332.327L71.2267 331.687C71.472 331.392 71.8707 331.277 72.2387 331.399C72.622 331.533 72.8712 331.894 72.8597 332.296L72.7523 336.306C72.6756 339.154 72.8827 342.021 73.3695 344.827L73.6263 346.307C73.7912 347.994 72.1313 349.447 70.5367 349.615C70.2492 349.646 69.9463 349.684 69.632 349.723C68.3593 349.872 66.8222 350.056 64.9247 350.056Z" fill="black"/>
<path d="M65.7259 347.189C64.3229 347.189 62.6477 347.024 60.7732 346.533C60.4512 346.449 60.2595 346.119 60.3439 345.794C60.4282 345.472 60.7579 345.28 61.0799 345.364C66.2625 346.725 69.8429 345.399 69.8774 345.383C70.1879 345.265 70.5405 345.422 70.6594 345.736C70.7782 346.047 70.621 346.395 70.3105 346.514C70.2032 346.556 68.4897 347.189 65.7259 347.189Z" fill="black"/>
<path d="M68.2481 341.554H63.1459C62.8124 341.554 62.5403 341.282 62.5403 340.952C62.5403 340.618 62.8124 340.346 63.1459 340.346H68.2481C68.5816 340.346 68.8538 340.618 68.8538 340.952C68.8538 341.282 68.5816 341.554 68.2481 341.554Z" fill="black"/>
<path d="M108.812 217.814C108.812 217.814 116.107 264.887 116.395 276.13C116.686 287.37 121.367 321.387 121.367 321.387C121.367 321.387 115.352 323.618 108.487 322.058C108.487 322.058 86.146 261.821 84.536 243.352C82.9298 224.883 89.113 216.43 89.113 216.43L108.812 217.814Z" fill="#5479F7"/>
<path d="M101.675 214.881C101.675 214.881 76.946 290.318 76.5435 320.984C76.5435 320.984 71.0925 322.261 63.261 320.984C63.261 320.984 58.2393 236.793 72.714 213.206L101.675 214.881Z" fill="#5479F7"/>
<path d="M113.589 323.219C111.967 323.219 110.196 323.066 108.353 322.648C108.153 322.602 107.992 322.46 107.919 322.268C107.789 321.912 95.0087 287.377 88.1585 262.825C81.0055 289.685 77.3025 309.246 77.1492 320.992C77.1454 321.268 76.9537 321.505 76.6815 321.571C76.4554 321.624 71.0274 322.859 63.1652 321.578C62.8854 321.532 62.6745 321.298 62.6592 321.019C62.617 320.332 58.6764 252.045 68.4245 221.563C68.5242 221.245 68.8654 221.068 69.1835 221.168C69.5017 221.271 69.678 221.609 69.5745 221.927C60.3285 250.849 63.4987 314.264 63.836 320.459C69.9502 321.39 74.531 320.739 75.9455 320.486C76.2062 308.246 80.1315 287.96 87.618 260.161C87.7062 259.846 88.0244 259.658 88.3425 259.731C88.6607 259.808 88.86 260.122 88.7949 260.44L88.7795 260.521C95.1237 283.893 107.609 317.933 108.939 321.54C114.352 322.678 119.22 321.425 120.7 320.969C120.121 316.714 116.061 286.545 115.793 276.146C115.601 268.77 112.305 245.433 110.357 232.181C110.311 231.851 110.538 231.541 110.867 231.495C111.205 231.449 111.507 231.675 111.557 232.005C113.938 248.227 116.817 269.05 117.001 276.115C117.284 287.193 121.919 320.965 121.965 321.306C122.003 321.586 121.842 321.854 121.578 321.954C121.394 322.023 118.093 323.219 113.589 323.219Z" fill="black"/>
<path d="M88.1586 261.146C88.1087 261.146 88.0589 261.138 88.0091 261.127C87.6871 261.046 87.4916 260.72 87.5721 260.395L91.0451 246.621C91.1256 246.296 91.4552 246.1 91.7772 246.184C92.1031 246.265 92.2986 246.595 92.2181 246.917L88.7451 260.69C88.6761 260.966 88.4269 261.146 88.1586 261.146Z" fill="black"/>
<path d="M94.6407 150.29C93.0843 159.225 84.0032 168.82 74.8683 167.551C73.3772 167.344 69.3522 166.497 65.1278 161.606C59.2973 165.772 51.8722 164.668 47.8664 159.835C42.975 153.927 43.642 142.995 50.772 137.383C45.1217 137.337 43.6037 135.167 43.1552 134.312C40.5102 129.275 47.4945 117.484 54.0112 117.469C56.4185 117.461 59.6078 120.432 65.8945 126.37C72.3843 132.507 72.6603 133.695 74.623 133.91C80.3998 134.531 82.1248 124.698 89.7877 123.613C95.0317 122.866 100.889 126.531 101.334 129.984C101.713 132.955 97.8798 134.002 95.7217 139.928C94.1155 144.34 95.3575 146.184 94.6407 150.29Z" fill="black"/>
<path d="M87.043 120.286C87.4915 121.655 87.0469 125.526 84.9884 126.197C82.9299 126.868 80.0395 124.081 79.5949 122.717C79.1464 121.348 80.4535 119.696 82.512 119.025C84.5667 118.354 86.5984 118.918 87.043 120.286Z" fill="black"/>
<path d="M111.875 218.396C111.875 218.396 114.164 233.676 111.365 236.605C111.365 236.605 102.208 226.584 101.771 219.343L111.875 218.396Z" fill="white"/>
<path d="M102.43 219.892C103.158 225.803 109.468 233.496 111.308 235.627C112.834 232.634 111.948 223.276 111.358 219.048L102.43 219.892ZM111.365 237.211C111.362 237.211 111.358 237.211 111.358 237.211C111.189 237.207 111.032 237.138 110.917 237.015C110.537 236.597 101.61 226.749 101.169 219.382C101.15 219.056 101.391 218.776 101.713 218.745L111.818 217.791C112.132 217.76 112.423 217.986 112.473 218.305C112.711 219.899 114.723 233.968 111.802 237.023C111.687 237.142 111.53 237.211 111.365 237.211Z" fill="black"/>
<path d="M99.1716 218.55C99.1716 218.55 96.3196 230.882 92.9348 233.952C89.55 237.027 80.3078 223.28 75.1635 222.985C70.0191 222.69 64.3573 235.091 64.3573 235.091C64.3573 235.091 65.791 219.604 70.0268 216.327L99.1716 218.55Z" fill="white"/>
<path d="M74.991 222.376C75.06 222.376 75.129 222.379 75.198 222.383C77.774 222.529 81.0783 225.573 84.2753 228.517C87.4761 231.461 91.1025 234.799 92.5285 233.508C95.2885 231.001 97.7648 221.705 98.4165 219.098L70.2223 216.944C67.5313 219.309 66.0363 227.209 65.377 231.786C67.4393 228.091 71.2343 222.376 74.991 222.376ZM64.3573 235.696C64.3075 235.696 64.2538 235.689 64.204 235.677C63.9165 235.601 63.7286 235.328 63.7555 235.037C63.8168 234.393 65.2658 219.251 69.6588 215.847C69.7776 215.755 69.9233 215.709 70.0728 215.721L99.2176 217.948C99.394 217.96 99.555 218.052 99.6585 218.193C99.762 218.331 99.8003 218.515 99.762 218.684C99.6431 219.198 96.8256 231.234 93.3411 234.401C91.1025 236.436 87.388 233.021 83.455 229.402C80.557 226.734 77.2718 223.713 75.129 223.587C71.242 223.357 66.435 231.997 64.9093 235.344C64.8096 235.562 64.5911 235.696 64.3573 235.696Z" fill="black"/>
<path d="M144.953 144.892L149.661 139.989C150.462 139.158 151.807 140.093 151.305 141.132L149.856 144.122C149.856 144.122 150.845 144.578 151.332 144.609C152.409 144.678 153.444 144.218 154.192 143.443C155.05 142.546 156.438 141.116 156.909 140.764C157.611 140.242 158.512 139.434 159.508 139.353H159.543C160.586 139.276 161.264 140.423 160.697 141.3L158.73 144.34C157.304 146.548 155.204 148.239 152.746 149.17L148.706 150.704C147.303 151.236 146.356 152.567 146.318 154.069L145.912 169.713L137.647 163.4L141.358 151.413C142.101 149.017 143.324 146.797 144.953 144.892Z" fill="white"/>
<path d="M138.348 163.177L145.336 168.513L145.716 154.05C145.758 152.298 146.851 150.761 148.495 150.136L152.532 148.607C154.889 147.714 156.856 146.127 158.22 144.015L160.191 140.975C160.329 140.756 160.336 140.499 160.202 140.277C160.072 140.055 159.842 139.936 159.585 139.955C158.88 140.009 158.19 140.542 157.584 141.009C157.477 141.094 157.373 141.174 157.273 141.247C156.948 141.488 155.985 142.439 154.628 143.861C153.728 144.8 152.512 145.295 151.293 145.214C150.722 145.176 149.783 144.754 149.599 144.67C149.453 144.601 149.338 144.475 149.285 144.321C149.231 144.172 149.239 144.003 149.312 143.857L150.761 140.867C150.899 140.584 150.711 140.415 150.623 140.358C150.538 140.296 150.316 140.181 150.097 140.407L145.402 145.299C143.822 147.15 142.653 149.266 141.936 151.593L138.348 163.177ZM145.911 170.315C145.781 170.315 145.651 170.273 145.543 170.192L137.279 163.879C137.079 163.729 136.995 163.465 137.068 163.223L140.779 151.233C141.553 148.749 142.799 146.479 144.493 144.501C144.501 144.494 144.508 144.482 144.516 144.475L149.223 139.572C149.787 138.985 150.649 138.901 151.316 139.365C151.983 139.829 152.202 140.664 151.849 141.396L150.676 143.811C150.952 143.915 151.228 143.999 151.374 144.007C152.244 144.064 153.103 143.704 153.754 143.026C155.219 141.496 156.158 140.572 156.549 140.281C156.645 140.212 156.741 140.131 156.844 140.055C157.549 139.51 158.423 138.836 159.462 138.751C160.21 138.698 160.877 139.047 161.245 139.66C161.609 140.273 161.594 141.028 161.206 141.63L159.236 144.67C157.73 147.001 155.56 148.753 152.961 149.738L148.921 151.267C147.74 151.716 146.958 152.82 146.923 154.081L146.513 169.725C146.509 169.955 146.375 170.158 146.172 170.254C146.088 170.296 146 170.315 145.911 170.315Z" fill="black"/>
<path d="M135.968 159.574L156.58 175.896L147.391 185.414L129.907 170.859L135.968 159.574Z" fill="white"/>
<path d="M130.67 170.71L147.349 184.59L155.686 175.954L136.156 160.494L130.67 170.71ZM147.391 186.016C147.253 186.016 147.119 185.97 147.008 185.875L129.52 171.323C129.298 171.139 129.236 170.829 129.374 170.576L135.435 159.287C135.519 159.129 135.669 159.018 135.845 158.984C136.018 158.945 136.202 158.988 136.343 159.099L156.955 175.421C157.089 175.528 157.174 175.686 157.185 175.854C157.197 176.027 157.135 176.192 157.017 176.314L147.828 185.832C147.709 185.955 147.552 186.016 147.391 186.016Z" fill="black"/>
<path d="M154.429 183.195L130.754 164.945C130.754 164.945 128.163 168.881 123.92 169.307C120.309 169.671 114.156 162.208 109.295 158.98C103.039 154.863 95.6258 153.372 88.4114 153.981C88.4114 153.981 88.3769 153.985 88.3118 153.993C87.0161 154.104 85.6514 154.296 84.2139 154.587C74.2511 156.254 49.6488 161.763 44.9874 176.057C41.8403 185.698 45.5164 198.628 46.1298 200.648C46.1758 200.79 46.3368 200.859 46.4709 200.794L68.3401 190.245L66.6496 185.173C65.6376 182.731 66.6458 179.921 68.9764 178.676L72.3651 176.862C73.1471 181.129 73.7911 185.618 73.0628 189.424C70.3756 203.496 67.2898 208.104 65.7526 219.642C65.7526 219.642 71.0809 218.393 74.9488 218.642L111.408 220.037C113.842 220.129 115.95 218.343 116.226 215.924C116.606 212.539 116.613 206.552 115.214 196.041C115.034 194.676 114.919 192.51 114.785 189.861C122.237 194.339 135.837 197.819 154.429 183.195Z" fill="#99B9FF"/>
<path d="M46.2103 200.249C46.2065 200.249 46.2065 200.249 46.2065 200.249H46.2103ZM73.8525 218.005C74.2396 218.005 74.6191 218.017 74.9871 218.04L111.431 219.431C113.55 219.512 115.387 217.944 115.624 215.855C115.962 212.853 116.061 206.988 114.616 196.121C114.436 194.768 114.321 192.686 114.183 189.892L114.125 188.757L115.095 189.344C122.9 194.039 135.86 196.734 153.44 183.195L130.877 165.799C129.972 166.942 127.546 169.552 123.981 169.909C121.386 170.169 118.001 167.149 114.409 163.948C112.565 162.307 110.656 160.609 108.962 159.478C103.112 155.637 96.0245 153.943 88.4613 154.583L88.377 154.591C87.043 154.709 85.6898 154.905 84.3366 155.177C74.1745 156.879 50.1011 162.326 45.5625 176.245C42.63 185.223 45.8155 197.378 46.5898 200.065L67.5965 189.93L66.0823 185.384C64.963 182.647 66.0823 179.538 68.689 178.143L72.8136 175.938L72.9593 176.755C73.7566 181.11 74.393 185.671 73.657 189.535C72.3843 196.201 71.0005 200.828 69.7815 204.907C68.4398 209.384 67.2745 213.283 66.4695 218.872C67.9453 218.569 71.0695 218.005 73.8525 218.005ZM111.588 220.643C111.519 220.643 111.454 220.643 111.385 220.639L74.9258 219.247C71.1806 219.006 65.9405 220.221 65.8906 220.233L65.0358 220.432L65.1546 219.566C65.9711 213.417 67.2016 209.311 68.62 204.562C69.8351 200.51 71.2075 195.914 72.4686 189.309C73.1241 185.874 72.622 181.773 71.9205 177.786L69.2601 179.208C67.194 180.312 66.3123 182.777 67.2093 184.939L67.2246 184.981L69.08 190.555L46.7355 201.338C46.5093 201.445 46.2525 201.449 46.0225 201.35C45.7963 201.25 45.6238 201.058 45.551 200.821C44.8073 198.36 41.2423 185.587 44.4125 175.869C49.1581 161.322 73.7566 155.725 84.1143 153.993C85.4943 153.713 86.8935 153.51 88.2581 153.387L89.2855 153.276L89.2701 153.314C96.7643 152.858 103.787 154.633 109.629 158.474C111.396 159.651 113.336 161.376 115.21 163.047C118.449 165.93 121.784 168.912 123.858 168.705C127.757 168.318 130.225 164.649 130.252 164.615L130.609 164.07L131.126 164.469L155.414 183.187L154.805 183.67C146.433 190.256 138.245 193.829 130.467 194.292C125.119 194.614 120.075 193.484 115.444 190.938C115.559 193.15 115.663 194.833 115.812 195.96C116.989 204.784 117.326 211.523 116.824 215.993C116.525 218.638 114.248 220.643 111.588 220.643Z" fill="black"/>
<path d="M66.7608 196.677L73.3273 206.885L76.2675 204.896C78.0692 203.677 80.2733 203.209 82.4123 203.592C82.4123 203.592 85.5748 204.01 86.9242 205.099C90.1825 207.725 87.296 209.358 86.6712 209.687C85.6668 210.22 84.2753 210.715 82.788 210.5C81.9217 210.377 79.637 210.672 77.5708 211.792C76.0107 212.639 74.186 214.372 71.7058 213.697C69.586 213.126 68.6545 211.876 68.6545 211.876L60.1752 201.308L66.7608 196.677Z" fill="white"/>
<path d="M61.0453 201.434L69.126 211.5C69.1451 211.523 69.9961 212.612 71.863 213.114C73.5841 213.578 74.945 212.715 76.2636 211.88C76.6163 211.654 76.9498 211.443 77.2833 211.263C79.453 210.082 81.8603 209.756 82.8761 209.902C84.2408 210.097 85.5403 209.603 86.3875 209.154C87.2576 208.694 87.7866 208.115 87.8365 207.567C87.9093 206.835 87.1733 206.076 86.5446 205.57C85.548 204.765 83.1675 204.301 82.3318 204.19C80.3116 203.826 78.2876 204.255 76.6086 205.394L73.6646 207.387C73.5305 207.479 73.3656 207.51 73.2046 207.479C73.0475 207.445 72.9056 207.349 72.8175 207.215L66.5921 197.532L61.0453 201.434ZM72.829 214.456C72.4188 214.456 71.9933 214.402 71.5486 214.283C69.2563 213.658 68.2136 212.298 68.1715 212.236L59.6998 201.687C59.5963 201.557 59.5503 201.388 59.5733 201.223C59.6001 201.058 59.6883 200.913 59.8263 200.813L66.412 196.182C66.5461 196.086 66.7148 196.048 66.8758 196.083C67.0368 196.113 67.1786 196.209 67.2706 196.347L73.4998 206.038L75.9301 204.393C77.8698 203.078 80.212 202.58 82.5196 202.998C82.627 203.009 85.8393 203.446 87.3036 204.631C88.5571 205.635 89.1398 206.666 89.0401 207.682C88.9481 208.66 88.2045 209.561 86.9548 210.224C85.5096 210.987 84.0376 211.289 82.7036 211.098C81.9868 210.994 79.8363 211.251 77.8621 212.324C77.5631 212.485 77.245 212.685 76.9115 212.899C75.796 213.605 74.462 214.456 72.829 214.456Z" fill="black"/>
<path d="M66.6611 191.126L69.3636 196.117L53.3786 208.855C53.3786 208.855 50.4691 203.263 49.5721 199.333L66.6611 191.126Z" fill="white"/>
<path d="M50.2736 199.667C51.0441 202.638 52.8381 206.417 53.5818 207.92L68.5931 195.96L66.4043 191.924L50.2736 199.667ZM53.3786 209.457C53.3364 209.457 53.2943 209.453 53.2521 209.446C53.0758 209.407 52.9263 209.292 52.8419 209.135C52.7193 208.901 49.8864 203.427 48.9818 199.468C48.9204 199.192 49.0546 198.912 49.3114 198.789L66.3966 190.586C66.6879 190.444 67.0368 190.559 67.1901 190.839L69.8964 195.83C70.0344 196.087 69.9693 196.405 69.7393 196.589L53.7543 209.327C53.6469 209.411 53.5128 209.457 53.3786 209.457Z" fill="black"/>
<path d="M114.812 190.846C114.497 190.846 114.233 190.601 114.21 190.283C114.141 189.252 114.06 188.125 113.98 186.959C113.75 183.693 113.493 179.994 113.34 177.227C113.324 176.893 113.577 176.609 113.911 176.594C114.237 176.583 114.532 176.828 114.547 177.161C114.697 179.921 114.957 183.613 115.183 186.875C115.268 188.044 115.344 189.171 115.417 190.202C115.44 190.536 115.187 190.823 114.854 190.846C114.842 190.846 114.827 190.846 114.812 190.846Z" fill="black"/>
<path d="M98.9839 144.233L97.5655 155.986L104.113 158.895C104.113 158.895 94.426 165.473 81.6687 158.182L88.5534 155.242L92.1069 141.599L98.9839 144.233Z" fill="white"/>
<path d="M83.0525 158.248C92.5209 163.139 100.122 160.287 102.767 158.957L97.3202 156.538C97.0787 156.431 96.9369 156.178 96.9675 155.913L98.3245 144.628L92.5209 142.408L89.1399 155.396C89.0939 155.576 88.9635 155.725 88.791 155.798L83.0525 158.248ZM93.8012 162.2C90.2362 162.2 85.9889 161.349 81.3659 158.708C81.1665 158.593 81.0515 158.378 81.063 158.148C81.0784 157.918 81.2202 157.715 81.431 157.627L88.0435 154.805L91.5204 141.45C91.5625 141.281 91.6737 141.143 91.827 141.063C91.9804 140.986 92.1605 140.975 92.3215 141.036L99.1985 143.67C99.4592 143.765 99.6164 144.03 99.5819 144.302L98.221 155.614L104.358 158.344C104.561 158.432 104.696 158.623 104.715 158.842C104.738 159.06 104.634 159.271 104.454 159.394C104.389 159.44 100.211 162.2 93.8012 162.2Z" fill="black"/>
<path d="M91.9459 144.892C91.9459 144.892 89.3201 145.885 88.6262 143.604C87.9324 141.32 90.1979 141.465 90.1979 141.465C90.1979 141.465 87.7867 136.467 91.5357 135.98C95.2886 135.489 98.0256 134.105 98.0256 134.105C98.0256 134.105 100.755 138.874 101.629 142.872C102.158 145.283 102.012 147.415 100.191 148.051C95.2004 149.788 91.9459 144.892 91.9459 144.892Z" fill="white"/>
<path d="M92.4518 144.559C92.5745 144.743 95.5147 149.04 99.992 147.48C101.242 147.043 101.594 145.536 101.038 143.003C100.352 139.871 98.4702 136.191 97.7687 134.887C96.7797 135.321 94.4988 136.202 91.6162 136.578C90.9415 136.666 90.5007 136.915 90.263 137.352C89.665 138.456 90.4048 140.507 90.7422 141.201C90.838 141.396 90.8188 141.626 90.7 141.803C90.5812 141.979 90.378 142.083 90.1595 142.067C89.987 142.06 89.4427 142.098 89.2203 142.382C89.021 142.635 89.1015 143.091 89.205 143.428C89.3392 143.873 89.5692 144.176 89.9027 144.34C90.5313 144.651 91.4398 144.436 91.735 144.329C91.9957 144.233 92.2947 144.325 92.4518 144.559ZM98.0715 149.025C94.7748 149.025 92.471 146.537 91.7158 145.586C91.1677 145.717 90.2132 145.835 89.3737 145.425C88.7297 145.107 88.285 144.555 88.0473 143.777C87.7752 142.884 87.8518 142.163 88.2773 141.63C88.5687 141.258 88.9712 141.063 89.3353 140.963C88.9597 139.928 88.4805 138.1 89.2012 136.777C89.6267 135.988 90.3895 135.516 91.459 135.378C95.0547 134.914 97.7265 133.58 97.7533 133.565C98.0408 133.423 98.3935 133.527 98.5507 133.806C98.6657 134.002 101.334 138.702 102.219 142.746C103.101 146.767 101.709 148.158 100.391 148.622C99.5703 148.906 98.7998 149.025 98.0715 149.025Z" fill="black"/>
<path d="M97.7111 63.5452C97.554 63.5452 97.3968 63.4838 97.2818 63.365L96.1126 62.1843C95.8788 61.9505 95.8788 61.5672 96.1165 61.3295C96.3541 61.0957 96.7375 61.0995 96.9713 61.3372L98.1405 62.514C98.3743 62.7517 98.3705 63.135 98.1366 63.3688C98.0178 63.4877 97.8645 63.5452 97.7111 63.5452Z" fill="black"/>
<path d="M103.304 69.1956C103.147 69.1956 102.99 69.1342 102.871 69.0154L101.706 67.8347C101.472 67.5971 101.472 67.2137 101.709 66.9799C101.947 66.7461 102.33 66.7499 102.564 66.9876L103.733 68.1682C103.967 68.4059 103.963 68.7854 103.726 69.0192C103.611 69.1381 103.457 69.1956 103.304 69.1956Z" fill="black"/>
<path d="M96.542 69.1956C96.3886 69.1956 96.2353 69.1381 96.1165 69.0192C95.8788 68.7854 95.8788 68.4059 96.1126 68.1682L97.2818 66.9876C97.5156 66.7499 97.8951 66.7461 98.1366 66.9799C98.3743 67.2137 98.3743 67.5971 98.1405 67.8347L96.9713 69.0154C96.8525 69.1342 96.6991 69.1956 96.542 69.1956Z" fill="black"/>
<path d="M102.135 63.5452C101.982 63.5452 101.828 63.4877 101.709 63.3688C101.472 63.135 101.468 62.7517 101.706 62.514L102.871 61.3372C103.105 61.0995 103.488 61.0957 103.726 61.3295C103.963 61.5672 103.967 61.9505 103.733 62.1843L102.564 63.365C102.445 63.4838 102.288 63.5452 102.135 63.5452Z" fill="black"/>
<path d="M125.503 104.477C125.499 104.477 125.499 104.477 125.499 104.477C125.166 104.474 124.897 104.205 124.897 103.868L124.909 102.212C124.909 101.878 125.181 101.61 125.511 101.61C125.514 101.61 125.514 101.61 125.514 101.61C125.848 101.61 126.12 101.882 126.116 102.216L126.109 103.876C126.105 104.209 125.833 104.477 125.503 104.477Z" fill="black"/>
<path d="M125.457 112.428C125.453 112.428 125.453 112.428 125.453 112.428C125.12 112.424 124.851 112.152 124.851 111.818L124.863 110.158C124.863 109.829 125.135 109.557 125.465 109.557C125.468 109.557 125.468 109.557 125.468 109.557C125.802 109.56 126.07 109.833 126.07 110.166L126.059 111.826C126.059 112.156 125.787 112.428 125.457 112.428Z" fill="black"/>
<path d="M120.677 107.648C120.343 107.648 120.075 107.383 120.071 107.05C120.071 106.712 120.339 106.444 120.673 106.44L122.333 106.432C122.337 106.432 122.337 106.432 122.337 106.432C122.67 106.432 122.938 106.701 122.942 107.034C122.942 107.368 122.674 107.636 122.34 107.64L120.681 107.648H120.677Z" fill="black"/>
<path d="M128.631 107.605C128.297 107.605 128.029 107.337 128.025 107.004C128.025 106.67 128.293 106.398 128.627 106.398L130.287 106.386H130.291C130.624 106.386 130.892 106.655 130.896 106.984C130.896 107.318 130.628 107.594 130.294 107.594L128.635 107.605C128.631 107.605 128.631 107.605 128.631 107.605Z" fill="black"/>
<path d="M75.3398 70.518C74.2588 70.518 73.3771 71.3959 73.3771 72.4807C73.3771 73.5617 74.2588 74.4434 75.3398 74.4434C76.4208 74.4434 77.3024 73.5617 77.3024 72.4807C77.3024 71.3959 76.4208 70.518 75.3398 70.518ZM75.3398 75.6509C73.5918 75.6509 72.1658 74.2287 72.1658 72.4807C72.1658 70.7327 73.5918 69.3105 75.3398 69.3105C77.0878 69.3105 78.5138 70.7327 78.5138 72.4807C78.5138 74.2287 77.0878 75.6509 75.3398 75.6509Z" fill="black"/>
</svg>
