<svg width="280" height="107" viewBox="0 0 280 107" fill="none" xmlns="http://www.w3.org/2000/svg">
<path d="M61.1287 63.8535V44.1485H69.0154C71.1854 44.1485 72.8187 44.6239 73.9154 45.5718C75.012 46.5227 75.5604 47.7302 75.5604 49.2002C75.5604 50.361 75.222 51.2972 74.5454 52.0118C73.8687 52.7293 73.0199 53.2018 72.002 53.4352V53.6218C72.7487 53.6627 73.4487 53.8756 74.102 54.2635C74.7612 54.6543 75.2979 55.1968 75.712 55.8968C76.1233 56.5968 76.3304 57.4339 76.3304 58.4052C76.3304 59.4552 76.0679 60.3943 75.5487 61.2168C75.0354 62.0335 74.2712 62.681 73.262 63.1535C72.2587 63.6202 71.0162 63.8535 69.5404 63.8535H61.1287ZM65.2937 60.4468H68.6887C69.8554 60.4468 70.7012 60.2252 71.232 59.7818C71.7599 59.3327 72.0254 58.7377 72.0254 57.9968C72.0254 57.1802 71.7337 56.5152 71.1504 56.0018C70.5729 55.4827 69.7854 55.2202 68.782 55.2202H65.2937V60.4468ZM65.2937 52.3968H68.3737C69.2283 52.3968 69.937 52.1752 70.497 51.7318C71.0629 51.2827 71.3487 50.6702 71.3487 49.9002C71.3487 49.1856 71.0949 48.611 70.5904 48.1735C70.0916 47.7389 69.3799 47.5202 68.4554 47.5202H65.2937V52.3968Z" fill="#006BFF"/>
<path d="M79.0286 63.8535V44.1485H92.3052V47.5902H83.1936V52.2802H91.6169V55.7102H83.1936V60.4235H92.3402V63.8535H79.0286Z" fill="#006BFF"/>
<path d="M95.6203 63.8535V44.1485H108.897V47.5902H99.7853V52.2802H108.209V55.7102H99.7853V60.4235H108.932V63.8535H95.6203Z" fill="#006BFF"/>
<path d="M112.212 63.8535V44.1485H119.982C121.475 44.1485 122.747 44.4343 123.797 45.0002C124.853 45.5689 125.658 46.3535 126.212 47.3568C126.763 48.3602 127.04 49.521 127.04 50.8335C127.04 52.1402 126.755 53.2922 126.189 54.2868C125.629 55.2843 124.815 56.0602 123.75 56.6202C122.683 57.1802 121.394 57.4602 119.877 57.4602H116.377V63.8535H112.212ZM116.377 54.1235H119.2C120.396 54.1235 121.289 53.8202 121.872 53.2135C122.461 52.601 122.759 51.8077 122.759 50.8335C122.759 49.8477 122.461 49.0543 121.872 48.4535C121.289 47.8556 120.393 47.5552 119.189 47.5552H116.377V54.1235Z" fill="#006BFF"/>
<path d="M136.037 63.8535V44.1485H143.807C146.047 44.1485 147.779 44.7318 149.01 45.8985C150.247 47.0652 150.865 48.6285 150.865 50.5885C150.865 51.936 150.565 53.0852 149.967 54.0418C149.366 54.9985 148.509 55.7189 147.389 56.2002L151.565 63.8535H146.969L143.235 56.8652H140.202V63.8535H136.037ZM140.202 53.5168H143.025C145.397 53.5168 146.584 52.5427 146.584 50.5885C146.584 48.5672 145.394 47.5552 143.014 47.5552H140.202V53.5168Z" fill="#006BFF"/>
<path d="M171.918 54.0069C171.918 56.1535 171.51 57.9823 170.693 59.4902C169.883 60.9923 168.783 62.1385 167.392 62.9319C165.998 63.7252 164.431 64.1219 162.69 64.1219C160.94 64.1219 159.368 63.7252 157.977 62.9319C156.583 62.1385 155.483 60.9894 154.675 59.4785C153.864 57.9619 153.462 56.1389 153.462 54.0069C153.462 51.8544 153.864 50.0256 154.675 48.5235C155.483 47.0156 156.583 45.8635 157.977 45.0702C159.368 44.2769 160.94 43.8802 162.69 43.8802C164.431 43.8802 165.998 44.2769 167.392 45.0702C168.783 45.8635 169.883 47.0156 170.693 48.5235C171.51 50.0256 171.918 51.8544 171.918 54.0069ZM167.695 54.0069C167.695 51.9156 167.234 50.3202 166.318 49.2235C165.408 48.121 164.198 47.5669 162.69 47.5669C161.173 47.5669 159.96 48.121 159.05 49.2235C158.14 50.3202 157.685 51.9156 157.685 54.0069C157.685 56.0923 158.14 57.6877 159.05 58.7902C159.96 59.8869 161.173 60.4352 162.69 60.4352C164.198 60.4352 165.408 59.8869 166.318 58.7902C167.234 57.6877 167.695 56.0923 167.695 54.0069Z" fill="#006BFF"/>
<path d="M178.387 63.8535H173.918L180.72 44.1485H186.087L192.877 63.8535H188.42L186.962 59.3618H179.845L178.387 63.8535ZM180.907 56.1068H185.912L183.485 48.6518H183.333L180.907 56.1068Z" fill="#006BFF"/>
<path d="M202.225 63.8535H195.248V44.1485H202.283C204.266 44.1485 205.972 44.5422 207.405 45.3268C208.842 46.1143 209.948 47.2402 210.718 48.7102C211.488 50.1802 211.873 51.9389 211.873 53.9835C211.873 56.0368 211.482 57.8043 210.706 59.2802C209.936 60.7502 208.831 61.8818 207.393 62.6752C205.952 63.4627 204.231 63.8535 202.225 63.8535ZM199.413 60.2835H202.061C203.91 60.2835 205.316 59.7877 206.273 58.7902C207.23 57.7868 207.708 56.1856 207.708 53.9835C207.708 51.7989 207.23 50.2093 206.273 49.2118C205.316 48.2172 203.91 47.7185 202.061 47.7185H199.413V60.2835Z" fill="#006BFF"/>
<path d="M225.633 49.8185C225.554 49.0427 225.219 48.4389 224.63 48.0102C224.046 47.5844 223.256 47.3685 222.261 47.3685C221.241 47.3685 220.459 47.5785 219.916 47.9985C219.371 48.4127 219.1 48.9377 219.1 49.5735C219.082 50.2735 219.383 50.8073 219.998 51.1719C220.619 51.5306 221.357 51.8106 222.215 52.0119L223.988 52.4319C225.131 52.6885 226.146 53.0619 227.033 53.5519C227.92 54.0419 228.614 54.6719 229.121 55.4419C229.635 56.206 229.891 57.1335 229.891 58.2302C229.883 60.0269 229.206 61.4619 227.861 62.5352C226.523 63.6027 224.653 64.1335 222.25 64.1335C219.852 64.1335 217.945 63.591 216.521 62.5002C215.098 61.4123 214.357 59.8023 214.305 57.6702H218.341C218.411 58.6589 218.799 59.4027 219.508 59.8985C220.214 60.3973 221.109 60.6452 222.191 60.6452C223.256 60.6452 224.105 60.4206 224.735 59.9685C225.365 59.5194 225.683 58.936 225.691 58.2185C225.683 57.5506 225.391 57.0373 224.816 56.6785C224.239 56.3227 223.416 56.0135 222.343 55.7569L220.196 55.2202C218.531 54.8177 217.216 54.1819 216.253 53.3185C215.296 52.4552 214.821 51.2973 214.83 49.8419C214.821 48.6519 215.139 47.6106 215.786 46.7152C216.431 45.8227 217.318 45.1256 218.446 44.6269C219.572 44.131 220.856 43.8802 222.296 43.8802C223.758 43.8802 225.032 44.1339 226.123 44.6385C227.22 45.1373 228.071 45.8344 228.678 46.7269C229.291 47.6135 229.606 48.646 229.623 49.8185H225.633Z" fill="#006BFF"/>
<path d="M236.848 44.1485V63.8535H232.683V44.1485H236.848Z" fill="#006BFF"/>
<path d="M247.258 63.8535H240.281V44.1485H247.316C249.3 44.1485 251.006 44.5422 252.438 45.3268C253.876 46.1143 254.981 47.2402 255.751 48.7102C256.521 50.1802 256.906 51.9389 256.906 53.9835C256.906 56.0368 256.515 57.8043 255.74 59.2802C254.97 60.7502 253.864 61.8818 252.426 62.6752C250.985 63.4627 249.265 63.8535 247.258 63.8535ZM244.446 60.2835H247.095C248.944 60.2835 250.35 59.7877 251.306 58.7902C252.263 57.7868 252.741 56.1856 252.741 53.9835C252.741 51.7989 252.263 50.2093 251.306 49.2118C250.35 48.2172 248.944 47.7185 247.095 47.7185H244.446V60.2835Z" fill="#006BFF"/>
<path d="M259.98 63.8535V44.1485H273.256V47.5902H264.145V52.2802H272.568V55.7102H264.145V60.4235H273.291V63.8535H259.98Z" fill="#006BFF"/>
<mask id="mask0_10013_137" style="mask-type:luminance" maskUnits="userSpaceOnUse" x="15" y="10" width="71" height="88">
<path d="M15.3417 10.4554H85.12V97.8154H15.3417V10.4554Z" fill="white"/>
</mask>
<g mask="url(#mask0_10013_137)">
<path fill-rule="evenodd" clip-rule="evenodd" d="M55.6033 97.55L55.7025 97.6754H56.0029C55.8512 97.6258 55.7287 97.5996 55.6033 97.55ZM59.9667 11.1408L56.0262 11.24L53.9817 11.9371L53.2846 11.4383L51.6396 12.2637L53.7075 12.6371L57.6217 12.4358L59.9667 11.1408ZM59.0683 14.7546C59.8412 14.0312 60.6404 13.3604 61.4862 12.7625L56.4258 13.06L54.2821 15.1542L59.0683 14.7546ZM46.8271 15.3292L49.8429 13.1854L50.9658 13.7075L54.1071 13.6579L51.2896 15.7025L48.7462 16.1517L46.8271 15.3292ZM42.6883 13.3604L39.8708 15.3029L43.7617 14.4308L45.9054 15.0783L48.9212 13.0104L45.6546 12.9112L42.6883 13.3604ZM37.205 14.4804L37.1554 15.0054L35.6329 15.055C35.3092 15.23 34.9854 15.4283 34.685 15.6267C33.9121 16.1254 33.1917 16.7 32.5179 17.3242L37.3537 16.1021L39.8971 14.1333L37.205 14.4804ZM49.3704 96.7508L50.2192 96.8004L50.3183 96.3046L51.6396 96.8267H53.3108C52.0887 96.1033 50.9921 95.1554 49.9946 94.085L47.1771 94.6829L49.3704 96.7508ZM41.3933 96.3279L42.14 96.3775L47.4512 96.6517L45.2083 95.0329L42.315 95.1321L39.6725 94.7062L41.3933 96.3279ZM34.4371 95.7533L35.21 95.8554L35.3354 95.6046L37.3537 96.08L39.1737 96.1792L37.3042 94.0587L31.8704 93.3354L34.4371 95.7533ZM27.4808 93.7846L28.4287 94.3592L30.1729 94.4583L30.1992 95.1321L31.8704 95.38L29.9746 93.385L27.4808 93.7846ZM48.4225 92.09C47.775 91.1421 47.1771 90.1446 46.6521 89.1237L42.1662 90.5937L44.0096 93.2362L48.4225 92.09ZM36.9046 92.8367L35.1837 90.1212L37.7037 91.0429L40.5212 91.0167L42.6154 93.8342L39.4479 93.735L36.9046 92.8367ZM28.5279 91.6175L27.1075 88.625L30.1729 88.2254L33.1158 89.3979L35.2362 92.5129L31.4212 91.3433L28.5279 91.6175ZM22.7208 89.4708L24.4154 91.4658L26.4337 91.3929L26.2587 92.265L27.4079 91.9908L25.5121 88.9487L22.7208 89.4708ZM45.43 86.4054C45.2579 85.9825 45.0829 85.5333 44.9342 85.1104C44.6337 84.2617 44.3596 83.4129 44.1087 82.5408L40.2208 84.0371L41.8921 87.6537L45.43 86.4054ZM33.6642 87.8025L32.4917 83.8883L35.5833 85.2592L38.8733 84.4862L40.6437 88.275L37.7037 89.0975L33.6642 87.8025ZM27.6062 81.7446L25.2612 82.1675L26.6583 85.9562L28.8517 85.9329L32.2437 87.3533L30.7971 83.2904L27.6062 81.7446ZM19.4542 83.6637L20.8746 86.7058L23.5929 86.2304L23.2196 87.0033L25.2379 86.6562L23.5667 82.5671L19.4542 83.6637ZM43.3358 79.4492C42.9625 77.7808 42.6883 76.0833 42.4637 74.3654L36.8812 76.7571L38.1004 81.4704L43.3358 79.4492ZM31.0217 80.7208L30.1496 76.0833L33.6904 78.0054L35.4579 77.355L36.7062 82.0421L34.9854 82.6925L31.0217 80.7208ZM23.0942 79.0262L22.0208 74.5375L25.76 73.3417L28.7525 75.5846L29.7762 80.5225L26.4337 78.4517L23.0942 79.0262ZM17.2608 76.2583L17.2346 76.2846L18.2583 80.2483L20.475 79.7233L20.5246 79.9742L21.35 79.6737L20.2767 75.1879L17.2608 76.2583ZM42.0671 70.5504C41.9417 68.78 41.8658 66.9862 41.8658 65.1662L37.4529 67.2342L37.9779 72.5454L42.0671 70.5504ZM29.8987 72.9683L29.7762 67.5346L32.3925 69.1796L35.7846 67.9808L36.2833 73.2921L33.04 74.7125L29.8987 72.9683ZM22.5458 70.8479L22.0704 65.2392L25.0396 64.0929L28.3296 66.5371L28.5279 72.2217L25.2612 69.8533L22.5458 70.8479ZM17.3104 67.2837L16.0387 68.1821L16.6367 72.4433L18.4071 71.7462L18.5325 72.595L21.2479 71.4721L20.7492 65.9129L17.3104 67.2837ZM41.9417 61.675C42.0146 59.5808 42.1896 57.4604 42.4142 55.3662L36.2833 57.9358L36.1317 63.9675L41.9417 61.675ZM28.9771 63.5183L29.5254 57.4371L32.1183 59.7296L34.6121 58.5833L34.4633 64.8396L32.4683 65.8371L28.9771 63.5183ZM20.6004 62.7717L21.0992 56.7896L25.3633 54.6196L28.2304 56.9617L27.7317 62.8708L24.8646 60.8525L20.6004 62.7717ZM17.9317 58.2596V58.3092L16.1642 59.1579L15.9892 63.7196C16.0621 63.7196 16.1146 63.6933 16.1875 63.6933C16.3887 63.67 16.5871 63.6204 16.7621 63.6204C17.0596 63.5942 17.3833 63.5708 17.535 63.8683C17.5583 63.8946 17.5583 63.9179 17.5846 63.9179L19.4046 63.1217L19.8275 57.3875L17.9317 58.2596ZM42.7875 52.2512C43.0879 50.1308 43.4612 48.0133 43.9104 45.9192L39.0979 47.9375L38.325 53.9954L42.7875 52.2512ZM30.0737 54.1471L31.0479 48.2117L33.4658 50.2329L37.3537 48.6375L36.5312 54.6429L32.7425 56.2646L30.0737 54.1471ZM23.6658 51.9771L24.3892 46.3917L26.8829 45.1462L29.9746 47.4883L28.9275 53.3742L25.9117 51.0058L23.6658 51.9771ZM17.0858 49.7342C17.0858 49.7575 17.0858 49.8071 17.0596 49.8333C17.0362 50.0579 16.9867 50.2825 16.9604 50.4808C16.8846 51.105 16.7854 51.7262 16.7125 52.3504C16.6104 53.1233 16.5112 53.9225 16.4121 54.6954L17.4854 54.745L21.6971 52.8258L22.645 47.0392L17.0858 49.7342ZM44.6833 42.6292C45.1558 40.7567 45.7071 38.8637 46.305 37.0175V36.9942L39.9467 39.4879L38.9492 44.3967L44.6833 42.6292ZM31.4942 44.0729L33.0896 38.7646L35.2596 40.5846L37.9517 39.9837L36.68 45.2192L34.2883 46.3683L31.4942 44.0729ZM27.8804 41.5062L24.4154 43.0521L26.0604 37.4929L29.7267 35.8975L32.1942 37.84L30.4733 43.4254L27.8804 41.5062ZM22.3212 39.2867L21.6737 39.5608L21.0992 39.8117C20.7987 39.9342 20.5012 40.0858 20.2008 40.2083C19.9529 40.3337 19.7021 40.4329 19.4542 40.5846C19.3783 40.6342 19.2558 40.6837 19.18 40.7333C19.18 40.7829 19.1537 40.8092 19.1537 40.8325C19.1042 41.0571 19.0546 41.2554 18.9787 41.48C18.83 42.1042 18.655 42.7021 18.5062 43.3262C18.3079 44.1225 18.0833 44.8954 17.8821 45.6946L18.0571 45.7704L22.0967 44L23.7417 38.6887L22.3212 39.2867ZM47.6496 33.2287C48.2971 31.5079 49.0204 29.8133 49.8196 28.1421L44.8321 29.8396L43.0617 34.8242L47.6496 33.2287ZM34.3117 35.2237L36.5575 30.1867L38.8733 31.9337L42.9129 30.4608L40.9675 35.4483L36.855 37.1692L34.3117 35.2237ZM28.3296 33.7771L30.3246 29.1162L33.1917 27.9175L35.6592 29.6383L33.4396 34.6754L30.9721 32.6571L28.3296 33.7771ZM24.8879 31.0587L24.9637 31.2337L24.2404 31.435C23.8904 31.5342 22.645 31.9075 22.295 32.1321C22.2717 32.2079 22.2454 32.2808 22.1958 32.3304C22.12 32.5317 22.0471 32.73 21.9479 32.9312C21.7233 33.4796 21.5221 34.0279 21.2975 34.5762C21 35.3492 20.6996 36.1221 20.4021 36.9183L20.4254 36.9679L26.4104 34.4742L28.5279 29.7375L24.8879 31.0587ZM51.0154 25.7737C51.5142 24.8521 52.0129 23.9304 52.5612 23.0321C52.8617 22.5333 53.1592 22.0346 53.5092 21.5358L47.6992 22.8075L45.1821 27.3458L51.0154 25.7737ZM37.8262 26.8967L40.4192 22.8833L42.2887 24.1783L45.0829 23.5804L42.5133 27.9175L40.0225 28.6904L37.8262 26.8967ZM34.9096 24.9279L30.7971 26.5467L33.3142 22.3087L37.4792 20.9875L39.6229 22.3583L36.9804 26.4971L34.9096 24.9279ZM28.3033 24.1783L28.3296 24.3533L27.7317 24.4787C27.4575 24.5283 26.635 24.7267 26.3083 24.9017C26.285 24.9512 26.2354 25.0271 26.2092 25.0767C26.11 25.2517 26.0108 25.4267 25.9117 25.6017C25.6375 26.0975 25.3371 26.5729 25.0629 27.0717C24.6896 27.7192 24.29 28.3667 23.8904 29.0171V29.0404L28.455 27.27L30.8962 23.3821L28.3033 24.1783ZM54.88 19.5408C55.7287 18.3946 56.6242 17.2746 57.6217 16.2012L53.4333 16.8487L50.8404 20.2642L54.88 19.5408ZM44.3333 21.6875L42.0904 20.3662L45.1062 17.1987L46.7279 18.1204L51.2167 17.2746L48.5975 20.4654L44.3333 21.6875ZM39.5733 18.8437L36.7792 19.5671L39.1475 16.9246L42.5658 15.8017L44.3596 16.7992L41.2679 20.0396L39.5733 18.8437ZM32.2933 18.345L32.2671 18.87L31.7946 18.9925C31.5204 19.0683 30.7212 19.2667 30.4967 19.4183C30.3479 19.5671 30.1729 19.7654 30.0242 19.9171C29.7267 20.2408 29.4262 20.5646 29.1521 20.9146C28.7525 21.3608 28.3529 21.8362 27.9562 22.2854L34.3379 20.2146L37.1058 17.2979L32.2933 18.345ZM57.4729 29.2154C61.2617 22.7346 65.9487 18.7446 70.5862 18.7446C76.545 18.7446 79.8612 24.1287 81.6054 30.8867H83.7754L84.5483 29.9125L83.6237 25.6512L81.9292 25.0008L82.8012 23.4317L81.1562 19.6925L79.7358 19.3425L80.1587 17.8958L77.9917 15.1542L76.6937 14.9296L76.8425 14.0312L74.3517 12.2112L73.1033 12.2637L72.8554 11.5637C68.9646 10.4671 64.6042 12.2375 61.3112 14.9558C58.6687 17.1229 56.1517 20.2146 53.8825 24.0033C49.1721 31.7587 45.5554 42.4775 44.0854 54.3687C42.6387 66.2367 43.6129 76.9817 46.3779 84.7342C48.9971 92.0637 52.8617 97.5237 61.3871 97.1504L61.8596 97.025L62.0112 96.6779L63.4317 96.6021L66.2229 95.1058L66.3483 93.8342L67.9437 93.91L70.4871 91.3433L70.3879 89.3221L71.8812 89.7712L74.5004 86.1808L73.9521 83.7892L74.0512 83.5646L75.6467 84.2354L77.0437 81.4704H73.6283C70.5104 86.28 66.5962 89.7217 61.8362 89.7217C57.1987 89.7217 53.5092 85.7083 51.2896 79.2508C49.0962 72.8429 48.3496 63.9937 49.5454 54.2462C50.7908 44.4492 53.7075 35.6233 57.4729 29.2154ZM70.5104 19.3425C66.1237 19.3425 61.6612 23.2071 57.995 29.4633C54.2821 35.7983 51.3887 44.5483 50.1929 54.22C48.9971 63.8946 49.7437 72.6446 51.9137 78.9767C54.0575 85.2329 57.5721 89.0975 61.9354 89.0975C66.3483 89.0975 70.0379 85.9329 73.0537 81.4442H69.9125C67.8679 83.2146 65.7242 84.2121 63.5804 84.2121C55.6792 84.2121 50.9162 70.775 52.9608 54.22C55.0054 37.6679 63.0583 24.2279 70.9596 24.2279C74.375 24.2279 77.1925 26.7217 79.1379 30.8867H81.1067C79.3362 24.4292 76.1221 19.3425 70.5104 19.3425ZM40.4192 12.5612C40.4192 12.5612 38.1529 13.1854 36.7062 13.9583L36.6304 14.7312L35.5104 14.8042C35.5104 14.8042 33.7633 15.6529 31.7946 17.5487L31.7187 18.7446C31.7187 18.7446 30.4237 19.045 30.1496 19.2929C29.8754 19.5408 27.3554 22.4342 27.3554 22.4342L27.6558 24.2542C27.6558 24.2542 25.9612 24.6275 25.8621 24.9017C25.76 25.1758 23.2429 29.3408 23.2429 29.3408L24.1412 31.2104C24.1412 31.2104 22.0471 31.7821 21.8458 32.1817C21.6475 32.555 19.7779 37.3937 19.7779 37.3937L21.3996 39.4121C21.3996 39.4121 18.7046 40.5583 18.655 40.7829C18.6054 41.0308 17.2112 46.3421 17.2112 46.3421L18.9292 47.1908L18.7571 48.6112C18.7571 48.6112 16.5871 49.6321 16.5375 49.7837C16.4879 49.9325 15.7383 55.5675 15.7383 55.5675L17.185 55.6404L17.5846 56.0896L17.36 58.3092L15.5633 59.1579L15.3417 64.6908C15.3417 64.6908 16.9371 64.3933 16.9867 64.4662C17.01 64.5421 17.3833 64.9154 17.3833 64.9154L17.2112 67.0096L15.4146 68.2812L16.1379 73.5167L17.9317 72.8196L18.2321 74.6892L16.5871 76.4829L17.8092 81.1962L20.0025 80.6712L20.1279 81.2458L18.6317 83.7133L20.4517 87.6275L22.6187 87.2542L21.5979 89.4212L24.0654 92.3379L25.7104 92.2883L25.4362 93.6096L28.1283 95.2312L29.5517 95.3304L29.575 95.9779L35.4083 96.8004L35.5337 96.6021L37.1554 96.9754L41.9912 97.2496L50.5925 97.6987L50.6421 97.4012L51.3887 97.6987L55.1804 97.6754L55.405 97.5237C51.1146 95.9546 47.6758 91.5417 45.4067 85.1833C42.5892 77.2821 41.5683 66.4117 43.0617 54.3687C44.5346 42.355 48.2242 31.4583 52.9842 23.5571C57.0733 16.7758 61.985 12.1879 66.9958 10.9425C65.2517 10.8667 63.455 10.8404 63.455 10.8404L62.6325 11.2662L61.7371 10.8171L55.9767 10.9658L54.1071 11.59L53.4333 11.1146L48.1979 11.59L46.8271 12.1617L46.1796 11.7387C46.1796 11.7883 43.6625 11.8642 40.4192 12.5612Z" fill="#006BFF"/>
</g>
<mask id="mask1_10013_137" style="mask-type:luminance" maskUnits="userSpaceOnUse" x="79" y="25" width="62" height="7">
<path d="M79.8933 25.0533H140.222V31.0267H79.8933V25.0533Z" fill="white"/>
</mask>
<g mask="url(#mask1_10013_137)">
<path fill-rule="evenodd" clip-rule="evenodd" d="M82.005 30.8867H139.994L80.1092 25.3508L82.005 30.8867Z" fill="#006BFF"/>
</g>
<path fill-rule="evenodd" clip-rule="evenodd" d="M73.6517 81.4442H119.125L70.6854 86.98L73.6517 81.4442Z" fill="#006BFF"/>
</svg>
