<svg width="21" height="20" viewBox="0 0 21 20" fill="none" xmlns="http://www.w3.org/2000/svg">
<g clip-path="url(#clip0_10878_8588)">
<path fill-rule="evenodd" clip-rule="evenodd" d="M6.91666 1.66675C7.37689 1.66675 7.74999 2.03984 7.74999 2.50008V3.33341H12.75V2.50008C12.75 2.03984 13.1231 1.66675 13.5833 1.66675C14.0436 1.66675 14.4167 2.03984 14.4167 2.50008V3.33341H15.25C17.0909 3.33341 18.5833 4.8258 18.5833 6.66675V16.6667C18.5833 17.5872 17.8371 18.3334 16.9167 18.3334H3.58332C2.66285 18.3334 1.91666 17.5872 1.91666 16.6667V6.66675C1.91666 4.8258 3.40904 3.33341 5.24999 3.33341H6.08332V2.50008C6.08332 2.03984 6.45642 1.66675 6.91666 1.66675ZM10.6784 8.59972C10.5031 8.24465 9.99683 8.24465 9.82159 8.59972L9.16163 9.93695C9.09204 10.0779 8.95753 10.1757 8.80193 10.1983L7.32621 10.4127C6.93437 10.4697 6.77791 10.9512 7.06145 11.2276L8.12929 12.2685C8.24188 12.3782 8.29326 12.5363 8.26668 12.6913L8.0146 14.1611C7.94766 14.5513 8.35728 14.8489 8.70776 14.6647L10.0277 13.9708C10.1669 13.8976 10.3331 13.8976 10.4723 13.9708L11.7922 14.6647C12.1427 14.8489 12.5523 14.5513 12.4854 14.1611L12.2333 12.6913C12.2067 12.5363 12.2581 12.3782 12.3707 12.2685L13.4385 11.2276C13.7221 10.9512 13.5656 10.4697 13.1738 10.4127L11.698 10.1983C11.5424 10.1757 11.4079 10.0779 11.3383 9.93695L10.6784 8.59972Z" fill="#006BFF"/>
</g>
<defs>
<clipPath id="clip0_10878_8588">
<rect width="16.6667" height="16.6667" fill="white" transform="translate(1.91666 1.66675)"/>
</clipPath>
</defs>
</svg>
