<svg width="40" height="40" viewBox="0 0 40 40" fill="none" xmlns="http://www.w3.org/2000/svg">
<g clip-path="url(#clip0_10761_7463)">
<path d="M40 34.4827C40.0005 34.8451 39.9294 35.2041 39.7909 35.539C39.6525 35.8738 39.4493 36.1781 39.193 36.4344C38.9368 36.6906 38.6325 36.8938 38.2976 37.0323C37.9627 37.1708 37.6038 37.2418 37.2414 37.2414H2.75863C2.21271 37.2418 1.67893 37.0802 1.22488 36.7771C0.77083 36.474 0.416916 36.043 0.207944 35.5387C-0.00102877 35.0344 -0.0556623 34.4794 0.0509595 33.944C0.157581 33.4086 0.420664 32.9168 0.806902 32.531C1.18106 32.1654 1.64878 31.9101 2.15863 31.7931C2.05518 31.5862 1.95173 31.3793 1.85518 31.1724C0.723667 28.7493 0.0971591 26.1212 0.0137985 23.4483C0.00690195 23.2207 5.41541e-06 22.9931 5.41541e-06 22.7586C5.41541e-06 22.5241 0.00690195 22.2965 0.0206951 22.0689C0.110251 19.0247 0.905881 16.0428 2.34483 13.3586C2.55863 12.9517 2.78621 12.5517 3.03449 12.1655C4.64459 9.58297 6.82438 7.40319 9.4069 5.79308C9.79311 5.5448 10.1931 5.31722 10.6 5.10343C13.2842 3.66447 16.2661 2.86884 19.3104 2.77929C19.7697 2.75131 20.2303 2.75131 20.6897 2.77929C23.7339 2.86884 26.7158 3.66447 29.4 5.10343C29.8069 5.31722 30.2069 5.5448 30.5931 5.79308C33.1756 7.40319 35.3554 9.58297 36.9655 12.1655C37.2138 12.5517 37.4414 12.9517 37.6552 13.3586C39.0941 16.0428 39.8898 19.0247 39.9793 22.0689C39.9931 22.2965 40 22.5241 40 22.7586C40 22.9931 39.9931 23.2207 39.9862 23.4483C39.901 26.1158 39.277 28.7385 38.1517 31.1586C38.0552 31.3724 37.9517 31.5862 37.8414 31.7931C38.0951 31.8486 38.3391 31.9416 38.5655 32.0689C38.9994 32.3053 39.3617 32.6542 39.6141 33.0789C39.8665 33.5037 39.9998 33.9886 40 34.4827Z" fill="#006BFF"/>
<path d="M20 37.2414C27.9986 37.2414 34.4828 30.7572 34.4828 22.7586C34.4828 14.76 27.9986 8.27588 20 8.27588C12.0014 8.27588 5.51724 14.76 5.51724 22.7586C5.51724 30.7572 12.0014 37.2414 20 37.2414Z" fill="#95A5A5"/>
<path d="M20 34.4827C26.4751 34.4827 31.7242 29.2336 31.7242 22.7586C31.7242 16.2835 26.4751 11.0344 20 11.0344C13.525 11.0344 8.27588 16.2835 8.27588 22.7586C8.27588 29.2336 13.525 34.4827 20 34.4827Z" fill="#006BFF"/>
<path d="M20.6897 2.77929V4.82756C20.6897 5.01047 20.6171 5.18589 20.4878 5.31522C20.3584 5.44456 20.183 5.51722 20.0001 5.51722C19.8172 5.51722 19.6418 5.44456 19.5124 5.31522C19.3831 5.18589 19.3104 5.01047 19.3104 4.82756V2.77929C19.7698 2.75131 20.2304 2.75131 20.6897 2.77929ZM11.3794 7.82756C11.0477 8.01377 10.6277 7.90067 10.4346 7.57239L9.40699 5.79308C9.7932 5.5448 10.1932 5.31722 10.6001 5.10343L11.6346 6.88274C11.7248 7.04214 11.7486 7.23067 11.7009 7.40751C11.6531 7.58435 11.5376 7.73526 11.3794 7.82756ZM5.06906 14.1379C4.87595 14.4662 4.45595 14.5793 4.12423 14.3931L2.34492 13.3586C2.55871 12.9517 2.7863 12.5517 3.03457 12.1655L4.81388 13.1931C4.89291 13.2381 4.96224 13.2984 5.01789 13.3703C5.07353 13.4423 5.11439 13.5246 5.13811 13.6124C5.16182 13.7002 5.16793 13.7919 5.15608 13.882C5.14423 13.9722 5.11466 14.0592 5.06906 14.1379ZM2.75871 22.7586C2.75871 22.9415 2.68605 23.1169 2.55672 23.2463C2.42738 23.3756 2.25197 23.4483 2.06906 23.4483H0.0138846C0.00698809 23.2207 9.15527e-05 22.9931 9.15527e-05 22.7586C9.15527e-05 22.5241 0.00698809 22.2965 0.0207812 22.0689H2.06906C2.25197 22.0689 2.42738 22.1416 2.55672 22.2709C2.68605 22.4003 2.75871 22.5757 2.75871 22.7586ZM40.0001 22.7586C40.0001 22.9931 39.9932 23.2207 39.9863 23.4483H37.9311C37.7482 23.4483 37.5728 23.3756 37.4435 23.2463C37.3141 23.1169 37.2415 22.9415 37.2415 22.7586C37.2415 22.5757 37.3141 22.4003 37.4435 22.2709C37.5728 22.1416 37.7482 22.0689 37.9311 22.0689H39.9794C39.9932 22.2965 40.0001 22.5241 40.0001 22.7586ZM37.6553 13.3586L35.876 14.3931C35.7168 14.4845 35.5279 14.509 35.3507 14.4612C35.1735 14.4133 35.0226 14.297 34.9311 14.1379C34.8397 13.9788 34.8152 13.7898 34.863 13.6126C34.9109 13.4355 35.0272 13.2845 35.1863 13.1931L36.9656 12.1655C37.2139 12.5517 37.4415 12.9517 37.6553 13.3586ZM30.5932 5.79308L29.5656 7.57239C29.4742 7.73152 29.3232 7.8478 29.146 7.89566C28.9689 7.94351 28.7799 7.91902 28.6208 7.82756C28.4617 7.73611 28.3454 7.58519 28.2975 7.408C28.2497 7.23081 28.2742 7.04187 28.3656 6.88274L29.4001 5.10343C29.807 5.31722 30.207 5.5448 30.5932 5.79308ZM3.44285 32.4993C3.38492 32.4993 3.32768 32.4924 3.27182 32.4779C2.9623 32.3982 2.63832 32.3928 2.3263 32.462C2.2382 32.4848 2.14648 32.4899 2.05642 32.477C1.96635 32.4641 1.87972 32.4336 1.80151 32.3871C1.72331 32.3406 1.65507 32.2791 1.60074 32.2061C1.54641 32.1331 1.50706 32.0501 1.48495 31.9619C1.46284 31.8736 1.45842 31.7819 1.47192 31.6919C1.48543 31.6019 1.51661 31.5155 1.56366 31.4376C1.61071 31.3598 1.6727 31.292 1.74607 31.2382C1.81943 31.1844 1.90272 31.1456 1.99113 31.1241C2.52525 30.9986 3.08186 31.0045 3.61319 31.1414C3.77602 31.1829 3.91809 31.2824 4.01271 31.4213C4.10734 31.5601 4.14802 31.7287 4.1271 31.8955C4.10619 32.0622 4.02512 32.2156 3.89913 32.3267C3.77313 32.4379 3.61088 32.4993 3.44285 32.4993ZM37.9311 32.4993C37.8732 32.4993 37.816 32.4924 37.7601 32.4779C37.4508 32.3982 37.127 32.3927 36.8153 32.462C36.7274 32.4841 36.6361 32.4886 36.5465 32.4754C36.4569 32.4621 36.3708 32.4314 36.293 32.3849C36.2153 32.3383 36.1475 32.277 36.0936 32.2042C36.0396 32.1315 36.0004 32.0489 35.9784 31.961C35.9563 31.8732 35.9518 31.7818 35.965 31.6922C35.9783 31.6026 36.009 31.5165 36.0556 31.4388C36.1021 31.3611 36.1635 31.2933 36.2362 31.2393C36.3089 31.1853 36.3916 31.1462 36.4794 31.1241C37.0137 30.9983 37.5706 31.0042 38.1022 31.1414C38.265 31.1829 38.4072 31.2825 38.5018 31.4214C38.5964 31.5603 38.637 31.729 38.616 31.8958C38.595 32.0626 38.5138 32.216 38.3877 32.3271C38.2616 32.4382 38.0992 32.4994 37.9311 32.4993Z" fill="#F6F6F6"/>
<path d="M24.8069 26.4965L28.4345 30.8827C27.4645 31.8954 26.3197 32.7248 25.0552 33.331L22 28.531C21.829 28.2551 21.5034 28.1172 21.1862 28.1861C20.405 28.3609 19.5949 28.3609 18.8138 28.1861C18.4965 28.1172 18.171 28.2551 18 28.531L14.9448 33.331C13.6803 32.7248 12.5355 31.8954 11.5655 30.8827L15.1931 26.4965C15.2962 26.3772 15.3596 26.2288 15.3744 26.0718C15.3892 25.9148 15.3548 25.7571 15.2759 25.6206C14.8597 24.9251 14.6052 24.145 14.531 23.3379C14.5126 23.1835 14.4471 23.0385 14.3435 22.9225C14.2398 22.8066 14.1031 22.7252 13.9517 22.6896L8.3793 21.2482C8.5561 19.8524 8.98861 18.5011 9.65517 17.262L15.0276 19.3861C15.3255 19.5103 15.6696 19.4365 15.8896 19.1999C16.4193 18.59 17.0792 18.1068 17.8207 17.7861C18.1124 17.651 18.2883 17.3482 18.2621 17.0275L17.8965 11.2275C19.287 10.9701 20.713 10.9701 22.1034 11.2275L21.7379 17.0275C21.7117 17.3482 21.8876 17.651 22.1793 17.7861C22.9208 18.1068 23.5807 18.59 24.1103 19.1999C24.3303 19.4365 24.6745 19.5103 24.9724 19.3861L30.3448 17.262C31.0114 18.5011 31.4439 19.8524 31.6207 21.2482L26.0483 22.6896C25.8969 22.7252 25.7602 22.8066 25.6565 22.9225C25.5529 23.0385 25.4874 23.1835 25.469 23.3379C25.3948 24.145 25.1402 24.9251 24.7241 25.6206C24.6452 25.7571 24.6108 25.9148 24.6256 26.0718C24.6404 26.2288 24.7038 26.3772 24.8069 26.4965Z" fill="#84B5CB"/>
<path d="M20 25.5172C21.5236 25.5172 22.7586 24.2822 22.7586 22.7586C22.7586 21.2351 21.5236 20 20 20C18.4765 20 17.2414 21.2351 17.2414 22.7586C17.2414 24.2822 18.4765 25.5172 20 25.5172Z" fill="#006BFF"/>
</g>
<defs>
<clipPath id="clip0_10761_7463">
<rect width="40" height="40" fill="white"/>
</clipPath>
</defs>
</svg>
