<svg width="40" height="40" viewBox="0 0 40 40" fill="none" xmlns="http://www.w3.org/2000/svg">
<path d="M38.125 10.625L36.25 10L33.125 5L29.375 3.75C29.375 2.025 27.975 0.625 26.25 0.625H11.25C9.525 0.625 8.125 2.025 8.125 3.75V34.375H4.375V39.375H33.125V34.375H29.375V26.5625C29.375 27.6875 29.8313 28.7 30.5625 29.4375C31.3257 30.1985 32.3597 30.6256 33.4375 30.625C34.5149 30.625 35.5483 30.197 36.3101 29.4351C37.072 28.6733 37.5 27.6399 37.5 26.5625V17.5L38.75 15.625L38.125 10.625ZM33.125 14.375H35V18.7331C33.7975 18.5294 33.125 17.6887 33.125 16.875V14.375ZM35 26.5625C35 26.9937 34.825 27.3875 34.5438 27.6688C34.2625 27.95 33.8687 28.125 33.4375 28.125C33.0231 28.125 32.6257 27.9604 32.3326 27.6674C32.0396 27.3743 31.875 26.9769 31.875 26.5625V23.125C31.875 21.7437 30.7563 20.625 29.375 20.625V6.875L31.875 7.5L33.125 10L31.875 11.25V16.875C31.875 18.3838 33.0438 19.7725 35 20V26.5625Z" fill="#006BFF"/>
<path d="M11.25 34.375H33.125V39.375H4.375V34.375H8.125H11.25Z" fill="#999999"/>
<path d="M11.25 25.625V34.375H8.125V23.75L11.25 25.625Z" fill="#004CB5"/>
<path d="M22.4187 22.65C22.8768 23.2828 23.1239 24.0438 23.125 24.825C23.125 26.9938 21.0687 28.75 18.75 28.75C17.5875 28.75 16.5 28.3125 15.6938 27.6C14.8875 26.8875 14.375 25.9125 14.375 24.825C14.375 24.05 14.6187 23.2938 15.0812 22.65L18.75 17.5L22.4187 22.65Z" fill="#F7A539"/>
<path d="M29.375 26.5625V34.375H26.25V25.625L29.375 23.75V26.5625Z" fill="#004CB5"/>
<path d="M37.5 20V26.5625C37.5 27.6399 37.072 28.6733 36.3101 29.4351C35.5483 30.197 34.5149 30.625 33.4375 30.625C32.3125 30.625 31.3 30.1687 30.5625 29.4375C29.8015 28.6743 29.3744 27.6403 29.375 26.5625V20.625C30.7563 20.625 31.875 21.7437 31.875 23.125V26.5625C31.875 26.9769 32.0396 27.3743 32.3326 27.6674C32.6257 27.9604 33.0231 28.125 33.4375 28.125C33.8519 28.125 34.2493 27.9604 34.5424 27.6674C34.8354 27.3743 35 26.9769 35 26.5625V20H37.5ZM33.125 5L36.25 10H33.125L31.875 7.5L29.375 6.875V3.75L33.125 5Z" fill="#B3B3B3"/>
<path d="M20.6812 8.6625C20.1188 8.31875 19.4563 8.125 18.75 8.125C16.6813 8.125 15 9.80625 15 11.875H12.5V4.375H25V11.875H22.5C22.5 10.5125 21.7688 9.31875 20.6812 8.6625Z" fill="#9AE1E8"/>
<path d="M22.5 11.875H15C15 9.80625 16.6813 8.125 18.75 8.125C19.4563 8.125 20.1188 8.31875 20.6813 8.6625C21.2356 8.99577 21.6944 9.46671 22.0131 10.0296C22.3317 10.5925 22.4995 11.2282 22.5 11.875Z" fill="#F7A539"/>
<path d="M20.625 23.75C20.4592 23.75 20.3003 23.8158 20.1831 23.9331C20.0658 24.0503 20 24.2092 20 24.375C20 25.0644 19.4394 25.625 18.75 25.625C18.5842 25.625 18.4253 25.6908 18.3081 25.8081C18.1908 25.9253 18.125 26.0842 18.125 26.25C18.125 26.4158 18.1908 26.5747 18.3081 26.6919C18.4253 26.8092 18.5842 26.875 18.75 26.875C20.1288 26.875 21.25 25.7538 21.25 24.375C21.25 24.2092 21.1842 24.0503 21.0669 23.9331C20.9497 23.8158 20.7908 23.75 20.625 23.75Z" fill="#FFCC3E"/>
<path d="M16.875 15.625C17.0408 15.625 17.1997 15.5592 17.3169 15.4419C17.4342 15.3247 17.5 15.1658 17.5 15C17.5 14.8342 17.4342 14.6753 17.3169 14.5581C17.1997 14.4408 17.0408 14.375 16.875 14.375H14.375C14.2092 14.375 14.0503 14.4408 13.9331 14.5581C13.8158 14.6753 13.75 14.8342 13.75 15C13.75 15.1658 13.8158 15.3247 13.9331 15.4419C14.0503 15.5592 14.2092 15.625 14.375 15.625H16.875ZM23.125 14.375H20.625C20.4592 14.375 20.3003 14.4408 20.1831 14.5581C20.0658 14.6753 20 14.8342 20 15C20 15.1658 20.0658 15.3247 20.1831 15.4419C20.3003 15.5592 20.4592 15.625 20.625 15.625H23.125C23.2908 15.625 23.4497 15.5592 23.5669 15.4419C23.6842 15.3247 23.75 15.1658 23.75 15C23.75 14.8342 23.6842 14.6753 23.5669 14.5581C23.4497 14.4408 23.2908 14.375 23.125 14.375Z" fill="#004CB5"/>
<path d="M21.355 6.52748L20.1575 8.40373C20.3388 8.47748 20.515 8.56123 20.6806 8.66248C20.8738 8.77873 21.0506 8.9181 21.2194 9.06623L22.3944 7.22248C22.4791 7.08465 22.5071 6.91937 22.4726 6.76133C22.438 6.60328 22.3436 6.46477 22.2091 6.37484C22.0746 6.28492 21.9106 6.25059 21.7513 6.27905C21.5921 6.3075 21.45 6.39654 21.355 6.52748Z" fill="#006BFF"/>
<path d="M33.125 16.875V14.375H31.875V16.875C31.875 18.3837 33.0437 19.7725 35 20V18.7331C33.7975 18.5294 33.125 17.6888 33.125 16.875Z" fill="#B3B3B3"/>
</svg>
