<svg width="41" height="40" viewBox="0 0 41 40" fill="none" xmlns="http://www.w3.org/2000/svg">
<g clip-path="url(#clip0_10761_4544)">
<path d="M3.16668 14.8438C3.04236 14.8438 2.92313 14.7944 2.83522 14.7065C2.74732 14.6185 2.69793 14.4993 2.69793 14.375V11.25C2.69793 11.1257 2.74732 11.0065 2.83522 10.9185C2.92313 10.8306 3.04236 10.7812 3.16668 10.7812C3.291 10.7812 3.41023 10.8306 3.49814 10.9185C3.58604 11.0065 3.63543 11.1257 3.63543 11.25V14.375C3.63543 14.4993 3.58604 14.6185 3.49814 14.7065C3.41023 14.7944 3.291 14.8438 3.16668 14.8438ZM6.91668 14.8438C6.79236 14.8438 6.67313 14.7944 6.58522 14.7065C6.49732 14.6185 6.44793 14.4993 6.44793 14.375V11.25C6.44793 11.1257 6.49732 11.0065 6.58522 10.9185C6.67313 10.8306 6.79236 10.7812 6.91668 10.7812C7.041 10.7812 7.16023 10.8306 7.24814 10.9185C7.33604 11.0065 7.38543 11.1257 7.38543 11.25V14.375C7.38543 14.4993 7.33604 14.6185 7.24814 14.7065C7.16023 14.7944 7.041 14.8438 6.91668 14.8438Z" fill="#9BA8BA"/>
<path d="M11.1273 39.8438H5.97356C4.91503 39.8438 3.8822 39.5177 3.0156 38.9098C2.14901 38.302 1.49074 37.4419 1.13038 36.4466C0.770016 35.4513 0.725061 34.3691 1.00163 33.3474C1.2782 32.3256 1.86286 31.4139 2.67606 30.7363C3.2705 30.2424 3.74869 29.6235 4.07656 28.9237C4.40444 28.2238 4.57392 27.4603 4.57293 26.6875V19.5312H5.51043V26.6875C5.51177 27.5976 5.31234 28.4968 4.92634 29.3209C4.54034 30.1451 3.97729 30.874 3.27731 31.4556C2.61187 32.0098 2.13336 32.7555 1.9069 33.5914C1.68045 34.4272 1.71705 35.3125 2.01172 36.1268C2.3064 36.9411 2.84484 37.6448 3.55374 38.1421C4.26265 38.6395 5.10759 38.9063 5.97356 38.9062H11.1273C12.2065 38.9051 13.2413 38.4759 14.0044 37.7127C14.7675 36.9496 15.1968 35.9149 15.1979 34.8356V32.0312H16.1354V34.8356C16.1339 36.1634 15.6058 37.4364 14.6669 38.3753C13.7281 39.3141 12.4551 39.8423 11.1273 39.8438ZM32.8598 39.8438H30.2061C28.8783 39.8423 27.6053 39.3141 26.6664 38.3753C25.7275 37.4364 25.1994 36.1634 25.1979 34.8356V32.0312H26.1354V34.8356C26.1366 35.9149 26.5658 36.9496 27.329 37.7127C28.0921 38.4759 29.1268 38.9051 30.2061 38.9062H32.8598C33.7256 38.906 34.5702 38.6391 35.279 38.1419C35.9877 37.6446 36.526 36.9411 36.8208 36.1271C37.1155 35.313 37.1523 34.428 36.9263 33.5922C36.7002 32.7565 36.2222 32.0107 35.5573 31.4563C34.857 30.8747 34.2937 30.1457 33.9075 29.3215C33.5212 28.4972 33.3217 27.5978 33.3229 26.6875V15.7812H34.2604V26.6875C34.2594 27.4601 34.4287 28.2235 34.7564 28.9232C35.084 29.6229 35.5619 30.2417 36.1561 30.7356C36.9694 31.4131 37.5543 32.3248 37.831 33.3465C38.1078 34.3683 38.063 35.4505 37.7027 36.4459C37.3425 37.4413 36.6843 38.3015 35.8178 38.9095C34.9512 39.5175 33.9184 39.8437 32.8598 39.8438Z" fill="#667F96"/>
<path d="M30.0417 17.5V30C30.0417 30.663 29.7783 31.2989 29.3095 31.7678C28.8406 32.2366 28.2047 32.5 27.5417 32.5H13.7917C13.1286 32.5 12.4928 32.2366 12.0239 31.7678C11.5551 31.2989 11.2917 30.663 11.2917 30V17.5H30.0417Z" fill="#3389FF"/>
<path d="M30.0417 17.5V30C30.0417 30.663 29.7783 31.2989 29.3095 31.7678C28.8406 32.2366 28.2047 32.5 27.5417 32.5H15.0417C14.3786 32.5 13.7428 32.2366 13.2739 31.7678C12.8051 31.2989 12.5417 30.663 12.5417 30V17.5H30.0417Z" fill="#006BFF"/>
<path d="M13.7917 7.5H27.5417C28.2047 7.5 28.8406 7.76339 29.3095 8.23223C29.7783 8.70107 30.0417 9.33696 30.0417 10V17.5H11.2917V10C11.2917 9.33696 11.5551 8.70107 12.0239 8.23223C12.4928 7.76339 13.1286 7.5 13.7917 7.5Z" fill="#8ABBFF"/>
<path d="M14.4167 8.75H27.5417C28.2047 8.75 28.8406 9.01339 29.3095 9.48223C29.7783 9.95107 30.0417 10.587 30.0417 11.25V17.5H12.5417V10.625C12.5417 10.1277 12.7392 9.65081 13.0909 9.29917C13.4425 8.94754 13.9194 8.75 14.4167 8.75Z" fill="#E6F0FF"/>
<path d="M39.5554 8.125L37.7192 6.875H34.8642L33.0279 8.125L32.5417 15.8787C32.5336 16.0067 32.5519 16.135 32.5954 16.2556C32.639 16.3762 32.7067 16.4866 32.7946 16.58C32.8825 16.6734 32.9886 16.7477 33.1063 16.7985C33.2241 16.8492 33.351 16.8753 33.4792 16.875C33.718 16.8755 33.9479 16.7848 34.1222 16.6215C34.2964 16.4582 34.4017 16.2346 34.4167 15.9963L34.8223 9.50688C34.8457 9.13291 35.0106 8.78188 35.2835 8.52518C35.5565 8.26848 35.917 8.12538 36.2917 8.125C36.6667 8.12491 37.0277 8.26779 37.301 8.52453C37.5744 8.78128 37.7396 9.13258 37.7629 9.50688L38.1667 15.9963C38.1816 16.2346 38.287 16.4582 38.4612 16.6215C38.6354 16.7848 38.8654 16.8755 39.1042 16.875C39.2324 16.8753 39.3593 16.8492 39.4771 16.7985C39.5948 16.7477 39.7009 16.6734 39.7888 16.58C39.8766 16.4866 39.9444 16.3762 39.9879 16.2556C40.0314 16.135 40.0497 16.0067 40.0417 15.8787L39.5554 8.125Z" fill="#F56D6D"/>
<path d="M36.2917 0.625002V1.875C36.5403 1.875 36.7788 1.97377 36.9546 2.14959C37.1304 2.32541 37.2292 2.56386 37.2292 2.8125C37.2292 3.06114 37.1304 3.2996 36.9546 3.47542C36.7788 3.65123 36.5403 3.75 36.2917 3.75V5C36.5403 5 36.7788 5.09877 36.9546 5.27459C37.1304 5.45041 37.2292 5.68886 37.2292 5.9375C37.2292 6.18614 37.1304 6.4246 36.9546 6.60042C36.7788 6.77623 36.5403 6.875 36.2917 6.875V8.125H39.5554L39.1598 1.79688C39.1399 1.47908 38.9995 1.18086 38.7672 0.963078C38.5349 0.745299 38.2282 0.62438 37.9098 0.625002H36.2917Z" fill="#8293AA"/>
<path d="M36.2917 1.875V0.625002H34.6711C34.3526 0.62438 34.046 0.745299 33.8137 0.963078C33.5814 1.18086 33.441 1.47908 33.4211 1.79688L33.0279 8.125H36.2917V6.875C36.043 6.875 35.8046 6.77623 35.6288 6.60042C35.453 6.4246 35.3542 6.18614 35.3542 5.9375C35.3542 5.68886 35.453 5.45041 35.6288 5.27459C35.8046 5.09877 36.043 5 36.2917 5V3.75C36.043 3.75 35.8046 3.65123 35.6288 3.47542C35.453 3.2996 35.3542 3.06114 35.3542 2.8125C35.3542 2.56386 35.453 2.32541 35.6288 2.14959C35.8046 1.97377 36.043 1.875 36.2917 1.875Z" fill="#9BA8BA"/>
<path d="M25.6667 11.25V10H14.4167V15H25.6667V13.75H27.5417V11.25H25.6667Z" fill="#F58573"/>
<path d="M16.6667 10H18.9167V15H16.6667V10ZM21.1667 10H23.4167V15H21.1667V10Z" fill="#F56D6D"/>
<path d="M20.6667 30C23.4281 30 25.6667 27.7614 25.6667 25C25.6667 22.2386 23.4281 20 20.6667 20C17.9053 20 15.6667 22.2386 15.6667 25C15.6667 27.7614 17.9053 30 20.6667 30Z" fill="#FFEB78"/>
<path d="M20.4573 27.9187C20.3461 27.8632 20.2615 27.7658 20.2221 27.6478C20.1827 27.5299 20.1918 27.4012 20.2473 27.29L21.1586 25.4687H19.4167C19.3368 25.4687 19.2583 25.4483 19.1885 25.4094C19.1187 25.3705 19.06 25.3145 19.018 25.2465C18.976 25.1786 18.9521 25.1011 18.9484 25.0213C18.9448 24.9415 18.9616 24.8621 18.9973 24.7906L20.2473 22.2906C20.3028 22.1794 20.4003 22.0948 20.5182 22.0554C20.6361 22.016 20.7648 22.0251 20.8761 22.0806C20.9873 22.1361 21.0719 22.2336 21.1113 22.3515C21.1507 22.4694 21.1416 22.5981 21.0861 22.7094L20.1748 24.5312H21.9167C21.9966 24.5312 22.0751 24.5516 22.1449 24.5905C22.2147 24.6294 22.2733 24.6855 22.3153 24.7534C22.3574 24.8214 22.3813 24.8989 22.3849 24.9787C22.3886 25.0585 22.3717 25.1379 22.3361 25.2094L21.0861 27.7094C21.0586 27.7644 21.0205 27.8135 20.974 27.8539C20.9275 27.8942 20.8735 27.925 20.8151 27.9444C20.7567 27.9639 20.695 27.9716 20.6336 27.9672C20.5723 27.9628 20.5123 27.9463 20.4573 27.9187Z" fill="#FFEB78"/>
<path d="M1.91668 14.375H8.16668V16.875C8.16668 17.2854 8.08585 17.6917 7.9288 18.0709C7.77176 18.45 7.54157 18.7945 7.25139 19.0847C6.96121 19.3749 6.61671 19.6051 6.23757 19.7621C5.85842 19.9192 5.45206 20 5.04168 20C4.21288 20 3.41802 19.6708 2.83197 19.0847C2.24592 18.4987 1.91668 17.7038 1.91668 16.875V14.375Z" fill="#9BA8BA"/>
<path d="M8.32293 13.9062H1.76043C1.50155 13.9062 1.29168 14.1161 1.29168 14.375C1.29168 14.6339 1.50155 14.8438 1.76043 14.8438H8.32293C8.58181 14.8438 8.79168 14.6339 8.79168 14.375C8.79168 14.1161 8.58181 13.9062 8.32293 13.9062Z" fill="#ABB5C3"/>
<path d="M5.04168 17.3438C5.30056 17.3438 5.51043 17.1339 5.51043 16.875C5.51043 16.6161 5.30056 16.4062 5.04168 16.4062C4.7828 16.4062 4.57293 16.6161 4.57293 16.875C4.57293 17.1339 4.7828 17.3438 5.04168 17.3438Z" fill="#FBFCFF"/>
</g>
<defs>
<clipPath id="clip0_10761_4544">
<rect width="40" height="40" fill="white" transform="translate(0.666679)"/>
</clipPath>
</defs>
</svg>
