<svg width="40" height="36" viewBox="0 0 40 36" fill="none" xmlns="http://www.w3.org/2000/svg">
<path d="M23.0477 18.0062L26.8454 21.8039L22.7926 25.8567C22.7125 25.9367 22.6133 25.9949 22.5044 26.0258C22.3955 26.0566 22.2805 26.0591 22.1704 26.0329C22.0603 26.0067 21.9453 26.0091 21.8363 26.0399C21.7274 26.0708 21.6282 26.129 21.5482 26.209L19.5967 28.1605C19.5606 28.1966 19.5193 28.227 19.4741 28.2507L17.3589 29.3611C17.2671 29.4094 17.1923 29.4846 17.1447 29.5767L16.1138 31.5709C16.0635 31.6683 15.9829 31.7466 15.8842 31.7943L14.2598 32.5777C14.1739 32.6191 14.1015 32.684 14.0509 32.7648L12.568 35.1322C12.5381 35.1799 12.4979 35.2204 12.4505 35.2508C12.403 35.2811 12.3495 35.3006 12.2936 35.3077L9.62898 35.6486C9.38179 35.6803 9.17132 35.4698 9.20296 35.2226L9.5439 32.558C9.55104 32.5022 9.5705 32.4486 9.60085 32.4011C9.63121 32.3537 9.67171 32.3136 9.71944 32.2836L12.0868 30.8007C12.1676 30.7501 12.2325 30.6776 12.2739 30.5918L13.0573 28.9674C13.105 28.8687 13.1833 28.7881 13.2807 28.7378L15.2749 27.7069C15.367 27.6593 15.4423 27.5845 15.4905 27.4927L16.6009 25.3775C16.6246 25.3323 16.655 25.291 16.6911 25.2549L18.6426 23.3034C18.7226 23.2234 18.7808 23.1242 18.8117 23.0153C18.8425 22.9063 18.8449 22.7913 18.8187 22.6812C18.7925 22.5711 18.795 22.4561 18.8258 22.3472C18.8566 22.2383 18.9149 22.1391 18.9949 22.059L23.0477 18.0062Z" fill="#E1EFFB"/>
<path d="M24.8322 19.7906L9.29422 35.5211C9.30399 35.5323 9.31445 35.5429 9.32547 35.5529L9.32672 35.5541C9.33719 35.5635 9.3482 35.5723 9.35969 35.5806L9.36313 35.583C9.38585 35.5988 9.41021 35.6121 9.43578 35.6228C9.43875 35.624 9.44164 35.6253 9.44469 35.6265C9.45524 35.6306 9.46617 35.634 9.47711 35.6371C9.48102 35.6382 9.48477 35.6396 9.48867 35.6405C9.49914 35.6432 9.50992 35.6449 9.5207 35.6467C9.52524 35.6474 9.52969 35.6484 9.53422 35.6489C9.54524 35.6503 9.55641 35.6507 9.56774 35.651C9.57219 35.6512 9.57656 35.6517 9.58109 35.6517C9.5968 35.6517 9.61281 35.6507 9.62891 35.6487L12.2936 35.3077C12.3495 35.3005 12.4031 35.2811 12.4505 35.2507C12.4979 35.2204 12.5381 35.1799 12.568 35.1321L14.0509 32.7648C14.1016 32.684 14.174 32.6191 14.2598 32.5777L15.8842 31.7942C15.9829 31.7467 16.0635 31.6683 16.1138 31.5709L17.1447 29.5767C17.1923 29.4846 17.2671 29.4093 17.3589 29.3611L19.4741 28.2507C19.5193 28.2269 19.5606 28.1965 19.5967 28.1605L21.5482 26.209C21.7109 26.0463 21.9465 25.9796 22.1704 26.0328C22.3943 26.0861 22.6298 26.0194 22.7926 25.8567L26.8454 21.8039L24.8322 19.7906Z" fill="#CCDFED"/>
<path d="M28.1473 6.21755L21.8333 14.379C20.7465 15.7838 20.8732 17.7775 22.1291 19.0335L25.8181 22.7225C27.074 23.9784 29.0678 24.1051 30.4726 23.0182L38.634 16.7043C40.3113 15.4067 40.4686 12.9315 38.9691 11.432L33.4196 5.88247C31.9201 4.38294 29.4449 4.54028 28.1473 6.21755ZM31.6787 8.40731L36.4442 13.1728C36.8944 13.623 36.8944 14.3529 36.4442 14.8031C35.994 15.2533 35.2641 15.2533 34.8139 14.8031L30.0484 10.0376C29.5983 9.58747 29.5983 8.85755 30.0484 8.40731C30.4986 7.95708 31.2286 7.95708 31.6787 8.40731Z" fill="#2C5871"/>
<path d="M38.9691 11.4321L36.4496 8.9126C37.7454 10.2085 37.8029 12.2327 36.7121 13.5961C36.8591 14.0035 36.7707 14.4767 36.4442 14.8031C36.0713 15.176 35.5069 15.2391 35.0682 14.9942L27.9531 20.4988C26.5482 21.5856 24.5545 21.4589 23.2986 20.203L22.129 19.0335L22.1292 19.0336L25.8182 22.7226C27.0741 23.9785 29.0679 24.1053 30.4727 23.0184L38.6341 16.7044C40.3113 15.4067 40.4686 12.9315 38.9691 11.4321Z" fill="#1D4859"/>
<path d="M10.0083 1.5266L0.547045 10.9878C-0.182408 11.7172 -0.18233 12.8998 0.547045 13.6292L7.86665 20.9488C8.59603 21.6782 9.77869 21.6782 10.5081 20.9488L19.9693 11.4875C20.3883 11.0686 20.7095 10.5623 20.9101 10.0048C21.1107 9.44729 21.1857 8.85237 21.1297 8.26253L20.6216 2.90925C20.5192 1.83058 19.6652 0.976597 18.5866 0.874254L13.2333 0.366129C12.6435 0.310172 12.0485 0.385176 11.491 0.585782C10.9336 0.786388 10.4272 1.10764 10.0083 1.5266ZM16.6292 3.04691C17.1317 2.54433 17.9465 2.54441 18.449 3.04691C18.9516 3.54949 18.9516 4.36425 18.449 4.86675C17.9464 5.36933 17.1317 5.36933 16.6291 4.86675C16.1266 4.36425 16.1266 3.54949 16.6292 3.04691Z" fill="#006BFF"/>
<path d="M21.1297 8.26275L20.6216 2.90947C20.5192 1.8308 19.6653 0.976812 18.5866 0.874468L18.1538 0.833374L18.356 2.96291C18.3879 2.98923 18.4191 3.01712 18.449 3.04705C18.9234 3.52142 18.9495 4.27361 18.5283 4.77916L18.6208 5.75392C18.6768 6.34376 18.6018 6.93868 18.4012 7.49617C18.2006 8.05367 17.8794 8.55998 17.4604 8.97892L7.99924 18.4401C7.26986 19.1695 6.08729 19.1695 5.35783 18.4402L7.86666 20.949C8.59604 21.6784 9.77869 21.6785 10.5081 20.949L19.9693 11.4877C20.3883 11.0688 20.7095 10.5625 20.9101 10.005C21.1107 9.4475 21.1857 8.85258 21.1297 8.26275Z" fill="#006BFF"/>
<path d="M8.9486 8.13758L13.3584 12.5473C13.9469 13.1359 14.9011 13.1359 15.4896 12.5473L17.2346 10.8023C17.8231 10.2138 17.8231 9.25961 17.2346 8.6711L12.8249 4.26133C12.2363 3.67282 11.2821 3.67282 10.6936 4.26133L8.9486 6.00633C8.36009 6.59485 8.36009 7.54907 8.9486 8.13758ZM3.60485 13.4813L8.01462 17.8911C8.60314 18.4796 9.55735 18.4796 10.1459 17.8911L11.8909 16.1461C12.4794 15.5576 12.4794 14.6034 11.8909 14.0148L7.4811 9.60508C6.89259 9.01657 5.93837 9.01657 5.34985 9.60508L3.60485 11.3501C3.01634 11.9386 3.01634 12.8928 3.60485 13.4813Z" fill="#FFB125"/>
<path d="M28.9291 10.5815C27.3445 10.5815 25.4413 10.1395 23.5699 9.3371C21.6983 8.5346 20.0658 7.4603 18.9735 6.31218C17.7629 5.03983 17.3326 3.78788 17.7619 2.78679C18.1912 1.78569 19.3947 1.23429 21.1509 1.23413H21.1515C22.7362 1.23413 24.6394 1.67608 26.5108 2.47851C28.3824 3.28101 30.0147 4.3553 31.1072 5.50343C32.3178 6.77577 32.748 8.02772 32.3188 9.02882C31.8895 10.0299 30.686 10.5813 28.9297 10.5815H28.9291ZM21.1515 2.40608H21.151C19.9294 2.40616 19.0651 2.72116 18.8389 3.24866C18.6127 3.77616 18.9804 4.61937 19.8225 5.50444C20.8079 6.54007 22.3028 7.51874 24.0317 8.26007C25.7604 9.00132 27.4997 9.4096 28.9291 9.4096H28.9297C30.1512 9.40952 31.0156 9.09452 31.2418 8.56702C31.468 8.03952 31.1003 7.19632 30.2583 6.31124C29.2729 5.27562 27.778 4.29694 26.049 3.55562C24.3203 2.81444 22.5809 2.40608 21.1515 2.40608Z" fill="#82635A"/>
<path d="M33.4195 5.8825L34.444 6.90703L32.3112 9.03984L31.6787 8.40734C31.4628 8.1914 31.1825 8.08023 30.8997 8.0714L28.5802 5.75195C29.9411 4.52632 32.0733 4.53625 33.4195 5.8825Z" fill="#2C5871"/>
<path d="M18.449 3.04696C18.6955 3.29353 18.8199 3.61532 18.8245 3.93853C18.9451 4.39681 19.287 4.94181 19.8224 5.50454C20.1493 5.84813 20.5339 6.18493 20.9632 6.50931L20.6215 2.90946C20.5191 1.83079 19.6651 0.976807 18.5865 0.874463L13.2332 0.366338C13.113 0.355403 12.9924 0.349902 12.8717 0.349854L12.5624 0.65915L16.348 4.4447C16.1576 3.97923 16.2512 3.42493 16.629 3.04704C17.1316 2.54438 17.9465 2.54438 18.449 3.04696Z" fill="#006BFF"/>
</svg>
