<svg width="21" height="20" viewBox="0 0 21 20" fill="none" xmlns="http://www.w3.org/2000/svg">
<g clip-path="url(#clip0_10805_8334)">
<path d="M19.2852 17.457C19.1562 16.9766 18.9492 16.5312 18.6797 16.1367C18.9336 15.9883 19.1641 15.8047 19.3633 15.5781C19.8594 15.0039 20.0859 14.2734 20.0039 13.5117C19.9375 12.9531 19.2539 12.7188 18.8633 13.125L18.2148 13.7109C18.0039 13.8867 17.6602 13.9062 17.4375 13.6992C17.2148 13.5039 17.1602 13.1797 17.3047 12.9414L17.8047 12.2031C18.1562 11.7539 17.8125 11.1094 17.2617 11.1328C16.5117 11.1562 15.8008 11.4922 15.3086 12.0586C14.8008 12.6445 14.5781 13.4102 14.6758 14.1602L13.8281 14.0703C13.8125 14.0703 13.8008 14.0664 13.7852 14.0664C13.3008 14.0664 12.9062 13.6719 12.9062 13.1875V12.0781C13.9492 11.1445 14.9609 10.0117 14.9609 8.76562V6.45703H15.6523C15.8789 6.45703 16.0586 6.27344 16.0586 6.05078C16.0586 5.82812 15.875 5.64453 15.6523 5.64453H15.375C15.3008 3.71094 14.125 2.05859 12.4531 1.30469C12.4883 0.597656 11.9297 0 11.207 0H9.60547C8.87109 0 8.33203 0.617188 8.36719 1.30469C6.69531 2.05859 5.51953 3.71094 5.44531 5.64453H5.16406C4.9375 5.64453 4.75781 5.82812 4.75781 6.05078C4.75781 6.27344 4.94141 6.45703 5.16406 6.45703H5.85156V8.76562C5.85156 10.0156 6.87109 11.1484 7.91406 12.082V13.1875C7.91406 13.6719 7.51953 14.0664 7.03516 14.0664C7.01953 14.0664 7.00781 14.0664 6.99219 14.0703C5.67188 14.207 5.64453 14.2109 5.06641 14.2734C3.35938 14.5391 1.97266 15.7852 1.53125 17.4531L0.992188 19.4844C0.933594 19.7031 1.0625 19.9258 1.28125 19.9844C1.5 20.043 1.72266 19.9141 1.78125 19.6953L2.32031 17.6641C2.67188 16.3398 3.75781 15.3438 5.08594 15.1016V16.5938C4.46875 16.7656 3.95703 17.2305 3.73438 17.8516L3.16406 19.4531C3.08984 19.6641 3.19922 19.8984 3.41016 19.9727C3.62109 20.0469 3.85547 19.9375 3.92969 19.7266L4.5 18.125C4.66797 17.6523 5.12109 17.332 5.62109 17.332H12.2656L12.1367 17.4805C11.5898 18.1133 11.6562 19.0742 12.2891 19.625C12.9258 20.1758 13.8867 20.1016 14.4336 19.4727L16 17.6641C16.1328 17.7891 16.2383 17.9453 16.3008 18.125L16.8711 19.7266C16.9453 19.9375 17.1797 20.0508 17.3906 19.9727C17.6016 19.8984 17.7148 19.6641 17.6367 19.4531L17.0664 17.8516C16.9531 17.5352 16.7656 17.2656 16.5312 17.0469L17.0234 16.4805C17.3125 16.5156 17.5977 16.4961 17.8789 16.4375C18.1523 16.7969 18.3633 17.2109 18.4844 17.6641L19.0234 19.6953C19.082 19.9102 19.3047 20.043 19.5234 19.9844C19.7422 19.9258 19.8711 19.7031 19.8125 19.4844L19.2852 17.457ZM8.53125 2.13281L9.01172 4.29297C9.0625 4.51172 9.28125 4.65234 9.5 4.60156C9.71875 4.55078 9.85938 4.33594 9.80859 4.11328L9.1875 1.33203C9.12891 1.0625 9.33203 0.8125 9.60156 0.8125H11.2031C11.4766 0.8125 11.6836 1.07422 11.6172 1.33203L11.0078 4.11719C10.957 4.33594 11.0977 4.55469 11.3164 4.60547C11.5352 4.65625 11.7539 4.51562 11.8047 4.29688L12.2852 2.13672C13.582 2.79688 14.4883 4.11719 14.5586 5.65234H6.26172C6.32813 4.11328 7.23438 2.79297 8.53125 2.13281ZM6.67188 8.76953V6.46094H14.1406V8.76953C14.1406 10.0898 12.3633 11.4883 11.2852 12.3828C11.1875 12.4648 11.0625 12.5117 10.9336 12.5117H9.875C9.75 12.5117 9.625 12.4648 9.52344 12.3828C8.48438 11.5195 6.67188 10.0977 6.67188 8.76953ZM9.00391 13.0117C9.25 13.2148 9.55859 13.3281 9.87891 13.3281H10.9375C11.2539 13.3281 11.5664 13.2148 11.8125 13.0117C11.8398 12.9883 11.7109 13.0977 12.0898 12.7812V13.1914C12.0898 13.7852 12.3984 14.3086 12.8594 14.6094C11.2188 15.5898 9.60547 15.5898 7.96484 14.6094C8.42969 14.3047 8.73438 13.7852 8.73438 13.1914V12.7852C8.76172 12.8086 8.63672 12.7031 9.00391 13.0117ZM5.90625 16.5195V15.0078L6.92578 14.9023C8.08203 15.7461 9.24609 16.1719 10.4063 16.1719C11.5703 16.1719 12.7344 15.7461 13.8867 14.9023L14.3359 14.9492L12.9766 16.5195H5.90625ZM16.9609 15.6445C16.8164 15.6133 16.6641 15.6641 16.5664 15.7773L13.8242 18.9414C13.2148 19.6445 12.1562 18.7188 12.7617 18.0195L15.5 14.8555C15.5977 14.7422 15.625 14.5859 15.5742 14.4492C15.3438 13.8164 15.4766 13.1094 15.918 12.5977C16.1953 12.2773 16.5547 12.0703 16.9609 11.9883L16.6133 12.5078C16.2539 13.1016 16.375 13.8633 16.8984 14.3203C17.4141 14.7656 18.1797 14.7969 18.7461 14.332L19.1953 13.9258C19.1719 14.3398 19.0156 14.7266 18.7422 15.0469C18.3008 15.5508 17.6172 15.7852 16.9609 15.6445Z" fill="#909090"/>
</g>
<defs>
<clipPath id="clip0_10805_8334">
<rect width="20" height="20" fill="white" transform="translate(0.5)"/>
</clipPath>
</defs>
</svg>
