<svg width="21" height="20" viewBox="0 0 21 20" fill="none" xmlns="http://www.w3.org/2000/svg">
<g clip-path="url(#clip0_10027_1644)">
<path d="M19.8087 15.2305C19.1916 15.9453 18.2658 16.293 17.3634 16.1836L14.6408 19.3281C14.0627 19.9922 13.0587 20.0703 12.3869 19.4883C11.7228 18.9141 11.6486 17.9023 12.2267 17.2383L14.9494 14.0937C14.715 13.207 14.9337 12.2461 15.547 11.5391C16.0627 10.9414 16.8087 10.5859 17.5978 10.5664C18.1642 10.5352 18.5431 11.207 18.1681 11.6914L17.6486 12.4648C17.5002 12.7148 17.5509 13.0547 17.7892 13.2617C18.0353 13.4727 18.3869 13.4531 18.6056 13.2734L19.2853 12.6562C19.7033 12.2227 20.4103 12.4844 20.4845 13.0625C20.5705 13.8555 20.3322 14.625 19.8087 15.2305ZM15.7853 5.0625H15.5119C15.4337 3.08203 14.2267 1.38672 12.5119 0.609375C12.508 0.683594 12.5002 0.757812 12.4845 0.832031L11.8478 3.6875C11.797 3.91797 11.5666 4.06641 11.3361 4.01172C11.1056 3.96094 10.9572 3.73047 11.0119 3.5L11.6486 0.644531C11.7033 0.378906 11.5158 0.121094 11.2306 0.121094H9.58609C9.31265 0.121094 9.10171 0.375 9.16812 0.644531L9.80484 3.5C9.85562 3.73047 9.71109 3.96094 9.48062 4.01172C9.24234 4.05859 9.01968 3.91016 8.9689 3.6875L8.33218 0.832031C8.31656 0.757812 8.30484 0.683594 8.30484 0.609375C6.59 1.38672 5.38296 3.08203 5.30484 5.0625H5.0314C4.79312 5.0625 4.60171 5.25391 4.60171 5.49219C4.60171 5.72656 4.79312 5.92188 5.0314 5.92188H5.72671V8.28125C5.72671 9.54297 6.73843 10.6953 7.79312 11.6445V12.7266C7.79312 13.2383 7.35953 13.6211 6.86734 13.6523C6.85562 13.6523 6.98453 13.6367 5.45328 13.8008V16.5078H11.7306L14.0353 13.8516C14.0275 13.7891 14.0197 13.7227 14.0197 13.6602L14.0002 13.6562C13.9845 13.6523 13.9689 13.6523 13.9533 13.6523C13.4455 13.6523 13.0275 13.2383 13.0275 12.7266V11.6445C14.0822 10.6953 15.09 9.54297 15.09 8.28125V5.92188H15.7892C16.0275 5.92188 16.2189 5.73047 16.2189 5.49219C16.215 5.25391 16.0236 5.0625 15.7853 5.0625ZM13.2072 14.3438C11.3283 15.5078 9.48453 15.5078 7.60953 14.3398C8.2189 14.0586 8.64468 13.4375 8.64468 12.7227V12.3828C8.84781 12.5508 8.85953 12.5625 8.95718 12.6445C9.21109 12.8555 9.5314 12.9727 9.85953 12.9727H10.9455C11.2736 12.9727 11.5939 12.8555 11.8478 12.6445C12.2814 12.2852 12.1291 12.4102 12.1642 12.3828V12.7266C12.1681 13.4414 12.5939 14.0586 13.2072 14.3438ZM14.2306 8.27734C14.2306 9.64062 12.3752 11.0898 11.3048 11.9805C11.2072 12.0625 11.0783 12.1094 10.9494 12.1094H9.86343C9.73453 12.1094 9.60953 12.0625 9.50797 11.9805C8.42593 11.082 6.58218 9.63281 6.58218 8.27734V5.91797H14.2306V8.27734ZM19.883 19.8789H18.3712L17.6994 17.9531C17.633 17.7617 17.5392 17.5859 17.4259 17.4297L17.7462 17.0625C18.3712 17.0547 18.9806 16.8828 19.5119 16.5742C19.6017 16.7773 19.672 16.9883 19.7306 17.207L20.297 19.3398C20.3712 19.6016 20.1681 19.8789 19.883 19.8789ZM11.5705 19.8789H3.37125L3.92203 18.2422C4.10953 17.7266 4.59781 17.3633 5.25406 17.3633H11.1603C11.0197 17.707 10.9611 18.0781 10.9884 18.4609C11.0275 18.9883 11.2306 19.4805 11.5705 19.8789ZM17.4611 19.8789H15.3009L16.8322 18.1094C16.9142 18.2891 16.8439 18.1289 17.4611 19.8789ZM4.5939 16.5781V13.8984C2.89468 14.2422 1.5275 15.5156 1.08218 17.1992L0.511871 19.3359C0.441558 19.6211 0.64859 19.8789 0.925933 19.8789H2.45718L3.10953 17.9531C3.35562 17.2695 3.91812 16.7656 4.5939 16.5781Z" fill="#006BFF"/>
</g>
<defs>
<clipPath id="clip0_10027_1644">
<rect width="20" height="20" fill="white" transform="translate(0.5)"/>
</clipPath>
</defs>
</svg>
