<svg xmlns="http://www.w3.org/2000/svg" version="1.1" xmlns:xlink="http://www.w3.org/1999/xlink" width="512" height="512" x="0" y="0" viewBox="0 0 64 64" style="enable-background:new 0 0 512 512" xml:space="preserve" class=""><g><path fill="#0082aa" d="M18 46v4h-8v-3c0-.55.45-1 1-1s1 .45 1 1v-1c0-.55.45-1 1-1s1 .45 1 1v1c0-.55.45-1 1-1s1 .45 1 1v-1c0-.55.45-1 1-1s1 .45 1 1zM54 47v3h-8v-4c0-.55.45-1 1-1s1 .45 1 1v1c0-.55.45-1 1-1s1 .45 1 1v-1c0-.55.45-1 1-1s1 .45 1 1v1c0-.55.45-1 1-1s1 .45 1 1z" opacity="1" data-original="#0082aa"></path><path fill="#c80a50" d="M43 11h7v16h-7z" opacity="1" data-original="#c80a50"></path><path fill="#a00028" d="M43 11h7v2h-7z" opacity="1" data-original="#a00028"></path><path fill="#0a5078" d="M51 12h-9a1 1 0 0 1-1-1V9a1 1 0 0 1 1-1h9a1 1 0 0 1 1 1v2a1 1 0 0 1-1 1z" opacity="1" data-original="#0a5078" class=""></path><path fill="#a00028" d="M46 15c0 .55-.45 1-1 1h-2v-2h2c.55 0 1 .45 1 1zM50 18v2h-1c-.55 0-1-.45-1-1s.45-1 1-1z" opacity="1" data-original="#a00028"></path><path fill="#fab400" d="M50 26v30H14V26l18-14z" opacity="1" data-original="#fab400" class=""></path><path fill="#dc9600" d="M50 26v3.71c-.157-.079-17.861-13.753-18-13.86-.139.107-17.843 13.781-18 13.86V26l18-14z" opacity="1" data-original="#dc9600" class=""></path><path fill="#0a5078" d="M53.97 31c-.427 0-.856-.136-1.221-.416L32 14.584l-20.749 16a2.001 2.001 0 0 1-2.444-3.168l21.971-16.941a2 2 0 0 1 2.443 0l21.971 16.941A2.001 2.001 0 0 1 53.97 31z" opacity="1" data-original="#0a5078" class=""></path><path fill="#dc9600" d="M43 49a1 1 0 0 1-1 1h-2a1 1 0 0 1 0-2h2a1 1 0 0 1 1 1zM21 30a1 1 0 0 1-1 1h-2a1 1 0 0 1 0-2h2a1 1 0 0 1 1 1zM50 32v2h-1c-.55 0-1-.45-1-1s.45-1 1-1z" opacity="1" data-original="#dc9600" class=""></path><path fill="#0a5078" d="M55 53H9a1 1 0 0 0-1 1v1a1 1 0 0 0 1 1h46a1 1 0 0 0 1-1v-1a1 1 0 0 0-1-1z" opacity="1" data-original="#0a5078" class=""></path><path fill="#00a0c8" d="M18 49v4h-8v-3c0-.55.45-1 1-1s1 .45 1 1v-1c0-.55.45-1 1-1s1 .45 1 1v1c0-.55.45-1 1-1s1 .45 1 1v-1c0-.55.45-1 1-1s1 .45 1 1z" opacity="1" data-original="#00a0c8" class=""></path><g fill="#c80a50"><circle cx="13.5" cy="50.5" r=".5" fill="#c80a50" opacity="1" data-original="#c80a50"></circle><circle cx="16.5" cy="51.5" r=".5" fill="#c80a50" opacity="1" data-original="#c80a50"></circle><circle cx="11.5" cy="51.5" r=".5" fill="#c80a50" opacity="1" data-original="#c80a50"></circle></g><path fill="#00a0c8" d="M54 50v3h-8v-4c0-.55.45-1 1-1s1 .45 1 1v1c0-.55.45-1 1-1s1 .45 1 1v-1c0-.55.45-1 1-1s1 .45 1 1v1c0-.55.45-1 1-1s1 .45 1 1z" opacity="1" data-original="#00a0c8" class=""></path><circle cx="49.5" cy="50.5" r=".5" fill="#c80a50" opacity="1" data-original="#c80a50"></circle><circle cx="51.5" cy="51.5" r=".5" fill="#c80a50" opacity="1" data-original="#c80a50"></circle><circle cx="47.5" cy="51.5" r=".5" fill="#c80a50" opacity="1" data-original="#c80a50"></circle><path fill="#dc9600" d="M32.311 27.004C26.074 26.851 21 31.813 21 38c0 4.375 2.591 8.333 6.6 10.084a.992.992 0 0 0 1.316-.516.998.998 0 0 0-.516-1.316A9.006 9.006 0 0 1 23 38c0-5.11 4.229-9.151 9.256-8.996 4.689.13 8.61 4.051 8.74 8.74.129 4.644-3.378 8.684-7.996 9.193v-2.041c2.282-.476 4-2.55 4-5.037 0-2.187-2.968-6.599-4.33-8.509a.815.815 0 0 0-1.339 0C29.968 33.26 27 37.672 27 39.859c0 2.487 1.718 4.561 4 5.037v2.041c0 .568.243 1.112.668 1.492a2.025 2.025 0 0 0 1.569.502c5.629-.631 9.916-5.568 9.76-11.242-.16-5.733-4.953-10.526-10.686-10.685z" opacity="1" data-original="#dc9600" class=""></path><path fill="#00a0c8" d="M37 38.859C37 41.698 34.761 44 32 44s-5-2.302-5-5.141c0-2.187 2.968-6.599 4.33-8.509a.815.815 0 0 1 1.339 0C34.032 32.26 37 36.672 37 38.859z" opacity="1" data-original="#00a0c8" class=""></path><path fill="#0a5078" d="M33.014 47.943c-.493 0-.974-.182-1.346-.514A2 2 0 0 1 31 45.938V36a1 1 0 1 1 2 0v9.938c4.618-.51 8.125-4.55 7.996-9.193-.13-4.689-4.051-8.61-8.74-8.74a8.928 8.928 0 0 0-6.53 2.544A8.926 8.926 0 0 0 23 37c0 3.58 2.12 6.818 5.4 8.252a1 1 0 0 1-.8 1.832A11.003 11.003 0 0 1 21 37c0-2.996 1.183-5.797 3.331-7.886a10.97 10.97 0 0 1 7.979-3.11c5.733.159 10.526 4.952 10.686 10.686.156 5.674-4.131 10.611-9.76 11.242a2.357 2.357 0 0 1-.222.011z" opacity="1" data-original="#0a5078" class=""></path></g></svg>