<svg width="21" height="20" viewBox="0 0 21 20" fill="none" xmlns="http://www.w3.org/2000/svg">
<g clip-path="url(#clip0_10805_8472)">
<path fill-rule="evenodd" clip-rule="evenodd" d="M18.6394 1.6279V19.3022C18.6393 19.4291 18.6046 19.5536 18.5391 19.6623C18.4735 19.771 18.3795 19.8597 18.2673 19.9189C18.1551 19.9783 18.0288 20.0058 17.902 19.9986C17.7753 19.9914 17.653 19.9497 17.5482 19.878L15.2273 18.2939L13.0329 19.8687C12.7696 20.0585 12.4105 20.0408 12.1668 19.8269L10.4998 18.3692L8.83287 19.8269C8.58915 20.0408 8.23009 20.0585 7.96685 19.8687L5.77243 18.2939L3.45153 19.878C3.34676 19.9497 3.22441 19.9914 3.09768 19.9986C2.97095 20.0058 2.84466 19.9783 2.73244 19.9189C2.62019 19.8597 2.52622 19.771 2.46066 19.6623C2.39509 19.5536 2.36041 19.4291 2.36035 19.3022V1.6279C2.36039 0.729298 3.08874 0 3.98829 0H17.0115C17.911 0 18.6394 0.729298 18.6394 1.6279ZM17.244 1.6279C17.244 1.56623 17.2195 1.50709 17.1759 1.46348C17.1323 1.41987 17.0731 1.39536 17.0115 1.39534H3.98829C3.92661 1.39536 3.86747 1.41987 3.82387 1.46348C3.78026 1.50709 3.75575 1.56623 3.75573 1.6279V17.9813L5.38921 16.866C5.50736 16.7852 5.64754 16.7427 5.79067 16.7444C5.93381 16.746 6.07297 16.7917 6.1892 16.8753L8.33059 18.4129L10.0403 16.9171C10.1675 16.8056 10.3308 16.7441 10.4999 16.7441C10.669 16.7441 10.8323 16.8056 10.9594 16.9171L12.6692 18.4129L14.8106 16.8753C14.9268 16.7917 15.0659 16.746 15.2091 16.7444C15.3522 16.7427 15.4924 16.7852 15.6105 16.866L17.244 17.9813V1.6279Z" fill="#909090"/>
<path fill-rule="evenodd" clip-rule="evenodd" d="M6.77873 5.11626C6.39361 5.11626 6.08105 4.8037 6.08105 4.41859C6.08105 4.03347 6.39361 3.72092 6.77873 3.72092H14.2205C14.6057 3.72092 14.9182 4.03347 14.9182 4.41859C14.9182 4.8037 14.6057 5.11626 14.2205 5.11626H6.77873ZM6.77873 8.83717C6.39361 8.83717 6.08105 8.52461 6.08105 8.1395C6.08105 7.75438 6.39361 7.44183 6.77873 7.44183H14.2205C14.6057 7.44183 14.9182 7.75438 14.9182 8.1395C14.9182 8.52461 14.6057 8.83717 14.2205 8.83717H6.77873ZM6.77873 12.5581C6.39361 12.5581 6.08105 12.2455 6.08105 11.8604C6.08105 11.4753 6.39361 11.1627 6.77873 11.1627H10.4996C10.8848 11.1627 11.1973 11.4753 11.1973 11.8604C11.1973 12.2455 10.8848 12.5581 10.4996 12.5581H6.77873Z" fill="#909090"/>
</g>
<defs>
<clipPath id="clip0_10805_8472">
<rect width="20" height="20" fill="white" transform="translate(0.5)"/>
</clipPath>
</defs>
</svg>
