<svg width="20" height="20" viewBox="0 0 20 20" fill="none" xmlns="http://www.w3.org/2000/svg">
<g clip-path="url(#clip0_10805_7307)">
<path fill-rule="evenodd" clip-rule="evenodd" d="M5.36442e-07 4C5.96046e-07 2.89543 0.895431 2 2 2L18 2C19.1046 2 20 2.89543 20 4V16C20 17.1046 19.1046 18 18 18H2C0.895432 18 0 17.1046 0 16L5.36442e-07 4ZM2 7V8H18V7H2ZM18 5H2V4L18 4V5ZM18 10H2L2 16H18V10ZM4 12H9V14H4V12ZM13 12H16V14H13V12Z" fill="#909090"/>
</g>
<defs>
<clipPath id="clip0_10805_7307">
<rect width="20" height="20" fill="white"/>
</clipPath>
</defs>
</svg>
