<svg width="21" height="20" viewBox="0 0 21 20" fill="none" xmlns="http://www.w3.org/2000/svg">
<g clip-path="url(#clip0_10805_8352)">
<path d="M10.75 10C11.7389 10 12.7056 9.70676 13.5279 9.15735C14.3501 8.60794 14.991 7.82705 15.3694 6.91342C15.7478 5.99979 15.8469 4.99446 15.6539 4.02455C15.461 3.05465 14.9848 2.16373 14.2855 1.46447C13.5863 0.765206 12.6954 0.289002 11.7255 0.0960758C10.7555 -0.0968503 9.75021 0.00216643 8.83658 0.380605C7.92295 0.759043 7.14206 1.39991 6.59265 2.22215C6.04324 3.0444 5.75 4.0111 5.75 5C5.75132 6.32568 6.27853 7.59668 7.21593 8.53407C8.15332 9.47147 9.42432 9.99868 10.75 10ZM10.75 1.66667C11.4093 1.66667 12.0537 1.86217 12.6019 2.22844C13.1501 2.59471 13.5773 3.1153 13.8296 3.72439C14.0819 4.33348 14.1479 5.0037 14.0193 5.6503C13.8907 6.29691 13.5732 6.89085 13.107 7.35703C12.6408 7.8232 12.0469 8.14067 11.4003 8.26929C10.7537 8.3979 10.0835 8.33189 9.47439 8.0796C8.8653 7.82731 8.34471 7.40007 7.97843 6.8519C7.61216 6.30374 7.41667 5.65927 7.41667 5C7.41667 4.11595 7.76786 3.2681 8.39298 2.64298C9.0181 2.01786 9.86594 1.66667 10.75 1.66667Z" fill="#909090"/>
<path d="M10.75 11.6667C8.76155 11.669 6.85518 12.4598 5.44914 13.8659C4.04309 15.2719 3.25221 17.1783 3.25 19.1667C3.25 19.3878 3.3378 19.5997 3.49408 19.756C3.65036 19.9123 3.86232 20.0001 4.08333 20.0001C4.30435 20.0001 4.51631 19.9123 4.67259 19.756C4.82887 19.5997 4.91667 19.3878 4.91667 19.1667C4.91667 17.6197 5.53125 16.1359 6.62521 15.042C7.71917 13.948 9.2029 13.3334 10.75 13.3334C12.2971 13.3334 13.7808 13.948 14.8748 15.042C15.9688 16.1359 16.5833 17.6197 16.5833 19.1667C16.5833 19.3878 16.6711 19.5997 16.8274 19.756C16.9837 19.9123 17.1957 20.0001 17.4167 20.0001C17.6377 20.0001 17.8496 19.9123 18.0059 19.756C18.1622 19.5997 18.25 19.3878 18.25 19.1667C18.2478 17.1783 17.4569 15.2719 16.0509 13.8659C14.6448 12.4598 12.7384 11.669 10.75 11.6667Z" fill="#909090"/>
</g>
<defs>
<clipPath id="clip0_10805_8352">
<rect width="20" height="20" fill="white" transform="translate(0.75)"/>
</clipPath>
</defs>
</svg>
