<svg width="21" height="20" viewBox="0 0 21 20" fill="none" xmlns="http://www.w3.org/2000/svg">
<g clip-path="url(#clip0_10805_6255)">
<path d="M10.25 0C7.59872 0.00286757 5.05684 1.05736 3.1821 2.9321C1.30736 4.80684 0.252868 7.34872 0.25 10C0.75 23.25 19.75 23.2442 20.25 10C20.2471 7.34872 19.1926 4.80684 17.3179 2.9321C15.4432 1.05736 12.9013 0.00286757 10.25 0ZM10.25 18.3333C8.04061 18.3309 5.9224 17.4522 4.36012 15.8899C2.79785 14.3276 1.91909 12.2094 1.91667 10C2.33333 -1.04 18.1667 -1.0375 18.5833 10C18.5809 12.2094 17.7022 14.3276 16.1399 15.8899C14.5776 17.4522 12.4594 18.3309 10.25 18.3333ZM10.25 3.33333C8.4825 3.33532 6.78796 4.03833 5.53815 5.28815C4.28833 6.53796 3.58532 8.2325 3.58333 10C3.89667 18.8233 16.605 18.8208 16.9167 10C16.9147 8.2325 16.2117 6.53796 14.9619 5.28815C13.712 4.03833 12.0175 3.33532 10.25 3.33333ZM9.555 10.905C9.53739 10.6758 9.4972 10.4488 9.435 10.2275C9.37242 10.0077 9.2887 9.79448 9.185 9.59083C9.58732 9.4327 9.95064 9.18935 10.25 8.8775C10.5486 9.18905 10.9111 9.43238 11.3125 9.59083C11.2088 9.79448 11.1251 10.0077 11.0625 10.2275C11.0003 10.4488 10.9601 10.6758 10.9425 10.905C10.4848 10.8103 10.0127 10.8103 9.555 10.905ZM14.5167 7.395L12.9083 8.03833C12.7064 8.11845 12.4879 8.148 12.2719 8.12441C12.0559 8.10083 11.849 8.02481 11.6691 7.90298C11.4891 7.78116 11.3417 7.61721 11.2397 7.42541C11.1376 7.23361 11.0839 7.01977 11.0833 6.8025V5.07C11.7883 5.19022 12.4595 5.45989 13.0516 5.86091C13.6438 6.26192 14.1433 6.78499 14.5167 7.395ZM9.41667 5.07V6.8025C9.41609 7.01977 9.36243 7.23361 9.26034 7.42541C9.15826 7.61721 9.01085 7.78116 8.83095 7.90298C8.65104 8.02481 8.44409 8.10083 8.2281 8.12441C8.01211 8.148 7.79363 8.11845 7.59167 8.03833L5.98333 7.395C6.35666 6.78499 6.85619 6.26192 7.44836 5.86091C8.04054 5.45989 8.71166 5.19022 9.41667 5.07ZM5.25 10C5.24999 9.64451 5.28771 9.29003 5.3625 8.9425L6.77917 9.51C7.03174 9.61078 7.25776 9.76829 7.43974 9.97037C7.62172 10.1724 7.75479 10.4137 7.82866 10.6754C7.90252 10.9371 7.91521 11.2123 7.86573 11.4797C7.81626 11.7471 7.70595 11.9995 7.54333 12.2175L6.62667 13.4417C5.74216 12.5142 5.2491 11.2816 5.25 10ZM7.95917 14.4433L8.91667 13.1667C9.07735 12.9678 9.28048 12.8074 9.51119 12.6972C9.74189 12.587 9.99433 12.5298 10.25 12.5298C10.5057 12.5298 10.7581 12.587 10.9888 12.6972C11.2195 12.8074 11.4227 12.9678 11.5833 13.1667L12.5408 14.4425C11.8316 14.8049 11.0466 14.994 10.2501 14.9941C9.45364 14.9943 8.66851 14.8055 7.95917 14.4433ZM13.8758 13.4433L13.3292 12.7158L12.9608 12.2242C12.7972 12.0063 12.6859 11.7536 12.6357 11.4857C12.5855 11.2179 12.5977 10.9421 12.6714 10.6797C12.7451 10.4173 12.8782 10.1755 13.0605 9.97291C13.2428 9.77034 13.4693 9.61251 13.7225 9.51167L15.1392 8.94417C15.3084 9.74029 15.2817 10.5656 15.0612 11.3491C14.8407 12.1326 14.433 12.8507 13.8733 13.4417L13.8758 13.4433Z" fill="#909090"/>
</g>
<defs>
<clipPath id="clip0_10805_6255">
<rect width="20" height="20" fill="white" transform="translate(0.25)"/>
</clipPath>
</defs>
</svg>
