<svg width="41" height="33" viewBox="0 0 41 33" fill="none" xmlns="http://www.w3.org/2000/svg">
<path d="M4.5 2.83337H6.16667V12H4.5V2.83337Z" fill="#90A4AE"/>
<path d="M2 23.6667H27V28.6667H2V23.6667Z" fill="#004CB5"/>
<path d="M0.333344 21.1667H25.3333V23.6667H0.333344V21.1667Z" fill="#006BFF"/>
<path d="M10.3334 32.8333C12.6345 32.8333 14.5 30.9679 14.5 28.6667C14.5 26.3655 12.6345 24.5 10.3334 24.5C8.03217 24.5 6.16669 26.3655 6.16669 28.6667C6.16669 30.9679 8.03217 32.8333 10.3334 32.8333Z" fill="#37474F"/>
<path d="M10.3333 31.1667C11.7141 31.1667 12.8333 30.0475 12.8333 28.6667C12.8333 27.286 11.7141 26.1667 10.3333 26.1667C8.95263 26.1667 7.83334 27.286 7.83334 28.6667C7.83334 30.0475 8.95263 31.1667 10.3333 31.1667Z" fill="#90A4AE"/>
<path d="M10.3333 29.5C10.7936 29.5 11.1667 29.1269 11.1667 28.6667C11.1667 28.2065 10.7936 27.8334 10.3333 27.8334C9.8731 27.8334 9.5 28.2065 9.5 28.6667C9.5 29.1269 9.8731 29.5 10.3333 29.5Z" fill="#607D8B"/>
<path d="M2 25.3334H4.5V27H2V25.3334Z" fill="#F44336"/>
<path d="M38.6667 28.6667H22.8333V9.50004C22.8333 9.05801 23.0089 8.63409 23.3215 8.32153C23.6341 8.00897 24.058 7.83337 24.5 7.83337H31.9692C32.4949 7.83334 33.0132 7.95766 33.4818 8.1962C33.9503 8.43473 34.3557 8.78071 34.665 9.20587L39.6958 16.1234C40.11 16.6934 40.3333 17.3792 40.3333 18.0842V27C40.3333 27.4421 40.1577 27.866 39.8452 28.1786C39.5326 28.4911 39.1087 28.6667 38.6667 28.6667Z" fill="#006BFF"/>
<path d="M30.3334 32.8333C32.6345 32.8333 34.5 30.9679 34.5 28.6667C34.5 26.3655 32.6345 24.5 30.3334 24.5C28.0322 24.5 26.1667 26.3655 26.1667 28.6667C26.1667 30.9679 28.0322 32.8333 30.3334 32.8333Z" fill="#37474F"/>
<path d="M30.3333 31.1667C31.7141 31.1667 32.8333 30.0475 32.8333 28.6667C32.8333 27.286 31.7141 26.1667 30.3333 26.1667C28.9526 26.1667 27.8333 27.286 27.8333 28.6667C27.8333 30.0475 28.9526 31.1667 30.3333 31.1667Z" fill="#90A4AE"/>
<path d="M30.3333 29.5C30.7936 29.5 31.1667 29.1269 31.1667 28.6667C31.1667 28.2065 30.7936 27.8334 30.3333 27.8334C29.8731 27.8334 29.5 28.2065 29.5 28.6667C29.5 29.1269 29.8731 29.5 30.3333 29.5Z" fill="#607D8B"/>
<path d="M4.97835 1.12589C4.628 1.35967 4.38302 1.72125 4.29581 2.13332C4.2086 2.54538 4.28608 2.97521 4.51168 3.33089L14.5 19.0517V22.0001H21.1667V17.8334L7.09585 1.41755C6.83948 1.11863 6.48253 0.923917 6.09241 0.870181C5.70229 0.816446 5.30599 0.907406 4.97835 1.12589Z" fill="#006BFF"/>
<path d="M3.25001 18.6667C1.64168 18.6667 0.333344 17.3584 0.333344 15.7501C0.333344 15.0867 0.56251 14.4367 0.978344 13.9209C1.04645 13.8341 1.13113 13.7616 1.22748 13.7077C1.32382 13.6539 1.42991 13.6197 1.53957 13.6071C1.64924 13.5946 1.7603 13.604 1.86631 13.6348C1.97232 13.6655 2.07117 13.717 2.1571 13.7863C2.24304 13.8556 2.31436 13.9412 2.36692 14.0383C2.41949 14.1353 2.45224 14.2419 2.46329 14.3517C2.47434 14.4615 2.46345 14.5724 2.43128 14.678C2.3991 14.7836 2.34626 14.8818 2.27584 14.9667C2.1288 15.1506 2.03661 15.3723 2.00986 15.6062C1.98311 15.8401 2.02289 16.0769 2.12462 16.2892C2.22635 16.5016 2.38592 16.6809 2.58499 16.8067C2.78406 16.9324 3.01456 16.9994 3.25001 17.0001C3.93918 17.0001 4.50001 16.4392 4.50001 15.7501V12.0001C4.50001 11.7791 4.58781 11.5671 4.74409 11.4108C4.90037 11.2545 5.11233 11.1667 5.33334 11.1667C5.55436 11.1667 5.76632 11.2545 5.9226 11.4108C6.07888 11.5671 6.16668 11.7791 6.16668 12.0001V15.7501C6.16668 17.3584 4.85834 18.6667 3.25001 18.6667Z" fill="#607D8B"/>
<path d="M5.33334 13.25C6.0237 13.25 6.58334 12.6904 6.58334 12C6.58334 11.3096 6.0237 10.75 5.33334 10.75C4.64299 10.75 4.08334 11.3096 4.08334 12C4.08334 12.6904 4.64299 13.25 5.33334 13.25Z" fill="#607D8B"/>
<path d="M30.3334 5.33337H27C26.779 5.33337 26.567 5.42117 26.4108 5.57745C26.2545 5.73373 26.1667 5.94569 26.1667 6.16671V7.00004C26.1667 7.22105 26.2545 7.43302 26.4108 7.5893C26.567 7.74558 26.779 7.83337 27 7.83337H30.3334C30.5544 7.83337 30.7663 7.74558 30.9226 7.5893C31.0789 7.43302 31.1667 7.22105 31.1667 7.00004V6.16671C31.1667 5.94569 31.0789 5.73373 30.9226 5.57745C30.7663 5.42117 30.5544 5.33337 30.3334 5.33337Z" fill="#F44336"/>
<path d="M27.8333 6.16675H29.5V7.83341H27.8333V6.16675Z" fill="#EF9A9A"/>
<path d="M29.5 9.5H32.3142C32.5757 9.49998 32.8336 9.56153 33.067 9.67966C33.3004 9.79779 33.5027 9.9692 33.6575 10.18L38.3433 16.56C38.5534 16.8461 38.6667 17.1917 38.6667 17.5467V18.6667C38.6667 19.1087 38.4911 19.5326 38.1785 19.8452C37.866 20.1577 37.442 20.3333 37 20.3333H33.6667L31.1667 17.8333H29.5C29.279 17.8333 29.067 17.7455 28.9107 17.5893C28.7545 17.433 28.6667 17.221 28.6667 17V10.3333C28.6667 10.1123 28.7545 9.90036 28.9107 9.74408C29.067 9.5878 29.279 9.5 29.5 9.5ZM25.3333 17.8333H26.1667C26.3877 17.8333 26.5996 17.7455 26.7559 17.5893C26.9122 17.433 27 17.221 27 17V10.3333C27 10.1123 26.9122 9.90036 26.7559 9.74408C26.5996 9.5878 26.3877 9.5 26.1667 9.5H25.3333C25.1123 9.5 24.9004 9.5878 24.7441 9.74408C24.5878 9.90036 24.5 10.1123 24.5 10.3333V17C24.5 17.221 24.5878 17.433 24.7441 17.5893C24.9004 17.7455 25.1123 17.8333 25.3333 17.8333Z" fill="#37474F"/>
<path d="M37.8333 22H39.5V24.5H37.8333V22Z" fill="#E3F2FD"/>
<path d="M37 24.5H37.8334V22H37C36.779 22 36.567 22.0878 36.4108 22.2441C36.2545 22.4004 36.1667 22.6123 36.1667 22.8333V23.6667C36.1667 23.8877 36.2545 24.0996 36.4108 24.2559C36.567 24.4122 36.779 24.5 37 24.5Z" fill="#FF5722"/>
</svg>
